<svg preserveAspectRatio="none" viewBox="0 0 475 386" fill="none" xmlns="http://www.w3.org/2000/svg"><path style="mix-blend-mode:multiply" opacity=".6" d="M330.686 9.746L313.5 26.932l92.436 92.436 17.186-17.186-92.436-92.436z" fill="url(#paint0_linear_9_848)"/><path d="M147.135 336.219H0v-24.304h147.135c5.42 0 7.614-3.882 8.306-5.553.693-1.671 1.884-5.967-1.95-9.801L98.68 241.75c-6.289-6.288-9.752-14.649-9.752-23.544 0-8.895 3.463-17.256 9.752-23.544L283.595 9.752C289.884 3.463 298.244 0 307.14 0c8.895 0 17.255 3.463 23.544 9.752l92.44 92.44-17.183 17.182-92.44-92.44a8.944 8.944 0 00-6.355-2.63 8.94 8.94 0 00-6.356 2.63L115.869 211.858a8.93 8.93 0 00-2.631 6.355c0 2.4.935 4.66 2.631 6.355l54.811 54.812c9.703 9.703 12.468 23.605 7.218 36.285-5.25 12.681-17.037 20.555-30.763 20.555z" fill="#499AFA"/><path d="M425.317 121.598h-58.748c-5.031 0-9.114-4.083-9.114-9.114 0-5.031 4.083-9.114 9.114-9.114h40.52V62.85c0-5.031 4.083-9.114 9.114-9.114 5.031 0 9.114 4.083 9.114 9.114v58.748z" fill="#499AFA"/><path d="M468.967 230.461L319.383 380.045c-6.763 6.763-17.73 6.763-24.492 0L145.307 230.461c-6.763-6.763-6.763-17.73 0-24.492L294.891 56.385c6.762-6.763 17.729-6.763 24.492 0l149.584 149.584c6.762 6.762 6.762 17.729 0 24.492z" fill="#E6E6E5"/><path d="M246.915 224.731h-10.639v-13.956h3.518v11.356h7.121v2.6zm8.245.183c-4.831 0-7.96-3.5-7.96-7.139 0-3.251 2.704-7.182 8.02-7.182 4.934 0 8.002 3.542 8.002 7.182 0 3.232-2.637 7.139-8.062 7.139zm.042-11.356c-2.497 0-4.381 1.513-4.381 4.277 0 3.336 2.741 4.253 4.399 4.253 2.23 0 4.399-1.47 4.399-4.234 0-2.601-1.695-4.296-4.417-4.296zm15.652-2.783c1.27 0 2.54 0 3.664.699.735.492 1.822 1.634 1.822 3.293 0 2.333-1.798 3.153-2.394 3.439 1.003.492 1.696 1.902 2.006 2.619.388.796.984 2.108 1.348 2.904l.468 1.002h-3.828c-.309-.613-1.513-3.378-1.798-3.931-.942-1.762-1.635-1.762-2.619-1.762h-.51v5.687h-3.518v-13.956h5.359v.006zm-1.841 2.534v3.19h1.452c.899-.043 1.124-.043 1.495-.243.51-.268.759-.778.759-1.349 0-1.598-1.555-1.598-1.944-1.598h-1.762zm20.664 11.422h-10.293v-13.956h10.147v2.6h-6.629v2.826h6.325v2.618h-6.325v3.354h6.775v2.558zm17.7 0h-3.518v-8.53l-3.743 4.502h-.51l-3.743-4.502v8.53h-3.518v-13.956h3.086l4.418 5.298 4.478-5.298h3.05v13.956zm12.315 0h-3.518v-13.956h3.518v13.956zm8.817-13.956c.899 0 1.986 0 3.05.571a4.07 4.07 0 012.126 3.561 4.17 4.17 0 01-2.005 3.56c-1.063.656-2.151.656-3.293.656h-2.066v5.608h-3.518v-13.956h5.712-.006zm-2.188 2.576v3.214h1.149c1.124 0 2.618 0 2.618-1.634 0-1.635-1.537-1.574-2.539-1.574h-1.228v-.006zm19.128 1.191c-.96-.468-2.698-1.349-4.478-1.349-2.048 0-2.109 1.003-2.109 1.148 0 .839 1.373 1.331 3.378 2.048 1.763.632 3.847 1.701 3.847 4.399 0 3.232-3.379 4.132-5.463 4.132-2.351 0-4.581-1.106-4.933-1.349v-3.008c1.209.76 2.801 1.738 4.848 1.738.45 0 2.09-.018 2.09-1.27 0-.917-.796-1.209-2.637-1.841-2.005-.699-4.544-1.677-4.544-4.624 0-2.126 1.78-3.967 5.28-3.967 1.105 0 2.497.121 4.727 1.087v2.862l-.006-.006zm16.878 3.822c0 1.106-.018 2.843-1.209 4.296-1.434 1.719-3.724 2.248-5.875 2.248-1.082 0-3.992-.043-5.869-2.473-.553-.735-1.064-1.72-1.064-3.968v-7.692h3.518v6.914c0 .572 0 1.392.243 2.17.45 1.555 1.86 2.248 3.233 2.248 2.023 0 2.965-1.331 3.25-2.048.243-.614.243-1.148.243-2.376v-6.914h3.518v7.589l.012.006zm18.046 6.367h-3.518v-8.53l-3.743 4.502h-.51l-3.743-4.502v8.53h-3.518v-13.956h3.087l4.417 5.298 4.478-5.298h3.05v13.956z" fill="#fff"/><path d="M461.797 230.461L319.389 372.869c-6.763 6.763-17.73 6.763-24.492 0L152.488 230.461c-6.762-6.762-6.762-17.73 0-24.492L294.897 63.561c6.762-6.763 17.729-6.763 24.492 0l142.408 142.408c6.763 6.762 6.763 17.73 0 24.492z" fill="#fff"/><defs><linearGradient id="paint0_linear_9_848" x1="389.985" y1="90.262" x2="418.342" y2="123.887" gradientUnits="userSpaceOnUse"><stop stop-color="#231F20"/><stop offset="1"/></linearGradient></defs></svg>