<svg preserveAspectRatio="none" viewBox="0 0 476 386" fill="none" xmlns="http://www.w3.org/2000/svg"><path d="M148.116 336.219H.981v-24.304h147.135c5.42 0 7.613-3.882 8.306-5.553.693-1.671 1.883-5.967-1.95-9.801L99.66 241.75c-6.288-6.288-9.752-14.649-9.752-23.544 0-8.895 3.464-17.256 9.752-23.544L284.576 9.752C290.865 3.463 299.225 0 308.12 0c8.896 0 17.256 3.463 23.545 9.752l92.439 92.44-17.182 17.182-92.44-92.44a8.946 8.946 0 00-6.356-2.63c-2.4 0-4.66.936-6.355 2.63L116.849 211.858a8.934 8.934 0 00-2.631 6.355c0 2.4.936 4.66 2.631 6.355l54.811 54.812c9.704 9.703 12.468 23.605 7.219 36.285-5.25 12.681-17.037 20.555-30.763 20.555z" fill="#499AFA"/><path style="mix-blend-mode:multiply" opacity=".6" d="M331.666 9.746l-17.185 17.186 92.436 92.436 17.185-17.186-92.436-92.436z" fill="url(#paint0_linear_9_868)"/><path d="M469.948 230.461L320.364 380.045c-6.763 6.763-17.73 6.763-24.493 0L146.287 230.461c-6.762-6.763-6.762-17.73 0-24.492L295.871 56.385c6.763-6.763 17.73-6.763 24.493 0l149.584 149.584c6.762 6.762 6.762 17.729 0 24.492z" fill="#E6E6E5"/><path d="M462.778 230.461L320.369 372.869c-6.762 6.763-17.729 6.763-24.492 0L153.469 230.461c-6.763-6.762-6.763-17.73 0-24.492L295.877 63.561c6.763-6.763 17.73-6.763 24.492 0l142.409 142.408c6.762 6.762 6.762 17.73 0 24.492z" fill="#fff"/><path d="M426.298 121.598h-58.749c-5.03 0-9.113-4.083-9.113-9.114 0-5.031 4.083-9.114 9.113-9.114h40.521V62.85c0-5.031 4.083-9.114 9.114-9.114 5.031 0 9.114 4.083 9.114 9.114v58.748z" fill="#499AFA"/><path d="M247.895 224.731h-10.639v-13.956h3.518v11.356h7.121v2.6zm8.245.183c-4.83 0-7.959-3.5-7.959-7.14 0-3.25 2.704-7.181 8.02-7.181 4.934 0 8.002 3.542 8.002 7.181 0 3.233-2.637 7.14-8.063 7.14zm.043-11.356c-2.497 0-4.381 1.513-4.381 4.277 0 3.336 2.74 4.253 4.399 4.253 2.23 0 4.399-1.47 4.399-4.235 0-2.6-1.695-4.295-4.417-4.295zm15.651-2.783c1.27 0 2.54 0 3.664.699.735.492 1.823 1.634 1.823 3.293 0 2.333-1.798 3.153-2.394 3.439 1.003.492 1.695 1.902 2.005 2.619.389.796.985 2.108 1.349 2.904l.468 1.002h-3.828c-.31-.613-1.513-3.378-1.798-3.931-.942-1.762-1.635-1.762-2.619-1.762h-.511v5.687h-3.518v-13.956h5.359v.006zm-1.841 2.534v3.19h1.453c.899-.043 1.124-.043 1.494-.243.511-.268.76-.778.76-1.349 0-1.598-1.556-1.598-1.944-1.598h-1.763zm20.665 11.422h-10.293v-13.956h10.147v2.6h-6.629v2.826h6.325v2.618h-6.325v3.354h6.775v2.558zm17.699 0h-3.518v-8.53l-3.742 4.502h-.511l-3.743-4.502v8.53h-3.518v-13.956h3.087l4.417 5.298 4.478-5.298h3.05v13.956zm12.316 0h-3.518v-13.956h3.518v13.956zm8.816-13.956c.899 0 1.987 0 3.05.571a4.07 4.07 0 012.127 3.56c0 1.453-.76 2.801-2.005 3.561-1.063.656-2.151.656-3.293.656h-2.066v5.608h-3.518v-13.956h5.711-.006zm-2.187 2.576v3.214h1.148c1.124 0 2.619 0 2.619-1.634 0-1.635-1.537-1.574-2.54-1.574h-1.227v-.006zm19.127 1.191c-.96-.468-2.697-1.349-4.478-1.349-2.047 0-2.108 1.003-2.108 1.148 0 .839 1.373 1.331 3.378 2.048 1.762.632 3.846 1.701 3.846 4.399 0 3.232-3.378 4.132-5.462 4.132-2.351 0-4.581-1.106-4.934-1.349v-3.008c1.209.76 2.801 1.738 4.849 1.738.45 0 2.09-.018 2.09-1.27 0-.917-.796-1.209-2.637-1.841-2.005-.699-4.545-1.677-4.545-4.624 0-2.126 1.781-3.967 5.28-3.967 1.106 0 2.497.121 4.727 1.087v2.862l-.006-.006zm16.879 3.822c0 1.106-.018 2.843-1.209 4.296-1.434 1.719-3.725 2.248-5.875 2.248-1.082 0-3.992-.043-5.87-2.473-.553-.735-1.063-1.72-1.063-3.968v-7.692h3.518v6.914c0 .572 0 1.392.243 2.17.45 1.555 1.859 2.248 3.232 2.248 2.024 0 2.965-1.331 3.251-2.048.243-.614.243-1.148.243-2.376v-6.914h3.518v7.589l.012.006zm18.046 6.367h-3.518v-8.53l-3.743 4.502h-.511l-3.742-4.502v8.53h-3.518v-13.956h3.086l4.418 5.298 4.477-5.298h3.051v13.956z" fill="#fff"/><defs><linearGradient id="paint0_linear_9_868" x1="390.966" y1="90.262" x2="419.322" y2="123.887" gradientUnits="userSpaceOnUse"><stop stop-color="#231F20"/><stop offset="1"/></linearGradient></defs></svg>