<svg width="27" height="35" fill="none" xmlns="http://www.w3.org/2000/svg"><g clip-path="url(#clip0_9_637)"><path d="M26.547 13.017c0 1.187-.159 2.337-.457 3.43-1.456 5.346-6.235 9.322-11.98 9.573a12.98 12.98 0 01-.58.013C6.343 26.033.514 20.206.514 13.017.514 5.827 6.342 0 13.53 0s13.016 5.828 13.016 13.017z" fill="#F50"/><path d="M26.09 16.447c-1.456 5.346-6.235 9.322-11.979 9.573l-6.34-7.527-.612-2.756.024-2.054 2.046-4.409 1.845-1.15 2.114.193 3.01-.41 9.892 8.54z" fill="#CCC"/><path d="M19.482 27.962H7.58c-1.64 0-2.969 1.175-2.969 2.623v1.791c0 1.45 1.33 2.624 2.969 2.624h11.9c1.64 0 2.969-1.175 2.969-2.624v-1.79c0-1.45-1.33-2.624-2.968-2.624z" fill="#F50"/><path d="M13.807 21.399c-3.946.152-7.28-2.934-7.432-6.88-.152-3.945 2.934-7.279 6.88-7.43 3.945-.153 7.279 2.933 7.43 6.879.153 3.945-2.933 7.28-6.878 7.431zm-.501-12.987A5.842 5.842 0 007.7 14.468a5.842 5.842 0 006.056 5.606 5.842 5.842 0 005.606-6.056 5.841 5.841 0 00-6.056-5.606z" fill="#fff"/><path d="M18.816 7.067l-1.479 1.598.973.9 1.479-1.597-.973-.9zm-10.901.422l-.9.972 1.598 1.48.9-.973-1.598-1.48zm6.061-2.029l-1.565.06.087 2.26 1.565-.06-.087-2.26z" fill="#fff"/><path d="M15.181 4.63l-4.036.155.06 1.565 4.036-.156-.06-1.565zm-1.517 11.381L11.91 9.585l.18-.06 2.377 6.224-.802.262z" fill="#fff"/><path d="M14.311 14.213a.78.78 0 11-1.56.06.78.78 0 011.56-.06z" fill="#fff"/><path d="M7.432 30.117H6.83v2.755h1.66v-.55H7.432v-2.205zm2.098 0h-.602v2.755h.603v-2.755zm2.712 1.251l.014.284.07 1.22h.596l-.172-2.755h-.638l-.476 1.29c-.05.142-.092.268-.13.383a15.573 15.573 0 00-.124-.383l-.455-1.29h-.64l-.192 2.755h.59l.073-1.193.015-.252.052.157.432 1.274h.443l.47-1.293.072-.197zm1.848-1.251h-.601v2.755h.602v-2.755zm2.473 0H14.45v.554h.752v2.201h.605v-2.2h.756v-.555zm2.032 2.205h-1.071v-.609h.961v-.547h-.961v-.499h1.016v-.55h-1.618v2.755h1.673v-.55zm2.417-1.877c-.25-.233-.61-.346-1.098-.346-.232 0-.468.018-.7.053l-.12.018v2.68l.125.015c.177.02.377.03.595.03.52 0 .934-.137 1.192-.397.26-.256.399-.623.399-1.062 0-.439-.133-.752-.394-.991zm-.224 1.002c0 .594-.315.908-.911.908-.053 0-.12 0-.182-.004v-1.704a1.98 1.98 0 01.233-.013c.292 0 .514.074.658.22.136.137.204.335.202.593z" fill="#FF7E7A"/><path d="M7.404 30.086h-.602v2.755H8.46v-.55H7.403v-2.205zm2.098 0H8.9v2.755h.602v-2.755zm2.711 1.251l.014.284.07 1.22h.596l-.171-2.755h-.639l-.475 1.29c-.05.141-.093.268-.13.383a15.573 15.573 0 00-.125-.383l-.455-1.29h-.64l-.191 2.755h.588l.075-1.193.014-.252.052.156.433 1.274h.442l.47-1.292.072-.197zm1.849-1.251h-.602v2.755h.602v-2.755zm2.472 0H14.42v.553h.752v2.202h.606v-2.202h.756v-.553zm2.033 2.204h-1.072v-.608h.961v-.547h-.961v-.499h1.017v-.55h-1.619v2.755h1.674v-.55zm2.416-1.877c-.25-.233-.61-.346-1.099-.346-.231 0-.467.018-.7.053l-.12.018v2.68l.125.015c.177.02.378.03.596.03.52 0 .933-.137 1.192-.396.26-.257.398-.624.398-1.063 0-.439-.132-.752-.393-.99zm-.224 1.003c0 .594-.315.908-.911.908-.053 0-.12-.001-.181-.004v-1.705c.058-.006.135-.012.232-.012.293 0 .514.074.659.22.136.136.203.335.202.593z" fill="#87262A"/><path d="M7.4 30.09h-.603v2.76H8.46v-.55H7.4v-2.21zm2.103 0H8.9v2.761h.603V30.09zm2.717 1.253l.015.285.07 1.223h.598l-.173-2.762h-.64l-.476 1.293c-.05.141-.093.268-.13.384a18.016 18.016 0 00-.124-.384l-.457-1.293h-.64l-.193 2.762h.59l.075-1.197.014-.252.052.157.434 1.277h.443l.471-1.296.072-.197zm1.853-1.253h-.603v2.761h.603V30.09zm2.479 0h-2.118v.554h.754v2.207h.606v-2.207h.758v-.555zm2.037 2.21h-1.074v-.611h.964v-.549h-.964v-.5h1.018v-.55h-1.621v2.76h1.677v-.55zm2.421-1.882c-.25-.234-.61-.347-1.1-.347-.232 0-.468.018-.701.053l-.121.018v2.686l.126.014c.177.02.378.03.597.03.522 0 .935-.137 1.195-.396.26-.257.399-.625.399-1.065 0-.44-.133-.754-.394-.993zm-.223 1.004c0 .595-.316.91-.914.91-.053 0-.12 0-.181-.004V30.62c.058-.006.136-.012.233-.012.292 0 .514.074.66.22.136.137.204.337.202.595v-.001z" fill="#fff"/></g><defs><clipPath id="clip0_9_637"><path fill="#fff" transform="translate(.514)" d="M0 0h26.033v35H0z"/></clipPath></defs></svg>