<svg width="30" height="38" fill="none" xmlns="http://www.w3.org/2000/svg"><path d="M1 36.5v-1.75c0-3.273 0-4.907.704-6.125a5.25 5.25 0 011.921-1.922C4.843 26 6.478 26 9.75 26L15 33l5.25-7c3.273 0 4.907 0 6.125.703a5.251 5.251 0 011.922 1.922C29 29.843 29 31.477 29 34.75v1.75M21.89 12l1.781-7.238c.408-1.657-.826-3.262-2.506-3.262H8.835c-1.68 0-2.914 1.605-2.506 3.262L8.11 12m13.78 0v3.5c0 3.866-3.084 7-6.89 7-3.806 0-6.89-3.134-6.89-7V12m13.78 0H8.11M15 5v3.5m1.75-1.75h-3.5" stroke="#0C123A" stroke-width="2" stroke-linecap="round" stroke-linejoin="round"/></svg>