<svg width="24" height="24" fill="none" xmlns="http://www.w3.org/2000/svg"><g clip-path="url(#clip0_59_1108)"><path d="M21.68 8.063c.351.195.672.433.96.714.29.282.532.594.727.938.195.344.352.707.469 1.09.117.383.172.78.164 1.195h-1.5c0-.406-.078-.793-.234-1.16a2.878 2.878 0 00-.645-.95 3.293 3.293 0 00-.96-.644A2.813 2.813 0 0019.5 9c-.414 0-.8.078-1.16.234a3.012 3.012 0 00-1.594 1.605A3.086 3.086 0 0016.5 12c0 .71-.16 1.387-.48 2.027a4.356 4.356 0 01-1.348 1.594c.508.258.965.574 1.371.95.406.374.758.796 1.055 1.265a5.6 5.6 0 01.668 1.5A6.48 6.48 0 0118 21h-1.5a4.42 4.42 0 00-1.324-3.176 4.699 4.699 0 00-1.43-.96A4.474 4.474 0 0012 16.5a4.42 4.42 0 00-3.176 1.324c-.406.414-.726.89-.96 1.43A4.474 4.474 0 007.5 21H6c0-.57.078-1.121.234-1.652a6.15 6.15 0 01.668-1.5 6.01 6.01 0 011.043-1.266 6.236 6.236 0 011.383-.96 4.403 4.403 0 01-1.336-1.595A4.59 4.59 0 017.5 12c0-.406-.078-.793-.234-1.16a2.878 2.878 0 00-.645-.95 3.293 3.293 0 00-.96-.644A2.812 2.812 0 004.5 9c-.414 0-.8.078-1.16.234a3.012 3.012 0 00-1.594 1.605A3.087 3.087 0 001.5 12H0c0-.406.055-.8.164-1.184a5.02 5.02 0 01.457-1.09 4.05 4.05 0 01.738-.937c.297-.281.618-.523.961-.726a2.92 2.92 0 01-.597-.95A3.208 3.208 0 011.5 6c0-.406.078-.793.234-1.16.157-.367.371-.684.645-.95.273-.265.59-.48.95-.644A2.777 2.777 0 014.5 3c.406 0 .793.078 1.16.234.367.157.684.371.95.645.265.273.48.594.644.96.164.368.246.755.246 1.161 0 .383-.07.754-.21 1.113-.142.36-.345.676-.61.95.64.351 1.164.835 1.57 1.453a4.58 4.58 0 011.617-1.477A4.37 4.37 0 0112 7.5c.758 0 1.465.18 2.121.54.656.358 1.2.85 1.629 1.476a4.375 4.375 0 011.57-1.454 2.92 2.92 0 01-.597-.949A3.21 3.21 0 0116.5 6c0-.406.078-.793.234-1.16.157-.367.371-.684.645-.95.273-.265.59-.48.95-.644.358-.164.75-.246 1.171-.246.406 0 .793.078 1.16.234.367.157.684.371.95.645.265.273.48.594.644.96.164.368.246.755.246 1.161 0 .383-.07.754-.21 1.113-.142.36-.345.676-.61.95zM3 6a1.477 1.477 0 00.434 1.055c.132.133.293.242.48.328.188.086.383.125.586.117a1.477 1.477 0 001.055-.434c.133-.132.242-.293.328-.48A1.27 1.27 0 006 6c0-.21-.04-.406-.117-.586a1.503 1.503 0 00-.317-.469 1.634 1.634 0 00-.48-.328A1.27 1.27 0 004.5 4.5a1.477 1.477 0 00-1.055.434 1.634 1.634 0 00-.328.48A1.27 1.27 0 003 6zm9 9c.406 0 .793-.078 1.16-.234.367-.157.684-.371.95-.645.265-.273.48-.59.644-.95.164-.358.246-.75.246-1.171 0-.406-.078-.793-.234-1.16a2.878 2.878 0 00-.645-.95 3.293 3.293 0 00-.96-.644A2.813 2.813 0 0012 9c-.414 0-.8.078-1.16.234a3.012 3.012 0 00-1.594 1.605A3.087 3.087 0 009 12c0 .414.078.8.234 1.16A3.05 3.05 0 0012 15zm6-9a1.477 1.477 0 00.434 1.055c.132.133.293.242.48.328.188.086.383.125.586.117a1.477 1.477 0 001.055-.434c.133-.132.242-.293.328-.48A1.27 1.27 0 0021 6c0-.21-.04-.406-.117-.586a1.503 1.503 0 00-.317-.469 1.634 1.634 0 00-.48-.328A1.27 1.27 0 0019.5 4.5a1.477 1.477 0 00-1.055.434 1.634 1.634 0 00-.328.48A1.27 1.27 0 0018 6z" fill="url(#paint0_linear_59_1108)"/></g><defs><linearGradient id="paint0_linear_59_1108" x1="0" y1="4.688" x2="15.712" y2="26.703" gradientUnits="userSpaceOnUse"><stop stop-color="#26CBFF"/><stop offset="1" stop-color="#6980FD"/></linearGradient><clipPath id="clip0_59_1108"><path fill="#fff" d="M0 0h24v24H0z"/></clipPath></defs></svg>