<svg width="24" height="24" fill="none" xmlns="http://www.w3.org/2000/svg"><path d="M12 3l11 8.25-1.2 1.6L20 11.5V21H4v-9.5l-1.8 1.35-1.2-1.6L12 3zm-4.65 9.05c0 .883.475 1.825 1.425 2.825.95 1 2.025 2.042 3.225 3.125a58.817 58.817 0 003.225-3.125c.95-1 1.425-1.942 1.425-2.825 0-.733-.25-1.342-.75-1.825a2.5 2.5 0 00-1.8-.725c-.433 0-.83.088-1.188.263a2.895 2.895 0 00-.912.687 2.818 2.818 0 00-.937-.687A2.734 2.734 0 009.9 9.5c-.7 0-1.3.242-1.8.725s-.75 1.092-.75 1.825zM18 19v-9l-6-4.5L6 10v9h12z" fill="url(#paint0_linear_59_1464)"/><defs><linearGradient id="paint0_linear_59_1464" x1="1" y1="4.688" x2="17.107" y2="25.375" gradientUnits="userSpaceOnUse"><stop stop-color="#26CBFF"/><stop offset="1" stop-color="#6980FD"/></linearGradient></defs></svg>