<svg width="24" height="24" fill="none" xmlns="http://www.w3.org/2000/svg"><path d="M4 14h2.395c.294 0 .584.066.847.194l2.042.988c.263.127.553.193.848.193h1.042c1.008 0 1.826.791 1.826 1.767 0 .04-.027.074-.066.085l-2.541.703a1.95 1.95 0 01-1.368-.124L6.842 16.75M8 7.839c0-2.092 1.896-4.16 3.226-5.353a1.91 1.91 0 012.548 0C15.104 3.68 17 5.746 17 7.84 17 9.89 15.296 12 12.5 12 9.704 12 8 9.89 8 7.839z" stroke="url(#paint0_linear_59_1446)" stroke-width="2" stroke-linecap="round" stroke-linejoin="round"/><path d="M13 16.5l4.593-1.41a1.984 1.984 0 012.204.752c.369.51.219 1.242-.319 1.552l-7.515 4.337a2.002 2.002 0 01-1.568.187L4 20.02" stroke="url(#paint1_linear_59_1446)" stroke-width="2" stroke-linecap="round" stroke-linejoin="round"/><defs><linearGradient id="paint0_linear_59_1446" x1="4" y1="3.499" x2="18.587" y2="15.952" gradientUnits="userSpaceOnUse"><stop stop-color="#26CBFF"/><stop offset="1" stop-color="#6980FD"/></linearGradient><linearGradient id="paint1_linear_59_1446" x1="4" y1="15.658" x2="8.583" y2="26.669" gradientUnits="userSpaceOnUse"><stop stop-color="#26CBFF"/><stop offset="1" stop-color="#6980FD"/></linearGradient></defs></svg>