<svg width="32" height="38" fill="none" xmlns="http://www.w3.org/2000/svg"><path d="M8.997 26h7m-7-8.75h14M8.125 4.125c-2.723.082-4.345.385-5.469 1.508-1.538 1.54-1.538 4.017-1.538 8.971V25.99c0 4.956 0 7.432 1.538 8.972C4.193 36.5 6.67 36.5 11.618 36.5h8.75c4.95 0 7.425 0 8.962-1.54 1.54-1.538 1.54-4.015 1.54-8.97V14.604c0-4.952 0-7.43-1.54-8.97-1.122-1.124-2.746-1.427-5.469-1.509" stroke="#0C123A" stroke-width="2" stroke-linecap="round" stroke-linejoin="round"/><path d="M8.118 4.563A3.064 3.064 0 0111.181 1.5h9.625a3.063 3.063 0 010 6.125H11.18a3.062 3.062 0 01-3.063-3.063z" stroke="#0C123A" stroke-width="2" stroke-linecap="round" stroke-linejoin="round"/></svg>