<svg width="22" height="22" fill="none" xmlns="http://www.w3.org/2000/svg"><g clip-path="url(#clip0_59_1455)" stroke-width="1.714" stroke-linecap="round" stroke-linejoin="round"><path d="M20.821 20.821l-4.277-4.279m-6.364 2.64a9.004 9.004 0 006.442-15.41 9.002 9.002 0 10-6.442 15.41z" stroke="url(#paint0_linear_59_1455)"/><path d="M8.904 5.123a.786.786 0 00-.786.786v2.21H5.907a.786.786 0 00-.786.785v2.553a.786.786 0 00.786.786h2.21v2.211a.786.786 0 00.787.786h2.552a.786.786 0 00.785-.786v-2.212h2.21a.786.786 0 00.785-.786V8.904a.786.786 0 00-.785-.786h-2.208v-2.21a.786.786 0 00-.786-.785H8.904z" stroke="url(#paint1_linear_59_1455)"/></g><defs><linearGradient id="paint0_linear_59_1455" x1="1.296" y1="3.019" x2="19.41" y2="21.94" gradientUnits="userSpaceOnUse"><stop stop-color="#26CBFF"/><stop offset="1" stop-color="#6980FD"/></linearGradient><linearGradient id="paint1_linear_59_1455" x1="5.121" y1="6.072" x2="14.448" y2="15.871" gradientUnits="userSpaceOnUse"><stop stop-color="#26CBFF"/><stop offset="1" stop-color="#6980FD"/></linearGradient><clipPath id="clip0_59_1455"><path fill="#fff" d="M0 0h22v22H0z"/></clipPath></defs></svg>