<svg width="16" height="17" fill="none" xmlns="http://www.w3.org/2000/svg"><path d="M7.415.108A1.626 1.626 0 018.442.061l.143.047 5.833 2.246c.296.114.554.312.745.57.19.259.305.568.331.891l.006.141v4.588a7.854 7.854 0 01-1.055 3.938 7.59 7.59 0 01-2.87 2.83l-.22.118-2.796 1.435a1.225 1.225 0 01-.998.053l-.12-.053-2.795-1.435a7.572 7.572 0 01-2.96-2.73A7.843 7.843 0 01.505 8.8L.5 8.545V3.956c0-.324.09-.641.259-.915s.41-.493.695-.631l.128-.056L7.415.108zM8 1.711L2.167 3.956v4.588a6.11 6.11 0 00.814 3.051 5.906 5.906 0 002.215 2.2l.196.105L8 15.239l2.608-1.34a5.888 5.888 0 002.295-2.111 6.1 6.1 0 00.926-3.018l.004-.226V3.956L8 1.711zm2.86 3.901A.82.82 0 0112 5.576a.872.872 0 01.108 1.165l-.069.081L7.678 11.3a.9.9 0 01-1.217.073l-.08-.073-2.003-2.056a.87.87 0 01-.039-1.173.818.818 0 011.139-.108l.078.07 1.473 1.513 3.832-3.934z" fill="#F9FDFF"/></svg>