<svg width="30" height="38" fill="none" xmlns="http://www.w3.org/2000/svg"><path d="M1.286 22.429h4.106c.504 0 1 .113 1.451.333l3.501 1.693c.45.218.948.331 1.454.331h1.786c1.728 0 3.13 1.356 3.13 3.03a.152.152 0 01-.113.145l-4.356 1.205a3.343 3.343 0 01-2.345-.213l-3.742-1.81M8.822 2.804c2.527-1.567 4.735-.936 6.06.07.543.412.816.618.975.618.16 0 .432-.206.975-.617 1.326-1.007 3.532-1.638 6.06-.07 3.32 2.056 4.07 8.838-3.582 14.56-1.46 1.09-2.188 1.636-3.453 1.636-1.265 0-1.994-.546-3.45-1.636C4.751 11.643 5.502 4.86 8.821 2.805z" stroke="#F9FDFF" stroke-width="2" stroke-linecap="round" stroke-linejoin="round"/><path d="M16.714 26.715l7.874-2.42a3.403 3.403 0 013.778 1.292c.633.874.375 2.129-.547 2.66l-12.882 7.435a3.428 3.428 0 01-2.688.32L1.286 32.75" stroke="#F9FDFF" stroke-width="2" stroke-linecap="round" stroke-linejoin="round"/></svg>