<svg width="14" height="18" fill="none" xmlns="http://www.w3.org/2000/svg"><path d="M1 10.6h1.796c.22 0 .438.053.635.155l1.532.79c.197.102.415.155.636.155h.781c.756 0 1.37.633 1.37 1.414a.07.07 0 01-.05.068l-1.905.562a1.38 1.38 0 01-1.026-.099L3.13 12.8M4.297 1.442c1.105-.731 2.071-.437 2.651.033.238.192.357.288.427.288s.189-.096.427-.288c.58-.47 1.545-.764 2.651-.033 1.452.96 1.78 4.125-1.568 6.795-.638.509-.957.763-1.51.763-.554 0-.872-.254-1.51-.763-3.349-2.67-3.02-5.836-1.568-6.795z" stroke="#F9FDFF" stroke-linecap="round" stroke-linejoin="round"/><path d="M7.75 12.6l3.445-1.129c.3-.098.62-.092.918.016.297.108.554.313.735.587.276.408.164.993-.24 1.241l-5.636 3.47a1.41 1.41 0 01-1.176.15L1 15.415" stroke="#F9FDFF" stroke-linecap="round" stroke-linejoin="round"/></svg>