<svg width="30" height="30" fill="none" xmlns="http://www.w3.org/2000/svg"><path d="M16.5.075v3.03C22.425 3.84 27 8.88 27 15c0 4.815-2.88 9-7.08 10.92L16.5 22.5V30H24l-1.83-1.83C26.865 25.605 30 20.64 30 15 30 7.23 24.075.825 16.5.075zM13.5 0c-2.925.3-5.7 1.44-7.98 3.315l2.13 2.13A12.3 12.3 0 0113.5 3V0zM3.3 5.52C1.44 7.8.3 10.575 0 13.5h3a12.146 12.146 0 012.445-5.85L3.3 5.52zM6 9v3h4.5v1.5H9c-1.65 0-3 1.35-3 3V21h7.5v-3H9v-1.5h1.5c1.665 0 3-1.335 3-3V12a3 3 0 00-3-3H6zm9 0v7.5h4.5V21h3v-4.5H24v-3h-1.5V9h-3v4.5H18V9h-3zM0 16.5c.3 2.925 1.455 5.7 3.33 7.98l2.13-2.13A12.3 12.3 0 013 16.5H0zm7.665 8.055l-2.145 2.13A15.06 15.06 0 0013.5 30v-3a12.09 12.09 0 01-5.835-2.445z" fill="#F9FDFF"/></svg>