<svg width="30" height="30" fill="none" xmlns="http://www.w3.org/2000/svg"><path fill-rule="evenodd" clip-rule="evenodd" d="M10.332 10.16a6.854 6.854 0 00-2.003 5.619 1.155 1.155 0 11-2.296.242 9.161 9.161 0 012.68-7.504c3.618-3.568 9.45-3.508 13.025.117 3.577 3.627 3.555 9.46-.062 13.027a9.143 9.143 0 01-6.277 2.638 9.253 9.253 0 01-2.634-.335 1.152 1.152 0 01-.626-1.835 1.153 1.153 0 011.24-.388c.644.178 1.31.262 1.978.25a6.835 6.835 0 004.698-1.973c2.703-2.665 2.729-7.037.04-9.763-2.688-2.726-7.06-2.76-9.761-.095" fill="#F9FDFF"/><path fill-rule="evenodd" clip-rule="evenodd" d="M8.039 16.956a1.155 1.155 0 01-1.63.094l-1.984-1.765a1.154 1.154 0 111.534-1.724l1.985 1.765a1.155 1.155 0 01.095 1.63z" fill="#F9FDFF"/><path fill-rule="evenodd" clip-rule="evenodd" d="M6.253 16.846a1.154 1.154 0 001.616.23l2.308-1.73A1.154 1.154 0 108.792 13.5l-2.308 1.73a1.156 1.156 0 00-.23 1.616zM15 10.385a1.154 1.154 0 011.154 1.153v4.039a1.154 1.154 0 01-2.308 0v-4.039A1.154 1.154 0 0115 10.385z" fill="#F9FDFF"/><path fill-rule="evenodd" clip-rule="evenodd" d="M19.615 15.577a1.154 1.154 0 01-1.153 1.154H15a1.154 1.154 0 010-2.308h3.462a1.154 1.154 0 011.153 1.154z" fill="#F9FDFF"/><path fill-rule="evenodd" clip-rule="evenodd" d="M15 27.692c7.01 0 12.692-5.682 12.692-12.692S22.01 2.308 15 2.308 2.308 7.99 2.308 15 7.99 27.692 15 27.692zM15 30c8.285 0 15-6.715 15-15S23.285 0 15 0 0 6.715 0 15s6.715 15 15 15z" fill="#F9FDFF"/></svg>