<svg width="20" height="20" fill="none" xmlns="http://www.w3.org/2000/svg"><path d="M4.6 9.923C9.673.469 15.99.36 18.513 1.487c1.127 2.524 1.018 8.84-8.436 13.913-.098-.564-.643-2.04-2.04-3.437-1.397-1.397-2.873-1.942-3.437-2.04z" stroke="#F9FDFF" stroke-width="1.5" stroke-linecap="round" stroke-linejoin="round"/><path d="M11.35 14.95c1.839.9 2.035 2.514 2.29 4.05 0 0 3.85-2.846 1.387-6.75M5.05 8.727C4.15 6.888 2.536 6.692 1 6.437c0 0 2.847-3.85 6.75-1.387m-3.732 7.862c-.512.511-1.382 1.996-.768 3.838 1.843.614 3.327-.256 3.84-.767M15.3 6.45a1.75 1.75 0 10-3.5 0 1.75 1.75 0 003.5 0z" stroke="#F9FDFF" stroke-width="1.5" stroke-linecap="round" stroke-linejoin="round"/></svg>