<svg width="40" height="40" fill="none" xmlns="http://www.w3.org/2000/svg"><path d="M38.84 19.741c-3.165-4.776-3.372-6.119-3.38-6.189C33.97-1.392 15.722-2.168 8.429 5.638c-.49.59.432 1.344.932.753C16.048-.716 32.893-.067 34.25 13.64c.009.246.243 1.727 3.581 6.764a.87.87 0 01.134.571c-.044.193-.197.35-.477.523-.948.51-1.93.96-2.939 1.343-.903.232.252 3.963-.324 6.363.046.831-3.011 1.434-5.183 1.27-1.357 0-1.843.68-1.843 1.307v4.411c-1.015 3.158-11.06 2.52-13.416.993a.896.896 0 01-.43-.924c.243-1.656.467-4.898-.864-8.072-.283-.715-1.423-.264-1.121.44 1.223 2.926 1.015 5.926.78 7.459a2.071 2.071 0 001.032 2.11c3.366 1.896 10.75 1.891 14.093-.01a2.32 2.32 0 001.149-1.989l-.007-4.41c.01-.063.458-.169.754-.144 7.244.284 6.675-2.556 6.26-7.879 1.758-.743 4.863-1.747 3.41-4.024z" fill="#2A6BBA"/><path d="M22.233 25.43c6.037.504 9.75-6.884 9.976-8.583.308-1.143-4.222-2.116-5.159-2.272.048-.88.197-5.306-.985-5.277-.171 0-2.958.07-5.6 1.413a14.256 14.256 0 00-3.606-4.41c-1.192-.665-3.861 3.457-4.367 4.417-2.652-1.343-5.431-1.413-5.6-1.413-1.186.022-1.037 4.35-1 5.27-.952.16-5.416 1.118-5.15 2.267.072.227 1.621 5.63 6.008 7.74 2.59 1.623 8.228.463 9.726-.39.773.326 3.12 1.239 5.757 1.239zm4.65-9.658c1.388.213 2.736.624 4 1.221-1.461 4.679-5.97 8.898-12.175 6.73 3.281-.581 7.809-3.855 8.18-7.957l-.006.006zm-1.29-5.271c1.264 4.957-.892 10.91-7.386 12.116 2.08-2.056 4.466-7.186 2.738-10.813 1.816-.936 3.758-1.214 4.648-1.303zm-9.117-2.945c5.207 4.292 4.76 10.79 0 15.167-4.78-4.4-5.186-10.868 0-15.167zM7.358 10.5c.885.089 2.833.367 4.657 1.308-1.754 3.631.66 8.775 2.735 10.832-6.578-1.327-8.613-7.078-7.392-12.14zm-.072 13.04c-3.2-1.538-4.765-5.264-5.225-6.553a15.124 15.124 0 013.993-1.239c.405 4.164 4.863 7.353 8.19 7.968-1.824.523-4.603.958-6.958-.176z" fill="#2A6BBA"/></svg>