<svg width="60" height="54" fill="none" xmlns="http://www.w3.org/2000/svg"><path d="M57.911 38.29c-.646-.553-1.415-.597-2.431-.333.183-1.015.094-1.803-1.095-2.824-1.185-.918-2.986-.13-5.975 1.171a55.513 55.513 0 01-6.997 2.639c-.8-1.602-3.212-1.942-3.489-1.839-8.05.138-9.41-.675-10.987-1.614-1.993-1.189-4.252-2.533-17.456-2.533H2.122a.868.868 0 00-.618.26.896.896 0 00-.257.629V49.83a.899.899 0 00.257.628.872.872 0 00.618.259H9.34c10.554 3.98 34.731 4.643 47.526-6.902 1.045-.65 3.574-3.42 1.045-5.526zm-8.81-.35c1.601-.698 3.798-1.663 4.218-1.39 1.064.825.172 1.658-.472 2.386-2.878 1.227-5.862 2.59-10.979 3.905.248-.728.196-1.513.106-2.21 2.76-.796 5.158-1.832 7.126-2.69zM2.996 34.732h5.611v14.21h-5.61v-14.21zm52.83 7.655c-17.897 14.41-41.47 8.02-45.471 6.794V34.736c22.028-.118 9.002 4.198 27.639 4.141 1.342-.032 2.494.98 2.296 3.006 0 .255-.123 1.108-1.644 1.705-1.662.646-5.239 1.21-13.158.167a.866.866 0 00-.648.178.9.9 0 00-.159 1.248.873.873 0 00.582.338c4.898.587 10.033 1.1 13.924-.242 6.48-1.31 10.85-3.192 13.744-4.445 1.791-.773 3.485-1.503 3.863-1.182 1.25.966-.38 2.256-.968 2.737z" fill="url(#paint0_linear_2002_582)" stroke="url(#paint1_linear_2002_582)" stroke-width=".6"/><path d="M5.801 36.619c-1.338.025-1.334 2.047 0 2.07 1.338-.031 1.34-2.047 0-2.07z" fill="#fff" stroke="url(#paint2_linear_2002_582)" stroke-width=".6"/><path d="M30.976 29.278c1.091.802 16.151-9.778 16.235-19.588a9.112 9.112 0 00-1.626-5.207 8.891 8.891 0 00-4.287-3.297 8.746 8.746 0 00-5.375-.179 8.867 8.867 0 00-4.49 3.007 8.867 8.867 0 00-4.49-3.009 8.746 8.746 0 00-5.376.178 8.892 8.892 0 00-4.288 3.299 9.112 9.112 0 00-1.624 5.208c0 9.972 14.696 19.2 15.321 19.588zM24.534 2.444a7.083 7.083 0 013.535.963 7.222 7.222 0 012.606 2.61.917.917 0 00.753.404.9.9 0 00.754-.404c7.163-10.5 26.076 3.726-.748 21.454-2.463-1.629-14.028-9.708-14.028-17.775 0-1.922.753-3.765 2.09-5.125a7.087 7.087 0 015.045-2.127h-.007z" fill="url(#paint3_linear_2002_582)" stroke="url(#paint4_linear_2002_582)" stroke-width=".6"/><defs><linearGradient id="paint0_linear_2002_582" x1="-36.241" y1="34.744" x2="18.799" y2="87.85" gradientUnits="userSpaceOnUse"><stop stop-color="#5D54EA"/><stop offset="1" stop-color="#1C4D72"/></linearGradient><linearGradient id="paint1_linear_2002_582" x1="-36.241" y1="34.744" x2="18.799" y2="87.85" gradientUnits="userSpaceOnUse"><stop stop-color="#5D54EA"/><stop offset="1" stop-color="#1C4D72"/></linearGradient><linearGradient id="paint2_linear_2002_582" x1="3.496" y1="36.8" x2="6.827" y2="37.899" gradientUnits="userSpaceOnUse"><stop stop-color="#5D54EA"/><stop offset="1" stop-color="#1C4D72"/></linearGradient><linearGradient id="paint3_linear_2002_582" x1="-4.829" y1="3.179" x2="46.086" y2="22.267" gradientUnits="userSpaceOnUse"><stop stop-color="#5D54EA"/><stop offset="1" stop-color="#1C4D72"/></linearGradient><linearGradient id="paint4_linear_2002_582" x1="-4.829" y1="3.179" x2="46.086" y2="22.267" gradientUnits="userSpaceOnUse"><stop stop-color="#5D54EA"/><stop offset="1" stop-color="#1C4D72"/></linearGradient></defs></svg>