<svg width="48" height="48" fill="none" xmlns="http://www.w3.org/2000/svg"><path d="M45.537 16.616a7.298 7.298 0 00-2.152-5.195 7.353 7.353 0 00-7.482-1.783c.239-.73.365-1.5.365-2.291a7.299 7.299 0 00-2.152-5.195A7.298 7.298 0 0028.92 0 7.293 7.293 0 0024 1.89c-2.438-2.195-6.117-2.513-8.894-.724a.792.792 0 10.858 1.332c2.262-1.457 5.286-1.132 7.191.774.075.075.152.157.243.26a.791.791 0 00.635.266.793.793 0 00.57-.267 5.725 5.725 0 014.317-1.947c1.54 0 2.986.6 4.075 1.688a5.725 5.725 0 011.688 4.075 5.726 5.726 0 01-1.688 4.074l-.004.004a6.01 6.01 0 01-.256.239.792.792 0 00-.036 1.151l.01.01v.001c.002 0 .002.001.002.002l.01.01a.792.792 0 001.151-.036c.088-.1.166-.184.24-.258l.003-.002.001-.002a5.77 5.77 0 018.148.002 5.77 5.77 0 01-.259 8.392.792.792 0 00-.267.634.792.792 0 00.267.57 5.77 5.77 0 01.26 8.392 5.77 5.77 0 01-8.392-.258.792.792 0 00-.146-.129l-8.607-8.607 6.402-6.401a.792.792 0 00-1.12-1.12L24 20.416l-8.607-8.607a.793.793 0 00-.128-.145 5.88 5.88 0 01-.257-.24l-.002-.002-.002-.002a5.773 5.773 0 01-.718-7.273.792.792 0 00-1.316-.88 7.348 7.348 0 00-.865 6.373 7.353 7.353 0 00-7.49 1.782.792.792 0 001.12 1.12 5.77 5.77 0 018.149-.002l.002.002.002.002c.075.075.153.159.24.257a.798.798 0 00.145.128l8.607 8.607-8.607 8.607a.79.79 0 00-.145.129 5.77 5.77 0 01-8.392.26 5.77 5.77 0 01.26-8.393.792.792 0 00.266-.636.792.792 0 00-.267-.57 5.76 5.76 0 01-1.538-6.455.792.792 0 10-1.471-.586 7.342 7.342 0 001.368 7.644 7.293 7.293 0 00-1.89 4.92c0 1.963.764 3.807 2.152 5.195A7.324 7.324 0 009.812 33.8a7.324 7.324 0 005.4-2.364.806.806 0 00.08-.069l8.032-8.033c.103 2.179.164 6.134-.4 10.163-.485 3.47-1.331 6.308-2.514 8.435-1.417 2.549-3.329 4.062-5.683 4.498a.792.792 0 00.289 1.558c2.844-.527 5.127-2.31 6.785-5.297 1.277-2.302 2.184-5.33 2.696-9 .555-3.99.525-7.828.427-10.11l7.787 7.787a.793.793 0 00.079.069 7.324 7.324 0 005.4 2.363 7.324 7.324 0 005.194-2.149 7.299 7.299 0 002.152-5.195 7.294 7.294 0 00-1.89-4.92 7.296 7.296 0 001.89-4.92z" fill="#EA7B36"/></svg>