<svg width="54" height="50" fill="none" xmlns="http://www.w3.org/2000/svg"><path d="M40.993 36.386a.874.874 0 01-.698-1.402A16.48 16.48 0 0043.625 25c0-1.141-.117-2.284-.348-3.395a.875.875 0 111.713-.355c.255 1.228.385 2.49.385 3.75a18.23 18.23 0 01-3.682 11.037.875.875 0 01-.7.349zM9.878 29.522a.878.878 0 01-.856-.695A18.732 18.732 0 018.625 25c0-3.999 1.262-7.802 3.65-10.993a.875.875 0 111.402 1.048A16.47 16.47 0 0010.375 25c0 1.164.12 2.331.36 3.467a.875.875 0 01-.857 1.055zm19.747 4.228h-5.25a.875.875 0 01-.875-.875V28.5h-4.375a.875.875 0 01-.875-.875v-5.25c0-.483.392-.875.875-.875H23.5v-4.375c0-.483.392-.875.875-.875h5.25c.483 0 .875.392.875.875V21.5h4.375c.483 0 .875.392.875.875v5.25a.875.875 0 01-.875.875H30.5v4.375a.875.875 0 01-.875.875zM25.25 32h3.5v-4.375c0-.483.392-.875.875-.875H34v-3.5h-4.375a.875.875 0 01-.875-.875V18h-3.5v4.375a.875.875 0 01-.875.875H20v3.5h4.375c.483 0 .875.392.875.875V32zm5.497 17.5h-9.172c-1.71 0-3.38-.382-4.963-1.134l-6.13-2.978a11.408 11.408 0 00-4.97-1.138H1.625a.875.875 0 010-1.75h3.887c1.988 0 3.916.441 5.731 1.313l6.129 2.976a9.744 9.744 0 004.203.961h8.997l7.642-3.154c0-.073.103-.75-.233-1.326-.513-.882-1.697-.91-2.595-.779-1.304.202-2.382.564-3.332.884l-.36.12a.876.876 0 01-.552-1.66l.354-.117c1.018-.343 2.171-.732 3.631-.956 3.608-.525 4.51 1.73 4.704 2.431.32 1.157.054 2.604-.945 3.022l-7.807 3.222a.936.936 0 01-.332.063zM19.361 37.035a.878.878 0 01-.794-.506c-1.715-3.69-6.17-4.22-9.483-2.846a.884.884 0 01-.336.067H1.625a.875.875 0 010-1.75h6.953c4.737-1.881 9.688-.266 11.578 3.792a.877.877 0 01-.425 1.164.922.922 0 01-.37.079z" fill="#EC7E34"/><path d="M27.654 45.34a.884.884 0 01-.334-.066l-10.02-4.16a.875.875 0 11.672-1.617l9.14 3.794c.383-1.804-.604-3.208-2.949-4.179l-5.15-2.139a.876.876 0 01.672-1.617l5.149 2.139c3.606 1.495 4.93 4.156 3.629 7.301a.87.87 0 01-.474.474.825.825 0 01-.335.07zM17.85 9.318c-2.754 0-3.506-1.88-3.681-2.51-.32-1.156-.054-2.603.945-3.021L22.921.565A.9.9 0 0123.253.5h9.17c1.71 0 3.38.381 4.963 1.134l6.13 2.978a11.422 11.422 0 004.972 1.138h3.887a.875.875 0 010 1.75h-3.887a13.14 13.14 0 01-5.731-1.313l-6.128-2.975a9.734 9.734 0 00-4.204-.962h-8.997l-7.644 3.154c0 .073-.103.75.233 1.326.515.882 1.696.91 2.595.779 1.304-.202 2.382-.564 3.332-.884l.36-.12a.874.874 0 11.552 1.66l-.354.117c-1.018.343-2.171.732-3.63.956-.368.056-.71.08-1.023.08zm23.603 9.461c-3.307 0-6.25-1.652-7.609-4.571a.877.877 0 011.59-.739c1.713 3.69 6.166 4.216 9.483 2.846a.918.918 0 01.335-.065h7.123a.875.875 0 010 1.75h-6.953c-1.33.527-2.677.779-3.969.779z" fill="#EC7E34"/><path d="M34.651 14.71a.878.878 0 01-.336-.067l-5.148-2.138c-3.607-1.495-4.93-4.156-3.63-7.301a.88.88 0 011.145-.474l10.02 4.16a.875.875 0 11-.672 1.617l-9.14-3.795c-.384 1.805.604 3.208 2.948 4.18l5.15 2.138a.876.876 0 01.473 1.145.882.882 0 01-.81.535zm3.75 24.351a.876.876 0 01-.62-1.493c.344-.34.958-.402 1.3-.06.34.34.402.834.06 1.175l-.122.123a.872.872 0 01-.618.255zm-22.75-26.25a.874.874 0 01-.614-1.498l.124-.122a.874.874 0 111.229 1.246l-.125.122a.87.87 0 01-.614.252z" fill="#EC7E34"/></svg>