<svg width="51" height="44" fill="none" xmlns="http://www.w3.org/2000/svg"><path d="M.793 42.589H6.97a3.185 3.185 0 003.14-2.701c1.222.053 2.696-.2 4.792.499l9.32 3.107a7.317 7.317 0 005.642-.442l18.864-9.87a3.253 3.253 0 001.747-4.248 3.245 3.245 0 00-4.263-1.74l-10.98 4.86c.154-1.85-1.284-3.25-2.946-3.294l-.013-.002h-.013c-.018 0-.035-.006-.053-.006-.01 0-.018.005-.027.006h-7.714l-5.895-2.752a9.59 9.59 0 00-4.025-.892H10.11a3.185 3.185 0 00-3.14-2.703H.793a.792.792 0 00-.793.793v18.592c0 .438.355.793.793.793zM17.9 27.443c6.367 2.943 6.062 2.9 6.39 2.9h7.97c.783.029 1.413.67 1.413 1.46 0 .809-.658 1.466-1.466 1.466H22.73a.792.792 0 100 1.586h9.544c.47 0 .952-.18 1.384-.371l13.18-5.835a1.665 1.665 0 012.175.895c.353.846-.049 1.822-.957 2.204l-18.922 9.897a5.722 5.722 0 01-4.41.345l-9.32-3.107c-2.39-.797-4.115-.527-5.244-.58V26.698h4.387c1.15 0 2.31.257 3.354.744zM1.585 23.997h5.386c.885 0 1.604.719 1.604 1.603v13.8c0 .885-.72 1.604-1.604 1.604H1.585V23.997z" fill="#EB7D34"/><path d="M29.203 25.611a.79.79 0 00.908 0c.567-.397 13.9-9.794 13.9-17.352C44.01 3.705 40.305 0 35.75 0c-2.34 0-4.55.994-6.097 2.7A8.266 8.266 0 0023.551 0c-4.555 0-8.26 3.705-8.26 8.259 0 7.558 13.344 16.956 13.912 17.352zM23.551 1.585a6.68 6.68 0 015.457 2.839c.149.211.39.336.649.336h.001c.26 0 .501-.127.649-.34a6.638 6.638 0 015.444-2.835 6.682 6.682 0 016.675 6.674c0 6.016-10.445 14.018-12.77 15.724-2.326-1.705-12.78-9.704-12.78-15.724a6.682 6.682 0 016.675-6.674z" fill="#EB7D34"/></svg>