<svg width="88" height="93" viewBox="0 0 88 93" fill="none" xmlns="http://www.w3.org/2000/svg">
<circle cx="44" cy="49" r="44" fill="#D9D9D9"/>
<path fill-rule="evenodd" clip-rule="evenodd" d="M29.6667 25.0833C29.6667 21.2819 31.1768 17.6362 33.8648 14.9481C36.5528 12.2601 40.1986 10.75 44 10.75C47.8014 10.75 51.4472 12.2601 54.1352 14.9481C56.8232 17.6362 58.3333 21.2819 58.3333 25.0833C58.3333 28.8848 56.8232 32.5305 54.1352 35.2185C51.4472 37.9066 47.8014 39.4167 44 39.4167C40.1986 39.4167 36.5528 37.9066 33.8648 35.2185C31.1768 32.5305 29.6667 28.8848 29.6667 25.0833ZM29.6667 46.5833C24.9149 46.5833 20.3577 48.471 16.9977 51.831C13.6376 55.191 11.75 59.7482 11.75 64.5C11.75 67.3511 12.8826 70.0854 14.8986 72.1014C16.9146 74.1174 19.6489 75.25 22.5 75.25H65.5C68.3511 75.25 71.0854 74.1174 73.1014 72.1014C75.1174 70.0854 76.25 67.3511 76.25 64.5C76.25 59.7482 74.3624 55.191 71.0023 51.831C67.6423 48.471 63.0851 46.5833 58.3333 46.5833H29.6667Z" fill="white"/>
</svg>
