<svg width="38" height="50" fill="none" xmlns="http://www.w3.org/2000/svg"><path d="M30.458 32.302c-.032 0-1.012-.224-2.942-.67-1.93-.448-3.1-2.188-3.51-5.22.442-.32.877-.695 1.304-1.126.427-.43.83-.902 1.21-1.412.727-.99 1.32-2.1 1.78-3.328a18.41 18.41 0 00.972-3.855 1.26 1.26 0 01.118-.192c.048-.064.087-.128.119-.191.316-.735.554-1.493.712-2.275.158-.782.237-1.572.237-2.37a11.84 11.84 0 00-.807-4.358c-.569-1.373-1.32-2.562-2.253-3.568a11.045 11.045 0 00-3.25-2.418A9.64 9.64 0 0017.932.72c-.727.176-1.423.423-2.088.743a12.49 12.49 0 00-1.518.287 7.928 7.928 0 00-3.131 1.796c-.918.846-1.661 1.891-2.23 3.136a11.443 11.443 0 00-.95 3.88 13.011 13.011 0 00.38 4.117c.064.288.143.575.238.862l.284.862c.032.064.071.128.119.192a.472.472 0 00.166.143c.253 2.14.846 4.047 1.78 5.723.932 1.676 2.079 2.993 3.439 3.95-.411 3.034-1.582 4.773-3.511 5.22-1.93.447-2.91.67-2.942.67-1.992.065-3.7.83-5.124 2.3C1.421 36.068.71 37.824.71 39.867v8.524c0 .287.11.542.332.766.222.223.475.335.76.335h34.825c.285 0 .538-.112.76-.335a1.06 1.06 0 00.331-.766v-8.524c0-2.043-.711-3.8-2.135-5.268-1.423-1.468-3.131-2.234-5.124-2.298zM14.943 3.857c.19-.064.387-.112.593-.144a4.17 4.17 0 01.64-.048c.096 0 .182-.008.262-.023a.412.412 0 00.213-.12 7.209 7.209 0 011.684-.647 7.436 7.436 0 011.78-.215c2.245 0 4.16.878 5.74 2.634 1.582 1.755 2.373 3.878 2.373 6.369v.431a4.388 4.388 0 00-1.495-1.054 4.752 4.752 0 00-1.921-.383h-7.45c-.22 0-.434-.032-.64-.096a1.625 1.625 0 01-.545-.287 2.44 2.44 0 01-.404-.407 3.014 3.014 0 01-.308-.503 1.272 1.272 0 00-.498-.623 1.134 1.134 0 00-.783-.191 1.19 1.19 0 00-.807.287 1.294 1.294 0 00-.427.719c-.221.83-.545 1.628-.973 2.394a10.367 10.367 0 01-1.494 2.059c-.57-2.267-.42-4.39.45-6.369.87-1.98 2.207-3.24 4.01-3.783zm-.949 19.107c-.727-.862-1.313-1.876-1.755-3.041a15.712 15.712 0 01-.902-3.663 13.482 13.482 0 001.85-2.083 11.56 11.56 0 001.329-2.419.633.633 0 01.166.12l.166.168c.38.255.783.455 1.21.598.427.144.862.216 1.305.216h7.449c.538 0 1.02.143 1.447.43.427.288.735.671.925 1.15 0 1.564-.205 3.033-.617 4.406-.41 1.372-.98 2.57-1.708 3.591-.727 1.022-1.566 1.836-2.514 2.442a6.095 6.095 0 01-3.132.862c-.949 0-1.874-.24-2.776-.718-.901-.479-1.716-1.165-2.443-2.06zm2.515 4.501c.41.16.846.28 1.305.36.458.08.925.119 1.4.119.474 0 .94-.04 1.399-.12.459-.08.893-.2 1.305-.359a9.03 9.03 0 001.162 2.921 9.053 9.053 0 002.017 2.299l-5.742 8.284-.047.024a.208.208 0 01-.095.024.209.209 0 01-.095-.024l-.047-.024-5.741-8.284a9.052 9.052 0 002.016-2.299 9.028 9.028 0 001.163-2.92zM35.535 47.29H2.892v-7.422c0-1.5.521-2.77 1.565-3.807 1.044-1.038 2.31-1.556 3.796-1.556l1.068-.12a6.884 6.884 0 002.11-.599l5.837 8.428c.221.32.506.567.854.742a2.392 2.392 0 002.182 0c.348-.175.633-.423.854-.742l5.836-8.38c.791.32 1.519.51 2.183.575l.996.096c1.487 0 2.752.518 3.796 1.556 1.044 1.037 1.566 2.306 1.566 3.807v7.422z" fill="#FFB979"/></svg>