<svg width="52" height="52" fill="none" xmlns="http://www.w3.org/2000/svg"><path d="M29.884 1.757C29.884.79 30.827 0 32.002 0c1.177 0 2.12.784 2.12 1.757V9.44c0 .968-.943 1.758-2.12 1.758-1.175 0-2.118-.786-2.118-1.758V1.757zm4.874 33.959l2.291 2.194 4.54-4.661c.425-.437.69-.784 1.212-.241L44.5 34.76c.554.557.526.881 0 1.403l-6.484 6.44c-1.105 1.097-.914 1.166-2.037.038l-4.076-4.097c-.232-.256-.207-.513.046-.772l1.968-2.06c.297-.312.534-.293.842.003zm3.614-11.27c3.756 0 7.167 1.544 9.632 4.04A13.788 13.788 0 0152 38.223c0 3.798-1.528 7.244-3.991 9.736-2.47 2.496-5.88 4.04-9.637 4.04-3.76 0-7.166-1.544-9.632-4.035a13.8 13.8 0 01-3.995-9.74c0-3.806 1.527-7.25 3.992-9.743l.07-.065c2.462-2.453 5.843-3.97 9.565-3.97zm7.997 5.689a11.213 11.213 0 00-7.997-3.346 11.219 11.219 0 00-7.94 3.288l-.057.061a11.465 11.465 0 00-3.313 8.086c0 3.157 1.266 6.016 3.312 8.085a11.21 11.21 0 007.998 3.347c3.124 0 5.957-1.28 8-3.346a11.47 11.47 0 003.31-8.086c0-3.157-1.267-6.017-3.313-8.09zm-40.6-5.26c-.12 0-.227-.535-.227-1.189 0-.655.096-1.183.228-1.183h5.783c.12 0 .228.534.228 1.183 0 .656-.095 1.188-.228 1.188H5.77zm9.22 0c-.12 0-.227-.535-.227-1.189 0-.655.095-1.183.228-1.183h5.783c.12 0 .227.534.227 1.183 0 .656-.095 1.188-.227 1.188H14.99zm9.22 0c-.12 0-.228-.535-.228-1.189 0-.655.094-1.183.227-1.183h5.783c.12 0 .228.528.228 1.18-.579.364-1.136.762-1.67 1.191h-4.34zm-18.426 6.8c-.12 0-.228-.534-.228-1.188 0-.656.095-1.19.228-1.19h5.783c.12 0 .227.534.227 1.19 0 .654-.094 1.188-.227 1.188H5.783zm9.219 0c-.12 0-.228-.534-.228-1.188 0-.656.095-1.19.228-1.19h5.783c.12 0 .227.534.227 1.19 0 .654-.094 1.188-.227 1.188h-5.783zM5.795 38.48c-.12 0-.227-.534-.227-1.19 0-.654.095-1.188.227-1.188h5.783c.121 0 .229.534.229 1.188 0 .656-.096 1.19-.229 1.19H5.795zm9.22 0c-.12 0-.229-.534-.229-1.19 0-.654.096-1.188.229-1.188h5.783c.12 0 .228.534.228 1.188 0 .656-.096 1.19-.228 1.19h-5.783zM10.85 1.757C10.85.79 11.793 0 12.969 0c1.176 0 2.118.784 2.118 1.757V9.44c0 .968-.947 1.758-2.118 1.758-1.176 0-2.12-.786-2.12-1.758V1.757zM2.334 16.8h40.36V7.954a1.075 1.075 0 00-1.069-1.08h-3.87a1.184 1.184 0 01-1.174-1.187c0-.655.528-1.19 1.175-1.19h3.87c.948 0 1.797.388 2.419 1.015a3.458 3.458 0 011.003 2.447v14.046a17.42 17.42 0 00-2.38-.646v-2.195h.026-40.36v22.911a1.077 1.077 0 001.067 1.08h19.181c.219.822.494 1.625.825 2.397H3.424a3.38 3.38 0 01-2.42-1.015A3.435 3.435 0 010 42.096V7.962c0-.954.383-1.817 1.004-2.446a3.378 3.378 0 012.42-1.015h4.131c.647 0 1.175.534 1.175 1.188 0 .656-.528 1.19-1.175 1.19H3.424c-.3 0-.562.12-.755.316a1.09 1.09 0 00-.315.763v8.846h-.02V16.8zm16.143-9.926a1.184 1.184 0 01-1.176-1.188c0-.655.528-1.19 1.176-1.19h7.875c.65 0 1.177.535 1.177 1.19 0 .654-.528 1.188-1.177 1.188h-7.875z" fill="#FFB979"/></svg>