<svg width="54" height="54" fill="none" xmlns="http://www.w3.org/2000/svg"><path d="M50.633 13.924c-2.53-4.384-8.047-4.405-13.596-2.912C36.34 6.522 34.147 0 27.497 0c-5.06 0-7.834 4.754-9.317 10.303-4.235-1.63-10.99-2.997-14.316 2.773-2.53 4.384.202 9.17 4.268 13.225-3.537 2.849-8.09 8.016-4.765 13.775 2.53 4.384 8.047 4.405 13.585 2.912.71 4.49 2.9 11.012 9.55 11.012 5.062 0 7.836-4.765 9.318-10.313 4.246 1.64 10.99 2.996 14.315-2.763 2.531-4.374-.2-9.16-4.267-13.215 3.537-2.859 8.09-8.026 4.765-13.785zm-3.516 25.644c-2.202 3.801-7.443 2.626-10.694 1.43.72-3.77.943-7.624.943-10.377h-1.97c0 2.425-.391 5.961-1.25 9.402a34.78 34.78 0 01-.761 2.595c-1.472 4.415-3.823 8.089-7.21 8.089-4.395 0-6.004-5.125-6.587-8.534 3.632-1.26 7.073-2.997 9.456-4.383l-.985-1.705c-2.097 1.206-5.358 2.637-8.767 3.61-.88.255-1.758.477-2.637.646-4.553.933-8.904.741-10.598-2.203-2.193-3.8 1.43-7.75 4.097-9.973 2.912 2.509 6.13 4.627 8.524 6.003l.985-1.704c-2.097-1.208-4.967-3.325-7.518-5.803a35.34 35.34 0 01-1.864-1.938c-3.092-3.483-5.093-7.347-3.399-10.291 2.192-3.801 7.433-2.626 10.684-1.43-.72 3.77-.942 7.624-.942 10.377h1.98c0-2.425.391-5.961 1.249-9.402.222-.88.476-1.758.762-2.605 1.472-4.415 3.823-8.079 7.21-8.079 4.395 0 6.004 5.125 6.586 8.534-3.63 1.26-7.083 2.997-9.465 4.383l.995 1.705c2.086-1.206 5.347-2.636 8.767-3.61a28.355 28.355 0 012.626-.646c4.564-.932 8.915-.741 10.61 2.203 2.191 3.8-1.43 7.75-4.098 9.974-2.912-2.51-6.141-4.627-8.524-6.004l-.984 1.704c2.085 1.208 4.965 3.326 7.506 5.803a32.451 32.451 0 011.875 1.948c3.091 3.473 5.093 7.337 3.398 10.281z" fill="#FFB979"/><path d="M27 23.205a3.794 3.794 0 100 7.587 3.794 3.794 0 000-7.587z" fill="#FFB979"/></svg>