<svg width="63" height="63" fill="none" xmlns="http://www.w3.org/2000/svg"><path d="M37.75 12.125v-1.149c0-.093 0-.246-.018-.384a1.242 1.242 0 00-.348-.726 1.243 1.243 0 00-.726-.348 2.95 2.95 0 00-.408-.018h-9.523c-.094 0-.247 0-.385.018a1.243 1.243 0 00-.726.348 1.242 1.242 0 00-.348.726c-.018.138-.018.291-.018.384v1.189c0 .2 0 .437.027.642.033.247.122.589.412.879.29.29.632.379.88.412.204.027.442.027.642.027h8.579c.2 0 .437 0 .642-.027.247-.033.589-.122.879-.412l-.707-.707.707.707c.29-.29.379-.632.412-.88.027-.204.027-.442.027-.642v-.039z" stroke="#8D4FBF" stroke-opacity=".75" stroke-width="2"/><rect x="15.75" y="7.875" width="31.5" height="47.25" rx="2" stroke="#8D4FBF" stroke-opacity=".75" stroke-width="2"/><circle cx="31.5" cy="47.25" r="2.625" fill="#8D4FBF" fill-opacity=".75"/></svg>