<svg width="64" height="64" fill="none" xmlns="http://www.w3.org/2000/svg"><path d="M2.29 60.35c-.28.29-.37.72-.21 1.09.15.38.52.62.92.62h29.03c16.56 0 30.03-13.47 30.03-30.03C62.06 15.47 48.59 2 32.03 2 15.47 2 2 15.47 2 32.03c0 7.69 2.87 14.93 8.1 20.52l-7.81 7.8zM4 32.03C4 16.57 16.57 4 32.03 4s28.03 12.57 28.03 28.03-12.57 28.03-28.03 28.03H5.41l6.8-6.8a.996.996 0 000-1.41C6.92 46.56 4 39.52 4 32.03z" fill="#A3273B"/><path d="M17.349 24.25a1 1 0 001-1c0-1.647 1.34-2.987 3.036-2.987.893.014 1.634.536 1.984 1.396.299.734.323 1.816-.507 2.653l-6.225 6.278a1.001 1.001 0 00.71 1.704h7.21a1 1 0 000-2h-4.811l4.535-4.574a4.441 4.441 0 00.938-4.815c-.652-1.602-2.11-2.614-3.886-2.642a4.992 4.992 0 00-4.987 4.987 1 1 0 001 1h.003z" fill="#A3273B"/><path d="M25.47 28.3c.16.34.51.55.89.55h5.54v2.44c0 .55.44 1 1 1 .55 0 1-.45 1-1V19.26a1.002 1.002 0 00-1.8-.61l-6.53 8.6c-.23.3-.27.71-.1 1.05zm6.43-6.07v4.62h-3.52l3.52-4.62zm6.793 13.596a1 1 0 001 1h6.232l-7.063 10.476a1 1 0 101.658 1.118l8.112-12.035a1 1 0 00-.828-1.559H39.69a1 1 0 00-.998 1zm-9.529 11.557a.997.997 0 001.35-.42l13.543-25.78a1 1 0 10-1.77-.93l-13.543 25.78a1 1 0 00.42 1.35z" fill="#A3273B"/></svg>