<svg width="48" height="48" fill="none" xmlns="http://www.w3.org/2000/svg"><path d="M2.84 7.398h4.312a3.282 3.282 0 003.175 2.485h12.43a3.282 3.282 0 003.174-2.485h4.313v12.46h1.597V6.6a.798.798 0 00-.799-.799h-5.111a3.281 3.281 0 00-3.175-2.486H20.22A3.703 3.703 0 0016.541 0a3.703 3.703 0 00-3.678 3.315h-2.536A3.281 3.281 0 007.152 5.8H2.04a.798.798 0 00-.799.799v36.46c0 .44.357.798.799.798H22.8V42.26H2.84V7.398zm7.487-2.486h3.356a.797.797 0 00.792-.897l-.013-.102c-.01-.07-.021-.142-.021-.215a2.103 2.103 0 012.1-2.101c1.159 0 2.102.943 2.102 2.102 0 .077-.014.153-.023.227l-.012.085a.8.8 0 00.792.9h3.356c.93 0 1.687.758 1.687 1.688 0 .93-.757 1.686-1.687 1.686h-12.43c-.93 0-1.687-.756-1.687-1.686 0-.93.757-1.687 1.688-1.687z" fill="#A3273B"/><path d="M46.757 29.335a4.927 4.927 0 00-4.921-4.921 4.928 4.928 0 00-4.922 4.921 4.925 4.925 0 004.123 4.85v10.103a2.117 2.117 0 01-2.115 2.114H28.257a2.117 2.117 0 01-2.114-2.114v-3.165c4.934-.064 8.932-4.245 8.932-9.383v-5.593c0-1.674-1.29-3.033-2.898-3.096a2.06 2.06 0 00-.482-.74c-.814-.835-2.289-.817-3.066-.016a2.13 2.13 0 00-.648 1.542c0 1.198.975 2.173 2.172 2.173a2.12 2.12 0 001.527-.632c.216-.21.379-.459.488-.73.73.057 1.31.703 1.31 1.499v5.593c0 4.296-3.341 7.791-7.447 7.791-1.985 0-3.853-.806-5.258-2.27-1.413-1.47-2.19-3.431-2.19-5.52v-5.594c0-.779.557-1.414 1.266-1.494a1.992 1.992 0 001.882 1.358h.353a1.998 1.998 0 001.996-1.996v-.353a1.998 1.998 0 00-1.996-1.996h-.353a1.99 1.99 0 00-1.892 1.39c-1.586.087-2.853 1.435-2.853 3.091v5.594c0 2.504.936 4.857 2.635 6.627a8.865 8.865 0 004.925 2.626v3.294A3.716 3.716 0 0028.257 48h10.664a3.716 3.716 0 003.712-3.712v-10.1c2.335-.384 4.124-2.41 4.124-4.852zM30.55 24.25a.55.55 0 01-.397.164.583.583 0 01-.576-.576.56.56 0 01.18-.413.565.565 0 01.809.016.546.546 0 01.162.397.56.56 0 01-.178.412zm-9.22-.588c0-.22.18-.4.4-.4h.353c.22 0 .4.18.4.4v.353a.4.4 0 01-.4.399h-.353a.4.4 0 01-.4-.4v-.352zm20.505 8.998a3.329 3.329 0 01-3.325-3.325 3.328 3.328 0 013.325-3.324 3.327 3.327 0 013.324 3.324 3.328 3.328 0 01-3.324 3.325z" fill="#A3273B"/><path d="M41.836 26.82a2.52 2.52 0 00-2.516 2.515 2.52 2.52 0 002.516 2.516 2.52 2.52 0 002.516-2.516 2.52 2.52 0 00-2.516-2.516zm0 3.435a.92.92 0 010-1.838.92.92 0 010 1.838zM10.297 13.228a.798.798 0 00-.798-.799H5.355a.798.798 0 00-.798.799v4.143c0 .441.357.798.798.798h4.143a.798.798 0 00.798-.799v-4.142h.001zM8.7 16.573H6.154v-2.546H8.7v2.546zm3.284-3.315H21.1v1.597h-9.115v-1.597zm0 2.486h5.8v1.597h-5.8v-1.597zm-1.687 4.941a.798.798 0 00-.798-.798H5.355a.798.798 0 00-.798.798v4.143c0 .442.357.799.798.799h4.143a.798.798 0 00.798-.799v-4.143h.001zM8.7 24.031H6.154v-2.547H8.7v2.547zm3.284-3.316h6.63v1.597h-6.63v-1.597zm0 2.487h4.143v1.597h-4.143v-1.597zm-1.687 4.941a.798.798 0 00-.798-.799H5.355a.798.798 0 00-.798.799v4.143c0 .441.357.798.798.798h4.143a.798.798 0 00.798-.798v-4.143h.001zM8.7 31.488H6.154v-2.546H8.7v2.546zm3.284-3.315h3.314v1.597h-3.314v-1.597zm0 2.487h4.143v1.596h-4.143V30.66zm-2.485 4.143H5.355a.798.798 0 00-.798.798v4.143c0 .441.357.798.798.798h4.143a.798.798 0 00.798-.798V35.6a.797.797 0 00-.797-.798zM8.7 38.945H6.154V36.4H8.7v2.545zm3.284-3.314h4.143v1.597h-4.143v-1.597zm0 2.486h5.8v1.597h-5.8v-1.597zm12.385-19.245h2.578a.798.798 0 00.799-.799v-.777h.813a.798.798 0 00.799-.799v-2.522a.798.798 0 00-.799-.798h-.813v-.778a.798.798 0 00-.799-.798H24.37a.798.798 0 00-.799.798v.778h-.813a.798.798 0 00-.798.798v2.522c0 .442.357.799.799.799h.812v.777c0 .442.357.799.799.799zm-.813-3.174v-.924h.813a.798.798 0 00.798-.799v-.777h.982v.777c0 .442.357.799.798.799h.814v.925h-.814a.798.798 0 00-.798.798v.778h-.982v-.778a.798.798 0 00-.798-.799h-.813z" fill="#A3273B"/></svg>