<svg width="50" height="50" fill="none" xmlns="http://www.w3.org/2000/svg"><path d="M20.382 24.37c.246 0 .475-.13.602-.34l1.269-2.108 1.68 2.671a.702.702 0 001.206-.025l2.706-4.728 3.635 6.623c.12.221.351.36.604.365h.012c.247 0 .477-.13.604-.343l2.264-3.802h5.46a.703.703 0 000-1.406h-5.86a.703.703 0 00-.603.343l-1.84 3.089-3.647-6.646a.703.703 0 00-.61-.365h-.006a.703.703 0 00-.61.354L24.5 22.853l-1.666-2.647a.703.703 0 00-.595-.328h-.007a.703.703 0 00-.595.34l-1.653 2.745h-3.996a.703.703 0 000 1.407h4.394zM41.666 4.855a.703.703 0 00-.703.703v2.074h-2.074a.703.703 0 000 1.406h2.074v2.075a.703.703 0 001.406 0V9.038h2.074a.703.703 0 000-1.406h-2.074V5.558a.703.703 0 00-.703-.703z" fill="#A3273B"/><path d="M44.146 28.945c3.426-3.662 4.407-9.2 2.525-13.947A8.33 8.33 0 0050 8.335C50 3.74 46.261 0 41.665 0a8.356 8.356 0 00-5.205 1.824.703.703 0 00.879 1.098 6.85 6.85 0 014.326-1.516 6.937 6.937 0 016.929 6.93c0 3.821-3.108 6.93-6.929 6.93-3.557 0-6.495-2.693-6.886-6.148l-.003-.024a6.838 6.838 0 01.682-3.843.703.703 0 00-1.257-.63 8.23 8.23 0 00-.865 4.067 13.294 13.294 0 00-4.822 3.044l-.777.764-.01-.01-.764-.753c-2.473-2.438-5.709-3.8-8.88-3.734-2.64.054-4.975 1.088-6.753 2.99a.704.704 0 001.027.96c1.513-1.618 3.503-2.498 5.755-2.544 2.793-.057 5.66 1.157 7.863 3.329l.765.754c.37.364.685.544.999.544.311 0 .621-.178.984-.534l.777-.764a11.934 11.934 0 014.02-2.615c.82 3.743 4.16 6.554 8.145 6.554 1.364 0 2.653-.33 3.791-.913 1.558 4.19.663 9.011-2.332 12.219L33.03 38.31l-.835.163-.545.108c-1.06.215-1.312.265-2.552.074l-6.015-1.1c-.819-.283-.736-.935-.69-1.131.072-.305.355-.797.963-.705l.017.002.865.111c1.14.147 2.43.313 3.575.43 2.344.238 3.67-.992 3.945-2.318.28-1.35-.49-3.147-2.842-3.898a.823.823 0 00-.088-.022l-3.872-.71c-2.102-.386-3.737-.088-6.212.362-.655.119-1.397.253-2.224.389l-1.836.302-.565-.579-1.767-1.81c-3.303-3.54-4.035-9.087-1.778-13.49a.703.703 0 00-1.251-.641C6.799 18.772 7.624 24.98 11.33 28.945a.053.053 0 01.01.012l1.65 1.689-3.073.505v-.08c0-.543-.479-.985-1.067-.985H3.065c-.587 0-1.065.442-1.065.985v12.372c0 .542.478.984 1.065.984H8.85c.588 0 1.067-.442 1.067-.984v-.086l6.324 1.72 5.837 1.587c1.332.413 2.405.584 3.385.584 1.55 0 2.868-.425 4.608-.988l.476-.154 11.502-3.688c1.333-.427 2.282-1.387 2.537-2.568.198-.915-.078-1.818-.738-2.418-.534-.484-1.79-1.18-4.212-.414l-4.176.817 8.676-8.878.01-.012zM3.406 43.021V31.492h5.105v11.529H3.406zm36.619-4.651c1.297-.416 2.347-.379 2.88.104.286.26.398.654.307 1.078-.149.684-.744 1.255-1.592 1.526l-11.503 3.69a105.1 105.1 0 00-.48.154c-2.751.889-4.132 1.336-7.154.396l-.025-.008-12.54-3.41v-9.324l6.83-1.122c.838-.138 1.587-.275 2.248-.395 2.405-.437 3.857-.7 5.706-.36l3.827.702c1.493.49 2.008 1.51 1.852 2.258-.18.864-1.132 1.337-2.425 1.206-1.127-.116-2.408-.28-3.538-.426-.301-.04-.591-.077-.86-.11-1.345-.2-2.292.741-2.534 1.775-.052.22-.072.455-.057.691.051.855.562 1.742 1.728 2.114.03.01.418.082.418.082l5.742 1.05.018.002c1.185.185 1.698.17 2.425.04.19-.033.966-.19 1.166-.229l1.266-.247s6.269-1.229 6.295-1.237z" fill="#A3273B"/></svg>