<svg width="30" height="25" fill="none" xmlns="http://www.w3.org/2000/svg"><path d="M15.02 4.469c5.008.049 8.145-.263 8.568 5.287h6.106C29.694 1.159 22.196 0 14.862 0 7.528 0 .03 1.159.03 9.756h6.058c.47-5.655 3.968-5.336 8.933-5.287zM3.058 12.52c1.487 0 2.725.089 3-1.374.037-.199.058-.424.058-.685H0c0 2.176 1.37 2.059 3.058 2.059zm20.57-2.059h-.058c0 .263.023.489.065.685.29 1.349 1.526 1.265 3.008 1.265 1.697 0 3.072.112 3.072-1.95h-6.087z" fill="#fff"/><path d="M20.644 8.98v-.865c0-.387-.446-.411-.996-.411h-.899c-.55 0-.995.024-.995.41v1.325h-6.358V8.115c0-.387-.445-.411-.995-.411h-.9c-.549 0-.995.024-.995.41v1.62c-1.448 1.505-6.187 7.912-6.36 8.687l.003 5.176c0 .478.389.867.867.867h23.118a.868.868 0 00.867-.867v-5.202c-.17-.753-4.908-7.157-6.357-8.662V8.98zm-9.561 10.138a.842.842 0 110-1.685.842.842 0 010 1.685zm0-2.89a.842.842 0 110-1.685.842.842 0 010 1.685zm0-2.89a.843.843 0 110-1.684.843.843 0 010 1.685zm3.468 5.78a.842.842 0 110-1.685.842.842 0 010 1.685zm0-2.89a.842.842 0 110-1.685.842.842 0 010 1.685zm0-2.89a.843.843 0 110-1.684.843.843 0 010 1.685zm3.467 5.78a.842.842 0 110-1.684.842.842 0 010 1.684zm0-2.89a.842.842 0 110-1.684.842.842 0 010 1.684zm0-2.89a.842.842 0 110-1.683.842.842 0 010 1.684z" fill="#fff"/></svg>