<svg width="39" height="39" fill="none" xmlns="http://www.w3.org/2000/svg"><path d="M38.35 35.1H36.4V22.75a.65.65 0 00-1.183-.372l-9.1 13a.65.65 0 00.533 1.022h8.45v1.95a.65.65 0 001.3 0V36.4h1.95a.65.65 0 000-1.3zm-3.25 0h-7.202L35.1 24.812V35.1z" fill="#fff"/><path d="M26.65 37.7h-7.695l7.155-8.425a.724.724 0 00.045-.06 4.521 4.521 0 00-1.02-6.139A5.2 5.2 0 0016.9 27.3a.65.65 0 101.3 0 3.9 3.9 0 016.175-3.168 3.21 3.21 0 01.715 4.332l-8.035 9.465A.65.65 0 0017.55 39h9.1a.65.65 0 100-1.3z" fill="#fff"/><path d="M17.564 34.462a.65.65 0 00-.625-.674C8.459 33.474 1.653 26.68 1.323 18.2H3.9a.65.65 0 000-1.3H1.323C1.648 8.435 8.435 1.648 16.9 1.323V3.25a.65.65 0 001.3 0V1.323c8.349.323 15.087 6.934 15.569 15.275l-2.535-2.535a.65.65 0 00-.92.92l3.629 3.628a.638.638 0 00.256.186.734.734 0 00.078.02.64.64 0 00.137.032h.037a.623.623 0 00.146-.028.612.612 0 00.08-.015.64.64 0 00.234-.147l3.678-3.676a.65.65 0 00-.92-.92l-2.598 2.597C34.607 7.343 26.925.023 17.596.01 17.58.007 17.566 0 17.55 0s-.03.008-.046.01C7.847.021.022 7.846.009 17.503c0 .016-.009.03-.009.046s.008.03.01.046c.015 9.418 7.47 17.141 16.88 17.492h.025a.65.65 0 00.65-.626z" fill="#fff"/><path d="M26.282 8.817a.65.65 0 00-.919 0l-6.985 6.985a2.036 2.036 0 00-1.658 0l-3.307-3.308a.65.65 0 00-.919.92l3.3 3.3a1.947 1.947 0 003.134 2.215 1.928 1.928 0 00.376-2.214l6.978-6.979a.65.65 0 000-.919zM18.01 18.01a.665.665 0 01-.919 0 .65.65 0 11.92 0z" fill="#fff"/></svg>