<svg width="40" height="39" fill="none" xmlns="http://www.w3.org/2000/svg"><path d="M38.84 19.296c-3.165-4.704-3.372-6.026-3.38-6.095C33.97-1.515 15.722-2.278 8.429 5.408c-.49.58.432 1.323.932.742 6.687-6.998 23.532-6.36 24.89 7.137.009.242.243 1.7 3.581 6.66.11.168.157.366.134.563-.044.19-.197.344-.477.514-.948.504-1.93.945-2.939 1.323-.903.228.252 3.903-.324 6.266.046.818-3.011 1.412-5.183 1.25-1.357 0-1.843.67-1.843 1.287v4.344c-1.015 3.11-11.06 2.48-13.416.978a.877.877 0 01-.43-.91c.243-1.63.467-4.824-.864-7.95-.283-.703-1.423-.258-1.121.434 1.223 2.882 1.015 5.836.78 7.345-.13.828.278 1.65 1.032 2.078 3.366 1.868 10.75 1.863 14.093-.01a2.278 2.278 0 001.149-1.958l-.007-4.344c.01-.061.458-.165.754-.14 7.244.28 6.675-2.517 6.26-7.759 1.758-.732 4.863-1.72 3.41-3.962z" fill="#fff"/><path d="M22.233 24.898c6.037.496 9.75-6.78 9.976-8.452.308-1.126-4.222-2.084-5.159-2.238.048-.867.197-5.224-.985-5.196-.171 0-2.958.07-5.6 1.391a14.085 14.085 0 00-3.606-4.342c-1.192-.655-3.861 3.404-4.367 4.35-2.652-1.323-5.431-1.392-5.6-1.392-1.186.022-1.037 4.283-1 5.19-.952.157-5.416 1.1-5.15 2.231.072.224 1.621 5.545 6.008 7.623 2.59 1.598 8.228.456 9.726-.384.773.32 3.12 1.22 5.757 1.22zm4.65-9.511c1.388.21 2.736.615 4 1.203-1.461 4.607-5.97 8.762-12.175 6.626 3.281-.572 7.809-3.796 8.18-7.835l-.006.006zm-1.29-5.19c1.264 4.88-.892 10.742-7.386 11.93 2.08-2.025 4.466-7.076 2.738-10.648 1.816-.92 3.758-1.195 4.648-1.282zm-9.117-2.9c5.207 4.227 4.76 10.624 0 14.934-4.78-4.332-5.186-10.701 0-14.935zm-9.118 2.9c.885.087 2.833.361 4.657 1.288-1.754 3.575.66 8.64 2.735 10.666-6.578-1.307-8.613-6.97-7.392-11.954zm-.072 12.84c-3.2-1.514-4.765-5.183-5.225-6.453a15.303 15.303 0 013.993-1.22c.405 4.1 4.863 7.24 8.19 7.846-1.824.515-4.603.944-6.958-.173z" fill="#fff"/></svg>