<svg width="45" height="39" fill="none" xmlns="http://www.w3.org/2000/svg"><path d="M28.862 32.852a3.08 3.08 0 001.15-.22 2.99 2.99 0 00.972-.629l.53-.513c.301-.291.534-.64.684-1.026.15-.384.213-.795.186-1.205.425.025.851-.037 1.25-.182.398-.146.76-.37 1.06-.661l.531-.513c.3-.291.534-.641.684-1.026a2.81 2.81 0 00.186-1.206c.425.024.85-.038 1.249-.183.398-.146.76-.37 1.061-.66l.53-.513 2.12-2.05C43.582 19.813 45 16.498 45 13.044c0-3.455-1.418-6.77-3.945-9.222C38.62 1.462 35.334.096 31.88.005c-3.454-.09-6.812 1.101-9.379 3.329-2.566-2.228-5.924-3.42-9.379-3.33-3.454.092-6.74 1.458-9.176 3.817C1.418 6.274 0 9.59 0 13.043c0 3.455 1.418 6.77 3.945 9.222l4.77 4.613.531.512c.277.27.608.484.972.63.364.145.755.22 1.149.219.069 0 .135-.015.203-.02a2.79 2.79 0 00.175 1.212c.148.388.38.74.68 1.034l.531.512c.277.27.608.484.972.63.364.145.755.22 1.149.22.069 0 .135-.015.202-.02-.032.412.028.825.176 1.212s.38.739.681 1.032l.53.512c.277.27.608.484.973.63.364.146.755.22 1.15.22.067 0 .134-.015.202-.02-.032.411.028.823.176 1.21.147.386.379.737.68 1.03l.531.514c.277.27.608.486.972.632a3.091 3.091 0 002.299.001c.364-.145.694-.359.972-.629l3.178-3.073c.302-.293.534-.645.682-1.033.148-.387.207-.8.175-1.212.068.004.135.019.204.019h.002zm11.13-28.013c2.248 2.181 3.51 5.13 3.51 8.202 0 3.073-1.262 6.021-3.51 8.202l-.292.283a2.84 2.84 0 00-.764-1.304L27.273 8.947a2.347 2.347 0 00-1.592-.617c-.594 0-1.164.221-1.592.617l-5.831 5.637a3.123 3.123 0 01-2.12.82c-.79 0-1.549-.293-2.118-.82a.717.717 0 01-.22-.515c0-.193.079-.378.22-.515l9.012-8.715a11.993 11.993 0 013.887-2.512 12.357 12.357 0 014.59-.883c1.577 0 3.137.3 4.592.883a11.993 11.993 0 013.887 2.512h.004zm-34.983 0c2.15-2.087 5.05-3.301 8.103-3.391 3.052-.09 6.024.95 8.304 2.906l-8.459 8.18a2.14 2.14 0 00-.657 1.534c0 .575.237 1.127.657 1.535.418.403.914.724 1.46.942a4.641 4.641 0 003.446 0 4.503 4.503 0 001.46-.942l5.83-5.636a.775.775 0 01.528-.206c.197 0 .386.074.528.206L37.872 21.24c.282.273.44.642.44 1.027 0 .385-.158.754-.44 1.027l-.53.513c-.285.263-.664.41-1.059.41a1.56 1.56 0 01-1.058-.41l-8.482-8.2a.766.766 0 00-.53-.213.766.766 0 00-.532.21.71.71 0 00-.22.511.71.71 0 00.218.512l8.482 8.2c.282.273.44.643.44 1.027 0 .386-.158.755-.44 1.028l-.53.513a1.56 1.56 0 01-1.058.41 1.56 1.56 0 01-1.058-.41l-8.483-8.2a.752.752 0 00-.53-.214.777.777 0 00-.531.211.721.721 0 00-.221.51.699.699 0 00.218.512l8.485 8.2c.281.274.439.643.439 1.027 0 .385-.158.754-.44 1.027l-.53.514a1.496 1.496 0 01-.485.314 1.542 1.542 0 01-1.632-.314c0-.004-.01-.006-.014-.01l-.515-.505a3.035 3.035 0 00-1.073-.64 3.123 3.123 0 00-1.252-.16 2.781 2.781 0 00-.168-1.227 2.868 2.868 0 00-.686-1.045l-.53-.514a2.988 2.988 0 00-.973-.63 3.08 3.08 0 00-1.15-.219c-.068 0-.134.015-.203.019a2.784 2.784 0 00-.174-1.211 2.873 2.873 0 00-.68-1.033l-.531-.514a3.021 3.021 0 00-1.073-.642 3.11 3.11 0 00-1.253-.16 2.782 2.782 0 00-.17-1.226 2.869 2.869 0 00-.69-1.044l-.53-.513a3.001 3.001 0 00-.972-.629 3.095 3.095 0 00-2.299 0c-.364.146-.695.36-.973.629l-3.18 3.074c-.37.363-.634.815-.764 1.308l-2.943-2.846c-2.249-2.181-3.51-5.13-3.51-8.203 0-3.073 1.261-6.022 3.51-8.203zm6.359 21.955c-.197 0-.392-.037-.573-.11a1.489 1.489 0 01-.485-.314l-.53-.512a1.432 1.432 0 01-.44-1.028c0-.385.158-.754.44-1.028l3.18-3.074c.138-.135.303-.242.485-.314a1.543 1.543 0 011.632.314l.53.513c.282.274.44.643.44 1.028s-.158.754-.44 1.028l-3.18 3.074a1.49 1.49 0 01-.486.314 1.54 1.54 0 01-.573.11zm3.71 3.588a1.54 1.54 0 01-.573-.11 1.489 1.489 0 01-.485-.314l-.53-.512a1.432 1.432 0 01-.44-1.028c0-.386.158-.755.44-1.028l3.18-3.075a1.544 1.544 0 012.118 0l.53.514c.282.273.44.642.44 1.028 0 .385-.158.754-.44 1.028l-3.18 3.073a1.488 1.488 0 01-.486.315c-.181.073-.377.11-.574.109zm2.653 3.163l-.53-.514a1.43 1.43 0 01-.44-1.027c0-.385.158-.754.44-1.027l3.18-3.075a1.56 1.56 0 011.059-.41c.394 0 .773.147 1.058.41l.53.514c.282.273.44.641.44 1.026 0 .384-.159.753-.44 1.026l-.004.003-3.179 3.073v.004a1.558 1.558 0 01-1.057.408 1.56 1.56 0 01-1.057-.411zm9.003.513l-3.176 3.074a1.48 1.48 0 01-.485.314 1.541 1.541 0 01-1.63-.314l-.532-.513a1.43 1.43 0 01-.438-1.026c0-.384.157-.753.438-1.026l3.181-3.078a1.53 1.53 0 011.05-.419c.398 0 .78.15 1.062.42l.525.517c.282.272.441.64.443 1.024.001.385-.155.754-.435 1.028l-.003-.001z" fill="#fff"/></svg>