<svg width="42" height="47" fill="none" xmlns="http://www.w3.org/2000/svg"><path d="M35.382 32.266a18.358 18.358 0 004.965-6.474 18.153 18.153 0 001.649-7.958C41.786 8.347 34.099.525 24.518.027a18.676 18.676 0 00-7.275 1.057A18.518 18.518 0 0010.96 4.86a18.271 18.271 0 00-4.294 5.9 18.087 18.087 0 00-1.626 7.087L.327 26.81c-.02.037-.038.074-.055.112a3.285 3.285 0 00-.067 2.45c.295.796.886 1.45 1.652 1.83l.053.022 4.81 2.177v6.446c0 .88.354 1.725.984 2.348a3.38 3.38 0 002.376.973h10.079a1.69 1.69 0 001.187-.486 1.65 1.65 0 000-2.349 1.69 1.69 0 00-1.187-.486h-10.08v-7.51a1.637 1.637 0 00-.265-.898 1.675 1.675 0 00-.715-.613l-5.738-2.6 4.844-9.203a1.63 1.63 0 00.195-.76c0-3.386 1.163-6.672 3.3-9.32a15.141 15.141 0 018.459-5.25v3.235a5.026 5.026 0 00-2.667 2.175 4.933 4.933 0 00-.62 3.363 4.968 4.968 0 001.718 2.966 5.074 5.074 0 003.248 1.173c1.19 0 2.34-.416 3.248-1.173a4.967 4.967 0 001.72-2.966 4.932 4.932 0 00-.621-3.363 5.027 5.027 0 00-2.667-2.175V3.32c.273 0 .546 0 .82.02a15.282 15.282 0 018.228 2.97 15.01 15.01 0 015.197 6.971h-4.166a1.696 1.696 0 00-1.291.598l-5.357 6.355a5.108 5.108 0 00-3.468-.022 5.038 5.038 0 00-2.665 2.194 4.944 4.944 0 00-.606 3.374 4.981 4.981 0 001.738 2.966 5.088 5.088 0 003.263 1.16 5.088 5.088 0 003.251-1.193 4.98 4.98 0 001.707-2.983 4.945 4.945 0 00-.641-3.369l4.856-5.759h4.156c.05.432.08.867.092 1.307a14.853 14.853 0 01-1.52 6.875 15.036 15.036 0 01-4.523 5.433 1.644 1.644 0 00-.66 1.534l1.68 13.282c.051.4.249.77.555 1.037a1.69 1.69 0 001.943.199 1.673 1.673 0 00.79-1.003c.058-.21.074-.43.047-.646l-1.562-12.355zM21.838 13.282c-.332 0-.657-.097-.933-.28a1.664 1.664 0 01-.619-.745 1.642 1.642 0 01.365-1.809 1.698 1.698 0 011.83-.36c.307.126.57.339.754.612a1.646 1.646 0 01-.209 2.096 1.69 1.69 0 01-1.188.486zm3.36 13.283c-.332 0-.657-.098-.933-.28a1.665 1.665 0 01-.619-.745 1.643 1.643 0 01.364-1.81 1.698 1.698 0 011.83-.36c.308.126.57.34.755.612a1.646 1.646 0 01-.21 2.096 1.69 1.69 0 01-1.187.487z" fill="#26272B"/></svg>