<svg width="176" height="54" viewBox="0 0 176 54" fill="none" xmlns="http://www.w3.org/2000/svg">
<path d="M135.124 19.3161L168.266 18.6838L161.194 48.3037C161.1 48.6966 161.092 49.1026 161.17 49.4984C161.247 49.8942 161.409 50.2722 161.647 50.6108C161.884 50.9493 162.192 51.2417 162.553 51.4714C162.914 51.7011 163.321 51.8635 163.75 51.9494C164.18 52.0352 164.623 52.0429 165.056 51.9718C165.489 51.9008 165.902 51.7525 166.272 51.5354C166.642 51.3183 166.962 51.0366 167.213 50.7065C167.464 50.3763 167.642 50.0042 167.736 49.6113L175.713 16.1957C175.822 15.7427 175.816 15.2731 175.697 14.8223C175.578 14.3716 175.349 13.9514 175.026 13.5936C174.704 13.2357 174.297 12.9495 173.836 12.7565C173.375 12.5636 172.872 12.4689 172.365 12.4796L134.983 13.1931C134.543 13.2014 134.11 13.2889 133.707 13.4505C133.305 13.6121 132.941 13.8447 132.636 14.1349C132.332 14.4252 132.093 14.7675 131.933 15.1422C131.773 15.5169 131.696 15.9168 131.705 16.3189C131.714 16.7211 131.81 17.1176 131.986 17.486C132.163 17.8543 132.417 18.1872 132.734 18.4657C133.052 18.7441 133.426 18.9627 133.836 19.1089C134.245 19.2551 134.682 19.326 135.122 19.3177L135.124 19.3161Z" fill="#FF9444"/>
<path d="M67.9316 12.9115C65.2383 18.2919 64.619 24.519 66.2276 29.9929C67.5131 34.3643 70.0607 38.4142 73.529 41.8608C64.9697 44.1414 56.0227 44.9522 47.1405 44.2524C31.2221 43.0382 16.4803 37.2398 5.62868 27.9228C4.98063 27.371 4.12 27.0765 3.23514 27.1037C2.35028 27.1309 1.51325 27.4777 0.90721 28.0681C0.301174 28.6585 -0.0245041 29.4445 0.00143921 30.254C0.0273825 31.0635 0.402839 31.8307 1.04564 32.3876C12.9903 42.6462 29.1666 49.028 46.5748 50.3555C57.9403 51.2237 69.1719 49.8962 79.3825 46.5491C83.2759 49.0384 87.637 50.8508 92.2478 51.8959C105.617 54.9321 118.583 51.6049 127.106 48.2793C137.41 44.2585 146.792 38.7862 158.474 30.0036C158.831 29.7541 159.129 29.4414 159.351 29.0842C159.573 28.727 159.715 28.3326 159.767 27.9245C159.818 27.5164 159.78 27.1029 159.654 26.7086C159.527 26.3143 159.315 25.9474 159.031 25.6296C158.746 25.3118 158.394 25.0497 157.996 24.8588C157.598 24.6679 157.163 24.5523 156.715 24.5186C156.267 24.485 155.817 24.5342 155.39 24.6631C154.964 24.7921 154.57 24.9982 154.233 25.2693C142.922 33.7794 134.314 38.8123 124.49 42.6416C116.909 45.5998 105.443 48.5748 93.8715 45.9458C91.4927 45.4069 89.1899 44.6188 87.0086 43.5971C89.6774 42.3955 92.2584 41.0371 94.7352 39.5304C104.855 33.366 110.334 25.6812 110.163 17.8953C110.041 12.3832 106.787 7.23092 101.235 3.75523C95.244 0.00546498 87.638 -1.02499 81.3861 1.06655C75.5611 3.01875 70.7738 7.22326 67.9316 12.9115ZM97.4602 8.81412C101.206 11.1583 103.399 14.5146 103.476 18.0239C103.643 25.6062 95.7495 31.5608 91.0309 34.4363C87.7193 36.4485 84.207 38.1696 80.5408 39.5763L80.5056 39.5472C76.6106 36.3931 73.9106 32.5392 72.6937 28.402C71.4768 24.2649 71.9656 19.5658 74.0194 15.4593C76.1118 11.2762 79.5432 8.20932 83.6927 6.82364C87.9477 5.39508 93.2237 6.15759 97.4602 8.80953V8.81412Z" fill="#FF9444"/>
</svg>
