<svg width="38" height="32" viewBox="0 0 38 32" fill="none" xmlns="http://www.w3.org/2000/svg">
<path d="M15.932 0.205995C16.322 1.37599 16.517 2.351 16.517 3.131C16.517 3.833 16.4 4.769 16.166 5.939C10.94 5.939 8.327 8.63 8.327 14.012C8.327 15.962 9.341 17.054 11.369 17.288C14.333 17.522 15.815 19.433 15.815 23.021C15.815 25.751 15.152 27.857 13.826 29.339C12.578 30.743 10.277 31.445 6.923 31.445C2.321 31.445 0.0200003 28.325 0.0200003 22.085C0.0200003 15.845 1.268 10.658 3.764 6.524C6.26 2.312 10.316 0.205995 15.932 0.205995ZM37.109 0.205995C37.499 1.37599 37.694 2.351 37.694 3.131C37.694 3.833 37.577 4.769 37.343 5.939C32.117 5.939 29.504 8.63 29.504 14.012C29.504 15.962 30.518 17.054 32.546 17.288C35.51 17.522 36.992 19.433 36.992 23.021C36.992 25.751 36.329 27.857 35.003 29.339C33.755 30.743 31.454 31.445 28.1 31.445C23.498 31.445 21.197 28.325 21.197 22.085C21.197 15.845 22.445 10.658 24.941 6.524C27.437 2.312 31.493 0.205995 37.109 0.205995Z" fill="#005F59"/>
</svg>
