<svg width="95" height="95" viewBox="0 0 95 95" fill="none" xmlns="http://www.w3.org/2000/svg">
<path fill-rule="evenodd" clip-rule="evenodd" d="M6.14608 47.5088C6.15059 48.2879 6.46439 49.0332 7.01846 49.5809C7.57252 50.1286 8.32146 50.4338 9.10052 50.4293L78.3832 50.0286L60.0018 68.618C59.4534 69.1728 59.1479 69.9226 59.1524 70.7027C59.1569 71.4827 59.4711 72.229 60.0258 72.7774C60.5806 73.3258 61.3305 73.6314 62.1105 73.6268C62.8906 73.6223 63.6369 73.3081 64.1853 72.7534L87.549 49.1179C87.821 48.8434 88.0361 48.518 88.1822 48.1603C88.3282 47.8026 88.4022 47.4196 88.4 47.0332C88.3977 46.6468 88.3193 46.2647 88.1691 45.9086C88.019 45.5526 87.8001 45.2297 87.5249 44.9584L63.8895 21.5947C63.6148 21.3232 63.2893 21.1084 62.9316 20.9627C62.5739 20.8169 62.191 20.7431 61.8048 20.7453C61.0247 20.7498 60.2784 21.064 59.73 21.6188C59.1816 22.1735 58.8761 22.9234 58.8806 23.7035C58.8851 24.4835 59.1993 25.2298 59.7541 25.7782L78.3493 44.1537L9.06655 44.5544C8.28749 44.5589 7.54213 44.8727 6.99443 45.4267C6.44674 45.9808 6.14158 46.7297 6.14608 47.5088Z" fill="white"/>
</svg>
