<svg width="34" height="46" viewBox="0 0 34 46" fill="none" xmlns="http://www.w3.org/2000/svg">
<path d="M0.217194 2.80256L0.31535 43.3258C0.317629 43.7361 0.431758 44.138 0.645456 44.4882C0.85915 44.8385 1.16432 45.1238 1.52811 45.3135C1.8919 45.5032 2.30054 45.5901 2.71004 45.5648C3.11955 45.5395 3.5144 45.4031 3.85211 45.1701L33.0698 24.8376C34.2812 23.9949 34.2764 21.9732 33.0609 21.1342L3.74499 0.943439C3.40685 0.709728 3.01114 0.573153 2.60083 0.548551C2.19052 0.52395 1.78132 0.612264 1.41769 0.803898C1.05405 0.995532 0.749877 1.28316 0.538228 1.63552C0.326584 1.98789 0.21555 2.39152 0.217194 2.80256ZM27.8288 22.9974L4.80753 39.0194L4.73018 7.08712L27.8288 22.9974Z" fill="white"/>
</svg>
