<svg width="80" height="80" viewBox="0 0 80 80" fill="none" xmlns="http://www.w3.org/2000/svg">
<g clip-path="url(#clip0_1_617)">
<path d="M57.6667 60.1667C55.6667 60.1667 53.5 60.1667 51.5 60.1667C49.3333 60.1667 47.5 61.1667 46.1667 62.8333C44.8333 64.5 44.5 66.5 44.6667 68.5C44.6667 69.6667 45.5 70.5 46.6667 70.5C47.8333 70.5 48.6667 69.6667 48.6667 68.5C48.6667 68 48.6667 67.5 48.6667 67C48.6667 65.1667 50 63.8333 51.8333 63.8333C55.8333 63.8333 59.8333 63.8333 64 63.8333C65.8333 63.8333 67.1667 65.3333 67.1667 67C67.1667 67.5 67.1667 67.8333 67.1667 68.3333C67.1667 69.5 68 70.3333 69.1667 70.3333C70.3333 70.3333 71.1667 69.5 71.1667 68.3333C71.1667 68 71.1667 67.6667 71.1667 67.3333C71.1667 63.1667 68 60 63.8333 60C61.5 60.1667 59.6667 60.1667 57.6667 60.1667Z" fill="white"/>
<path d="M26 31C26 31.3333 26 31.6666 26 32.1666C26.1667 33.1666 27 34 28 33.8333C29 33.8333 29.8333 33 29.8333 31.8333C29.8333 31.3333 29.8333 31 29.8333 30.5C29.8333 28.6666 31.3333 27.1666 33.1667 27.1666C37.1667 27.1666 41 27.1666 45 27.1666C46.6667 27.1666 48 28.3333 48.1667 30C48.1667 30.6666 48.1667 31.1666 48.1667 31.8333C48.1667 32.8333 49 33.6666 50 33.6666C51 33.6666 52 33.1666 52.1667 32C52.1667 31.5 52.1667 31 52.1667 30.5C52.1667 26.3333 49 23.1666 44.6667 23.1666C40.8333 23.1666 37 23.1666 33.1667 23.1666C32.8333 23.1666 32.5 23.1666 32.1667 23.1666C28.5 23.8333 26 26.8333 26 31Z" fill="white"/>
<path d="M65.5 38.1667C65.1667 31.6667 62.8333 25.8334 58.3333 21C56 18.5 53.3333 16.5 50.3333 15.1667C49 14.5 47.6667 15.1667 47.5 16.5C47.3333 17.3334 47.8333 18.1667 48.8333 18.6667C56.1667 22.5 60.5 28.3334 61.5 36.6667C61.6667 37.5 61.5 38.5 61.6667 39.3334C61.8333 40.3334 62.6667 41 63.8333 40.8334C64.8333 40.8334 65.5 40 65.5 39C65.5 38.8334 65.5 38.5 65.5 38.1667Z" fill="white"/>
<path d="M12.8333 38.1667C12.8333 38.5 12.8333 38.8334 12.8333 39.1667C12.8333 40.1667 13.6667 40.8334 14.5 41C15.5 41.1667 16.3333 40.5 16.6667 39.5C16.6667 39.1667 16.8333 38.8334 16.8333 38.5C16.8333 35 17.6667 31.8334 19.3333 28.8334C21.6667 24.3334 25.1667 21 29.6667 18.8334C30.8333 18.3334 31.1667 17.1667 30.6667 16.1667C30.1667 15.1667 29 14.8334 28 15.3334C18.6667 20 13.6667 27.6667 12.8333 38.1667Z" fill="white"/>
<path d="M39.1667 61.5C38.3333 61.5 37.6667 61.5 37 61.3334C35.8333 61.3334 34.8333 62 34.8333 63.1667C34.6667 64.1667 35.5 65.1667 36.6667 65.3334C38.5 65.3334 40.3333 65.3334 42.1667 65.3334C43.3333 65.3334 44.1667 64.3334 44 63.1667C43.8333 62 42.8333 61.3334 41.6667 61.5C40.6667 61.3334 39.8333 61.5 39.1667 61.5Z" fill="white"/>
<path d="M7.66667 66.5C7.83334 66.1667 7.83334 65.8334 8.00001 65.5C8.83334 62.5 11.5 60.3334 14.6667 60.3334C18.8333 60.3334 23 60.3334 27.1667 60.3334C30.8333 60.3334 34 63.5 34 67.1667C34 67.6667 34 68.3334 34 68.8334C34 69.8334 33.1667 70.6667 32.1667 70.6667C31.1667 70.6667 30.3333 70 30.1667 69C30.1667 68.5 30.1667 68 30.1667 67.5C30.1667 65.5 28.8333 64.1667 26.8333 64C23 64 19.1667 64 15.1667 64C13.1667 64 11.8333 65.3334 11.8333 67.3334C11.8333 67.6667 11.8333 68 11.8333 68.3334C11.8333 69.3334 11.1667 70.1667 10.1667 70.3334C9.33334 70.5 8.33334 70 8.00001 69.1667L7.83334 69C7.66667 68.3334 7.66667 67.3334 7.66667 66.5Z" fill="white"/>
<path d="M40.1667 7.5C40.8333 7.66667 41.5 7.83333 42 8.16667C44.8333 9.5 46.3333 12.6667 45.6667 15.6667C45 18.6667 42.1667 20.8333 39.1667 20.6667C35.8333 20.5 33.3333 18.1667 32.8333 15C32.3333 11.5 34.6667 8.33333 38.1667 7.66667C38.3333 7.66667 38.5 7.66667 38.5 7.5C39 7.5 39.5 7.5 40.1667 7.5ZM41.8333 14C41.8333 12.5 40.6667 11.3333 39.1667 11.3333C37.6667 11.3333 36.5 12.5 36.5 14C36.5 15.5 37.6667 16.6667 39.1667 16.6667C40.6667 16.6667 41.8333 15.5 41.8333 14Z" fill="white"/>
<path d="M57.6667 60.1666C59.5 60.1666 61.5 60.1666 63.3333 60.1666C67.6667 60.1666 70.6667 63.3333 70.6667 67.5C70.6667 67.8333 70.6667 68.1666 70.6667 68.5C70.6667 69.6666 69.8333 70.5 68.6667 70.5C67.5 70.5 66.6667 69.6666 66.6667 68.5C66.6667 68 66.6667 67.6666 66.6667 67.1666C66.6667 65.3333 65.3333 64 63.5 64C59.5 64 55.5 64 51.3333 64C49.5 64 48.1667 65.3333 48.1667 67.1666C48.1667 67.6666 48.1667 68.1666 48.1667 68.6666C48.1667 69.8333 47.3333 70.6666 46.1667 70.6666C45 70.6666 44.3333 69.8333 44.1667 68.6666C44 66.5 44.3333 64.6666 45.6667 63C47 61.3333 48.8333 60.3333 51 60.3333C53.5 60.1666 55.6667 60.1666 57.6667 60.1666Z" fill="white"/>
<path d="M26 31C26 27 28.5 24 32.3333 23.3334C32.6667 23.3334 33 23.3334 33.3333 23.3334C37.1667 23.3334 41 23.3334 44.8333 23.3334C49 23.3334 52.1667 26.5 52.3333 30.6667C52.3333 31.1667 52.3333 31.6667 52.3333 32.1667C52.1667 33.1667 51.3333 33.8334 50.1667 33.8334C49.1667 33.8334 48.5 33 48.3333 32C48.3333 31.3334 48.3333 30.8334 48.3333 30.1667C48.1667 28.5 46.8333 27.3334 45.1667 27.3334C41.1667 27.3334 37.3333 27.3334 33.3333 27.3334C31.5 27.3334 30.1667 28.6667 30 30.6667C30 31.1667 30 31.5 30 32C30 33 29.1667 33.8334 28.1667 34C27.1667 34 26.3333 33.3334 26.1667 32.3334C26 31.6667 26 31.3334 26 31Z" fill="white"/>
<path d="M65.5 38.1666C65.5 38.5 65.5 38.8333 65.5 39.1666C65.5 40.1666 64.6667 41 63.8333 41C62.8333 41.1666 61.8333 40.5 61.6667 39.5C61.5 38.6666 61.5 37.6666 61.5 36.8333C60.5 28.6666 56.1667 22.6666 48.8333 18.8333C47.8333 18.3333 47.3333 17.5 47.5 16.6666C47.8333 15.3333 49.1667 14.6666 50.3333 15.3333C53.3333 16.8333 56 18.6666 58.3333 21.1666C62.8333 26 65.1667 31.6666 65.5 38.1666Z" fill="white"/>
<path d="M12.8333 38.1667C13.6667 27.6667 18.5 20 27.8333 15.3334C28.8333 14.8334 30 15.1667 30.5 16.1667C31 17.1667 30.6667 18.3334 29.5 18.8334C25 21 21.5 24.3334 19.1667 28.8334C17.6667 31.8334 16.8333 35.1667 16.6667 38.5C16.6667 38.8334 16.6667 39.1667 16.5 39.5C16.3333 40.5 15.3333 41 14.3333 41C13.5 40.8334 12.6667 40.1667 12.6667 39.1667C12.8333 38.8334 12.8333 38.5 12.8333 38.1667Z" fill="white"/>
<path d="M20.8333 57.5C17.1667 57.5 14.1667 54.5 14.3333 50.8334C14.3333 47.1667 17.3333 44.3334 21 44.3334C24.6667 44.3334 27.5 47.3334 27.5 50.8334C27.3333 54.5 24.3333 57.5 20.8333 57.5ZM20.8333 48.3334C19.3333 48.3334 18.1667 49.5 18.1667 51C18.1667 52.5 19.3333 53.6667 20.8333 53.6667C22.3333 53.6667 23.5 52.5 23.5 51C23.5 49.5 22.3333 48.3334 20.8333 48.3334Z" fill="white"/>
<path d="M57.6667 57.5C54 57.5 51 54.5 51.1667 50.8334C51.1667 47.1667 54.1667 44.3334 57.8333 44.3334C61.5 44.3334 64.3333 47.3334 64.3333 50.8334C64.3333 54.5 61.3333 57.5 57.6667 57.5ZM57.6667 48.3334C56.1667 48.3334 55 49.5 55 51C55 52.5 56.1667 53.6667 57.6667 53.6667C59.1667 53.6667 60.3333 52.5 60.3333 51C60.3333 49.3334 59.1667 48.3334 57.6667 48.3334Z" fill="white"/>
<path d="M39.1667 61.5C39.8333 61.5 40.6667 61.5 41.6667 61.3333C42.8333 61.1666 43.8333 62 44 63C44.1667 64 43.3333 65.1666 42.1667 65.1666C40.3333 65.3333 38.5 65.3333 36.6667 65.1666C35.5 65.1666 34.6667 64.1666 34.8333 63C35 61.8333 35.8333 61.1666 37 61.1666C37.6667 61.3333 38.3333 61.3333 39.1667 61.5Z" fill="white"/>
</g>
<defs>
<clipPath id="clip0_1_617">
<rect width="80" height="80" fill="white"/>
</clipPath>
</defs>
</svg>
