<svg width="73" height="72" viewBox="0 0 73 72" fill="none" xmlns="http://www.w3.org/2000/svg">
<g clip-path="url(#clip0_1_547)">
<path d="M47.6169 20.7C49.8669 20.4 52.1169 20.4 54.5169 20.7C55.4169 20.85 55.7169 21.45 55.4169 22.35C54.0669 25.8 52.1169 28.8 49.1169 31.05C47.0169 32.7 44.4669 33.45 41.9169 33.9C39.8169 34.2 37.8669 34.05 35.7669 33.9C35.0169 33.75 34.1169 34.05 33.3669 34.05C30.0669 34.2 26.7669 33.75 23.7669 32.1C21.6669 31.05 20.0169 29.4 18.6669 27.45C17.4669 25.95 16.5669 24.15 15.8169 22.35C15.5169 21.3 15.8169 20.7 16.8669 20.55C18.9669 20.25 21.2169 20.25 23.3169 20.55C23.4669 20.55 23.4669 20.55 23.6169 20.55C23.6169 19.8 23.4669 19.05 23.4669 18.3C23.4669 16.8 23.6169 15.3 23.7669 13.8C23.9169 12.9 24.5169 12.45 25.4169 12.9C27.2169 13.65 29.0169 14.55 30.5169 15.75C30.8169 15.9 30.9669 16.2 31.2669 16.35C31.8669 15.3 32.3169 14.25 32.9169 13.2C33.5169 12.3 34.1169 11.4 34.7169 10.5C35.3169 9.75 36.0669 9.75 36.6669 10.5C38.0169 12.15 39.0669 13.8 39.8169 15.75C39.9669 15.9 39.9669 16.2 40.1169 16.5C40.7169 16.05 41.3169 15.6 41.9169 15.15C43.2669 14.4 44.6169 13.65 45.9669 13.05C47.0169 12.6 47.6169 13.05 47.7669 14.1C48.0669 16.2 48.0669 18.15 47.7669 20.25C47.6169 20.25 47.6169 20.4 47.6169 20.7ZM35.4669 30.9C37.4169 27.9 38.9169 24.75 38.6169 21.15C38.4669 18 37.1169 15.3 35.4669 12.75C30.9669 18.9 31.2669 25.2 35.4669 30.9ZM45.5169 15.3C43.8669 16.05 42.3669 17.1 40.8669 18.3C40.5669 18.6 40.5669 18.75 40.5669 19.05C40.7169 20.1 40.8669 21 40.8669 22.05C40.8669 24.45 40.1169 26.7 39.0669 28.95C38.9169 29.25 38.7669 29.55 38.6169 29.85C44.4669 26.4 46.1169 21 45.5169 15.3ZM32.1669 29.85C31.8669 29.4 31.7169 28.95 31.5669 28.5C30.2169 25.65 29.6169 22.65 30.2169 19.5C30.3669 18.75 30.2169 18.3 29.6169 17.85C28.2669 16.8 26.9169 16.05 25.5669 15.3C24.8169 21.3 26.7669 26.55 32.1669 29.85ZM52.8669 22.65C51.0669 22.5 49.2669 22.5 47.4669 22.8C47.1669 22.8 46.8669 22.95 46.8669 23.4C45.8169 26.25 44.1669 28.65 41.7669 30.45C41.1669 30.9 40.5669 31.2 39.9669 31.65C45.5169 31.8 50.0169 28.8 52.8669 22.65ZM18.2169 22.65C20.9169 28.8 25.5669 31.8 31.1169 31.8C30.9669 31.65 30.9669 31.65 30.8169 31.65C27.6669 29.55 25.2669 27 24.0669 23.4C24.0669 23.25 23.7669 23.1 23.7669 23.1C21.9669 22.65 20.0169 22.5 18.2169 22.65Z" fill="white"/>
<path d="M47.3169 42.45C47.4669 42.15 47.6169 42 47.7669 41.85C50.4669 39.15 53.1669 36.45 55.7169 33.75C57.2169 32.25 59.1669 31.95 60.9669 32.85C63.6669 34.2 64.1169 37.65 61.8669 40.05C58.8669 43.2 55.7169 46.2 52.5669 49.35C50.7669 51.15 48.9669 52.95 47.1669 54.75C45.9669 56.1 44.4669 56.7 42.6669 56.7C37.1169 56.7 31.7169 56.7 26.1669 56.7C25.7169 56.7 25.5669 56.85 25.2669 57.15C22.7169 59.85 20.0169 62.4 17.4669 65.1C16.7169 65.85 16.1169 65.85 15.2169 65.1C12.8169 62.7 10.5669 60.3 8.16689 58.05C7.41689 57.3 7.41689 56.7 8.16689 55.95C13.1169 51 17.9169 46.2 22.8669 41.25C24.0669 40.05 25.5669 39.45 27.3669 39.45C32.4669 39.45 37.5669 39.45 42.6669 39.45C45.0669 39.3 46.2669 40.05 47.3169 42.45ZM16.5669 63C16.5669 62.85 16.7169 62.7 16.8669 62.55C19.2669 60.15 21.8169 57.6 24.2169 55.2C24.6669 54.75 25.1169 54.6 25.7169 54.6C31.4169 54.6 37.1169 54.6 42.8169 54.6C44.0169 54.6 44.9169 54.15 45.8169 53.4C46.8669 52.35 47.9169 51.3 49.1169 50.1C52.8669 46.2 56.7669 42.45 60.5169 38.55C61.5669 37.5 61.5669 36.15 60.6669 35.25C59.7669 34.35 58.4169 34.35 57.5169 35.4C53.7669 39.15 50.1669 42.9 46.4169 46.65C45.5169 47.55 44.6169 48 43.4169 48C40.1169 48 36.8169 48 33.6669 48C33.6669 48 33.6669 48 33.5169 48C32.9169 48 32.3169 47.55 32.4669 46.95C32.4669 46.35 32.9169 45.9 33.5169 45.9C34.5669 45.9 35.6169 45.9 36.5169 45.9C38.7669 45.9 40.8669 45.9 43.1169 45.9C44.7669 45.9 45.8169 44.4 45.3669 43.05C45.0669 42.15 44.1669 41.55 43.1169 41.55C37.8669 41.55 32.7669 41.55 27.5169 41.55C26.3169 41.55 25.2669 42 24.5169 42.75C20.0169 47.25 15.3669 51.9 10.8669 56.4C10.7169 56.55 10.5669 56.7 10.4169 56.85C12.3669 58.8 14.3169 60.75 16.5669 63Z" fill="white"/>
<path d="M28.8669 45.75C29.4669 45.75 29.9169 46.2 29.9169 46.8C29.9169 47.4 29.4669 47.85 28.8669 47.85C28.2669 47.85 27.8169 47.4 27.8169 46.8C27.8169 46.35 28.2669 45.75 28.8669 45.75Z" fill="white"/>
</g>
<defs>
<clipPath id="clip0_1_547">
<rect width="72" height="72" fill="white" transform="translate(0.0668945)"/>
</clipPath>
</defs>
</svg>
