<svg width="76" height="76" viewBox="0 0 76 76" fill="none" xmlns="http://www.w3.org/2000/svg">
<path d="M18.05 55.7333C17.8917 54.7833 17.8917 53.9917 17.7333 53.3583C17.7333 52.8833 17.4167 52.725 16.9417 52.725C15.675 52.8833 14.4083 52.8833 13.1417 52.8833C10.2917 52.8833 8.70834 51.6167 7.60001 48.925C7.60001 48.7667 7.44167 48.6083 7.44167 48.2917C6.65001 44.8083 5.70001 41.325 5.06667 37.8417C4.75001 36.2583 4.90834 34.675 5.06667 33.0917C5.22501 31.825 6.33334 31.1917 7.75834 31.5083C8.86667 31.825 9.81667 32.4583 10.1333 33.5667C10.6083 34.5167 10.925 35.625 11.0833 36.7333C11.4 38.475 12.0333 39.9 13.775 40.6917C15.9917 41.6417 17.8917 42.9083 19.95 43.8583C20.9 44.3333 21.6917 44.175 22.1667 43.3833C22.6417 42.5917 22.325 41.8 21.375 41.325C19.3167 40.2167 17.2583 39.1083 15.0417 38C14.25 37.6833 13.9333 37.2083 13.9333 36.4167C13.9333 35.7833 13.775 35.15 13.6167 34.5167C12.9833 31.9833 11.5583 29.925 8.86667 28.975C6.01667 28.025 2.37501 29.45 2.21667 33.0917C2.05834 34.9917 2.05834 37.05 2.37501 38.7917C3.00834 42.275 3.95834 45.9167 4.90834 49.4C5.85834 52.5667 7.60001 54.9417 11.0833 55.575C11.7167 55.7333 12.35 55.8917 12.9833 55.8917C14.725 55.8917 16.3083 55.8917 18.05 55.7333Z" fill="white"/>
<path d="M49.7167 30.7167C51.6167 32.4583 53.2 34.0417 54.9417 35.625C56.6833 34.0417 58.425 32.4583 60.1667 30.7167C61.5917 31.5083 63.0167 32.3 64.2833 33.25C64.9167 33.725 65.2333 34.3583 65.2333 35.15C65.2333 36.2583 65.2333 37.2083 65.2333 38.3167C65.2333 39.425 65.8667 40.0583 66.6583 40.0583C67.45 40.0583 68.2417 39.2667 68.2417 38.1583C68.2417 37.2083 68.2417 36.2583 68.2417 35.3083C68.4 33.4083 67.6083 31.9833 66.1833 31.0333C64.4417 29.925 62.7 28.975 60.9583 28.025C60.0083 27.55 59.2167 27.7083 58.425 28.5C57.3167 29.6083 56.2083 30.7167 55.1 31.825C53.8333 30.7167 52.725 29.6083 51.6167 28.5C50.825 27.7083 50.0333 27.55 49.0833 28.025C47.025 28.975 45.125 30.2417 43.3833 31.6667C42.275 32.6167 41.6417 33.725 41.6417 35.15C41.6417 36.575 41.6417 37.8417 41.8 39.2667C41.8 39.5833 42.1167 40.0583 42.4333 40.2167C43.3833 40.85 44.65 40.2167 44.65 38.95C44.65 37.8417 44.65 36.7333 44.65 35.625C44.65 34.675 44.9667 33.8833 45.7583 33.4083C47.025 32.4583 48.45 31.5083 49.7167 30.7167Z" fill="white"/>
<path d="M55.1 11.2416C54.7833 11.2416 54.3083 11.2416 53.9917 11.2416C50.5083 11.5583 48.1333 13.775 47.5 17.1C47.1833 19.3166 47.5 21.2166 48.2917 23.275C48.7667 24.5416 49.4 25.0166 50.35 24.7C51.3 24.3833 51.4583 23.4333 50.9833 22.325C50.5083 20.9 50.1917 19.475 50.35 18.05C50.5083 16.4666 50.9833 14.8833 52.725 14.4083C53.8333 14.25 55.1 14.0916 56.3667 14.25C58.1083 14.4083 59.2167 15.5166 59.6917 17.2583C60.0083 18.6833 59.85 20.1083 59.375 21.5333C59.2167 22.0083 58.9 22.4833 58.9 23.1166C58.9 23.4333 58.9 23.9083 59.0583 24.225C59.2167 24.8583 59.85 25.175 60.325 25.175C60.9583 25.175 61.4333 24.7 61.5917 24.0666C62.3833 22.4833 62.7 20.7416 62.7 18.8416C62.8583 14.25 59.6917 11.0833 55.1 11.2416Z" fill="white"/>
<path d="M27.8667 51.775C27.8667 48.6083 26.4417 47.1833 23.275 46.8666C20.2667 46.55 17.2583 46.2333 14.0917 45.9166C13.1417 45.7583 12.5083 46.3916 12.35 47.1833C12.1917 47.975 12.825 48.7666 13.775 48.7666C16.7833 49.0833 19.7917 49.4 22.9583 49.7166C24.5417 49.875 24.8583 50.1916 24.8583 51.775C24.8583 51.9333 24.8583 52.25 24.8583 52.4083C24.5417 53.675 24.3833 54.9416 24.0667 56.05C23.4333 58.9 22.6417 61.9083 21.85 64.7583C21.5333 65.7083 22.325 66.5 23.275 66.5C24.0667 66.5 24.3833 66.025 24.7 65.2333C25.65 61.75 26.6 58.1083 27.3917 54.625C27.55 53.5166 27.7083 52.725 27.8667 51.775Z" fill="white"/>
<path d="M30.875 45.9167C29.7667 45.9167 28.6583 45.9167 27.55 45.9167C27.2333 45.9167 26.9167 45.9167 26.6 45.7583C25.9667 45.6 25.4917 44.8083 25.65 44.175C25.65 43.5417 26.2833 42.9083 26.9167 42.9083C27.2333 42.9083 27.3917 42.9083 27.7083 42.9083C42.275 42.9083 56.8417 42.9083 71.4083 42.9083C71.5667 42.9083 71.8833 42.9083 72.0417 42.9083C72.9917 42.9083 73.625 43.5417 73.625 44.3333C73.625 45.125 72.9917 45.7583 72.2 45.9167C71.25 45.9167 70.3 45.9167 69.35 45.9167C69.0333 45.9167 68.875 45.9167 68.4 45.9167C68.4 46.2333 68.4 46.55 68.4 46.8667C68.4 51.775 68.4 56.8417 68.4 61.75C68.4 64.4417 66.975 65.8667 64.2833 65.8667C54.4667 65.8667 44.65 65.8667 34.675 65.8667C32.4583 65.8667 30.7167 64.4417 30.7167 61.9083C30.875 56.8417 30.7167 51.9333 30.7167 46.8667C30.875 46.7083 30.875 46.3917 30.875 45.9167ZM33.5667 46.075C33.5667 46.3917 33.5667 46.55 33.5667 46.8667C33.5667 51.9333 33.5667 57 33.5667 62.0667C33.5667 63.0167 33.725 63.175 34.675 63.175C44.4917 63.175 54.3083 63.175 64.125 63.175C65.2333 63.175 65.2333 63.0167 65.2333 62.0667C65.2333 57 65.2333 51.9333 65.2333 46.8667C65.2333 46.55 65.2333 46.3917 65.2333 46.075C54.7833 46.075 44.3333 46.075 33.5667 46.075Z" fill="white"/>
<path d="M18.05 55.7333C16.3083 55.7333 14.725 55.8917 12.9833 55.8917C12.35 55.8917 11.7167 55.7333 11.0833 55.575C7.60001 54.9417 5.85834 52.5667 4.90834 49.4C3.95834 45.9167 3.00834 42.4333 2.37501 38.7917C2.05834 36.8917 2.05834 34.9917 2.21667 33.0917C2.53334 29.45 6.01667 28.025 8.86667 28.975C11.5583 29.925 12.9833 31.9833 13.6167 34.5167C13.775 35.15 13.9333 35.7833 13.9333 36.4167C13.9333 37.2083 14.25 37.6833 15.0417 38C17.2583 38.95 19.3167 40.2167 21.375 41.325C22.325 41.8 22.4833 42.5917 22.1667 43.3833C21.85 44.0167 20.9 44.3333 19.95 43.8583C17.8917 42.75 15.8333 41.6417 13.775 40.6917C12.0333 39.9 11.4 38.6333 11.0833 36.7333C10.925 35.625 10.6083 34.5167 10.1333 33.5667C9.65834 32.4583 8.86667 31.825 7.75834 31.5083C6.49167 31.1917 5.22501 31.825 5.06667 33.0917C4.90834 34.675 4.90834 36.2583 5.06667 37.8417C5.70001 41.325 6.65001 44.8083 7.44167 48.2917C7.44167 48.45 7.60001 48.6083 7.60001 48.925C8.55001 51.6167 10.1333 52.725 13.1417 52.8833C14.4083 52.8833 15.675 52.8833 16.9417 52.725C17.4167 52.725 17.575 52.8833 17.7333 53.3583C17.8917 54.15 17.8917 54.7833 18.05 55.7333Z" fill="white"/>
<path d="M49.7167 30.7167C48.2917 31.6667 47.025 32.4583 45.6 33.4083C44.8083 33.8833 44.4917 34.675 44.4917 35.625C44.4917 36.7333 44.4917 37.8417 44.4917 38.95C44.4917 40.2167 43.225 41.0083 42.275 40.2167C41.9583 40.0583 41.6417 39.5833 41.6417 39.2667C41.4833 37.8417 41.4833 36.575 41.4833 35.15C41.4833 33.725 42.1167 32.6167 43.225 31.6667C44.9667 30.2417 46.8667 28.975 48.925 28.025C49.875 27.55 50.6667 27.7083 51.4583 28.5C52.5667 29.6083 53.8333 30.7167 54.9417 31.825C56.05 30.7167 57.1583 29.6083 58.2667 28.5C59.0583 27.7083 59.85 27.55 60.8 28.025C62.5417 28.975 64.4417 29.925 66.025 31.0333C67.45 31.9833 68.2417 33.5667 68.0833 35.3083C68.0833 36.2583 68.0833 37.2083 68.0833 38.1583C68.0833 39.2667 67.45 40.0583 66.5 40.0583C65.7083 40.0583 65.075 39.2667 65.075 38.3167C65.075 37.2083 65.075 36.2583 65.075 35.15C65.075 34.3583 64.7583 33.725 64.125 33.25C62.7 32.4583 61.275 31.5083 60.0083 30.7167C58.1083 32.4583 56.525 34.0417 54.7833 35.625C53.3583 33.8833 51.6167 32.3 49.7167 30.7167Z" fill="white"/>
<path d="M55.1 11.2416C59.6917 11.0833 62.8583 14.25 62.7 18.8416C62.7 20.5833 62.225 22.325 61.5917 24.0666C61.275 24.7 60.9583 25.0166 60.325 25.175C59.6917 25.175 59.2167 24.8583 59.0583 24.225C58.9 23.9083 58.9 23.4333 58.9 23.1166C59.0583 22.6416 59.2167 22.0083 59.375 21.5333C60.0083 20.1083 60.1667 18.8416 59.6917 17.2583C59.2167 15.5166 58.1083 14.4083 56.3667 14.25C55.2583 14.0916 53.9917 14.25 52.725 14.5666C50.9833 15.0416 50.5083 16.625 50.35 18.2083C50.1917 19.6333 50.5083 21.0583 50.9833 22.4833C51.4583 23.75 51.1417 24.7 50.35 24.8583C49.4 25.175 48.7667 24.7 48.2917 23.4333C47.6583 21.375 47.1833 19.3166 47.5 17.2583C48.1333 13.775 50.5083 11.5583 53.9917 11.4C54.4667 11.2416 54.7833 11.2416 55.1 11.2416Z" fill="white"/>
<path d="M27.8667 51.7749C27.7083 52.7249 27.55 53.5166 27.3917 54.4666C26.4417 58.1083 25.4917 61.5916 24.7 65.0749C24.5417 65.8666 24.0667 66.1833 23.275 66.3416C22.1667 66.3416 21.5333 65.7083 21.85 64.5999C22.4833 61.7499 23.275 58.7416 24.0667 55.8916C24.3833 54.6249 24.5417 53.3583 24.8583 52.2499C24.8583 52.0916 24.8583 51.9333 24.8583 51.6166C24.8583 50.0333 24.5417 49.7166 22.9583 49.5583C19.95 49.2416 16.7833 48.9249 13.775 48.6083C12.825 48.4499 12.35 47.8166 12.35 47.0249C12.5083 46.0749 13.1417 45.5999 14.0917 45.7583C17.1 46.0749 20.1083 46.3916 23.275 46.7083C26.4417 47.0249 27.8667 48.6083 27.8667 51.7749Z" fill="white"/>
<path d="M15.3583 19.6334C15.3583 22.9584 12.6667 25.4917 9.34167 25.4917C6.175 25.4917 3.48334 22.8 3.48334 19.475C3.48334 16.15 6.175 13.6167 9.5 13.6167C12.6667 13.775 15.3583 16.4667 15.3583 19.6334ZM12.35 19.475C12.35 17.8917 11.0833 16.4667 9.34167 16.4667C7.75834 16.4667 6.33334 17.8917 6.33334 19.475C6.33334 21.2167 7.75834 22.4834 9.34167 22.4834C11.0833 22.4834 12.35 21.2167 12.35 19.475Z" fill="white"/>
<path d="M51.1417 55.8917C51.1417 57 51.1417 57.95 51.1417 58.7417C51.1417 59.85 50.5083 60.6417 49.5583 60.6417C48.6083 60.6417 47.975 59.85 47.975 58.7417C47.975 57.7917 47.975 56.8417 47.975 55.8917C47.1833 55.8917 46.3917 55.8917 45.6 55.8917C45.2833 55.8917 44.9667 55.8917 44.65 55.8917C43.8583 55.7333 43.225 55.1 43.225 54.4667C43.225 53.675 43.8583 53.0417 44.8083 53.0417C45.9167 53.0417 46.8667 53.0417 47.975 53.0417C47.975 51.9333 47.975 50.9833 47.975 49.875C47.975 48.6083 49.0833 47.8167 50.1917 48.2917C50.825 48.6083 51.1417 49.2417 51.1417 49.875C51.1417 50.825 51.1417 51.775 51.1417 52.8833C52.25 52.8833 53.2 52.8833 54.15 52.8833C55.4167 52.8833 56.2083 53.9917 55.575 55.1C55.2583 55.7333 54.7833 56.05 53.9917 56.05C53.2 55.8917 52.25 55.8917 51.1417 55.8917Z" fill="white"/>
</svg>
