<svg width="82" height="82" viewBox="0 0 82 82" fill="none" xmlns="http://www.w3.org/2000/svg">
<g clip-path="url(#clip0_1_582)">
<path d="M15.0333 33.4834C15.2042 32.4584 15.375 31.6042 15.7167 30.5792C16.5708 28.5292 18.1083 27.1625 20.1583 26.1375C20.5 25.9667 20.6708 25.7959 20.6708 25.4542C20.6708 24.7709 20.6708 24.0875 20.6708 23.4042C20.6708 21.8667 21.6958 20.6709 23.4042 20.6709C25.4542 20.6709 26.4792 21.6959 26.4792 23.7459C26.4792 24.2584 26.4792 24.6 26.4792 25.1125C26.9917 25.1125 27.5042 25.1125 28.1875 25.1125C28.1875 24.9417 28.1875 24.6 28.1875 24.4292C28.1875 22.8917 28.1875 21.525 28.3583 19.9875C28.8708 16.5709 31.775 14.0084 35.1917 13.8375C37.7542 13.6667 40.3167 13.8375 42.8792 13.8375C43.3917 13.8375 43.7333 14.1792 43.7333 14.6917C43.7333 15.2042 43.3917 15.375 42.8792 15.375C40.4875 15.375 38.2667 15.375 35.875 15.375C34.5083 15.375 33.1417 15.7167 31.9458 16.7417C30.5792 17.9375 29.725 19.3042 29.725 21.1834C29.725 22.55 29.725 23.9167 29.725 25.2834C30.75 25.2834 31.775 25.2834 32.8 25.2834C32.8 24.0875 32.8 22.8917 32.8 21.6959C32.8 21.0125 32.9708 20.3292 33.3125 19.8167C33.9958 18.9625 34.6792 18.6209 35.7042 18.6209C39.6333 18.6209 43.5625 18.6209 47.6625 18.6209C49.3708 18.6209 50.5667 19.9875 50.5667 21.6959C50.5667 22.7209 50.5667 23.7459 50.5667 24.7709C50.5667 24.9417 50.5667 25.1125 50.5667 25.2834C51.5917 25.2834 52.6167 25.2834 53.6417 25.2834C53.6417 23.575 53.6417 21.8667 53.3 20.1584C52.7875 17.425 50.3958 15.5459 47.4917 15.5459C46.9792 15.5459 46.4667 15.5459 45.9542 15.5459C45.4417 15.5459 45.2708 15.2042 45.2708 14.6917C45.2708 14.35 45.6125 14.0084 45.9542 14.0084C48.5167 13.8375 50.7375 14.1792 52.6167 16.0584C54.1542 17.425 55.0083 19.3042 55.0083 21.3542C55.0083 22.7209 55.0083 24.0875 55.0083 25.4542C55.5208 25.4542 56.0333 25.4542 56.7167 25.4542C56.7167 24.9417 56.7167 24.2584 56.7167 23.7459C56.7167 22.0375 57.7417 21.0125 59.45 21.0125C61.5 21.0125 62.525 22.0375 62.525 23.9167C62.525 24.6 62.525 25.1125 62.525 25.7959C62.525 25.9667 62.6958 26.1375 62.6958 26.3084C65.7708 27.8459 67.4792 30.2375 67.9917 33.4834C67.9917 41.5125 67.9917 49.7125 67.9917 57.7417C67.9917 57.9125 67.9917 57.9125 67.8208 58.0834C67.1375 61.6709 65.0875 64.2334 61.6708 65.4292C60.6458 65.7709 59.6208 65.9417 58.5958 65.9417C47.15 65.9417 35.5333 65.9417 24.0875 65.9417C19.6458 65.9417 16.2292 63.2084 15.2042 59.1084C15.0333 58.7667 15.0333 58.425 15.0333 57.9125C15.0333 49.5417 15.0333 41.5125 15.0333 33.4834ZM41.5125 64.0625C47.3208 64.0625 53.1292 64.0625 58.9375 64.0625C63.2083 64.0625 66.4542 60.8167 66.4542 56.5459C66.4542 49.2 66.4542 41.8542 66.4542 34.5084C66.4542 30.2375 63.2083 26.9917 58.9375 26.9917C47.3208 26.9917 35.7042 26.9917 24.0875 26.9917C19.8167 26.9917 16.5708 30.2375 16.5708 34.5084C16.5708 41.8542 16.5708 49.2 16.5708 56.7167C16.5708 57.2292 16.5708 57.7417 16.7417 58.2542C17.425 61.8417 20.5 64.2334 24.0875 64.2334C29.8958 64.0625 35.7042 64.0625 41.5125 64.0625ZM48.8583 25.2834C48.8583 24.0875 48.8583 23.0625 48.8583 21.8667C48.8583 20.5 48.3458 19.9875 46.9792 19.9875C44.2458 19.9875 41.5125 19.9875 38.7792 19.9875C37.7542 19.9875 36.7292 19.9875 35.7042 19.9875C34.5083 19.9875 33.9958 20.5 33.9958 21.6959C33.9958 22.7209 33.9958 23.7459 33.9958 24.6C33.9958 24.7709 33.9958 24.9417 33.9958 25.1125C39.1208 25.2834 43.9042 25.2834 48.8583 25.2834ZM24.7708 25.2834C24.7708 24.6 24.7708 23.9167 24.7708 23.4042C24.7708 22.8917 24.4292 22.55 23.9167 22.3792C23.0625 22.2084 22.3792 22.55 22.2083 23.0625C22.0375 23.9167 22.2083 24.6 22.2083 25.4542C22.7208 25.4542 23.0625 25.2834 23.4042 25.2834C23.9167 25.2834 24.2583 25.2834 24.7708 25.2834ZM60.8167 25.4542C60.8167 24.9417 60.8167 24.4292 60.8167 23.9167C60.8167 22.7209 60.3042 22.2084 59.1083 22.3792C58.5958 22.3792 58.2542 22.7209 58.0833 23.2334C58.0833 23.9167 58.0833 24.6 58.0833 25.1125C59.1083 25.2834 59.9625 25.4542 60.8167 25.4542Z" fill="white"/>
<path d="M35.5333 39.6334C35.5333 37.7542 35.5333 36.0459 35.5333 34.3376C35.5333 32.4584 36.7291 31.2626 38.6083 31.2626C40.4875 31.2626 42.3666 31.2626 44.075 31.2626C45.9541 31.2626 47.15 32.4584 47.15 34.3376C47.15 35.8751 47.15 37.4126 47.15 39.1209C47.15 39.2917 47.15 39.4626 47.15 39.8042C47.6625 39.8042 48.0041 39.8042 48.3458 39.8042C49.8833 39.8042 51.25 39.8042 52.7875 39.8042C54.325 39.8042 55.5208 41.0001 55.6916 42.5376C55.6916 44.5876 55.6916 46.6376 55.6916 48.6876C55.6916 50.3959 54.4958 51.4209 52.7875 51.4209C51.25 51.4209 49.5416 51.4209 48.0041 51.4209C47.8333 51.4209 47.6625 51.4209 47.3208 51.4209C47.3208 51.5917 47.3208 51.7626 47.3208 52.1042C47.3208 53.6417 47.3208 55.3501 47.3208 56.8876C47.3208 58.7667 46.125 59.9626 44.2458 59.9626C42.3666 59.9626 40.4875 59.9626 38.6083 59.9626C36.7291 59.9626 35.5333 58.7667 35.5333 56.8876C35.5333 55.3501 35.5333 53.8126 35.5333 52.1042C35.5333 51.9334 35.5333 51.7626 35.5333 51.4209C35.1916 51.4209 35.0208 51.4209 34.6791 51.4209C34.1666 51.4209 33.825 51.0792 33.825 50.5667C33.825 50.2251 34.1666 49.8834 34.6791 49.8834C35.1916 49.8834 35.7041 49.8834 36.2166 49.8834C36.9 49.8834 37.0708 50.2251 37.0708 50.7376C37.0708 52.6167 37.0708 54.6667 37.0708 56.5459C37.0708 57.7417 37.5833 58.2542 38.7791 58.2542C40.6583 58.2542 42.3666 58.2542 44.2458 58.2542C45.2708 58.2542 45.7833 57.7417 45.7833 56.7167C45.7833 54.8376 45.7833 52.7876 45.7833 50.9084C45.7833 50.0542 45.9541 49.8834 46.8083 49.8834C48.6875 49.8834 50.5666 49.8834 52.4458 49.8834C53.6416 49.8834 54.1541 49.3709 54.1541 48.1751C54.1541 46.2959 54.1541 44.5876 54.1541 42.7084C54.1541 41.5126 53.6416 41.1709 52.6166 41.1709C50.7375 41.1709 48.6875 41.1709 46.8083 41.1709C45.9541 41.1709 45.7833 41.0001 45.7833 40.1459C45.7833 38.2667 45.7833 36.2167 45.7833 34.3376C45.7833 33.1417 45.2708 32.6292 44.075 32.6292C42.1958 32.6292 40.4875 32.6292 38.6083 32.6292C37.4125 32.6292 37.0708 33.1417 37.0708 34.1667C37.0708 36.0459 37.0708 38.0959 37.0708 39.9751C37.0708 40.8292 36.9 41.0001 36.0458 41.0001C34.1666 41.0001 32.1166 41.0001 30.2375 41.0001C29.2125 41.0001 28.7 41.5126 28.7 42.5376C28.7 44.4167 28.7 46.2959 28.7 48.1751C28.7 49.2001 29.2125 49.7126 30.2375 49.7126C30.75 49.7126 31.0916 49.7126 31.6041 49.7126C32.1166 49.7126 32.4583 50.0542 32.4583 50.3959C32.4583 50.9084 32.1166 51.2501 31.6041 51.2501C30.9208 51.2501 30.2375 51.2501 29.5541 51.2501C28.1875 51.0792 27.1625 50.0542 27.1625 48.6876C27.1625 46.6376 27.1625 44.4167 27.1625 42.3667C27.1625 40.8292 28.3583 39.6334 29.8958 39.6334C31.6041 39.6334 33.3125 39.6334 34.85 39.6334C35.1916 39.6334 35.3625 39.6334 35.5333 39.6334Z" fill="white"/>
</g>
<defs>
<clipPath id="clip0_1_582">
<rect width="82" height="82" fill="white"/>
</clipPath>
</defs>
</svg>
