<svg width="62" height="62" fill="none" xmlns="http://www.w3.org/2000/svg"><path d="M37.018 11.181h-3.106V8.076a1.035 1.035 0 00-1.035-1.035h-4.14A1.035 1.035 0 0027.7 8.076v3.105h-3.105a1.035 1.035 0 00-1.035 1.035v4.141a1.036 1.036 0 001.035 1.035H27.7v3.106a1.035 1.035 0 001.035 1.035h4.141a1.035 1.035 0 001.035-1.035v-3.106h3.106a1.035 1.035 0 001.035-1.035v-4.14a1.036 1.036 0 00-1.035-1.036zm-1.035 4.14h-3.106a1.035 1.035 0 00-1.035 1.036v3.106h-2.07v-3.106a1.035 1.035 0 00-1.036-1.035h-3.105v-2.07h3.105a1.036 1.036 0 001.035-1.036V9.111h2.07v3.105a1.035 1.035 0 001.036 1.036h3.105v2.07zm23.529 1.409a4.81 4.81 0 00.03-.549 4.162 4.162 0 00-3.291-4.048 4.215 4.215 0 00-4.865 3.075L46.83 28.313a1.7 1.7 0 00-.197.093l-9.15 5.363a9.333 9.333 0 00-4.607 8.032v9.752a1.035 1.035 0 00-1.035 1.035v8.281a1.035 1.035 0 001.035 1.035h14.492a1.036 1.036 0 001.035-1.035v-8.281a1.035 1.035 0 00-1.035-1.035v-2.278a3.145 3.145 0 011.035-2.319l6.998-6.22a5.105 5.105 0 001.574-2.537l4.492-16.8c.096-.352.145-.714.145-1.077a4.16 4.16 0 00-2.101-3.592zm-6.15-.911a2.187 2.187 0 012.465-1.657 2.07 2.07 0 011.645 2.019v.02a4.245 4.245 0 00-4.026 3.168l-2.888 8.913a4.348 4.348 0 00-1.388-.393l4.193-12.07zm-7.028 44.015H33.912v-6.211h12.422v6.211zM59.47 20.86l-4.503 16.81a3.086 3.086 0 01-.931 1.511l-7.008 6.222a5.235 5.235 0 00-1.729 3.871v2.278H34.947V41.8a7.3 7.3 0 013.582-6.252l9.14-5.352a2.07 2.07 0 012.837.756 2.13 2.13 0 01.207 1.573 2.07 2.07 0 01-.973 1.253l-5.932 3.426a1.035 1.035 0 001.035 1.791l5.932-3.426a4.088 4.088 0 001.936-2.516 4.148 4.148 0 00-.414-3.136l-.062-.093 3.198-9.866a2.187 2.187 0 012.464-1.656 2.07 2.07 0 011.646 2.019c.003.182-.021.363-.073.538zM28.736 51.553V41.8a9.334 9.334 0 00-4.606-8.032l-9.151-5.373c-.062-.031-.135-.052-.197-.083L10.258 15.28a4.251 4.251 0 00-4.896-3.146 4.161 4.161 0 00-3.26 4.596A4.16 4.16 0 000 20.322c.002.363.047.724.135 1.076l4.503 16.79a5.089 5.089 0 001.573 2.547l6.987 6.221a3.118 3.118 0 011.046 2.32v2.277a1.035 1.035 0 00-1.035 1.035v8.281a1.035 1.035 0 001.035 1.035h14.492a1.035 1.035 0 001.035-1.035v-8.281a1.035 1.035 0 00-1.035-1.035zM4.141 16.18a2.07 2.07 0 011.635-2.019 2.237 2.237 0 012.505 1.73l4.162 11.997c-.481.053-.95.186-1.387.393l-2.868-8.86a4.295 4.295 0 00-4.047-3.22v-.021zm10.434 29.223l-6.998-6.222a3.07 3.07 0 01-.931-1.521l-4.514-16.8a2.196 2.196 0 01-.062-.538 2.07 2.07 0 011.636-2.019A2.22 2.22 0 016.2 20.011l3.178 9.814-.063.093a4.148 4.148 0 00.3 4.59c.333.432.748.793 1.222 1.062l5.932 3.426a1.035 1.035 0 001.035-1.79l-5.932-3.427a2.071 2.071 0 01-.973-1.253 2.133 2.133 0 01.207-1.573 2.072 2.072 0 012.826-.766l9.151 5.362a7.3 7.3 0 013.582 6.252v9.752H16.314v-2.278a5.205 5.205 0 00-1.739-3.871zm13.126 14.43H15.28v-6.211h12.422v6.211z" fill="#EAA80F"/><path d="M45.451 3.037a10.344 10.344 0 00-14.644 0 10.342 10.342 0 00-14.644 0 10.357 10.357 0 000 14.632L30.076 31.58a1.035 1.035 0 001.464 0l13.912-13.91a10.358 10.358 0 000-14.632zM30.807 29.386L17.626 16.205a8.281 8.281 0 015.862-14.133 8.194 8.194 0 015.852 2.43l.735.734a1.035 1.035 0 001.464 0l.737-.737a8.276 8.276 0 0114.133 5.852c0 2.194-.87 4.3-2.422 5.852l-13.18 13.183z" fill="#EAA80F"/></svg>