<svg width="60" height="68" fill="none" xmlns="http://www.w3.org/2000/svg"><path fill-rule="evenodd" clip-rule="evenodd" d="M47.944 44.236a1.03 1.03 0 00-.417.956l2.51 20.697h-14.85V42.07c7.562-3.638 15.723-13.032 15.723-21.25 0-5.516-4.488-10.003-10.005-10.003-2.968 0-5.158 2.56-6.716 2.56-1.588 0-3.785-2.56-6.781-2.56-5.516 0-10.005 4.487-10.005 10.003 0 8.218 8.163 17.612 15.725 21.249v23.82H21.14v-11.8a1.03 1.03 0 00-1.03-1.03c-.49 0-1.202.045-2.105.102-2.13.13-5.046.312-7.142.038-1.053-.139-1.652-.294-1.78-.463-.16-.212-.16-1.083-.16-1.853V40.4c0-.883-.741-1.6-1.653-1.6H2.496L10.8 25.416a1.03 1.03 0 00.156-.521c.25-12.592 10.703-22.837 23.302-22.837 12.852 0 23.309 10.456 23.309 23.308 0 7.437-3.597 14.49-9.622 18.869zM30.956 20.938v-6.674c-1.13-.652-2.297-1.388-3.548-1.388-4.38 0-7.946 3.563-7.946 7.944 0 7.285 7.672 16.15 14.695 19.46C41.18 36.97 48.85 28.105 48.85 20.82c0-4.38-3.563-7.944-7.945-7.944-1.25 0-2.419.754-3.547 1.41v6.652h6.332c.57 0 1.03.46 1.03 1.03v4.342c0 .57-.46 1.029-1.03 1.029h-6.332v6.334a1.03 1.03 0 01-1.03 1.029h-4.343a1.03 1.03 0 01-1.029-1.03V27.34h-6.333c-.57 0-1.03-.46-1.03-1.03v-4.342c0-.569.46-1.029 1.03-1.029h6.333zm5.372 2.06a1.03 1.03 0 01-1.029-1.031v-6.701c-.792.234-1.494.225-2.284-.016v6.717a1.03 1.03 0 01-1.03 1.03h-6.333v2.283h6.334c.568 0 1.029.46 1.029 1.03v6.333h2.284V26.31c0-.57.461-1.03 1.03-1.03h6.332v-2.283h-6.333zM34.258 0a25.23 25.23 0 00-17.769 7.261c-4.696 4.61-7.384 10.748-7.585 17.308l-8.687 14c-.583.925.047 2.29 1.428 2.29h5.219v10.024c0 1.356 0 2.335.58 3.098.6.79 1.57 1.051 3.15 1.26 2.583.339 5.943.062 8.487-.083V66.92c0 .568.462 1.03 1.03 1.03h31.087a1.03 1.03 0 001.023-1.154l-2.577-21.258a25.348 25.348 0 009.98-20.17C59.624 11.38 48.245 0 34.257 0z" fill="#3FDDD8"/></svg>