<svg width="36" height="41" fill="none" xmlns="http://www.w3.org/2000/svg"><path d="M36 11.531v.183c0 1.942-.79 3.804-2.197 5.177a7.594 7.594 0 01-5.303 2.145H21v14.643h1.5c.608 0 1.201-.18 1.702-.516a2.94 2.94 0 001.102-1.368c.217-.554.256-1.16.113-1.736a2.917 2.917 0 00-.916-1.493 1.443 1.443 0 01-.082-2.035 1.525 1.525 0 012.08-.147 5.832 5.832 0 011.83 2.985 5.725 5.725 0 01-.225 3.47 5.881 5.881 0 01-2.202 2.735 6.102 6.102 0 01-3.402 1.033H21v2.929c0 .388-.158.76-.44 1.035A1.519 1.519 0 0119.5 41c-.398 0-.78-.154-1.06-.429a1.447 1.447 0 01-.44-1.035v-2.929h-4.5c-.398 0-.78-.154-1.06-.429a1.447 1.447 0 01-.44-1.035c0-.389.158-.76.44-1.035a1.519 1.519 0 011.06-.43H18V19.037h-4.5c-.796 0-1.559.308-2.121.857a2.894 2.894 0 00-.879 2.071c0 .777.316 1.522.879 2.071.562.55 1.325.858 2.121.858.398 0 .78.154 1.06.429.282.274.44.647.44 1.035 0 .389-.158.76-.44 1.035a1.519 1.519 0 01-1.06.43 6.075 6.075 0 01-4.243-1.716A5.787 5.787 0 017.5 21.964c0-1.553.632-3.043 1.757-4.141a6.075 6.075 0 014.243-1.716H18V1.464c0-.388.158-.76.44-1.035A1.519 1.519 0 0119.5 0c.398 0 .78.154 1.06.429.282.274.44.647.44 1.035v14.643h7.5a4.556 4.556 0 003.182-1.287A4.34 4.34 0 0033 11.714v-.183a4.16 4.16 0 00-1.263-2.977 4.367 4.367 0 00-3.05-1.233H25.5c-.398 0-.78-.154-1.06-.428A1.447 1.447 0 0124 5.857c0-.388.158-.76.44-1.035a1.519 1.519 0 011.06-.43h3.188c1.939 0 3.799.753 5.17 2.092A7.053 7.053 0 0136 11.53zM6 14.643H1.5c-.398 0-.78-.154-1.06-.429A1.447 1.447 0 010 13.179v-1.465C0 9.773.79 7.91 2.197 6.537A7.594 7.594 0 017.5 4.393h6c.398 0 .78.154 1.06.429.282.274.44.647.44 1.035 0 .388-.158.76-.44 1.036a1.519 1.519 0 01-1.06.428 7.17 7.17 0 01-.57 2.802 7.313 7.313 0 01-1.627 2.376 7.514 7.514 0 01-2.433 1.586 7.658 7.658 0 01-2.87.558zm4.5-7.322h-3a4.556 4.556 0 00-3.182 1.287A4.34 4.34 0 003 11.714h3a4.556 4.556 0 003.182-1.286A4.34 4.34 0 0010.5 7.32z" fill="#fff"/></svg>