<svg width="50" height="44" fill="none" xmlns="http://www.w3.org/2000/svg"><path d="M48.577 31.432c-.548-.462-1.2-.499-2.063-.278.155-.849.08-1.506-.929-2.36-1.005-.767-2.534-.109-5.07.979a47.58 47.58 0 01-5.936 2.204c-.679-1.338-2.726-1.622-2.96-1.536-6.83.115-7.984-.564-9.322-1.349-1.691-.992-3.608-2.115-14.811-2.115H1.242a.742.742 0 00-.742.742v13.354a.74.74 0 00.742.74h6.124c8.955 3.326 29.468 3.88 40.324-5.765.887-.543 3.033-2.856.887-4.616zm-7.476-.292c1.36-.584 3.223-1.39 3.58-1.163.902.69.146 1.386-.4 1.995-2.443 1.024-4.975 2.163-9.316 3.262.21-.609.166-1.265.09-1.846 2.342-.665 4.377-1.53 6.046-2.248zM1.985 28.46h4.76v11.87h-4.76V28.459zm44.824 6.395c-15.185 12.037-35.187 6.7-38.58 5.675V28.463c18.69-.099 7.637 3.507 23.45 3.46 1.139-.027 2.116.817 1.948 2.51 0 .214-.104.926-1.395 1.425-1.41.54-4.445 1.01-11.164.14a.743.743 0 10-.19 1.473c4.155.49 8.512.919 11.813-.203 5.497-1.093 9.206-2.666 11.662-3.713 1.52-.645 2.956-1.255 3.277-.987 1.06.807-.322 1.885-.821 2.287z" fill="#30716C"/><path d="M4.363 30.036c-1.136.02-1.132 1.71 0 1.73 1.136-.027 1.137-1.711 0-1.73z" fill="#fff"/><path d="M25.725 23.903c.925.67 13.703-8.169 13.774-16.364a7.53 7.53 0 00-13.386-4.741 7.53 7.53 0 00-13.388 4.74c0 8.332 12.469 16.04 13 16.365zM20.259 1.486a6.082 6.082 0 015.21 2.985.774.774 0 001.278 0c6.078-8.772 22.125 3.112-.634 17.923-2.09-1.361-11.902-8.11-11.902-14.85a6.06 6.06 0 016.053-6.058h-.005z" fill="#30716C"/></svg>