<svg width="58" height="58" fill="none" xmlns="http://www.w3.org/2000/svg"><path d="M4.472 55.732H1.2a.638.638 0 01-.645-.645V3.107c0-.362.284-.645.645-.645h3.273c.361 0 .645.283.645.644v51.981a.655.655 0 01-.645.645zm-2.629-1.29h1.985V3.752H1.843v50.692z" fill="#45374F"/><path d="M53.592 47.573H4.472a.638.638 0 01-.644-.645c0-.36.284-.644.644-.644h49.133c.36 0 .644.284.644.644a.65.65 0 01-.657.645zm0-9.667H4.472a.638.638 0 01-.644-.644c0-.361.284-.645.644-.645h49.133c.36 0 .644.284.644.645a.65.65 0 01-.657.644z" fill="#45374F"/><path d="M56.879 55.732h-3.274a.638.638 0 01-.645-.645V29.09c0-.36.284-.644.645-.644h3.274c.36 0 .644.283.644.644v25.984a.658.658 0 01-.644.658zm-2.643-1.29h1.985V29.736h-1.985v24.708zM18.302 37.906a.638.638 0 01-.644-.644c0-.89-1.895-1.882-4.421-1.882H9.15v1.882c0 .36-.283.644-.644.644a.638.638 0 01-.645-.644v-2.526c0-.361.284-.645.645-.645h4.73c3.196 0 5.71 1.392 5.71 3.17a.647.647 0 01-.645.645z" fill="#45374F"/><path d="M53.592 42.74H4.472a.638.638 0 01-.644-.645c0-.36.284-.644.644-.644h49.133c.36 0 .644.283.644.644a.65.65 0 01-.657.645zM30.495 25.662h-.026a.635.635 0 01-.606-.554l-1.52-10.337-1.676 7.269a.647.647 0 01-.606.503.654.654 0 01-.644-.451l-1.521-4.885-1.005 1.005a.656.656 0 01-.451.193h-4.692a.638.638 0 01-.645-.644c0-.361.284-.645.645-.645h4.42l1.573-1.572a.65.65 0 01.606-.168c.22.052.4.22.464.439l1.134 3.634 1.908-8.274a.653.653 0 01.657-.503c.31.013.567.245.606.554L30.65 21.68l1.778-7.27a.644.644 0 01.58-.489.661.661 0 01.645.412l1.186 3.107h5.477c.361 0 .645.283.645.644a.639.639 0 01-.645.645h-5.928a.659.659 0 01-.606-.413l-.606-1.585-2.075 8.468c-.052.258-.31.464-.606.464z" fill="#45374F"/><path d="M40.33 28.175H17.734a.638.638 0 01-.644-.644V8.197c0-.36.283-.644.644-.644H40.33c.361 0 .645.283.645.644v19.334c0 .36-.284.644-.645.644zm-21.95-1.289h21.305V8.842H18.38v18.044z" fill="#45374F"/></svg>