<svg width="34" height="37" fill="none" xmlns="http://www.w3.org/2000/svg"><path d="M28.642 25.681a14.645 14.645 0 004.02-5.152 14.24 14.24 0 001.334-6.335C33.826 6.644 27.604.418 19.848.021a15.357 15.357 0 00-5.89.842 15.043 15.043 0 00-5.085 3.006 14.557 14.557 0 00-3.476 4.696 14.195 14.195 0 00-1.317 5.641L.265 21.339l-.045.089a2.574 2.574 0 00-.054 1.95 2.67 2.67 0 001.338 1.456l.042.018 3.894 1.733v5.13c0 .702.287 1.374.797 1.87a2.76 2.76 0 001.923.774h8.159c.36 0 .706-.14.961-.387.255-.248.399-.584.399-.935 0-.35-.144-.686-.399-.934a1.38 1.38 0 00-.961-.387H8.16v-5.978c0-.254-.075-.502-.215-.715a1.349 1.349 0 00-.579-.488l-4.645-2.07 3.921-7.324c.102-.186.157-.394.158-.605 0-2.695.941-5.31 2.67-7.417a12.289 12.289 0 016.849-4.18v2.575a4.055 4.055 0 00-2.159 1.732 3.87 3.87 0 00-.502 2.676 3.94 3.94 0 001.391 2.36 4.151 4.151 0 002.63.934c.962 0 1.893-.33 2.63-.933a3.94 3.94 0 001.39-2.361 3.87 3.87 0 00-.502-2.676 4.055 4.055 0 00-2.159-1.732V2.643a12.504 12.504 0 017.325 2.38 11.966 11.966 0 014.207 5.549h-3.373a1.384 1.384 0 00-1.045.475l-4.336 5.059a4.2 4.2 0 00-2.807-.018 4.064 4.064 0 00-2.158 1.746 3.88 3.88 0 00-.49 2.686c.167.924.665 1.76 1.406 2.361a4.163 4.163 0 002.642.923 4.16 4.16 0 002.632-.95 3.95 3.95 0 001.382-2.374 3.88 3.88 0 00-.52-2.681l3.932-4.584h3.364c.04.344.065.69.074 1.04a11.655 11.655 0 01-1.23 5.472 12.017 12.017 0 01-3.662 4.324c-.191.14-.342.326-.435.54a1.287 1.287 0 00-.098.68l1.36 10.573c.041.319.2.612.449.825a1.383 1.383 0 001.069.321 1.387 1.387 0 00.905-.5 1.308 1.308 0 00.276-.975l-1.265-9.834zM17.68 10.572a1.39 1.39 0 01-.756-.222 1.33 1.33 0 01-.5-.593 1.287 1.287 0 01-.078-.763 1.31 1.31 0 01.372-.677 1.381 1.381 0 011.482-.286c.249.1.46.269.61.486a1.295 1.295 0 01-.169 1.669 1.38 1.38 0 01-.961.387zm2.72 10.573c-.27 0-.533-.078-.756-.223a1.33 1.33 0 01-.501-.593 1.287 1.287 0 01.295-1.44c.19-.185.432-.31.696-.362.264-.05.537-.025.786.075.248.1.46.27.61.487a1.296 1.296 0 01-.17 1.669 1.38 1.38 0 01-.96.387z" fill="#fff"/></svg>