<svg width="33" height="28" fill="none" xmlns="http://www.w3.org/2000/svg"><path d="M13.6.8c.333 1 .5 1.833.5 2.5 0 .6-.1 1.4-.3 2.4-4.467 0-6.7 2.3-6.7 6.9 0 1.667.867 2.6 2.6 2.8 2.533.2 3.8 1.833 3.8 4.9 0 2.333-.567 4.133-1.7 5.4-1.067 1.2-3.033 1.8-5.9 1.8-3.933 0-5.9-2.667-5.9-8S1.067 9.733 3.2 6.2C5.333 2.6 8.8.8 13.6.8zm18.1 0c.333 1 .5 1.833.5 2.5 0 .6-.1 1.4-.3 2.4-4.467 0-6.7 2.3-6.7 6.9 0 1.667.867 2.6 2.6 2.8 2.533.2 3.8 1.833 3.8 4.9 0 2.333-.567 4.133-1.7 5.4-1.067 1.2-3.033 1.8-5.9 1.8-3.933 0-5.9-2.667-5.9-8s1.067-9.767 3.2-13.3C23.433 2.6 26.9.8 31.7.8z" fill="#242754"/></svg>