<svg width="32" height="23" fill="none" xmlns="http://www.w3.org/2000/svg"><path d="M31.715 11.713a2.04 2.04 0 00-.536-.604 2.087 2.087 0 00-.733-.354 9.995 9.995 0 00-2.957-.29c.534-2.594.134-4.646-.274-5.862a2.12 2.12 0 00-.973-1.186 2.192 2.192 0 00-1.533-.236 11.53 11.53 0 00-3.807 1.584A12.415 12.415 0 0017.286.419a2.17 2.17 0 00-2.568 0 12.402 12.402 0 00-3.615 4.346A11.53 11.53 0 007.296 3.18a2.192 2.192 0 00-1.533.236 2.12 2.12 0 00-.973 1.186c-.4 1.216-.8 3.267-.275 5.862a9.996 9.996 0 00-2.956.29c-.266.07-.515.19-.733.354-.218.164-.4.37-.537.604a2.063 2.063 0 00-.213 1.604c.452 1.642 1.84 4.767 6.045 7.229C10.325 23.008 14.019 23 16.009 23c1.99 0 5.69 0 9.868-2.454 4.205-2.462 5.593-5.587 6.045-7.23a2.05 2.05 0 00-.207-1.603zM6.82 5.246a.026.026 0 01.01-.016.027.027 0 01.02-.004 9.484 9.484 0 013.442 1.525 15.219 15.219 0 00-.69 4.64c0 2.45.502 4.444 1.214 6.048a16.194 16.194 0 01-2.606-3.325c-2.403-4.101-1.903-7.319-1.39-8.868zm.4 13.505c-3.557-2.08-4.71-4.63-5.087-5.983.982-.237 2-.289 3-.153.335.877.743 1.725 1.221 2.536a18.703 18.703 0 004.534 5.17 15.489 15.489 0 01-3.674-1.57h.006zm8.782 1.949c-1.244-.907-4.267-3.69-4.267-9.308 0-5.55 2.984-8.355 4.267-9.301 1.283.949 4.268 3.753 4.268 9.303 0 5.617-3.024 8.4-4.268 9.306zm5.71-13.949a9.485 9.485 0 013.442-1.524.027.027 0 01.02.004c.005.004.01.01.011.016.512 1.548 1.012 4.766-1.39 8.867a16.159 16.159 0 01-2.607 3.33c.713-1.603 1.215-3.6 1.215-6.048a15.217 15.217 0 00-.69-4.645zm8.16 6.02c-.37 1.339-1.521 3.895-5.08 5.98a15.487 15.487 0 01-3.674 1.569 18.703 18.703 0 004.534-5.17c.478-.81.886-1.66 1.22-2.537a8.12 8.12 0 013 .156v.001z" fill="#fff"/></svg>