<svg width="20" height="20" fill="none" xmlns="http://www.w3.org/2000/svg"><path d="M19.167 10A9.166 9.166 0 0110 19.167 9.166 9.166 0 01.833 10 9.166 9.166 0 0110 .833 9.166 9.166 0 0119.167 10z" stroke="url(#paint0_linear_59_1128)" stroke-width="1.5" stroke-linecap="round" stroke-linejoin="round"/><path d="M16.282 3.324c-.747 4.313-4.507 7.593-9.032 7.593a9.139 9.139 0 01-6.283-2.49m18.025-.214C17.052 12.51 12.73 15.5 7.708 15.5a12.32 12.32 0 01-5.976-1.536m.617-9.017a6.419 6.419 0 0010.269-3.734" stroke="url(#paint1_linear_59_1128)" stroke-width="1.5" stroke-linecap="round" stroke-linejoin="round"/><defs><linearGradient id="paint0_linear_59_1128" x1=".833" y1="2.552" x2="17.734" y2="20.313" gradientUnits="userSpaceOnUse"><stop stop-color="#26CBFF"/><stop offset="1" stop-color="#6980FD"/></linearGradient><linearGradient id="paint1_linear_59_1128" x1=".967" y1="2.552" x2="13.647" y2="19.363" gradientUnits="userSpaceOnUse"><stop stop-color="#26CBFF"/><stop offset="1" stop-color="#6980FD"/></linearGradient></defs></svg>