<svg width="37" height="37" fill="none" xmlns="http://www.w3.org/2000/svg"><path fill-rule="evenodd" clip-rule="evenodd" d="M24.667 10.672v10.294c0 1.118-.423 2.004-1.117 2.592-.678.573-1.552.81-2.388.774-.967-.04-1.977-.46-2.655-1.244-.175 1.411.33 2.35.558 2.597l.524.565-1.13 1.048-.524-.565c-.627-.677-1.301-2.272-.87-4.355-.66.138-1.34.14-2 .004-.692-.146-1.372-.461-1.887-.99-.527-.543-.845-1.273-.845-2.151 0-1.268.453-2.183 1.262-2.853.747-.619 1.762-.99 2.79-1.322.24-.078.485-.155.736-.234 1.957-.614 4.181-1.313 6.277-3.086l1.269-1.074zM19.24 20.918c.325-.595.77-1.232 1.374-1.902l.516-.573-1.146-1.031-.517.573c-.763.848-1.32 1.672-1.714 2.455-.58.425-1.512.616-2.37.434-.465-.099-.845-.295-1.101-.558-.244-.25-.408-.592-.408-1.076 0-.837.27-1.307.702-1.665.493-.407 1.237-.705 2.282-1.043l.714-.226c1.602-.5 3.592-1.122 5.552-2.429v7.089c0 .705-.252 1.145-.57 1.414-.336.284-.812.433-1.328.412-1.024-.043-1.935-.713-1.986-1.874z" fill="#0C123A"/><path fill-rule="evenodd" clip-rule="evenodd" d="M18.5 31.604l-.336.694-.003-.002-.01-.004-.033-.016-.123-.062a37.384 37.384 0 01-6.935-4.685c-3.518-3.027-7.206-7.516-7.206-13.096 0-2.507.83-4.936 2.252-6.752 1.426-1.82 3.477-3.056 5.89-3.056 2.865 0 5.04 1.624 6.504 3.914 1.464-2.29 3.638-3.914 6.504-3.914 2.413 0 4.464 1.236 5.89 3.056 1.422 1.816 2.252 4.244 2.252 6.753 0 5.367-3.694 9.857-7.2 12.928A40.086 40.086 0 0119.02 32.2l-.123.066-.033.017-.008.005-.004.001-.353-.685zM7.32 8.631c-1.199 1.53-1.924 3.62-1.924 5.802 0 4.889 3.25 8.986 6.669 11.927a35.844 35.844 0 006.425 4.374l.226-.127a38.545 38.545 0 006.213-4.404c3.43-3.006 6.675-7.102 6.675-11.77 0-2.182-.725-4.271-1.924-5.802-1.195-1.525-2.829-2.464-4.676-2.464-2.554 0-4.532 1.67-5.812 4.286l-.692 1.415-.692-1.414c-1.28-2.617-3.258-4.287-5.813-4.287-1.846 0-3.48.939-4.675 2.464z" fill="#0C123A"/><path d="M18.5 31.605l.353.685-.342.175-.347-.167.336-.694z" fill="#0C123A"/></svg>