<svg width="27" height="28" fill="none" xmlns="http://www.w3.org/2000/svg"><path d="M20.056 23.74l4.26-4.193-.938-.941-3.322 3.274-1.432-1.462-.94.948 2.372 2.375zM4.155 7.098h15.693v-1.5H4.154l.001 1.5zM21 27.174c-1.671 0-3.088-.582-4.253-1.747S15 22.845 15 21.174c0-1.671.582-3.089 1.747-4.254 1.166-1.165 2.583-1.747 4.253-1.746 1.67.001 3.088.583 4.254 1.746 1.166 1.163 1.748 2.581 1.746 4.254 0 1.67-.582 3.088-1.746 4.253-1.166 1.165-2.584 1.747-4.254 1.747zm-21-2.02V2.424C0 1.752.236 1.18.708.708A2.337 2.337 0 012.424 0h19.154c.67 0 1.241.236 1.714.708.472.472.708 1.044.708 1.716v8.916a8.214 8.214 0 00-.726-.231 6.104 6.104 0 00-.774-.15V2.424c0-.231-.096-.443-.288-.636-.192-.193-.404-.289-.636-.288H2.424c-.231 0-.443.096-.636.288-.193.192-.289.404-.288.636v20.151h9.516c.068.41.156.811.264 1.203.109.392.26.766.455 1.122l-.051.051-1.703-1.239-2.019 1.442-2.019-1.442-2.019 1.442-2.02-1.442L0 25.154zm4.155-6.75h7.064c.056-.276.125-.533.207-.773.082-.24.178-.483.287-.727H4.155v1.5zm0-5.654H15.12a7.798 7.798 0 011.575-.967 6.595 6.595 0 011.796-.533H4.154l.001 1.5z" fill="#0C123A"/></svg>