<svg width="22" height="20" fill="none" xmlns="http://www.w3.org/2000/svg"><path d="M8 8c0 3.866 3 7 3 7s3-3.134 3-7-3-7-3-7-3 3.134-3 7z" stroke="url(#paint0_linear_59_1099)" stroke-width="1.5" stroke-linecap="round" stroke-linejoin="round"/><path d="M5.33 6C3.115 5.046 1 5 1 5s.096 4.381 2.857 7.143C6.618 14.905 11 15 11 15s4.381-.096 7.143-2.857C20.905 9.382 21 5 21 5s-2.114.046-4.33 1m-5.65 9c-.166 1.333.64 4 3.494 4 1.995 0 2.993-2 6.486 0-.4-2-1.2-3.28-2.367-4m-7.654 0c.167 1.333-.64 4-3.492 4C5.49 19 4.493 17 1 19c.4-2 1.2-3.28 2.367-4" stroke="url(#paint1_linear_59_1099)" stroke-width="1.5" stroke-linecap="round" stroke-linejoin="round"/><defs><linearGradient id="paint0_linear_59_1099" x1="8" y1="2.313" x2="17.677" y2="6.67" gradientUnits="userSpaceOnUse"><stop stop-color="#26CBFF"/><stop offset="1" stop-color="#6980FD"/></linearGradient><linearGradient id="paint1_linear_59_1099" x1="1" y1="6.313" x2="12.924" y2="24.214" gradientUnits="userSpaceOnUse"><stop stop-color="#26CBFF"/><stop offset="1" stop-color="#6980FD"/></linearGradient></defs></svg>