<svg width="20" height="20" fill="none" xmlns="http://www.w3.org/2000/svg"><path d="M12.571 13.004l.858 1.845s3.857.819 3.857 2.767C17.286 19 15.57 19 15.57 19H11l-2.25-1.25" stroke="url(#paint0_linear_59_1117)" stroke-width="1.5" stroke-linecap="round" stroke-linejoin="round"/><path d="M7.429 13.004l-.857 1.845s-3.858.819-3.858 2.767C2.714 19 4.43 19 4.43 19H6.5l2.25-1.25L11.5 16" stroke="url(#paint1_linear_59_1117)" stroke-width="1.5" stroke-linecap="round" stroke-linejoin="round"/><path d="M1 13.926s2.143-.461 3.429-.922C5.714 6.546 9.57 7.007 10 7.007c.43 0 4.286-.461 5.571 5.997 1.286.46 3.429.922 3.429.922M10 5a2 2 0 100-4 2 2 0 000 4z" stroke="url(#paint2_linear_59_1117)" stroke-width="1.5" stroke-linecap="round" stroke-linejoin="round"/><defs><linearGradient id="paint0_linear_59_1117" x1="8.75" y1="13.566" x2="13.864" y2="21.216" gradientUnits="userSpaceOnUse"><stop stop-color="#26CBFF"/><stop offset="1" stop-color="#6980FD"/></linearGradient><linearGradient id="paint1_linear_59_1117" x1="2.714" y1="13.566" x2="7.77" y2="21.351" gradientUnits="userSpaceOnUse"><stop stop-color="#26CBFF"/><stop offset="1" stop-color="#6980FD"/></linearGradient><linearGradient id="paint2_linear_59_1117" x1="1" y1="2.212" x2="12.115" y2="18.478" gradientUnits="userSpaceOnUse"><stop stop-color="#26CBFF"/><stop offset="1" stop-color="#6980FD"/></linearGradient></defs></svg>