<svg width="48" height="48" fill="none" xmlns="http://www.w3.org/2000/svg"><path d="M36.769 35.982a.648.648 0 00-.527 1.027c.395.551.606 1.213.602 1.891a3.302 3.302 0 01-6.439 1.023.648.648 0 00-1.232.404 4.599 4.599 0 008.97-1.427 4.51 4.51 0 00-.844-2.648.648.648 0 00-.53-.27z" fill="#799BB0"/><path d="M41.825 28.483a.65.65 0 00-.599.896c.227.558.341 1.154.337 1.756a4.844 4.844 0 11-9.687 0 .649.649 0 10-1.298 0 6.142 6.142 0 1012.283 0 5.876 5.876 0 00-.436-2.254.649.649 0 00-.6-.398z" fill="#799BB0"/><path d="M38.504 18.624c-.21 0-.42.011-.625.031a.65.65 0 00-.346 1.148.647.647 0 00.475.143 4.839 4.839 0 013.426 8.667.649.649 0 00.779 1.038 6.14 6.14 0 00-3.712-11.027h.003zm-2.384-13.6a.649.649 0 00-.105 1.289 4.813 4.813 0 014.044 4.77c0 .475-.068.947-.203 1.403a.649.649 0 101.244.368 6.239 6.239 0 00.26-1.771 6.105 6.105 0 00-5.132-6.05.734.734 0 00-.109-.01z" fill="#799BB0"/><path d="M40.475 12.02a.649.649 0 00-.266 1.241 4.834 4.834 0 012.84 4.4 4.77 4.77 0 01-1.028 2.978.649.649 0 001.02.803 6.124 6.124 0 00-2.3-9.364.649.649 0 00-.266-.057zM30.344 1.297A7.001 7.001 0 0023.35 8.29v34.302a4.123 4.123 0 001.224 3.142 3.84 3.84 0 003.407.883 20.79 20.79 0 007.903-3.767.649.649 0 10-.814-1.012 19.794 19.794 0 01-7.348 3.507 2.543 2.543 0 01-2.26-.556 2.883 2.883 0 01-.815-2.197V8.29a5.697 5.697 0 0110.885-2.352.649.649 0 101.182-.536 7.013 7.013 0 00-6.371-4.105zM11.23 35.982a.65.65 0 00-.527.27 4.511 4.511 0 00-.844 2.648 4.599 4.599 0 008.97 1.427.65.65 0 10-1.233-.404 3.301 3.301 0 01-6.44-1.023 3.221 3.221 0 01.602-1.891.649.649 0 00-.527-1.027h-.001z" fill="#799BB0"/><path d="M6.174 28.483a.648.648 0 00-.6.4 5.875 5.875 0 00-.435 2.252 6.142 6.142 0 1012.282 0 .649.649 0 00-1.297 0 4.844 4.844 0 11-9.688 0c-.004-.603.11-1.2.338-1.758a.649.649 0 00-.6-.894z" fill="#799BB0"/><path d="M9.495 18.624a6.136 6.136 0 00-3.712 11.027.648.648 0 10.779-1.038 4.843 4.843 0 013.426-8.667.647.647 0 00.686-.833.648.648 0 00-.556-.458 6.335 6.335 0 00-.623-.031zm2.385-13.6a.732.732 0 00-.106.008 6.106 6.106 0 00-5.131 6.05c0 .6.088 1.197.26 1.772a.648.648 0 101.243-.368 4.93 4.93 0 01-.203-1.403 4.813 4.813 0 014.044-4.77.649.649 0 00-.105-1.29h-.002z" fill="#799BB0"/><path d="M7.524 12.02a.647.647 0 00-.266.059 6.123 6.123 0 00-2.301 9.363.648.648 0 101.019-.803 4.77 4.77 0 01-1.029-2.978 4.834 4.834 0 012.841-4.4.649.649 0 00-.266-1.24h.002zM17.656 1.297a7.013 7.013 0 00-6.37 4.105.65.65 0 001.182.536A5.697 5.697 0 0123.351 8.29v34.302a2.882 2.882 0 01-.815 2.197 2.54 2.54 0 01-2.259.556 19.74 19.74 0 01-7.349-3.503.65.65 0 00-.814 1.008 20.79 20.79 0 007.905 3.766 3.839 3.839 0 003.406-.882 4.12 4.12 0 001.224-3.142V8.29a7 7 0 00-6.993-6.993z" fill="#799BB0"/><path d="M24 33.104a.634.634 0 00-.401.14.65.65 0 00-.223.685c.341 1.212 1.642 3.438 4.099 3.192a.649.649 0 00-.13-1.29c-2 .194-2.714-2.23-2.724-2.254a.65.65 0 00-.621-.473zm-.001-3.22a.649.649 0 00-.623.47c-.03.101-.743 2.461-2.725 2.257a.65.65 0 00-.13 1.291c2.465.245 3.758-1.981 4.1-3.193a.647.647 0 00-.622-.825zm8.887-4.386a6.11 6.11 0 00-4.704 2.206.65.65 0 10.996.83 4.824 4.824 0 018.52 3.456.648.648 0 101.293.098 6.128 6.128 0 00-6.104-6.59z" fill="#799BB0"/><path d="M36.72 21.73h-.013c-3.156.061-4.64 2.836-4.982 4.295a.649.649 0 001.262.299c.032-.13.815-3.24 3.745-3.297a.649.649 0 10-.012-1.297zm-3.954-8.705h-.054a.649.649 0 00-.593.7 5.033 5.033 0 01-1.048 3.827 6.251 6.251 0 01-3.862 1.876.649.649 0 10.094 1.294 7.537 7.537 0 004.754-2.326 6.281 6.281 0 001.355-4.774.648.648 0 00-.646-.597z" fill="#799BB0"/><path d="M28.626 7.408h-.03a.648.648 0 00-.619.678c.106 2.285 1.596 6.546 6.463 6.374a.65.65 0 00-.048-1.297c-4.804.173-5.108-4.92-5.119-5.137a.649.649 0 00-.647-.618zM16.695 24.723a6.129 6.129 0 00-6.105 6.59.647.647 0 001.143.38.648.648 0 00.15-.479 4.825 4.825 0 018.519-3.456.65.65 0 00.997-.83 6.11 6.11 0 00-4.704-2.205z" fill="#799BB0"/><path d="M12.858 20.951a.648.648 0 10-.012 1.298c2.93.057 3.713 3.164 3.745 3.297a.649.649 0 001.262-.3c-.34-1.455-1.826-4.23-4.982-4.295h-.013zm.135-9.571a.648.648 0 00-.648.595 6.276 6.276 0 001.355 4.78 7.534 7.534 0 004.753 2.326.658.658 0 00.694-.6.649.649 0 00-.6-.694 6.297 6.297 0 01-3.869-1.881 5.042 5.042 0 01-1.04-3.823.648.648 0 00-.594-.7l-.05-.003z" fill="#799BB0"/><path d="M17.131 5.764a.648.648 0 00-.648.617c-.011.218-.325 5.325-5.119 5.139a.65.65 0 00-.048 1.297c4.86.177 6.357-4.09 6.463-6.374a.648.648 0 00-.618-.678l-.03-.001zM24 7.642h-.004a.648.648 0 00-.645.653 5.394 5.394 0 01-4.304 5.463.649.649 0 00.246 1.274c.054-.01 5.391-1.102 5.355-6.746A.649.649 0 0024 7.642z" fill="#799BB0"/></svg>