<svg width="50" height="50" fill="none" xmlns="http://www.w3.org/2000/svg"><path d="M1.375 44.863h5.941c1.53 0 2.792-1.13 3.02-2.598 1.174.052 2.592-.191 4.607.48l8.96 2.988a7.036 7.036 0 005.427-.425l18.138-9.49a3.128 3.128 0 001.68-4.084 3.12 3.12 0 00-4.1-1.674l-10.556 4.673c.148-1.779-1.236-3.124-2.833-3.167l-.013-.002h-.012c-.018 0-.034-.005-.052-.005-.009 0-.017.005-.026.005H24.14l-5.67-2.646a9.22 9.22 0 00-3.869-.858h-4.265a3.062 3.062 0 00-3.02-2.598h-5.94a.761.761 0 00-.763.762V44.1c0 .421.342.762.762.762zm16.45-14.564c6.123 2.83 5.83 2.789 6.146 2.789h7.663a1.409 1.409 0 011.358 1.404c0 .777-.633 1.41-1.41 1.41h-9.113a.762.762 0 100 1.524h9.177c.452 0 .916-.173 1.33-.356l12.675-5.61a1.6 1.6 0 012.09.86c.34.813-.047 1.752-.92 2.12l-18.194 9.516a5.502 5.502 0 01-4.241.33l-8.96-2.986c-2.299-.767-3.958-.507-5.043-.559V29.584H14.6a7.68 7.68 0 013.225.715zM2.138 26.986h5.18c.85 0 1.541.691 1.541 1.542v13.269c0 .85-.691 1.542-1.542 1.542H2.138V26.986z" fill="#799BB0"/><path d="M28.693 28.538a.76.76 0 00.873 0c.545-.382 13.365-9.418 13.365-16.685 0-4.378-3.563-7.94-7.941-7.94-2.25 0-4.377.955-5.863 2.595a7.948 7.948 0 00-5.869-2.596c-4.379 0-7.942 3.563-7.942 7.941 0 7.267 12.83 16.304 13.377 16.685zM23.258 5.436a6.422 6.422 0 015.248 2.73.762.762 0 00.623.323h.002a.761.761 0 00.624-.326 6.382 6.382 0 015.235-2.727 6.425 6.425 0 016.417 6.417c0 5.785-10.043 13.48-12.278 15.12-2.237-1.64-12.289-9.33-12.289-15.12a6.425 6.425 0 016.418-6.417z" fill="#799BB0"/></svg>