<svg width="52" height="52" fill="none" xmlns="http://www.w3.org/2000/svg"><path d="M40.325 21.455h-.027c-1.077-.035-2.19-.382-3.367-.75-2.172-.679-4.634-1.448-7.413-.327a.849.849 0 01-1.153-.778v-7.848c0-.222.088-.435.245-.593 4.29-4.297 8.168-1.827 11.918.562 2.744 1.747 5.58 3.555 8.834 3.079.655-.095 1.171.611.87 1.209-.674 1.33-1.658 2.491-3.995 2.458.416.515.934 1.431-.043 1.753-1.476.486-2.837.061-4.144-.577.127.265.235.557.235.88 0 .97-1.287.932-1.96.932zm-7.876-3.326c1.863 0 3.533.522 4.982.974 1.019.319 1.983.62 2.807.67-.25-.546-.46-1.29.024-2.086.301-.495.87-.461 1.308-.197.963.53 1.843 1.014 2.683 1.19l-.656-.811c-.492-.61.09-1.527.85-1.343 1.645.397 2.599.312 3.203.005-3.028-.214-5.656-1.888-8.023-3.396-3.92-2.498-6.516-3.9-9.584-1.029v6.332a9.402 9.402 0 012.406-.309zm-20.802 3.307c-.505 0-1.264-.025-1.659-.385-.415-.377-.278-.975-.074-1.425-1.281.647-2.668 1.057-4.147.488-.93-.357-.416-1.23-.005-1.74-2.337.033-3.321-1.128-3.994-2.458-.301-.594.213-1.307.87-1.208 3.2.472 6.01-1.323 8.73-3.058 3.766-2.404 7.661-4.89 12.017-.587a.84.84 0 01.249.597v7.848a.849.849 0 01-1.16.776c-2.686-1.111-5.006-.36-7.249.366-1.24.4-2.43.786-3.578.786zm.09-3.84c.567.792.251 1.61-.013 2.162.865-.018 1.87-.343 2.985-.704 2.017-.653 4.469-1.447 7.248-.713v-6.323c-3.127-2.887-5.74-1.472-9.687 1.046-2.342 1.495-4.943 3.154-7.924 3.373.604.308 1.558.394 3.207-.003.757-.184 1.343.73.848 1.342l-.716.886c.845-.147 1.765-.664 2.901-1.35.136-.082.789-.223 1.15.283z" fill="#799BB0"/><path d="M35.052 34.064c-.776-2.676-3.933-3.66-5.82-4.25l-.359-.112a11.71 11.71 0 00-2.01-.447V9.738c2.335-.396 4.118-2.409 4.118-4.831C30.981 2.2 28.758 0 26.025 0c-2.733 0-4.957 2.201-4.957 4.907 0 2.422 1.783 4.435 4.117 4.831v19.395c-.74-.008-1.439.032-2.1.072-1.833.112-3.28.2-4.662-.861-.66-.507-1.771-1.582-1.8-3.087-.032-1.73 1.432-2.96 1.725-3.189a.839.839 0 00-1.031-1.322c-.568.443-2.417 2.08-2.37 4.543.04 2.208 1.555 3.695 2.454 4.385 1.88 1.444 3.778 1.329 5.785 1.206a27.16 27.16 0 012-.07v6.898c-.54-.008-1.048.021-1.529.05-1.289.08-2.22.137-3.123-.557-.43-.33-1.156-1.028-1.174-1.986-.02-1.103.932-1.902 1.123-2.051a.839.839 0 00-1.032-1.323c-.423.33-1.802 1.551-1.768 3.404.031 1.66 1.159 2.772 1.83 3.286 1.4 1.075 2.846.987 4.247.901.464-.028.937-.055 1.425-.047v5.891c-.386-.007-.744.013-1.068.033-.902.054-1.396.066-1.89-.314-.199-.152-.66-.563-.671-1.104-.011-.614.572-1.085.638-1.137a.839.839 0 00-1.03-1.324c-.308.24-1.311 1.127-1.285 2.492.023 1.224.841 2.031 1.326 2.404 1.015.779 2.032.717 3.015.657.315-.02.635-.037.966-.03v4.208a.839.839 0 001.677 0V47.28c.652.208 1.553.537 1.716 1.099.122.423-.162.94-.343 1.21-.596.892.793 1.834 1.395.932.6-.898.793-1.8.56-2.61-.432-1.485-2.12-2.012-3.028-2.295l-.166-.053c-.046-.014-.09-.024-.134-.037V39.59c.15.037.304.078.46.128l.261.082c1.057.33 2.825.882 3.158 2.032.221.76-.188 1.6-.57 2.17-.595.893.793 1.834 1.395.933.831-1.244 1.103-2.478.787-3.57-.585-2.016-2.892-2.736-4.27-3.166l-.252-.078a8.563 8.563 0 00-.97-.245v-6.93c.483.077.981.188 1.501.354l.37.116c1.564.488 4.183 1.305 4.707 3.116.35 1.205-.27 2.497-.852 3.369-.596.891.792 1.833 1.394.932 1.12-1.675 1.489-3.324 1.07-4.769.419 1.445-.776-2.676 0 0zM22.745 4.907c0-1.78 1.471-3.23 3.28-3.23 1.808 0 3.279 1.45 3.279 3.23s-1.471 3.23-3.28 3.23c-1.807 0-3.279-1.45-3.279-3.23z" fill="#799BB0"/><path d="M33.736 29.577c-.914 0-1.145-1.317-.285-1.627 1.288-.466 2.134-1.546 2.155-2.752.02-1.144-.73-2.221-1.91-2.745a.839.839 0 01.68-1.533c1.797.797 2.938 2.488 2.907 4.307-.034 1.908-1.314 3.596-3.262 4.3a.84.84 0 01-.285.05zM23.345 51.358c-.482 0-.955-.168-1.33-.479a1.987 1.987 0 01-.721-1.41c-.058-1.053.774-1.996 1.855-2.1a.84.84 0 01.161 1.67c-.346.033-.445.416-.154.595.311.192.659-.02.962.308.6.65-.041 1.416-.773 1.416z" fill="#799BB0"/></svg>