<svg width="56" height="56" fill="none" xmlns="http://www.w3.org/2000/svg"><g clip-path="url(#clip0_55_23)" fill="#2C6C67"><path d="M55.067 50.4h-2.8V32.667a.933.933 0 00-1.698-.535L37.502 50.798a.933.933 0 00.765 1.469H50.4v2.8a.933.933 0 101.867 0v-2.8h2.8a.933.933 0 000-1.867zm-4.667 0H40.059L50.4 35.627V50.4z"/><path d="M38.267 54.133h-11.05L37.49 42.036a1.02 1.02 0 00.065-.086 6.492 6.492 0 00-1.465-8.815A7.467 7.467 0 0024.267 39.2a.933.933 0 001.866 0A5.6 5.6 0 0135 34.65a4.608 4.608 0 011.027 6.222l-11.538 13.59a.933.933 0 00.71 1.538h13.068a.933.933 0 000-1.867z"/><path d="M25.22 49.484a.933.933 0 00-.897-.968c-12.177-.45-21.95-10.206-22.424-22.382H5.6a.933.933 0 000-1.866H1.9C2.365 12.112 12.111 2.367 24.266 1.9v2.767a.933.933 0 001.866 0V1.9c11.988.464 21.664 9.957 22.356 21.934l-3.64-3.64a.933.933 0 00-1.32 1.32l5.21 5.21a.92.92 0 00.367.267c.037.011.074.02.111.027.065.023.13.04.198.048h.053a.897.897 0 00.21-.041.883.883 0 00.114-.022.92.92 0 00.336-.21l5.281-5.28a.933.933 0 00-1.32-1.32l-3.73 3.728C49.692 10.543 38.66.033 25.266.013 25.243.013 25.223 0 25.2 0c-.023 0-.043.012-.066.013C11.268.033.032 11.268.014 25.133c0 .024-.014.044-.014.067 0 .023.012.043.013.066C.036 38.79 10.74 49.88 24.253 50.382h.035a.933.933 0 00.933-.898z"/><path d="M37.74 12.66a.933.933 0 00-1.32 0L26.39 22.69a2.923 2.923 0 00-2.381 0l-4.749-4.75a.933.933 0 00-1.32 1.32L22.68 24a2.795 2.795 0 004.5 3.18 2.77 2.77 0 00.539-3.18l10.02-10.02a.933.933 0 000-1.32zm-11.88 13.2a.955.955 0 01-1.32 0 .934.934 0 111.32 0z"/></g><defs><clipPath id="clip0_55_23"><path fill="#fff" d="M0 0h56v56H0z"/></clipPath></defs></svg>