<svg width="56" height="51" fill="none" xmlns="http://www.w3.org/2000/svg"><path d="M35.918 42.96a3.668 3.668 0 002.64-1.11l.66-.67a3.835 3.835 0 001.082-2.918 3.73 3.73 0 002.876-1.102l.66-.671a3.835 3.835 0 001.082-2.918 3.72 3.72 0 001.554-.241 3.74 3.74 0 001.321-.863l.66-.67 2.638-2.68A17.227 17.227 0 0056 17.056c0-4.517-1.764-8.852-4.91-12.06A16.654 16.654 0 0039.673.008 16.633 16.633 0 0028 4.359 16.635 16.635 0 0016.328.006a16.656 16.656 0 00-11.42 4.99A17.228 17.228 0 000 17.057c0 4.518 1.765 8.853 4.91 12.06l5.936 6.032.66.67a3.677 3.677 0 002.64 1.11c.085 0 .168-.02.253-.026a3.809 3.809 0 001.064 2.937l.66.67a3.692 3.692 0 002.64 1.11c.085 0 .167-.02.251-.025a3.81 3.81 0 00.219 1.584c.183.506.473.966.848 1.35l.659.67a3.7 3.7 0 001.21.824c.454.19.94.288 1.43.287.086 0 .168-.019.253-.025a3.788 3.788 0 001.064 2.928l.662.673A3.67 3.67 0 0028 51.001a3.663 3.663 0 002.639-1.11l3.956-4.018c.375-.384.664-.845.848-1.351a3.81 3.81 0 00.218-1.586c.085.006.168.025.254.025h.003zm13.85-36.632a15.321 15.321 0 014.367 10.726 15.32 15.32 0 01-4.367 10.726l-.363.37a3.76 3.76 0 00-.952-1.706L33.94 11.7a2.845 2.845 0 00-1.98-.806c-.74 0-1.45.288-1.982.806l-7.256 7.371a3.784 3.784 0 01-2.637 1.074 3.784 3.784 0 01-2.637-1.074.962.962 0 010-1.347L28.662 6.328A14.869 14.869 0 0133.5 3.043a14.729 14.729 0 0111.426 0 14.867 14.867 0 014.837 3.285h.006zm-43.535 0a14.764 14.764 0 0110.084-4.435 14.744 14.744 0 0110.334 3.8L16.125 16.39a2.865 2.865 0 00-.818 2.007c0 .752.294 1.473.818 2.007.52.527 1.136.946 1.816 1.232a5.533 5.533 0 006.105-1.232l7.255-7.37a.94.94 0 011.314 0L47.13 27.775a1.917 1.917 0 010 2.687l-.66.67a1.887 1.887 0 01-2.634 0L33.28 20.41a.929.929 0 00-1.32-.003.95.95 0 00-.004 1.337l10.556 10.723a1.92 1.92 0 010 2.688l-.66.67a1.89 1.89 0 01-2.634 0L28.663 25.102a.93.93 0 00-1.017-.207.934.934 0 00-.507.51.952.952 0 00.2 1.03L37.898 37.16a1.918 1.918 0 010 2.685l-.66.672a1.854 1.854 0 01-1.318.555 1.837 1.837 0 01-1.317-.555c0-.005-.012-.007-.018-.012l-.64-.66a3.713 3.713 0 00-2.894-1.047 3.806 3.806 0 00-.209-1.604 3.772 3.772 0 00-.854-1.367l-.659-.672a3.67 3.67 0 00-2.641-1.11c-.086 0-.168.018-.253.024a3.81 3.81 0 00-.217-1.584 3.777 3.777 0 00-.847-1.35l-.66-.672a3.73 3.73 0 00-1.336-.84 3.694 3.694 0 00-1.559-.21 3.809 3.809 0 00-.212-1.603 3.773 3.773 0 00-.858-1.365l-.659-.671a3.724 3.724 0 00-1.21-.822 3.687 3.687 0 00-4.072.822l-3.958 4.02a3.766 3.766 0 00-.95 1.71l-3.663-3.72a15.322 15.322 0 01-4.368-10.728c0-4.019 1.57-7.875 4.368-10.727zm7.913 28.71a1.827 1.827 0 01-1.316-.554l-.659-.67a1.92 1.92 0 01-.547-1.344c0-.503.196-.986.547-1.344l3.957-4.02a1.856 1.856 0 011.317-.555 1.838 1.838 0 011.317.555l.66.671a1.92 1.92 0 010 2.688l-3.958 4.02a1.845 1.845 0 01-1.318.554zm4.618 4.692a1.827 1.827 0 01-1.316-.554l-.66-.67a1.92 1.92 0 010-2.689l3.957-4.02a1.859 1.859 0 011.318-.554 1.84 1.84 0 011.318.554l.66.671a1.92 1.92 0 010 2.689l-3.959 4.019a1.846 1.846 0 01-1.318.554zm3.302 4.137l-.66-.672a1.917 1.917 0 010-2.687l3.957-4.02a1.89 1.89 0 012.635 0l.66.671a1.918 1.918 0 010 2.683l-.006.005-3.956 4.019v.004a1.888 1.888 0 01-2.63-.002v-.001zm11.203.67l-3.952 4.02a1.853 1.853 0 01-1.316.554 1.836 1.836 0 01-1.316-.553l-.662-.672a1.917 1.917 0 01-.546-1.341c0-.503.196-.985.546-1.342l3.959-4.025a1.84 1.84 0 012.627.002l.653.676a1.916 1.916 0 01.01 2.682h-.003z" fill="#2C6C67"/></svg>