<svg width="54" height="57" fill="none" xmlns="http://www.w3.org/2000/svg"><path d="M53.38 27.447c-4.434-6.903-4.723-8.843-4.735-8.944C46.559-3.093 20.998-4.212 10.782 7.067c-.685.852.605 1.941 1.306 1.088 9.367-10.27 32.962-9.332 34.864 10.473.013.355.341 2.496 5.016 9.774.154.246.22.537.188.826-.062.278-.276.505-.669.755a33.806 33.806 0 01-4.116 1.94c-1.266.336.353 5.729-.454 9.196.064 1.201-4.218 2.072-7.26 1.835-1.9 0-2.581.983-2.581 1.889v6.374c-1.422 4.564-15.492 3.64-18.792 1.435a1.309 1.309 0 01-.603-1.336c.34-2.392.654-7.078-1.21-11.664-.397-1.034-1.993-.38-1.57.635 1.713 4.23 1.422 8.565 1.094 10.78a3.024 3.024 0 001.444 3.048c4.715 2.741 15.057 2.734 19.74-.014a3.373 3.373 0 001.61-2.874l-.01-6.374c.014-.09.642-.243 1.056-.206 10.147.41 9.35-3.694 8.769-11.386 2.463-1.074 6.812-2.525 4.776-5.815z" fill="#2C6C67"/><path d="M30.12 35.668c8.456.728 13.656-9.95 13.973-12.404.432-1.652-5.913-3.058-7.226-3.283.067-1.273.275-7.667-1.38-7.625-.24 0-4.144.1-7.845 2.041a20.481 20.481 0 00-5.05-6.372c-1.67-.961-5.409 4.995-6.116 6.383-3.716-1.94-7.609-2.042-7.844-2.042-1.663.032-1.454 6.285-1.402 7.615-1.334.231-7.586 1.616-7.214 3.275.101.329 2.27 8.137 8.416 11.186 3.629 2.345 11.525.67 13.623-.563 1.084.47 4.37 1.789 8.064 1.789zm6.512-13.958c1.945.308 3.833.903 5.604 1.765-2.047 6.761-8.362 12.858-17.054 9.724 4.595-.838 10.938-5.57 11.458-11.497l-.008.008zm-1.806-7.616c1.77 7.162-1.25 15.764-10.346 17.508 2.913-2.972 6.255-10.384 3.835-15.626 2.543-1.352 5.264-1.754 6.51-1.882zM22.055 9.837c7.293 6.204 6.669 15.592 0 21.918-6.695-6.358-7.264-15.705 0-21.918zm-12.77 4.257c1.238.128 3.966.53 6.522 1.89-2.457 5.247.924 12.68 3.83 15.653-9.214-1.918-12.063-10.228-10.353-17.543zm-.102 18.843c-4.483-2.223-6.675-7.606-7.32-9.47a20.72 20.72 0 015.594-1.79c.568 6.017 6.811 10.625 11.473 11.514-2.556.756-6.449 1.385-9.747-.254z" fill="#2C6C67"/></svg>