<svg width="40" height="30" fill="none" xmlns="http://www.w3.org/2000/svg"><path d="M38.381 17.782a4.094 4.094 0 00-1.468-.701 4.141 4.141 0 00-1.633-.077c3.13-3.091 4.713-6.165 4.713-9.178C39.993 3.51 36.445 0 32.084 0a8.076 8.076 0 00-3.354.706 7.914 7.914 0 00-2.735 2.025A7.913 7.913 0 0023.26.706 8.076 8.076 0 0019.906 0c-4.36 0-7.908 3.51-7.908 7.826 0 1.794.54 3.537 1.676 5.38a5.34 5.34 0 00-2.458 1.37l-3.769 3.685h-4.78c-.708 0-1.386.275-1.886.764A2.58 2.58 0 000 20.87v6.521c0 .692.28 1.356.78 1.845.5.49 1.18.764 1.886.764h17.33c.11 0 .218-.013.324-.04l10.664-2.608c.068-.016.135-.038.199-.065l6.477-2.697.073-.032a4.073 4.073 0 001.55-1.32 3.933 3.933 0 00.374-3.875 4.025 4.025 0 00-1.269-1.581h-.007zM19.906 2.609a5.275 5.275 0 012.911.824 5.107 5.107 0 011.945 2.274c.1.239.271.443.491.587a1.354 1.354 0 001.485 0c.22-.144.39-.348.49-.587a5.108 5.108 0 011.945-2.274 5.275 5.275 0 012.911-.824c2.841 0 5.242 2.388 5.242 5.217 0 3.181-2.63 6.78-7.608 10.419l-1.848.415a4.47 4.47 0 00.014-2.04 4.523 4.523 0 00-.895-1.843 4.65 4.65 0 00-1.627-1.277 4.751 4.751 0 00-2.033-.456h-6.552c-1.438-1.898-2.113-3.568-2.113-5.218 0-2.829 2.401-5.217 5.242-5.217zm-17.24 18.26h4v6.522h-4V20.87zm33.899 1.34l-6.332 2.637-10.403 2.545H9.332v-7.286l3.77-3.688a2.664 2.664 0 011.885-.765h8.342c.53 0 1.039.206 1.414.573s.586.865.586 1.384c0 .519-.211 1.016-.586 1.383a2.022 2.022 0 01-1.414.573h-4.666a1.35 1.35 0 00-.942.382 1.29 1.29 0 00-.39.923c0 .345.14.677.39.922.25.244.589.382.942.382h5.333c.1 0 .2-.011.298-.033l11.165-2.512.051-.013a1.462 1.462 0 011.022.095c.316.154.564.418.694.74.13.321.134.679.011 1.003a1.413 1.413 0 01-.677.754h.005z" fill="#fff"/></svg>