<svg width="41" height="41" fill="none" xmlns="http://www.w3.org/2000/svg"><path d="M37.846 12.615h-9.461V3.154A3.154 3.154 0 0025.23 0h-9.462a3.154 3.154 0 00-3.154 3.154v9.461h-9.46A3.154 3.154 0 000 15.77v9.462a3.154 3.154 0 003.154 3.154h9.461v9.461A3.154 3.154 0 0015.77 41h9.462a3.154 3.154 0 003.154-3.154v-9.461h9.461A3.154 3.154 0 0041 25.23v-9.462a3.154 3.154 0 00-3.154-3.154zm0 12.616H26.808a1.577 1.577 0 00-1.577 1.577v11.038h-9.462V26.808a1.577 1.577 0 00-1.577-1.577H3.154v-9.462h11.038a1.577 1.577 0 001.577-1.577V3.154h9.462v11.038a1.577 1.577 0 001.577 1.577h11.038v9.462z" fill="#fff"/></svg>