<svg width="54" height="51" fill="none" xmlns="http://www.w3.org/2000/svg"><path d="M37.844.797a15.857 15.857 0 00-10.622 4.055A15.86 15.86 0 0016.597.797 16.05 16.05 0 005.18 5.61 16.558 16.558 0 00.443 17.207c0 17.337 25.073 32.194 26.14 32.815a1.263 1.263 0 001.277 0C28.927 49.402 54 34.544 54 17.207a16.558 16.558 0 00-4.736-11.598A16.05 16.05 0 0037.843.797zM27.222 47.38c-3.894-2.425-24.22-15.764-24.22-30.173a13.954 13.954 0 012.307-7.704 13.634 13.634 0 016.148-5.084 13.394 13.394 0 017.895-.735 13.53 13.53 0 016.956 3.865 1.304 1.304 0 001.828 0 13.53 13.53 0 016.955-3.865 13.394 13.394 0 017.895.735 13.634 13.634 0 016.148 5.084 13.954 13.954 0 012.308 7.704c0 14.392-20.33 27.748-24.22 30.173z" fill="url(#paint0_linear_4010_1492)"/><path d="M40.867 20.732h-6.822a1.285 1.285 0 00-1.097.631l-3.411 5.778-2.763-14.031a1.305 1.305 0 00-.362-.675 1.261 1.261 0 00-1.424-.25 1.286 1.286 0 00-.565.51l-4.748 8.037h-6.098c-.34 0-.665.137-.905.38a1.31 1.31 0 000 1.837c.24.244.566.381.905.381H20.4a1.27 1.27 0 001.096-.63l3.412-5.78 2.763 14.032c.05.258.176.493.36.677.185.183.42.304.675.349.073.01.148.015.222.014a1.27 1.27 0 001.096-.631l4.746-8.03h6.097c.34 0 .665-.137.905-.381a1.31 1.31 0 000-1.837 1.27 1.27 0 00-.905-.381z" fill="url(#paint1_linear_4010_1492)"/><path d="M46.887 21.113a1.27 1.27 0 00-1.15-.357 1.266 1.266 0 00-.56.268 1.28 1.28 0 00-.37.505 1.283 1.283 0 000 1.005c.058.158.151.3.272.416a1.318 1.318 0 00.904.38 1.318 1.318 0 00.904-.381 1.305 1.305 0 00.273-1.42 1.348 1.348 0 00-.273-.416z" fill="url(#paint2_linear_4010_1492)"/><path d="M9.365 21.113a1.27 1.27 0 00-1.15-.358 1.266 1.266 0 00-.561.269 1.29 1.29 0 00-.37.505 1.306 1.306 0 00.273 1.42 1.318 1.318 0 00.904.382 1.318 1.318 0 00.904-.381c.121-.116.215-.258.273-.416a1.283 1.283 0 000-1.005 1.347 1.347 0 00-.273-.416z" fill="url(#paint3_linear_4010_1492)"/><defs><linearGradient id="paint0_linear_4010_1492" x1=".443" y1="25.496" x2="54" y2="25.496" gradientUnits="userSpaceOnUse"><stop stop-color="#9CCD5C"/><stop offset="1" stop-color="#6CAA20"/></linearGradient><linearGradient id="paint1_linear_4010_1492" x1="12.298" y1="22.029" x2="42.147" y2="22.029" gradientUnits="userSpaceOnUse"><stop stop-color="#9CCD5C"/><stop offset="1" stop-color="#6CAA20"/></linearGradient><linearGradient id="paint2_linear_4010_1492" x1="44.704" y1="22.031" x2="47.262" y2="22.031" gradientUnits="userSpaceOnUse"><stop stop-color="#9CCD5C"/><stop offset="1" stop-color="#6CAA20"/></linearGradient><linearGradient id="paint3_linear_4010_1492" x1="7.182" y1="22.031" x2="9.74" y2="22.031" gradientUnits="userSpaceOnUse"><stop stop-color="#9CCD5C"/><stop offset="1" stop-color="#6CAA20"/></linearGradient></defs></svg>