<svg width="61" height="62" fill="none" xmlns="http://www.w3.org/2000/svg"><path d="M45.078 33.498c.113.05.23.075.346.075a.86.86 0 00.789-.523l4.292-9.917a.886.886 0 00-.067-.83.857.857 0 00-.721-.397h-5.372a.868.868 0 00-.86.875c0 .483.385.874.86.874h4.053l-3.762 8.691a.88.88 0 00.442 1.153z" fill="url(#paint0_linear_4010_1474)"/><path d="M33.893 23.395c-.057-.69-.459-1.253-1.025-1.43-.267-.085-.96-.194-1.604.61-.557.693-3.32 5.764-3.869 6.774-.147.27-.142.6.013.867.154.266.436.43.74.43h4.018l-.016 2.045a.868.868 0 00.853.882h.008a.868.868 0 00.86-.867l.017-2.06h.393a.868.868 0 00.861-.875.868.868 0 00-.86-.874h-.383c.015-2.44.023-5.142-.006-5.502zm-1.716 5.502H29.61c.937-1.706 1.991-3.592 2.578-4.575.005.987-.001 2.75-.012 4.575z" fill="url(#paint1_linear_4010_1474)"/><path d="M26.938 25.802a.905.905 0 00.015-.086l.048-.384a.894.894 0 00.007-.11c0-1.882-1.507-3.413-3.36-3.413-1.601 0-2.987 1.157-3.296 2.752a.874.874 0 00.68 1.026.862.862 0 001.01-.689c.15-.776.826-1.34 1.607-1.34.886 0 1.61.72 1.637 1.614l-.035.275c-.127.524-.428 1.132-.895 1.81-1.55 2.248-2.475 3.478-2.972 4.14-.609.81-.814 1.082-.663 1.582.088.288.303.51.592.607.116.04.251.085 2.122.085.739 0 1.75-.007 3.137-.025a.868.868 0 00.85-.885.867.867 0 00-.86-.863h-.012c-1.186.015-2.453.023-3.395.022.55-.739 1.39-1.888 2.611-3.66.606-.88 1-1.707 1.172-2.458z" fill="url(#paint2_linear_4010_1474)"/><path d="M37.08 33.67a.862.862 0 00.8-.552l3.923-10.014a.879.879 0 00-.482-1.136.857.857 0 00-1.118.49L36.28 32.471a.879.879 0 00.482 1.136.847.847 0 00.318.062z" fill="url(#paint3_linear_4010_1474)"/><path d="M53.522 10.231a.852.852 0 00-1.215-.08.884.884 0 00-.08 1.233c4.086 4.733 6.23 10.815 6.039 17.127-.193 6.34-2.732 12.302-7.15 16.79-2 2.03-4.293 3.673-6.821 4.889a3.745 3.745 0 00-.718-.716l-1.091-.833a22.111 22.111 0 007.123-4.87c8.703-8.84 8.703-23.223 0-32.062-8.381-8.512-21.853-8.892-30.67-.864a.884.884 0 00-.067 1.235c.317.36.862.39 1.216.067 8.137-7.408 20.569-7.057 28.303.798 8.032 8.158 8.032 21.431 0 29.588a20.373 20.373 0 01-7.523 4.871l-3.786-2.892a2.558 2.558 0 00-3.408.272l-3.063 3.214a.285.285 0 01-.358.045c-6.622-4.184-12.3-9.95-16.42-16.677a.296.296 0 01.045-.363l3.164-3.11a2.657 2.657 0 00.268-3.462l-2.848-3.846a20.852 20.852 0 013.158-5.768.884.884 0 00-.143-1.228.852.852 0 00-1.21.147 22.58 22.58 0 00-3.022 5.207l-.818-1.105a3.763 3.763 0 00-.707-.732 24.753 24.753 0 014.814-6.928c4.364-4.432 10.162-7.009 16.325-7.255a24.13 24.13 0 0116.738 5.835.852.852 0 001.213-.102.884.884 0 00-.102-1.233 25.834 25.834 0 00-17.916-6.247c-6.598.263-12.804 3.02-17.476 7.766a26.496 26.496 0 00-5.165 7.442 3.693 3.693 0 00-3.354 1.038l-4.325 4.393a4.153 4.153 0 00-1.185 2.514c-.267 2.867.39 6.13 1.951 9.698a.856.856 0 001.137.444.88.88 0 00.437-1.155c-1.44-3.29-2.05-6.258-1.81-8.822.05-.53.293-1.043.687-1.442l4.325-4.393a1.99 1.99 0 013.034.228l4.886 6.595a.886.886 0 01-.09 1.154l-3.164 3.11a2.075 2.075 0 00-.309 2.544c4.258 6.953 10.127 12.913 16.973 17.238a1.997 1.997 0 002.504-.314L34.911 46a.853.853 0 011.136-.09l6.498 4.964c.468.354.761.896.803 1.488a2.057 2.057 0 01-.583 1.59l-4.325 4.393a2.397 2.397 0 01-1.492.705c-9.9.887-22.305-11.577-22.43-11.703-.045-.046-4.575-4.676-7.943-10.553a.854.854 0 00-1.177-.316.882.882 0 00-.31 1.195c3.478 6.072 8.021 10.716 8.213 10.91.132.134 3.281 3.316 7.771 6.432 5.582 3.873 10.565 5.83 14.836 5.83.404 0 .8-.018 1.191-.053a4.11 4.11 0 002.559-1.21l4.325-4.393a3.82 3.82 0 001.022-3.406 26.09 26.09 0 007.328-5.246c4.73-4.803 7.448-11.186 7.654-17.973.205-6.756-2.09-13.266-6.465-18.333z" fill="url(#paint4_linear_4010_1474)" stroke="url(#paint5_linear_4010_1474)" stroke-width=".5"/><defs><linearGradient id="paint0_linear_4010_1474" x1="43.484" y1="27.739" x2="50.578" y2="27.739" gradientUnits="userSpaceOnUse"><stop stop-color="#9CCD5C"/><stop offset="1" stop-color="#6CAA20"/></linearGradient><linearGradient id="paint1_linear_4010_1474" x1="27.288" y1="27.74" x2="35.142" y2="27.74" gradientUnits="userSpaceOnUse"><stop stop-color="#9CCD5C"/><stop offset="1" stop-color="#6CAA20"/></linearGradient><linearGradient id="paint2_linear_4010_1474" x1="20.336" y1="27.74" x2="27.422" y2="27.74" gradientUnits="userSpaceOnUse"><stop stop-color="#9CCD5C"/><stop offset="1" stop-color="#6CAA20"/></linearGradient><linearGradient id="paint3_linear_4010_1474" x1="36.22" y1="27.788" x2="41.864" y2="27.788" gradientUnits="userSpaceOnUse"><stop stop-color="#9CCD5C"/><stop offset="1" stop-color="#6CAA20"/></linearGradient><linearGradient id="paint4_linear_4010_1474" x1="1.229" y1="31" x2="59.999" y2="31" gradientUnits="userSpaceOnUse"><stop stop-color="#9CCD5C"/><stop offset="1" stop-color="#6CAA20"/></linearGradient><linearGradient id="paint5_linear_4010_1474" x1="1.229" y1="31" x2="59.999" y2="31" gradientUnits="userSpaceOnUse"><stop stop-color="#9CCD5C"/><stop offset="1" stop-color="#6CAA20"/></linearGradient></defs></svg>