<svg width="48" height="48" viewBox="0 0 48 48" fill="none" xmlns="http://www.w3.org/2000/svg">
<g clip-path="url(#clip0_1_159)">
<path d="M34.6001 36.1C33.4001 36.1 32.1001 36.1 30.9001 36.1C29.6001 36.1 28.5001 36.7 27.7001 37.7C26.9001 38.7 26.7001 39.9 26.8001 41.1C26.8001 41.8 27.3001 42.3 28.0001 42.3C28.7001 42.3 29.2001 41.8 29.2001 41.1C29.2001 40.8 29.2001 40.5 29.2001 40.2C29.2001 39.1 30.0001 38.3 31.1001 38.3C33.5001 38.3 35.9001 38.3 38.4001 38.3C39.5001 38.3 40.3001 39.2 40.3001 40.2C40.3001 40.5 40.3001 40.7 40.3001 41C40.3001 41.7 40.8001 42.2 41.5001 42.2C42.2001 42.2 42.7001 41.7 42.7001 41C42.7001 40.8 42.7001 40.6 42.7001 40.4C42.7001 37.9 40.8001 36 38.3001 36C36.9001 36.1 35.8001 36.1 34.6001 36.1Z" fill="white"/>
<path d="M15.6001 18.6C15.6001 18.8 15.6001 19 15.6001 19.3C15.7001 19.9 16.2001 20.4 16.8001 20.3C17.4001 20.3 17.9001 19.8 17.9001 19.1C17.9001 18.8 17.9001 18.6 17.9001 18.3C17.9001 17.2 18.8001 16.3 19.9001 16.3C22.3001 16.3 24.6001 16.3 27.0001 16.3C28.0001 16.3 28.8001 17 28.9001 18C28.9001 18.4 28.9001 18.7 28.9001 19.1C28.9001 19.7 29.4001 20.2 30.0001 20.2C30.6001 20.2 31.2001 19.9 31.3001 19.2C31.3001 18.9 31.3001 18.6 31.3001 18.3C31.3001 15.8 29.4001 13.9 26.8001 13.9C24.5001 13.9 22.2001 13.9 19.9001 13.9C19.7001 13.9 19.5001 13.9 19.3001 13.9C17.1001 14.3 15.6001 16.1 15.6001 18.6Z" fill="white"/>
<path d="M39.2999 22.9C39.0999 19 37.6999 15.5 34.9999 12.6C33.5999 11.1 31.9999 9.90004 30.1999 9.10004C29.3999 8.70004 28.5999 9.10004 28.4999 9.90004C28.3999 10.4 28.6999 10.9 29.2999 11.2C33.6999 13.5 36.2999 17 36.8999 22C36.9999 22.5 36.8999 23.1 36.9999 23.6C37.0999 24.2 37.5999 24.6 38.2999 24.5C38.8999 24.5 39.2999 24 39.2999 23.4C39.2999 23.3 39.2999 23.1 39.2999 22.9Z" fill="white"/>
<path d="M7.7002 22.9C7.7002 23.1 7.7002 23.3 7.7002 23.5C7.7002 24.1 8.2002 24.5 8.7002 24.6C9.3002 24.7 9.8002 24.3 10.0002 23.7C10.0002 23.5 10.1002 23.3 10.1002 23.1C10.1002 21 10.6002 19.1 11.6002 17.3C13.0002 14.6 15.1002 12.6 17.8002 11.3C18.5002 11 18.7002 10.3 18.4002 9.69996C18.1002 9.09996 17.4002 8.89996 16.8002 9.19996C11.2002 12 8.2002 16.6 7.7002 22.9Z" fill="white"/>
<path d="M23.4999 36.9001C22.9999 36.9001 22.5999 36.9 22.1999 36.8C21.4999 36.8 20.8999 37.2001 20.8999 37.9001C20.7999 38.5001 21.2999 39.1001 21.9999 39.2001C23.0999 39.2001 24.1999 39.2001 25.2999 39.2001C25.9999 39.2001 26.4999 38.6001 26.3999 37.9001C26.2999 37.2001 25.6999 36.8001 24.9999 36.9001C24.3999 36.8001 23.8999 36.9001 23.4999 36.9001Z" fill="white"/>
<path d="M4.6001 39.9C4.7001 39.7 4.7001 39.4999 4.8001 39.2999C5.3001 37.4999 6.9001 36.2 8.8001 36.2C11.3001 36.2 13.8001 36.2 16.3001 36.2C18.5001 36.2 20.4001 38.0999 20.4001 40.2999C20.4001 40.5999 20.4001 40.9999 20.4001 41.2999C20.4001 41.8999 19.9001 42.4 19.3001 42.4C18.7001 42.4 18.2001 42 18.1001 41.4C18.1001 41.1 18.1001 40.8 18.1001 40.5C18.1001 39.3 17.3001 38.5 16.1001 38.4C13.8001 38.4 11.5001 38.4 9.1001 38.4C7.9001 38.4 7.1001 39.2 7.1001 40.4C7.1001 40.6 7.1001 40.8 7.1001 41C7.1001 41.6 6.7001 42.1 6.1001 42.2C5.6001 42.3 5.0001 42 4.8001 41.5L4.7001 41.4C4.6001 41 4.6001 40.4 4.6001 39.9Z" fill="white"/>
<path d="M24.1001 4.5C24.5001 4.6 24.9001 4.7 25.2001 4.9C26.9001 5.7 27.8001 7.6 27.4001 9.4C27.0001 11.2 25.3001 12.5 23.5001 12.4C21.5001 12.3 20.0001 10.9 19.7001 9C19.4001 6.9 20.8001 5 22.9001 4.6C23.0001 4.6 23.1001 4.6 23.1001 4.5C23.4001 4.5 23.7001 4.5 24.1001 4.5ZM25.1001 8.4C25.1001 7.5 24.4001 6.8 23.5001 6.8C22.6001 6.8 21.9001 7.5 21.9001 8.4C21.9001 9.3 22.6001 10 23.5001 10C24.4001 10 25.1001 9.3 25.1001 8.4Z" fill="white"/>
<path d="M34.6003 36.1C35.7003 36.1 36.9003 36.1 38.0003 36.1C40.6003 36.1 42.4003 38 42.4003 40.5C42.4003 40.7 42.4003 40.9 42.4003 41.1C42.4003 41.8 41.9003 42.3 41.2003 42.3C40.5003 42.3 40.0003 41.8 40.0003 41.1C40.0003 40.8 40.0003 40.6 40.0003 40.3C40.0003 39.2 39.2003 38.4 38.1003 38.4C35.7003 38.4 33.3003 38.4 30.8003 38.4C29.7003 38.4 28.9003 39.2 28.9003 40.3C28.9003 40.6 28.9003 40.9 28.9003 41.2C28.9003 41.9 28.4003 42.4 27.7003 42.4C27.0003 42.4 26.6003 41.9 26.5003 41.2C26.4003 39.9 26.6003 38.8 27.4003 37.8C28.2003 36.8 29.3003 36.2 30.6003 36.2C32.1003 36.1 33.4003 36.1 34.6003 36.1Z" fill="white"/>
<path d="M15.6001 18.6C15.6001 16.2 17.1001 14.4 19.4001 14C19.6001 14 19.8001 14 20.0001 14C22.3001 14 24.6001 14 26.9001 14C29.4001 14 31.3001 15.9 31.4001 18.4C31.4001 18.7 31.4001 19 31.4001 19.3C31.3001 19.9 30.8001 20.3 30.1001 20.3C29.5001 20.3 29.1001 19.8 29.0001 19.2C29.0001 18.8 29.0001 18.5 29.0001 18.1C28.9001 17.1 28.1001 16.4 27.1001 16.4C24.7001 16.4 22.4001 16.4 20.0001 16.4C18.9001 16.4 18.1001 17.2 18.0001 18.4C18.0001 18.7 18.0001 18.9 18.0001 19.2C18.0001 19.8 17.5001 20.3 16.9001 20.4C16.3001 20.4 15.8001 20 15.7001 19.4C15.6001 19 15.6001 18.8 15.6001 18.6Z" fill="white"/>
<path d="M39.2999 22.9C39.2999 23.1 39.2999 23.3 39.2999 23.5C39.2999 24.1 38.7999 24.6 38.2999 24.6C37.6999 24.7 37.0999 24.3 36.9999 23.7C36.8999 23.2 36.8999 22.6 36.8999 22.1C36.2999 17.2 33.6999 13.6 29.2999 11.3C28.6999 11 28.3999 10.5 28.4999 10C28.6999 9.20001 29.4999 8.80001 30.1999 9.20001C31.9999 10.1 33.5999 11.2 34.9999 12.7C37.6999 15.6 39.0999 19 39.2999 22.9Z" fill="white"/>
<path d="M7.7001 22.9C8.2001 16.6 11.1001 12 16.7001 9.19996C17.3001 8.89996 18.0001 9.09996 18.3001 9.69996C18.6001 10.3 18.4001 11 17.7001 11.3C15.0001 12.6 12.9001 14.6 11.5001 17.3C10.6001 19.1 10.1001 21.1 10.0001 23.1C10.0001 23.3 10.0001 23.5 9.9001 23.7C9.8001 24.3 9.2001 24.6 8.6001 24.6C8.1001 24.5 7.6001 24.1 7.6001 23.5C7.7001 23.3 7.7001 23.1 7.7001 22.9Z" fill="white"/>
<path d="M12.5002 34.5C10.3002 34.5 8.50017 32.7 8.60017 30.5C8.60017 28.3 10.4002 26.6 12.6002 26.6C14.8002 26.6 16.5002 28.4 16.5002 30.5C16.4002 32.7 14.6002 34.5 12.5002 34.5ZM12.5002 29C11.6002 29 10.9002 29.7 10.9002 30.6C10.9002 31.5 11.6002 32.2 12.5002 32.2C13.4002 32.2 14.1002 31.5 14.1002 30.6C14.1002 29.7 13.4002 29 12.5002 29Z" fill="white"/>
<path d="M34.6003 34.5C32.4003 34.5 30.6003 32.7 30.7003 30.5C30.7003 28.3 32.5003 26.6 34.7003 26.6C36.9003 26.6 38.6003 28.4 38.6003 30.5C38.6003 32.7 36.8003 34.5 34.6003 34.5ZM34.6003 29C33.7003 29 33.0003 29.7 33.0003 30.6C33.0003 31.5 33.7003 32.2 34.6003 32.2C35.5003 32.2 36.2003 31.5 36.2003 30.6C36.2003 29.6 35.5003 29 34.6003 29Z" fill="white"/>
<path d="M23.4999 36.9C23.8999 36.9 24.3999 36.8999 24.9999 36.7999C25.6999 36.6999 26.2999 37.1999 26.3999 37.7999C26.4999 38.3999 25.9999 39.0999 25.2999 39.0999C24.1999 39.1999 23.0999 39.1999 21.9999 39.0999C21.2999 39.0999 20.7999 38.4999 20.8999 37.7999C20.9999 37.0999 21.4999 36.7 22.1999 36.7C22.5999 36.8 22.9999 36.8 23.4999 36.9Z" fill="white"/>
</g>
<defs>
<clipPath id="clip0_1_159">
<rect width="48" height="48" fill="white"/>
</clipPath>
</defs>
</svg>
