<svg width="48" height="48" viewBox="0 0 48 48" fill="none" xmlns="http://www.w3.org/2000/svg">
<g clip-path="url(#clip0_1_237)">
<path d="M31.6998 13.8C33.1998 13.6 34.6998 13.6 36.2998 13.8C36.8998 13.9 37.0998 14.3 36.8998 14.9C35.9998 17.2 34.6998 19.2 32.6998 20.7C31.2998 21.8 29.5998 22.3 27.8998 22.6C26.4998 22.8 25.1998 22.7 23.7998 22.6C23.2998 22.5 22.6998 22.7 22.1998 22.7C19.9998 22.8 17.7998 22.5 15.7998 21.4C14.3998 20.7 13.2998 19.6 12.3998 18.3C11.5998 17.3 10.9998 16.1 10.4998 14.9C10.2998 14.2 10.4998 13.8 11.1998 13.7C12.5998 13.5 14.0998 13.5 15.4998 13.7C15.5998 13.7 15.5998 13.7 15.6998 13.7C15.6998 13.2 15.5998 12.7 15.5998 12.2C15.5998 11.2 15.6998 10.2 15.7998 9.2C15.8998 8.6 16.2998 8.3 16.8998 8.6C18.0998 9.1 19.2998 9.7 20.2998 10.5C20.4998 10.6 20.5998 10.8 20.7998 10.9C21.1998 10.2 21.4998 9.5 21.8998 8.8C22.2998 8.2 22.6998 7.6 23.0998 7C23.4998 6.5 23.9998 6.5 24.3998 7C25.2998 8.1 25.9998 9.2 26.4998 10.5C26.5998 10.6 26.5998 10.8 26.6998 11C27.0998 10.7 27.4998 10.4 27.8998 10.1C28.7998 9.6 29.6998 9.1 30.5998 8.7C31.2998 8.4 31.6998 8.7 31.7998 9.4C31.9998 10.8 31.9998 12.1 31.7998 13.5C31.6998 13.5 31.6998 13.6 31.6998 13.8ZM23.5998 20.6C24.8998 18.6 25.8998 16.5 25.6998 14.1C25.5998 12 24.6998 10.2 23.5998 8.5C20.5998 12.6 20.7998 16.8 23.5998 20.6ZM30.2998 10.2C29.1998 10.7 28.1998 11.4 27.1998 12.2C26.9998 12.4 26.9998 12.5 26.9998 12.7C27.0998 13.4 27.1998 14 27.1998 14.7C27.1998 16.3 26.6998 17.8 25.9998 19.3C25.8998 19.5 25.7998 19.7 25.6998 19.9C29.5998 17.6 30.6998 14 30.2998 10.2ZM21.3998 19.9C21.1998 19.6 21.0998 19.3 20.9998 19C20.0998 17.1 19.6998 15.1 20.0998 13C20.1998 12.5 20.0998 12.2 19.6998 11.9C18.7998 11.2 17.8998 10.7 16.9998 10.2C16.4998 14.2 17.7998 17.7 21.3998 19.9ZM35.1998 15.1C33.9998 15 32.7998 15 31.5998 15.2C31.3998 15.2 31.1998 15.3 31.1998 15.6C30.4998 17.5 29.3998 19.1 27.7998 20.3C27.3998 20.6 26.9998 20.8 26.5998 21.1C30.2998 21.2 33.2998 19.2 35.1998 15.1ZM12.0998 15.1C13.8998 19.2 16.9998 21.2 20.6998 21.2C20.5998 21.1 20.5998 21.1 20.4998 21.1C18.3998 19.7 16.7998 18 15.9998 15.6C15.9998 15.5 15.7998 15.4 15.7998 15.4C14.5998 15.1 13.2998 15 12.0998 15.1Z" fill="white"/>
<path d="M31.4999 28.3C31.5999 28.1 31.6999 28 31.7999 27.9C33.5999 26.1 35.3999 24.3 37.0999 22.5C38.0999 21.5 39.3999 21.3 40.5999 21.9C42.3999 22.8 42.6999 25.1 41.1999 26.7C39.1999 28.8 37.0999 30.8 34.9999 32.9C33.7999 34.1 32.5999 35.3 31.3999 36.5C30.5999 37.4 29.5999 37.8 28.3999 37.8C24.6999 37.8 21.0999 37.8 17.3999 37.8C17.0999 37.8 16.9999 37.9 16.7999 38.1C15.0999 39.9 13.2999 41.6 11.5999 43.4C11.0999 43.9 10.6999 43.9 10.0999 43.4C8.4999 41.8 6.9999 40.2 5.3999 38.7C4.8999 38.2 4.8999 37.8 5.3999 37.3C8.6999 34 11.8999 30.8 15.1999 27.5C15.9999 26.7 16.9999 26.3 18.1999 26.3C21.5999 26.3 24.9999 26.3 28.3999 26.3C29.9999 26.2 30.7999 26.7 31.4999 28.3ZM10.9999 42C10.9999 41.9 11.0999 41.8 11.1999 41.7C12.7999 40.1 14.4999 38.4 16.0999 36.8C16.3999 36.5 16.6999 36.4 17.0999 36.4C20.8999 36.4 24.6999 36.4 28.4999 36.4C29.2999 36.4 29.8999 36.1 30.4999 35.6C31.1999 34.9 31.8999 34.2 32.6999 33.4C35.1999 30.8 37.7999 28.3 40.2999 25.7C40.9999 25 40.9999 24.1 40.3999 23.5C39.7999 22.9 38.8999 22.9 38.2999 23.6C35.7999 26.1 33.3999 28.6 30.8999 31.1C30.2999 31.7 29.6999 32 28.8999 32C26.6999 32 24.4999 32 22.3999 32C22.3999 32 22.3999 32 22.2999 32C21.8999 32 21.4999 31.7 21.5999 31.3C21.5999 30.9 21.8999 30.6 22.2999 30.6C22.9999 30.6 23.6999 30.6 24.2999 30.6C25.7999 30.6 27.1999 30.6 28.6999 30.6C29.7999 30.6 30.4999 29.6 30.1999 28.7C29.9999 28.1 29.3999 27.7 28.6999 27.7C25.1999 27.7 21.7999 27.7 18.2999 27.7C17.4999 27.7 16.7999 28 16.2999 28.5C13.2999 31.5 10.1999 34.6 7.1999 37.6C7.0999 37.7 6.9999 37.8 6.8999 37.9C8.1999 39.2 9.4999 40.5 10.9999 42Z" fill="white"/>
<path d="M19.2 30.5C19.6 30.5 19.9 30.8 19.9 31.2C19.9 31.6 19.6 31.9 19.2 31.9C18.8 31.9 18.5 31.6 18.5 31.2C18.5 30.9 18.8 30.5 19.2 30.5Z" fill="white"/>
</g>
<defs>
<clipPath id="clip0_1_237">
<rect width="48" height="48" fill="white"/>
</clipPath>
</defs>
</svg>
