<svg width="48" height="48" viewBox="0 0 48 48" fill="none" xmlns="http://www.w3.org/2000/svg">
<path d="M11.4002 35.2001C11.3002 34.6001 11.3002 34.1001 11.2002 33.7001C11.2002 33.4001 11.0002 33.3001 10.7002 33.3001C9.90016 33.4001 9.10016 33.4001 8.30016 33.4001C6.50016 33.4001 5.50016 32.6001 4.80016 30.9001C4.80016 30.8001 4.70016 30.7001 4.70016 30.5001C4.20016 28.3001 3.60016 26.1001 3.20016 23.9001C3.00016 22.9001 3.10016 21.9001 3.20016 20.9001C3.30016 20.1001 4.00016 19.7001 4.90016 19.9001C5.60016 20.1001 6.20016 20.5001 6.40016 21.2001C6.70016 21.8001 6.90016 22.5001 7.00016 23.2001C7.20016 24.3001 7.60016 25.2001 8.70016 25.7001C10.1002 26.3001 11.3002 27.1001 12.6002 27.7001C13.2002 28.0001 13.7002 27.9001 14.0002 27.4001C14.3002 26.9001 14.1002 26.4001 13.5002 26.1001C12.2002 25.4001 10.9002 24.7001 9.50016 24.0001C9.00016 23.8001 8.80016 23.5001 8.80016 23.0001C8.80016 22.6001 8.70016 22.2001 8.60016 21.8001C8.20016 20.2001 7.30016 18.9001 5.60016 18.3001C3.80016 17.7001 1.50016 18.6001 1.40016 20.9001C1.30016 22.1001 1.30016 23.4001 1.50016 24.5001C1.90016 26.7001 2.50016 29.0001 3.10016 31.2001C3.70016 33.2001 4.80016 34.7001 7.00016 35.1001C7.40016 35.2001 7.80016 35.3001 8.20016 35.3001C9.30016 35.3001 10.3002 35.3001 11.4002 35.2001Z" fill="white"/>
<path d="M31.4003 19.4C32.6003 20.5 33.6003 21.5 34.7003 22.5C35.8003 21.5 36.9003 20.5 38.0003 19.4C38.9003 19.9 39.8003 20.4 40.6003 21C41.0003 21.3 41.2003 21.7 41.2003 22.2C41.2003 22.9 41.2003 23.5 41.2003 24.2C41.2003 24.9 41.6003 25.3 42.1003 25.3C42.6003 25.3 43.1003 24.8 43.1003 24.1C43.1003 23.5 43.1003 22.9 43.1003 22.3C43.2003 21.1 42.7003 20.2 41.8003 19.6C40.7003 18.9 39.6003 18.3 38.5003 17.7C37.9003 17.4 37.4003 17.5 36.9003 18C36.2003 18.7 35.5003 19.4 34.8003 20.1C34.0003 19.4 33.3003 18.7 32.6003 18C32.1003 17.5 31.6003 17.4 31.0003 17.7C29.7003 18.3 28.5003 19.1 27.4003 20C26.7003 20.6 26.3003 21.3 26.3003 22.2C26.3003 23.1 26.3003 23.9 26.4003 24.8C26.4003 25 26.6003 25.3 26.8003 25.4C27.4003 25.8 28.2003 25.4 28.2003 24.6C28.2003 23.9 28.2003 23.2 28.2003 22.5C28.2003 21.9 28.4003 21.4 28.9003 21.1C29.7003 20.5 30.6003 19.9 31.4003 19.4Z" fill="white"/>
<path d="M34.8 7.10002C34.6 7.10002 34.3 7.10002 34.1 7.10002C31.9 7.30002 30.4 8.70002 30 10.8C29.8 12.2 30 13.4 30.5 14.7C30.8 15.5 31.2 15.8 31.8 15.6C32.4 15.4 32.5 14.8 32.2 14.1C31.9 13.2 31.7 12.3 31.8 11.4C31.9 10.4 32.2 9.40002 33.3 9.10002C34 9.00002 34.8 8.90002 35.6 9.00002C36.7 9.10002 37.4 9.80002 37.7 10.9C37.9 11.8 37.8 12.7 37.5 13.6C37.4 13.9 37.2 14.2 37.2 14.6C37.2 14.8 37.2 15.1 37.3 15.3C37.4 15.7 37.8 15.9 38.1 15.9C38.5 15.9 38.8 15.6 38.9 15.2C39.4 14.2 39.6 13.1 39.6 11.9C39.7 9.00002 37.7 7.00002 34.8 7.10002Z" fill="white"/>
<path d="M17.6 32.7C17.6 30.7 16.7 29.8 14.7 29.6C12.8 29.4 10.9 29.2 8.89998 29C8.29998 28.9 7.89998 29.3 7.79998 29.8C7.69998 30.3 8.09998 30.8 8.69998 30.8C10.6 31 12.5 31.2 14.5 31.4C15.5 31.5 15.7 31.7 15.7 32.7C15.7 32.8 15.7 33 15.7 33.1C15.5 33.9 15.4 34.7 15.2 35.4C14.8 37.2 14.3 39.1 13.8 40.9C13.6 41.5 14.1 42 14.7 42C15.2 42 15.4 41.7 15.6 41.2C16.2 39 16.8 36.7 17.3 34.5C17.4 33.8 17.5 33.3 17.6 32.7Z" fill="white"/>
<path d="M19.5 29C18.8 29 18.1 29 17.4 29C17.2 29 17 29 16.8 28.9C16.4 28.8 16.1 28.3 16.2 27.9C16.2 27.5 16.6 27.1 17 27.1C17.2 27.1 17.3 27.1 17.5 27.1C26.7 27.1 35.9 27.1 45.1 27.1C45.2 27.1 45.4 27.1 45.5 27.1C46.1 27.1 46.5 27.5 46.5 28C46.5 28.5 46.1 28.9 45.6 29C45 29 44.4 29 43.8 29C43.6 29 43.5 29 43.2 29C43.2 29.2 43.2 29.4 43.2 29.6C43.2 32.7 43.2 35.9 43.2 39C43.2 40.7 42.3 41.6 40.6 41.6C34.4 41.6 28.2 41.6 21.9 41.6C20.5 41.6 19.4 40.7 19.4 39.1C19.5 35.9 19.4 32.8 19.4 29.6C19.5 29.5 19.5 29.3 19.5 29ZM21.2 29.1C21.2 29.3 21.2 29.4 21.2 29.6C21.2 32.8 21.2 36 21.2 39.2C21.2 39.8 21.3 39.9 21.9 39.9C28.1 39.9 34.3 39.9 40.5 39.9C41.2 39.9 41.2 39.8 41.2 39.2C41.2 36 41.2 32.8 41.2 29.6C41.2 29.4 41.2 29.3 41.2 29.1C34.6 29.1 28 29.1 21.2 29.1Z" fill="white"/>
<path d="M11.4002 35.2001C10.3002 35.2001 9.30016 35.3001 8.20016 35.3001C7.80016 35.3001 7.40016 35.2001 7.00016 35.1001C4.80016 34.7001 3.70016 33.2001 3.10016 31.2001C2.50016 29.0001 1.90016 26.8001 1.50016 24.5001C1.30016 23.3001 1.30016 22.1001 1.40016 20.9001C1.60016 18.6001 3.80016 17.7001 5.60016 18.3001C7.30016 18.9001 8.20016 20.2001 8.60016 21.8001C8.70016 22.2001 8.80016 22.6001 8.80016 23.0001C8.80016 23.5001 9.00016 23.8001 9.50016 24.0001C10.9002 24.6001 12.2002 25.4001 13.5002 26.1001C14.1002 26.4001 14.2002 26.9001 14.0002 27.4001C13.8002 27.8001 13.2002 28.0001 12.6002 27.7001C11.3002 27.0001 10.0002 26.3001 8.70016 25.7001C7.60016 25.2001 7.20016 24.4001 7.00016 23.2001C6.90016 22.5001 6.70016 21.8001 6.40016 21.2001C6.10016 20.5001 5.60016 20.1001 4.90016 19.9001C4.10016 19.7001 3.30016 20.1001 3.20016 20.9001C3.10016 21.9001 3.10016 22.9001 3.20016 23.9001C3.60016 26.1001 4.20016 28.3001 4.70016 30.5001C4.70016 30.6001 4.80016 30.7001 4.80016 30.9001C5.40016 32.6001 6.40016 33.3001 8.30016 33.4001C9.10016 33.4001 9.90016 33.4001 10.7002 33.3001C11.0002 33.3001 11.1002 33.4001 11.2002 33.7001C11.3002 34.2001 11.3002 34.6001 11.4002 35.2001Z" fill="white"/>
<path d="M31.4002 19.4C30.5002 20 29.7002 20.5 28.8002 21.1C28.3002 21.4 28.1002 21.9 28.1002 22.5C28.1002 23.2 28.1002 23.9 28.1002 24.6C28.1002 25.4 27.3002 25.9 26.7002 25.4C26.5002 25.3 26.3002 25 26.3002 24.8C26.2002 23.9 26.2002 23.1 26.2002 22.2C26.2002 21.3 26.6002 20.6 27.3002 20C28.4002 19.1 29.6002 18.3 30.9002 17.7C31.5002 17.4 32.0002 17.5 32.5002 18C33.2002 18.7 34.0002 19.4 34.7002 20.1C35.4002 19.4 36.1002 18.7 36.8002 18C37.3002 17.5 37.8002 17.4 38.4002 17.7C39.5002 18.3 40.7002 18.9 41.7002 19.6C42.6002 20.2 43.1002 21.2 43.0002 22.3C43.0002 22.9 43.0002 23.5 43.0002 24.1C43.0002 24.8 42.6002 25.3 42.0002 25.3C41.5002 25.3 41.1002 24.8 41.1002 24.2C41.1002 23.5 41.1002 22.9 41.1002 22.2C41.1002 21.7 40.9002 21.3 40.5002 21C39.6002 20.5 38.7002 19.9 37.9002 19.4C36.7002 20.5 35.7002 21.5 34.6002 22.5C33.7002 21.4 32.6002 20.4 31.4002 19.4Z" fill="white"/>
<path d="M34.8002 7.10002C37.7002 7.00002 39.7002 9.00002 39.6002 11.9C39.6002 13 39.3002 14.1 38.9002 15.2C38.7002 15.6 38.5002 15.8 38.1002 15.9C37.7002 15.9 37.4002 15.7 37.3002 15.3C37.2002 15.1 37.2002 14.8 37.2002 14.6C37.3002 14.3 37.4002 13.9 37.5002 13.6C37.9002 12.7 38.0002 11.9 37.7002 10.9C37.4002 9.80002 36.7002 9.10002 35.6002 9.00002C34.9002 8.90002 34.1002 9.00002 33.3002 9.20002C32.2002 9.50002 31.9002 10.5 31.8002 11.5C31.7002 12.4 31.9002 13.3 32.2002 14.2C32.5002 15 32.3002 15.6 31.8002 15.7C31.2002 15.9 30.8002 15.6 30.5002 14.8C30.1002 13.5 29.8002 12.2 30.0002 10.9C30.4002 8.70002 31.9002 7.30002 34.1002 7.20002C34.4002 7.10002 34.6002 7.10002 34.8002 7.10002Z" fill="white"/>
<path d="M17.6003 32.7001C17.5003 33.3001 17.4003 33.8001 17.3003 34.4001C16.7003 36.7001 16.1003 38.9001 15.6003 41.1001C15.5003 41.6001 15.2003 41.8001 14.7003 41.9001C14.0003 41.9001 13.6003 41.5001 13.8003 40.8001C14.2003 39.0001 14.7003 37.1001 15.2003 35.3001C15.4003 34.5001 15.5003 33.7001 15.7003 33.0001C15.7003 32.9001 15.7003 32.8001 15.7003 32.6001C15.7003 31.6001 15.5003 31.4001 14.5003 31.3001C12.6003 31.1001 10.6003 30.9001 8.70029 30.7001C8.10029 30.6001 7.80029 30.2001 7.80029 29.7001C7.90029 29.1001 8.30029 28.8001 8.90029 28.9001C10.8003 29.1001 12.7003 29.3001 14.7003 29.5001C16.7003 29.7001 17.6003 30.7001 17.6003 32.7001Z" fill="white"/>
<path d="M9.7002 12.4C9.7002 14.5 8.0002 16.1 5.9002 16.1C3.9002 16.1 2.2002 14.4 2.2002 12.3C2.2002 10.2 3.9002 8.59998 6.0002 8.59998C8.0002 8.69998 9.7002 10.4 9.7002 12.4ZM7.8002 12.3C7.8002 11.3 7.0002 10.4 5.9002 10.4C4.9002 10.4 4.0002 11.3 4.0002 12.3C4.0002 13.4 4.9002 14.2 5.9002 14.2C7.0002 14.2 7.8002 13.4 7.8002 12.3Z" fill="white"/>
<path d="M32.3003 35.3C32.3003 36 32.3003 36.6 32.3003 37.1C32.3003 37.8 31.9003 38.3 31.3003 38.3C30.7003 38.3 30.3003 37.8 30.3003 37.1C30.3003 36.5 30.3003 35.9 30.3003 35.3C29.8003 35.3 29.3003 35.3 28.8003 35.3C28.6003 35.3 28.4003 35.3 28.2003 35.3C27.7003 35.2 27.3003 34.8 27.3003 34.4C27.3003 33.9 27.7003 33.5 28.3003 33.5C29.0003 33.5 29.6003 33.5 30.3003 33.5C30.3003 32.8 30.3003 32.2 30.3003 31.5C30.3003 30.7 31.0003 30.2 31.7003 30.5C32.1003 30.7 32.3003 31.1 32.3003 31.5C32.3003 32.1 32.3003 32.7 32.3003 33.4C33.0003 33.4 33.6003 33.4 34.2003 33.4C35.0003 33.4 35.5003 34.1 35.1003 34.8C34.9003 35.2 34.6003 35.4 34.1003 35.4C33.6003 35.3 33.0003 35.3 32.3003 35.3Z" fill="white"/>
</svg>
