<svg width="48" height="48" viewBox="0 0 48 48" fill="none" xmlns="http://www.w3.org/2000/svg">
<g clip-path="url(#clip0_1_202)">
<path d="M8.7998 19.6C8.8998 19 8.9998 18.5 9.1998 17.9C9.6998 16.7 10.5998 15.9 11.7998 15.3C11.9998 15.2 12.0998 15.1 12.0998 14.9C12.0998 14.5 12.0998 14.1 12.0998 13.7C12.0998 12.8 12.6998 12.1 13.6998 12.1C14.8998 12.1 15.4998 12.7 15.4998 13.9C15.4998 14.2 15.4998 14.4 15.4998 14.7C15.7998 14.7 16.0998 14.7 16.4998 14.7C16.4998 14.6 16.4998 14.4 16.4998 14.3C16.4998 13.4 16.4998 12.6 16.5998 11.7C16.8998 9.69999 18.5998 8.19999 20.5998 8.09999C22.0998 7.99999 23.5998 8.09999 25.0998 8.09999C25.3998 8.09999 25.5998 8.29999 25.5998 8.59999C25.5998 8.89999 25.3998 8.99999 25.0998 8.99999C23.6998 8.99999 22.3998 8.99999 20.9998 8.99999C20.1998 8.99999 19.3998 9.19999 18.6998 9.79999C17.8998 10.5 17.3998 11.3 17.3998 12.4C17.3998 13.2 17.3998 14 17.3998 14.8C17.9998 14.8 18.5998 14.8 19.1998 14.8C19.1998 14.1 19.1998 13.4 19.1998 12.7C19.1998 12.3 19.2998 11.9 19.4998 11.6C19.8998 11.1 20.2998 10.9 20.8998 10.9C23.1998 10.9 25.4998 10.9 27.8998 10.9C28.8998 10.9 29.5998 11.7 29.5998 12.7C29.5998 13.3 29.5998 13.9 29.5998 14.5C29.5998 14.6 29.5998 14.7 29.5998 14.8C30.1998 14.8 30.7998 14.8 31.3998 14.8C31.3998 13.8 31.3998 12.8 31.1998 11.8C30.8998 10.2 29.4998 9.09999 27.7998 9.09999C27.4998 9.09999 27.1998 9.09999 26.8998 9.09999C26.5998 9.09999 26.4998 8.89999 26.4998 8.59999C26.4998 8.39999 26.6998 8.19999 26.8998 8.19999C28.3998 8.09999 29.6998 8.29999 30.7998 9.39999C31.6998 10.2 32.1998 11.3 32.1998 12.5C32.1998 13.3 32.1998 14.1 32.1998 14.9C32.4998 14.9 32.7998 14.9 33.1998 14.9C33.1998 14.6 33.1998 14.2 33.1998 13.9C33.1998 12.9 33.7998 12.3 34.7998 12.3C35.9998 12.3 36.5998 12.9 36.5998 14C36.5998 14.4 36.5998 14.7 36.5998 15.1C36.5998 15.2 36.6998 15.3 36.6998 15.4C38.4998 16.3 39.4998 17.7 39.7998 19.6C39.7998 24.3 39.7998 29.1 39.7998 33.8C39.7998 33.9 39.7998 33.9 39.6998 34C39.2998 36.1 38.0998 37.6 36.0998 38.3C35.4998 38.5 34.8998 38.6 34.2998 38.6C27.5998 38.6 20.7998 38.6 14.0998 38.6C11.4998 38.6 9.4998 37 8.8998 34.6C8.7998 34.4 8.7998 34.2 8.7998 33.9C8.7998 29 8.7998 24.3 8.7998 19.6ZM24.2998 37.5C27.6998 37.5 31.0998 37.5 34.4998 37.5C36.9998 37.5 38.8998 35.6 38.8998 33.1C38.8998 28.8 38.8998 24.5 38.8998 20.2C38.8998 17.7 36.9998 15.8 34.4998 15.8C27.6998 15.8 20.8998 15.8 14.0998 15.8C11.5998 15.8 9.6998 17.7 9.6998 20.2C9.6998 24.5 9.6998 28.8 9.6998 33.2C9.6998 33.5 9.6998 33.8 9.7998 34.1C10.1998 36.2 11.9998 37.6 14.0998 37.6C17.4998 37.5 20.8998 37.5 24.2998 37.5ZM28.5998 14.8C28.5998 14.1 28.5998 13.5 28.5998 12.8C28.5998 12 28.2998 11.7 27.4998 11.7C25.8998 11.7 24.2998 11.7 22.6998 11.7C22.0998 11.7 21.4998 11.7 20.8998 11.7C20.1998 11.7 19.8998 12 19.8998 12.7C19.8998 13.3 19.8998 13.9 19.8998 14.4C19.8998 14.5 19.8998 14.6 19.8998 14.7C22.8998 14.8 25.6998 14.8 28.5998 14.8ZM14.4998 14.8C14.4998 14.4 14.4998 14 14.4998 13.7C14.4998 13.4 14.2998 13.2 13.9998 13.1C13.4998 13 13.0998 13.2 12.9998 13.5C12.8998 14 12.9998 14.4 12.9998 14.9C13.2998 14.9 13.4998 14.8 13.6998 14.8C13.9998 14.8 14.1998 14.8 14.4998 14.8ZM35.5998 14.9C35.5998 14.6 35.5998 14.3 35.5998 14C35.5998 13.3 35.2998 13 34.5998 13.1C34.2998 13.1 34.0998 13.3 33.9998 13.6C33.9998 14 33.9998 14.4 33.9998 14.7C34.5998 14.8 35.0998 14.9 35.5998 14.9Z" fill="white"/>
<path d="M20.7999 23.2C20.7999 22.1 20.7999 21.1 20.7999 20.1C20.7999 19 21.4999 18.3 22.5999 18.3C23.6999 18.3 24.7999 18.3 25.7999 18.3C26.8999 18.3 27.5999 19 27.5999 20.1C27.5999 21 27.5999 21.9 27.5999 22.9C27.5999 23 27.5999 23.1 27.5999 23.3C27.8999 23.3 28.0999 23.3 28.2999 23.3C29.1999 23.3 29.9999 23.3 30.8999 23.3C31.7999 23.3 32.4999 24 32.5999 24.9C32.5999 26.1 32.5999 27.3 32.5999 28.5C32.5999 29.5 31.8999 30.1 30.8999 30.1C29.9999 30.1 28.9999 30.1 28.0999 30.1C27.9999 30.1 27.8999 30.1 27.6999 30.1C27.6999 30.2 27.6999 30.3 27.6999 30.5C27.6999 31.4 27.6999 32.4 27.6999 33.3C27.6999 34.4 26.9999 35.1 25.8999 35.1C24.7999 35.1 23.6999 35.1 22.5999 35.1C21.4999 35.1 20.7999 34.4 20.7999 33.3C20.7999 32.4 20.7999 31.5 20.7999 30.5C20.7999 30.4 20.7999 30.3 20.7999 30.1C20.5999 30.1 20.4999 30.1 20.2999 30.1C19.9999 30.1 19.7999 29.9 19.7999 29.6C19.7999 29.4 19.9999 29.2 20.2999 29.2C20.5999 29.2 20.8999 29.2 21.1999 29.2C21.5999 29.2 21.6999 29.4 21.6999 29.7C21.6999 30.8 21.6999 32 21.6999 33.1C21.6999 33.8 21.9999 34.1 22.6999 34.1C23.7999 34.1 24.7999 34.1 25.8999 34.1C26.4999 34.1 26.7999 33.8 26.7999 33.2C26.7999 32.1 26.7999 30.9 26.7999 29.8C26.7999 29.3 26.8999 29.2 27.3999 29.2C28.4999 29.2 29.5999 29.2 30.6999 29.2C31.3999 29.2 31.6999 28.9 31.6999 28.2C31.6999 27.1 31.6999 26.1 31.6999 25C31.6999 24.3 31.3999 24.1 30.7999 24.1C29.6999 24.1 28.4999 24.1 27.3999 24.1C26.8999 24.1 26.7999 24 26.7999 23.5C26.7999 22.4 26.7999 21.2 26.7999 20.1C26.7999 19.4 26.4999 19.1 25.7999 19.1C24.6999 19.1 23.6999 19.1 22.5999 19.1C21.8999 19.1 21.6999 19.4 21.6999 20C21.6999 21.1 21.6999 22.3 21.6999 23.4C21.6999 23.9 21.5999 24 21.0999 24C19.9999 24 18.7999 24 17.6999 24C17.0999 24 16.7999 24.3 16.7999 24.9C16.7999 26 16.7999 27.1 16.7999 28.2C16.7999 28.8 17.0999 29.1 17.6999 29.1C17.9999 29.1 18.1999 29.1 18.4999 29.1C18.7999 29.1 18.9999 29.3 18.9999 29.5C18.9999 29.8 18.7999 30 18.4999 30C18.0999 30 17.6999 30 17.2999 30C16.4999 29.9 15.8999 29.3 15.8999 28.5C15.8999 27.3 15.8999 26 15.8999 24.8C15.8999 23.9 16.5999 23.2 17.4999 23.2C18.4999 23.2 19.4999 23.2 20.3999 23.2C20.5999 23.2 20.6999 23.2 20.7999 23.2Z" fill="white"/>
</g>
<defs>
<clipPath id="clip0_1_202">
<rect width="48" height="48" fill="white"/>
</clipPath>
</defs>
</svg>
