<svg width="50" height="50" fill="none" xmlns="http://www.w3.org/2000/svg"><g clip-path="url(#clip0_2002_1020)"><path d="M29.934 7.768V6.076a2.68 2.68 0 00-2.677-2.677H12.381a2.68 2.68 0 00-2.677 2.677v1.692a2.68 2.68 0 002.677 2.676h14.876a2.68 2.68 0 002.677-2.676zm-18.765 0V6.076c0-.669.544-1.212 1.212-1.212h14.876c.668 0 1.212.543 1.212 1.212v1.692c0 .668-.544 1.212-1.212 1.212H12.381a1.213 1.213 0 01-1.212-1.212zM30.591 34.18h-11.9a.732.732 0 000 1.465h11.9a.732.732 0 000-1.465zM6.7 1.465h26.238a3.277 3.277 0 013.173 2.45.732.732 0 001.418-.368A4.742 4.742 0 0032.94 0H6.698a4.748 4.748 0 00-4.742 4.743V40.32a4.722 4.722 0 003.326 4.527.732.732 0 00.437-1.398 3.264 3.264 0 01-2.298-3.13V4.744A3.282 3.282 0 016.7 1.465zm23.89 23.458h-11.9a.732.732 0 000 1.465h11.9a.733.733 0 000-1.465zm-22.96.732c0 1.77 1.44 3.21 3.21 3.21 1.769 0 3.208-1.44 3.208-3.21s-1.44-3.209-3.209-3.209a3.213 3.213 0 00-3.209 3.21zm4.954 0c0 .962-.783 1.744-1.745 1.744a1.746 1.746 0 01-1.744-1.744c0-.962.783-1.744 1.744-1.744.962 0 1.745.782 1.745 1.744zM35.58 38.68l-2.29 2.29a.732.732 0 101.035 1.036l2.29-2.29a.733.733 0 00-1.035-1.036zm-24.74-.557c1.77 0 3.21-1.44 3.21-3.21s-1.44-3.209-3.21-3.209-3.209 1.44-3.209 3.21a3.213 3.213 0 003.21 3.209zm0-4.954c.962 0 1.745.783 1.745 1.744 0 .962-.783 1.745-1.745 1.745a1.746 1.746 0 01-1.744-1.745c0-.961.782-1.744 1.744-1.744zm36.254-3.935l-1.032-1.032a3.244 3.244 0 00-4.591 0l-3.79 3.79V7.193a.732.732 0 00-1.464 0v26.263l-8.742 8.74c-.38.38-.745.861-1.03 1.402H8.926a.732.732 0 000 1.465h16.97l-.495 1.691c-.492 1.685.813 3.246 2.416 3.246.602 0 .832-.164 2.804-.712a5.901 5.901 0 002.478-1.468l13.996-13.996a3.25 3.25 0 000-4.59zM28.13 48.49a1.067 1.067 0 01-1.324-1.324l.575-1.967 2.716 2.716-1.967.575zm3.375-1.237l-3.462-3.463c.401-.565.005-.062 8.851-8.94l3.552 3.552c-8.909 8.875-8.379 8.452-8.94 8.85zm9.976-9.887l-3.551-3.552 1.757-1.757 3.552 3.552-1.758 1.757zm4.577-4.577l-1.783 1.784-3.552-3.552 1.784-1.783a1.78 1.78 0 012.519 0l1.032 1.032a1.783 1.783 0 010 2.52zm-35.995-14.35l4.31-4.31a.732.732 0 10-1.035-1.037l-3.793 3.793-1.203-1.203a.732.732 0 10-1.035 1.036l1.72 1.72a.733.733 0 001.036 0zm20.528-2.773h-11.9a.733.733 0 000 1.465h11.9a.733.733 0 000-1.465z" fill="url(#paint0_linear_2002_1020)"/></g><defs><linearGradient id="paint0_linear_2002_1020" x1="25" y1="50" x2="25" y2="0" gradientUnits="userSpaceOnUse"><stop stop-color="#D57740"/><stop offset="1" stop-color="#6F3E21"/></linearGradient><clipPath id="clip0_2002_1020"><path fill="#fff" d="M0 0h50v50H0z"/></clipPath></defs></svg>