<svg width="52" height="52" fill="none" xmlns="http://www.w3.org/2000/svg"><path d="M35.14 20.16h-3.3v-3.3a.762.762 0 00-.762-.762h-4.062a.76.76 0 00-.762.761v3.301h-3.3a.762.762 0 00-.763.762v4.062c0 .421.341.762.762.762h3.3v3.3c0 .422.342.763.763.763h4.062c.42 0 .762-.341.762-.762v-3.3h3.3a.763.763 0 00.762-.763v-4.062c0-.42-.34-.762-.761-.762zm-.761 4.063h-3.3a.761.761 0 00-.763.761v3.301h-2.539v-3.3a.76.76 0 00-.761-.762h-3.301v-2.54h3.3a.76.76 0 00.762-.761v-3.3h2.54v3.3c0 .42.34.762.761.762h3.3v2.539z" fill="url(#paint0_linear_2002_1024)"/><path d="M35.14 31.332H22.954a.762.762 0 100 1.523h12.188a.762.762 0 100-1.523z" fill="url(#paint1_linear_2002_1024)"/><path d="M35.14 34.379H22.954a.762.762 0 100 1.523h12.188a.762.762 0 100-1.523z" fill="url(#paint2_linear_2002_1024)"/><path d="M45.906 1.523H32.773A5.314 5.314 0 0029.047 0c-1.45 0-2.765.582-3.727 1.523H12.187A3.813 3.813 0 008.38 5.332v32.195a.762.762 0 101.523 0V5.332a2.288 2.288 0 012.286-2.285H24.23a5.288 5.288 0 00-.46 1.523H12.188a.762.762 0 00-.762.762v34.48h-8.38a.76.76 0 00-.76.762 5.338 5.338 0 005.331 5.332h.762v2.285c0 2.1 1.708 3.809 3.809 3.809h33.718c2.1 0 3.809-1.709 3.809-3.809V5.332c0-2.1-1.709-3.809-3.809-3.809zm-21.43 7.618a.762.762 0 00.762-.762V5.332c0-2.1 1.709-3.809 3.809-3.809s3.808 1.709 3.808 3.809v3.047c0 .42.341.762.762.762h1.524c.993 0 1.84.636 2.154 1.523H20.798a2.29 2.29 0 012.155-1.523h1.524zM12.95 6.094h10.766v1.523h-.762a3.813 3.813 0 00-3.808 3.809c0 .42.34.761.761.761h18.282a.76.76 0 00.761-.761c0-2.1-1.708-3.809-3.808-3.809h-.762V6.094h10.766v34.48c0 2.1-1.709 3.809-3.81 3.809a3.813 3.813 0 01-3.808-3.809.76.76 0 00-.761-.761H12.949V6.093zM7.617 44.383a3.815 3.815 0 01-3.732-3.047h32.173a5.323 5.323 0 001.55 3.047H7.618zm40.574 3.808a2.288 2.288 0 01-2.285 2.286H12.188a2.288 2.288 0 01-2.286-2.286v-2.285h31.434a5.338 5.338 0 005.332-5.332V5.332a.762.762 0 00-.762-.762H34.324a5.29 5.29 0 00-.46-1.523h12.042a2.288 2.288 0 012.285 2.285v42.86z" fill="url(#paint3_linear_2002_1024)"/><path d="M29.047 7.617a2.288 2.288 0 002.285-2.285 2.288 2.288 0 00-2.285-2.285 2.288 2.288 0 00-2.285 2.285 2.288 2.288 0 002.285 2.285zm0-3.047a.763.763 0 11-.002 1.525.763.763 0 01.002-1.525z" fill="url(#paint4_linear_2002_1024)"/><defs><linearGradient id="paint0_linear_2002_1024" x1="29.047" y1="29.809" x2="29.047" y2="16.098" gradientUnits="userSpaceOnUse"><stop stop-color="#D57740"/><stop offset="1" stop-color="#6F3E21"/></linearGradient><linearGradient id="paint1_linear_2002_1024" x1="29.047" y1="32.855" x2="29.047" y2="31.332" gradientUnits="userSpaceOnUse"><stop stop-color="#D57740"/><stop offset="1" stop-color="#6F3E21"/></linearGradient><linearGradient id="paint2_linear_2002_1024" x1="29.047" y1="35.902" x2="29.047" y2="34.379" gradientUnits="userSpaceOnUse"><stop stop-color="#D57740"/><stop offset="1" stop-color="#6F3E21"/></linearGradient><linearGradient id="paint3_linear_2002_1024" x1="26" y1="52" x2="26" y2="0" gradientUnits="userSpaceOnUse"><stop stop-color="#D57740"/><stop offset="1" stop-color="#6F3E21"/></linearGradient><linearGradient id="paint4_linear_2002_1024" x1="29.047" y1="7.617" x2="29.047" y2="3.047" gradientUnits="userSpaceOnUse"><stop stop-color="#D57740"/><stop offset="1" stop-color="#6F3E21"/></linearGradient></defs></svg>