<svg width="49" height="49" fill="none" xmlns="http://www.w3.org/2000/svg"><path d="M15.92 23.045h4.114v-4.114a1.502 1.502 0 011.492-1.512h5.938c.83 0 1.503.673 1.503 1.503v4.113h4.103a1.502 1.502 0 011.512 1.492v5.939c0 .83-.672 1.502-1.502 1.502h-4.113v4.104a1.502 1.502 0 01-1.493 1.512h-5.928c-.83 0-1.502-.673-1.502-1.503v-4.113H15.93a1.502 1.502 0 01-1.512-1.492v-5.929c0-.83.672-1.502 1.502-1.502zm.514 6.906h4.608c.557 0 1.008.452 1.008 1.009v4.607h4.9V30.96c0-.557.451-1.009 1.008-1.009h4.608v-4.89h-4.608a1.008 1.008 0 01-1.008-1.008v-4.617h-4.89v4.607c0 .557-.451 1.009-1.008 1.009h-4.618v4.9z" fill="url(#paint0_linear_2002_1013)"/><path d="M6.957 9.878h8.308v-3.55a2.934 2.934 0 013.085-3.024h12.3a2.934 2.934 0 013.085 3.025v3.528h8.308c3.206 0 6.957 1.825 6.957 6.957v21.93c0 5.131-3.75 6.956-6.957 6.956H6.957C3.75 45.7 0 43.875 0 38.743V16.834c0-5.131 3.74-6.956 6.957-6.956zm24.762-3.55c0-.292 0-1.078-1.079-1.078H18.35c-1.079 0-1.079.776-1.079 1.079v3.528h14.448V6.33zM2.016 38.744c0 4.457 3.449 4.94 4.94 4.94h35.087c1.482 0 4.94-.483 4.94-4.94v-21.91c0-4.456-3.448-4.94-4.94-4.94H6.957c-1.482 0-4.94.484-4.94 4.94v21.91z" fill="url(#paint1_linear_2002_1013)"/><defs><linearGradient id="paint0_linear_2002_1013" x1="24.5" y1="37.584" x2="24.5" y2="17.419" gradientUnits="userSpaceOnUse"><stop stop-color="#D57740"/><stop offset="1" stop-color="#6F3E21"/></linearGradient><linearGradient id="paint1_linear_2002_1013" x1="24.5" y1="45.7" x2="24.5" y2="3.3" gradientUnits="userSpaceOnUse"><stop stop-color="#D57740"/><stop offset="1" stop-color="#6F3E21"/></linearGradient></defs></svg>