<svg width="46" height="46" fill="none" xmlns="http://www.w3.org/2000/svg"><path d="M31.953 2.504A13.484 13.484 0 0023 5.87a13.487 13.487 0 00-8.954-3.365A13.632 13.632 0 00.432 16.122c0 14.386 21.13 26.716 22.03 27.23a1.077 1.077 0 001.076 0c.9-.514 22.031-12.844 22.031-27.23A13.632 13.632 0 0031.953 2.504zM23 41.16C19.72 39.148 2.588 28.079 2.588 16.122A11.453 11.453 0 0122.23 8.108a1.108 1.108 0 001.54 0 11.452 11.452 0 0119.643 8.014c0 11.942-17.134 23.026-20.413 25.038z" fill="#fff"/><path d="M34.5 19.047h-5.75a1.078 1.078 0 00-.924.523l-2.875 4.796-2.33-11.644a1.078 1.078 0 00-1.98-.344l-4.002 6.669H11.5a1.078 1.078 0 100 2.156h5.75a1.078 1.078 0 00.924-.523l2.875-4.796 2.33 11.644a1.075 1.075 0 00.872.851c.061.009.124.013.186.012a1.08 1.08 0 00.925-.524l3.999-6.664H34.5a1.079 1.079 0 000-2.156zm5.074.316a1.074 1.074 0 00-1.753.345 1.05 1.05 0 000 .834.91.91 0 00.23.345 1.111 1.111 0 00.761.316 1.111 1.111 0 00.762-.316 1.068 1.068 0 00.23-1.179 1.118 1.118 0 00-.23-.345zm-31.624 0a1.073 1.073 0 00-1.754.345 1.068 1.068 0 00.575 1.408 1.034 1.034 0 00.834 0 1.1 1.1 0 00.345-.229.91.91 0 00.23-.345 1.05 1.05 0 000-.834 1.116 1.116 0 00-.23-.345z" fill="#fff"/></svg>