<svg width="50" height="50" fill="none" xmlns="http://www.w3.org/2000/svg"><g clip-path="url(#clip0_2002_404)" fill="#fff"><path d="M37.306 27.093a.73.73 0 00.965-.376l3.652-8.307a.732.732 0 00-.67-1.028h-4.57a.732.732 0 000 1.465h3.448l-3.2 7.28a.732.732 0 00.375.966zM27.79 18.63c-.05-.58-.391-1.05-.872-1.199-.228-.07-.817-.162-1.365.51-.474.582-2.825 4.83-3.292 5.676a.733.733 0 00.641 1.086h3.418l-.014 1.713a.733.733 0 00.726.739h.007a.732.732 0 00.732-.726l.014-1.726h.334a.732.732 0 000-1.465h-.325c.013-2.044.02-4.308-.005-4.608zm-1.46 4.608h-2.184c.798-1.43 1.695-3.009 2.194-3.832.004.827-.002 2.303-.01 3.832z"/><path d="M21.872 20.646a.81.81 0 00.013-.072l.041-.322a.738.738 0 00.006-.092 2.861 2.861 0 00-2.858-2.859c-1.363 0-2.542.97-2.804 2.305a.732.732 0 001.437.283 1.395 1.395 0 011.367-1.123c.755 0 1.37.603 1.393 1.352l-.03.23c-.108.439-.364.949-.761 1.516-1.319 1.884-2.106 2.914-2.528 3.468-.519.678-.693.907-.564 1.326a.773.773 0 00.503.508c.099.033.214.072 1.805.072.63 0 1.49-.006 2.67-.021a.732.732 0 00-.01-1.465h-.009c-1.01.013-2.088.02-2.89.019a99.824 99.824 0 002.223-3.067c.515-.736.85-1.429.996-2.058zm8.63 6.59a.733.733 0 00.68-.462l3.337-8.388a.732.732 0 00-1.36-.542l-3.337 8.389a.732.732 0 00.68 1.003z"/><path d="M44.49 7.603a.732.732 0 00-1.102.966 20.715 20.715 0 015.137 14.346 20.724 20.724 0 01-6.083 14.064 20.728 20.728 0 01-5.803 4.096 3.161 3.161 0 00-.61-.6l-.929-.698a18.826 18.826 0 006.06-4.08c7.405-7.404 7.405-19.452 0-26.857-7.13-7.13-18.592-7.448-26.093-.723a.732.732 0 10.978 1.09c6.922-6.205 17.5-5.911 24.08.669 6.833 6.833 6.833 17.952 0 24.785a17.366 17.366 0 01-6.401 4.08l-3.22-2.422a2.2 2.2 0 00-2.9.227l-2.606 2.693a.245.245 0 01-.305.037 43.756 43.756 0 01-13.969-13.97.245.245 0 01.038-.303l2.692-2.606a2.2 2.2 0 00.228-2.9l-2.424-3.221a17.389 17.389 0 012.688-4.832.732.732 0 00-1.151-.906 18.844 18.844 0 00-2.572 4.362l-.696-.925a3.174 3.174 0 00-.601-.614 20.73 20.73 0 014.095-5.803 20.739 20.739 0 0113.89-6.077A20.728 20.728 0 0141.15 6.37a.733.733 0 00.946-1.118A22.192 22.192 0 0026.853.017a22.2 22.2 0 00-14.868 6.505 22.19 22.19 0 00-4.394 6.235 3.167 3.167 0 00-2.854.87l-3.68 3.679A3.456 3.456 0 00.05 19.412c-.227 2.402.331 5.135 1.66 8.123a.733.733 0 001.339-.595c-1.226-2.755-1.744-5.242-1.54-7.39.042-.444.25-.873.585-1.208l3.68-3.68a1.71 1.71 0 012.58.19l4.157 5.526a.733.733 0 01-.076.966L9.743 23.95a1.718 1.718 0 00-.263 2.13 45.23 45.23 0 0014.44 14.44 1.718 1.718 0 002.13-.263l2.606-2.692a.734.734 0 01.966-.076l5.528 4.159a1.708 1.708 0 01.188 2.579l-3.68 3.68c-.338.338-.79.548-1.27.59-8.422.742-18.976-9.698-19.081-9.804-.039-.038-3.893-3.916-6.758-8.84a.732.732 0 00-1.266.737c2.96 5.086 6.825 8.976 6.988 9.14.112.111 2.791 2.777 6.611 5.387C21.631 48.36 25.87 50 29.504 50c.343 0 .681-.015 1.013-.044a3.52 3.52 0 002.177-1.014l3.68-3.68a3.172 3.172 0 00.87-2.853 22.192 22.192 0 006.234-4.394 22.183 22.183 0 006.511-15.055 22.176 22.176 0 00-5.5-15.357z"/></g><defs><clipPath id="clip0_2002_404"><path fill="#fff" d="M0 0h50v50H0z"/></clipPath></defs></svg>