<svg width="500" height="419" fill="none" xmlns="http://www.w3.org/2000/svg"><path d="M500 349.855H0V419h500v-69.145z" fill="#FFFFF2"/><path opacity=".2" d="M483 388.362s-104.3 14.162-233 14.162-233-14.162-233-14.162S121.3 374.2 250 374.2s233 14.162 233 14.162z" fill="#606060"/><path d="M69 240.446c1 48.225 14.6 51.558 14.6 51.558l3.4-1.296 10-3.795c-14.9-12.589-14.3-46.097-14.3-46.097s-4-10.737-7.7-16.106c-3.7-5.553-7.1-5.646-6 15.736z" fill="#242754"/><path opacity=".2" d="M75 224.525c-.6 2.777-.8 7.775-.4 15.828.8 36.007 8.5 47.022 12.4 50.169l-3.4 1.296S70.1 288.486 69 240.26c-1.1-21.197 2.3-21.104 6-15.735z" fill="#FFFFF2"/><path d="M53.1 240.631h46.2c13.5 0 26.3-57.019 14.7-77.383-7.7-13.514-20.1-17.031-27.6-17.772H67.2c-.9 0-1.7.093-2.6.185-7.6 1.111-18.9 4.906-26.1 17.587-11.7 20.457 1.1 77.383 14.6 77.383z" fill="#E85D75"/><path opacity=".2" d="M61.7 240.631h37.6c13.5 0 26.3-57.019 14.7-77.383-4.4-7.683-10.3-12.126-16-14.717-4.7-2.129-9.9-3.055-15.1-3.055h-4.8c-5.2 0-10.4 1.018-15.1 3.055-5.7 2.499-11.6 7.034-16 14.717-11.6 20.457 1.2 77.383 14.7 77.383z" fill="#606060"/><path d="M73.3 302.185h105.2c2 0 4-1.388 4.5-3.147l1.9-6.849c1.5-5.462-2.3-10.09-8.6-10.09H75.5c-6.3 0-10.1 4.628-8.6 10.09l1.9 6.849c.4 1.759 2.4 3.147 4.5 3.147z" fill="#E85D75"/><path opacity=".2" d="M125.3 302.186h53.1c2 0 4-1.389 4.5-3.148l1.8-6.849c1.5-5.461-2.3-9.997-8.6-9.997H123c6.3 0 10.1 4.628 8.6 9.997l-1.9 6.849c-.3 1.759-2.3 3.148-4.4 3.148z" fill="#606060"/><path d="M129 308.109h-17l3.1 61.832h10.7l3.2-61.832z" fill="#242754"/><path d="M106.5 304.499h27.9l-2.9 35.545c-6.7 2.777-14.2 2.499-22 0l-3-35.545z" fill="#242754"/><path opacity=".2" d="M124.1 341.71c-5.2.74-10.1.185-14.7-1.667l-2.1-25.362H128s-.2 18.328-3.9 27.029z" fill="#FFFFF2"/><path opacity=".2" d="M113.1 339.025l-2.5-.555-1.4-22.215h2.5l1.4 22.77z" fill="#FFFFF2"/><path d="M79.4 385.862c3.48 0 6.3-2.611 6.3-5.831 0-3.221-2.82-5.832-6.3-5.832s-6.3 2.611-6.3 5.832c0 3.22 2.82 5.831 6.3 5.831z" fill="#242754"/><path d="M79.4 381.975c1.16 0 2.1-.871 2.1-1.944 0-1.074-.94-1.944-2.1-1.944-1.16 0-2.1.87-2.1 1.944 0 1.073.94 1.944 2.1 1.944z" fill="#FFFFF2"/><path d="M122.5 371.978l-51 6.572s-.5-5.924 11.5-8.423c12.1-2.5 39.5-8.887 39.5-8.887v10.738zm41 13.884c3.479 0 6.3-2.611 6.3-5.831 0-3.221-2.821-5.832-6.3-5.832-3.479 0-6.3 2.611-6.3 5.832 0 3.22 2.821 5.831 6.3 5.831z" fill="#242754"/><path d="M163.5 381.975c1.16 0 2.1-.871 2.1-1.944 0-1.074-.94-1.944-2.1-1.944-1.16 0-2.1.87-2.1 1.944 0 1.073.94 1.944 2.1 1.944z" fill="#FFFFF2"/><path d="M120.5 371.978l51 6.572s.5-5.924-11.5-8.423c-12.1-2.5-39.5-8.887-39.5-8.887v10.738zm56.7-69.793c0 4.166-3.7 7.59-8.2 7.59H89.7c-11.7 0-13.7-5.831-13.4-7.59h100.9z" fill="#242754"/><path opacity=".2" d="M76.3 302.185h45.6c0 4.166-3.7 7.59-8.2 7.59h-24c-11.7 0-13.7-5.924-13.4-7.59z" fill="#FFFFF2"/><path d="M182.3 369.757l-2.6-3.055-11.2-3.61-5-1.573s6-1.944 6.9-18.235c.2-3.055.4-5.924.7-8.609 3.1-30.638 11.9-43.412 13.2-48.41 0 0-1.3-11.386 6.3-17.402 3.8-3.055 10-4.628 19.7-2.684 12.7 15.55-30.9 88.397-28 103.578z" fill="#F37A50"/><path opacity=".5" d="M171.2 334.675c3.1-30.638 11.9-43.412 13.2-48.41 0 0-1.3-11.385 6.3-17.402 1.9 1.111 3.3 2.314 3.9 3.517 3.8 8.053-23 61.462-23.4 62.295z" fill="#F37A50"/><path d="M210.3 266.178c-.4-.092-8.5-1.851-14.9 3.333-.6.555-1.2 1.018-1.8 1.573-7.1 6.757-9.3 15.181-9.3 15.181s-11.2-.185-23.8-.741c-14.4-.74-30.6-1.944-34.1-4.258-14.5-9.534-11.7-28.509-10.7-29.898 1.7-2.499 29.8-4.258 46.9-2.777 14.6 1.296 32.3 6.85 47.7 17.587z" fill="#242754"/><path opacity=".2" d="M193.7 271.177c-7.1 6.757-9.3 15.181-9.3 15.181s-11.2-.186-23.8-.741l-10-33.323c-.1-.092 30.3-1.758 43.1 18.883z" fill="#606060"/><path d="M194.3 390.954c-7.2-1.574-11.7-8.331-17.2-9.997-5.5-1.574-15.5-3.24-16.1-6.942-.2-1.203 0-3.055.4-4.999.8-3.702 2.2-7.59 2.2-7.59s2.3.278 5.1.741c4.3.648 9.9 1.758 10.1 2.869.1.278.4.926 1 1.574 2.7 3.61 10.4 11.292 13.4 14.347 3.6 3.703 9.7 4.998 10.5 7.127.7 2.315-2.2 4.351-9.4 2.87z" fill="#F37A50"/><path d="M159.7 373.645l1.7 16.569h2.8l-.1-15.458-4.4-1.111z" fill="#242754"/><path d="M205.6 392.435c-6.2 2.499-20.4 1.481-26.2-3.61-7.8-6.849-11.4-8.423-19.5-14.254-2-5.277-.3-10.738 3.6-13.052 0 0 10.6 14.07 17.4 14.44 4.5 0 6.2-1.111 6.2-1.111s21.2 13.422 18.5 17.587z" fill="#242754"/><g opacity=".5"><path d="M159.7 373.644l1.7 16.569h2.8l-.1-15.458-4.4-1.111z" fill="#FFFFF2"/><path d="M205.6 392.435c-4.9 1.944-14.9 1.759-21.7-.926-1.8-.74-3.3-1.573-4.5-2.591-7.8-6.85-11.4-8.331-19.4-14.255-.9-2.314-1-4.628-.6-6.757.5-2.685 2-4.999 4.2-6.294 0 0 10.6 14.162 17.4 14.439 4.5 0 6.2-1.11 6.2-1.11s21.1 13.329 18.4 17.494z" fill="#FFFFF2"/><path opacity=".2" d="M183.9 391.509c-1.8-.74-3.3-1.573-4.5-2.591-7.8-6.85-11.4-8.331-19.4-14.255-.9-2.314-1-4.628-.6-6.757 2.3 1.388 22.9 14.81 24.5 23.603z" fill="#606060"/></g><path d="M157.2 369.757l-2.6-3.055-11.2-3.61-5-1.573s6-1.944 6.9-18.235c2.2-36.933 12.4-51.558 13.8-57.019 0 0-3-25.825 26-20.086 12.8 15.55-30.8 88.398-27.9 103.578z" fill="#F37A50"/><path d="M185.3 266.271s-8.3-2.036-14.9 3.332c-8.5 6.943-11.1 16.662-11.1 16.662s-51.4-.741-57.9-4.999c-14.5-9.534-11.7-28.509-10.7-29.898 3.8-5.738 69.8-5.091 94.6 14.903z" fill="#242754"/><path d="M169.2 390.954c-7.2-1.574-11.7-8.331-17.2-9.997-5.5-1.574-15.5-3.24-16.1-6.942-.2-1.204 0-3.055.4-4.999.8-3.702 2.2-7.59 2.2-7.59s2.3.278 5.1.741c4.3.648 9.9 1.758 10.1 2.869.1.278.4.926 1 1.574 2.7 3.61 10.4 11.292 13.4 14.347 3.6 3.702 9.7 4.998 10.5 7.127.7 2.314-2.1 4.351-9.4 2.87z" fill="#F37A50"/><path d="M134.6 373.645l1.8 16.568h2.7l-.1-15.458-4.4-1.11z" fill="#242754"/><path d="M180.6 392.435c-6.2 2.499-20.4 1.481-26.2-3.61-7.8-6.85-11.4-8.423-19.5-14.255-2-5.276-.3-10.737 3.6-13.051 0 0 10.6 14.07 17.4 14.44 4.5 0 6.2-1.111 6.2-1.111s21.2 13.422 18.5 17.587z" fill="#242754"/><g opacity=".5" fill="#FFFFF2"><path d="M134.6 373.645l1.8 16.568h2.7l-.1-15.458-4.4-1.11z"/><path d="M180.6 392.435c-6.2 2.499-20.4 1.481-26.2-3.61-7.8-6.85-11.4-8.423-19.5-14.255-2-5.276-.3-10.737 3.6-13.051 0 0 10.6 14.07 17.4 14.44 4.5 0 6.2-1.111 6.2-1.111s21.2 13.422 18.5 17.587z"/></g><path d="M96.5 89.29s-16.2 7.313-6.3 23.141c0 0-15.5 7.868-3.2 21.66 0 0-18.4 16.569 12.5 30.916 30.9 14.347 69.4-5.276 45.1-27.769 0 0 9.6-18.605-6.8-19.438-.1 0-2.4-37.859-41.3-28.51z" fill="#242754"/><path d="M87.9 172.32l.3.833c2.1 6.572 4.8 14.069 7.3 20.919.8 2.221 1.7 4.443 2.4 6.479 3.4 8.886 6 15.458 6 15.458-5.8 11.663-11.8 25.178-15.1 38.969 5.4 5.832 54.9-6.849 74.8-6.386 0-10.367-2.7-42.95-2.4-44.431 1.8-8.145 4.8-15.458 3.9-27.121-.8-10.182-19.5-27.398-19.5-27.398-6.2-4.166-12.2-6.11-12.2-6.11l-25.5.926s-20.3 7.22-23.2 9.997c-.7.463-.7 2.499-.2 5.461.7 3.147 1.9 7.498 3.4 12.404z" fill="#872F61"/><path d="M107.9 144.458c8 11.108 15.3 24.992 15.3 24.992 11.7 4.443 21.2 4.258 28.4-.37 0 0-13.8-16.476-18.2-25.732-2.6-5.369-4.8-12.496-4.7-12.496l-4.9-6.665-13.9-.37c.1.185-.4 13.144-2 20.641z" fill="#F37A50"/><path opacity=".5" d="M133.4 143.44c-2.5-5.184-4.7-12.496-4.7-12.496l-4.9-6.665-13.9-.555c0 .092 4.3 26.103 23.5 19.716z" fill="#F37A50"/><path d="M191.6 176.855v20.919l-19.3-8.515-20.7-9.072-1.4-3.239-14-32.675s18.5 2.221 22.1 4.998l28.6 23.604 4.7 3.98z" fill="#FFFFF2"/><path opacity=".2" d="M191.6 176.855v16.384c-1.4 1.111-8.7-7.405-3.7-19.346l3.7 2.962zm-19.3 12.496l-20.7-9.071-1.4-3.24 4.2-18.697c.1 0 20.3 10.644 17.9 31.008z" fill="#606060"/><path d="M215.6 146.217l6.9 5.368s10.3-2.962 15.8-7.497c2.6-2.129 6.8-6.48 7.8-7.683.2-.185.3-.278.3-.37 0 0 .2-.185.2-.463 0-.185 0-.278-.2-.463-.4-.37-1.3-.37-1.3-.37l2-1.851c.3-.185.4-.463.5-.833.1-.278.1-.741-.2-1.019-.6-.555-1.7-.277-1.7-.277l1.3-1.111s1-.648.1-1.481c-.7-.648-2.4 0-2.4 0l-2 .833c.1-.092 1.3-1.111.7-1.759-.9-.925-2.6-.092-2.6-.092l-10.7 4.443-.2.092s-.5.186-1.1.371c-.3.092-.7.092-1 .185h-.7c-.7-.093-.3-1.574-.1-2.222.1-.277.1-.37.1-.37 0-.185 2-4.998-1.5-5.461-.5.648-.5 1.758-1.1 2.499-2.3 2.592-3.8 3.98-4.5 5.276-4.1 8.331-4.4 14.255-4.4 14.255z" fill="#F37A50"/><path opacity=".5" d="M226.3 133.258c.3 1.759 2.2 2.222 0 8.053 2.3-3.703 3-8.146.9-9.071-.6-.278-.3-1.574-.1-2.222v-.092c0 .092-1.1 1.666-.8 3.332zm16.3-4.073s-9 3.888-10.6 5.369c0 0 8-3.24 10.6-5.369zm3.2 1.759s-10.6 4.813-12.3 6.387c0 0 9.5-4.165 12.3-6.387zm-.7 3.98c-2 1.851-10.3 5.647-10.3 5.647 3.1-1.944 6.5-3.796 10.3-5.647z" fill="#F37A50"/><path d="M204.4 193.702l23.4-41.561c-3.8-6.572-13.3-10.552-13.3-10.552l-28.1 40.635c-7.5 13.329 11.6 22.863 18 11.478zm-34.7 55.815l-9.2-1.018s-5.8-38.321-9.5-59.703c-1.1-6.294-2-11.015-2.5-13.051-2.4-8.979-16.7-34.064-16.5-35.545 0 0 4.5 2.592 6.3 5.091l10.6 5.647s13.4 10.552 16.4 24.436c3 13.885-3.6 30.454-3.6 30.454l8 43.689z" fill="#FFFFF2"/><path opacity=".4" d="M151.1 188.518c0 .093-.1.185-.1.278-1.1-6.294-2-11.015-2.5-13.051-2.4-8.979-16.7-34.064-16.5-35.545 0 0 4.5 2.592 6.3 5.091l6.4 6.665-2.8.925 6.4 4.536c-.1-.092 5 21.66 2.8 31.101z" fill="#606060"/><path d="M133 219.342c-.1 24.251-.9 49.614-.9 49.614s-16.6-.371-30.7-2.315c-7.1-.925-13.5-2.314-17-4.072 0 0 1-10.738 5.7-23.882 2.4-6.757 5.9-14.162 10.7-21.011 0 0-11.2-26.011-16.4-46.56-1.5-6.016-2.6-11.57-2.7-15.828 0 0 9.9-8.238 20.7-10.46l5.7-7.405c.6.741 20.8 26.011 23.6 41.931.4 2.5.7 6.295.9 10.923.1 1.666.1 3.425.2 5.276.2 7.035.2 15.273.2 23.789z" fill="#FFFFF2"/><path opacity=".2" d="M160 196.386l-5 22.678-22 .278c-14.8 11.755-29.4 20.086-43 19.346 2.4-6.758 5.9-14.163 10.7-21.012 0 0-11.2-26.011-16.4-46.56l12.7-5.368s16.6 23.418 19.9 29.342l15.9.463 27.2.833z" fill="#606060"/><path opacity=".4" d="M109.7 162.323l2.9-8.238h-8.8l-1.5-9.257 5.7-7.405c.6.741 20.9 26.011 23.6 41.931.4 2.5.7 6.295.9 10.923l-22.8-27.954z" fill="#606060"/><path d="M184.8 200.459c-.1 0-.1 0 0 0 2.6 1.11 3.5.74 3.7 0 .1-.741-1.4-1.944-1.5-2.037 1.8 1.111 4.3.093 4-1.11-.3-1.204-8.3-5.739-9.7-5.832-1.4-.093-7.1 1.018-7.1 1.018l3.7-4.258s1.2-.925 5.4-.74c4.2.185 4.4-1.666 3.6-2.685-.8-1.018-9.8-1.666-10.9-.925-1.1.74-17.3 14.069-17.3 17.031 0 2.407-1.6 8.053 2.5 8.516 2.3.278 7.1-1.203 9-2.314 4.2-2.406 7.1-6.757 7.5-6.757.6 0 5.6 3.24 7.1 2.036.7-.37.1-1.573 0-1.943z" fill="#F37A50"/><path d="M187.1 198.515a19.37 19.37 0 00-2.9-1.944c-1.1-.555-2.1-1.111-3.3-1.388 2 1.11 4 2.314 6.2 3.332zm-2.2 2.036c-.7-.648-1.6-1.111-2.5-1.573-.9-.371-1.8-.833-2.8-.926 1.8.926 3.4 1.851 5.3 2.499z" fill="#F37A50"/><path d="M103.5 217.305c18.7-.74 59.5-3.98 59.5-3.98-3.4-5.924-2.9-17.032-2.9-17.032l-47.6 1.111s-13.2-1.111-16.5 7.312c-3.5 8.516 5.4 12.682 7.5 12.589z" fill="#FFFFF2"/><path d="M96 212.492c-9.5-13.7-25.3-42.024-23.4-51.558 2.1-10.737 29.2-16.013 29.2-16.013l-3.9 21.567 20.4 39.524s-15.4 16.477-22.3 6.48z" fill="#FFFFF2"/><path opacity=".2" d="M113.9 197.404s-6 1.759-8.3 7.22c0 0-.7-6.109 7.3-9.071l1 1.851z" fill="#606060"/><path d="M124.629 84.302c-11.001.912-18.738 13.869-17.281 28.94 1.458 15.071 11.558 26.55 22.559 25.639 11.002-.912 18.739-13.869 17.281-28.94-1.457-15.071-11.557-26.55-22.559-25.639z" fill="#F37A50"/><path d="M133 124.094h.1c.5-.093 1.7-.648 1.5-3.518-.3-4.72-1.4-7.312-1.4-7.405-.1-.185-.3-.277-.5-.185-.2.093-.3.278-.2.463 0 0 1.1 2.592 1.4 7.22.1 1.944-.4 2.777-1 2.869-.8.186-2.1-1.018-2.8-3.147-.1-.185-.3-.277-.4-.185-.2.093-.3.278-.2.37.7 2.129 2.2 3.61 3.5 3.518z" fill="#F37A50"/><path d="M126.2 127.611s5.6 2.685 11.4 0c0 0-1.4 3.703-5.7 3.703-4.2 0-5.7-3.703-5.7-3.703z" fill="#FFFFF2"/><path d="M119.4 105.396c1.9-.648 4-.648 6.3.093.6.185.9.74.7 1.296-.2.463-.9.74-1.5.555-1.7-.555-3.2-.648-4.5-.185-2 .74-4.3 3.24-4.4 3.147-.6-.185.5-3.888 3.4-4.906zm17.4.278c1.9-1.018 3.8-1.389 5.6-.926 2.8.648 4.4 4.166 3.9 4.443-.1.093-2.6-2.129-4.5-2.592-1.2-.277-2.6-.092-4 .741-.5.278-1.1.093-1.4-.37-.3-.463-.1-1.018.4-1.296zm-12.1 4.721c.8 0 1.4 1.573 1.5 3.61.1 2.036-.4 3.702-1.2 3.702-.8 0-1.4-1.573-1.5-3.61-.1-1.111.1-2.129.3-2.777-1-.277-2.2-1.203-2.1-1.296.8.278 3 .371 3 .371zm17.5-.556c-.6.278-2.5.463-2.5.463-.5.185-.9 1.759-.8 3.702.1 2.037.6 3.703 1.1 3.703.6 0 1-1.666.9-3.703 0-1.11-.2-2.128-.4-2.776.8-.278 1.8-1.296 1.7-1.389z" fill="#242754"/><path d="M143.4 119.003c0 .278.6.463 1.3.371.7-.093 1.2-.463 1.1-.741-.1-.278-.6-.463-1.3-.371-.7.093-1.2.371-1.1.741zm0 1.759c0-.278.6-.463 1.2-.278.7.185 1.2.556 1.2.833 0 .278-.6.463-1.2.278-.7-.092-1.2-.463-1.2-.833zm-27.391 1.293c.981-.147 1.734-.511 1.682-.814-.053-.303-.892-.43-1.873-.283-.982.146-1.734.51-1.682.813.053.303.891.43 1.873.284zm.016-2.318c.987.114 1.819-.042 1.86-.346.041-.305-.726-.643-1.713-.756-.986-.114-1.819.042-1.86.346-.04.305.727.643 1.713.756z" fill="#F37A50"/><path d="M109.2 113.819s6.1-6.572 6.4-17.309c0 0 10.3 4.721 16.3 4.628 6-.092 8.5-3.425 8.5-3.425s6.7 4.351 13.5 1.667c6.8-2.685 1.2-11.015-5.2-10.553 0 0-2.4-10.737-12.5-12.773-10-1.944-16.4 2.591-16.4 2.591s-6.3-4.72-16-1.203c-9.7 3.518-7.4 11.94-7.4 11.94s-11.5 19.439 12.8 24.437z" fill="#242754"/><path d="M110.9 117.059s-3.1-8.608-9.1-7.035c-6 1.574.1 15.921 9.3 13.7l-.2-6.665z" fill="#F37A50"/><path d="M103.3 114.005c4.2.277 6.2 3.887 6.3 4.072.1.185 0 .371-.2.463h-.2c-.1 0-.2-.092-.3-.185 0 0-.8-1.388-2.3-2.499-1.5.74-1 3.054-1 3.054 0 .186-.1.371-.3.371h-.1c-.1 0-.3-.093-.3-.278 0-.093-.6-2.499 1-3.61-.8-.463-1.7-.741-2.7-.833h-.1c-.2 0-.3-.185-.3-.37.1-.093.3-.185.5-.185z" fill="#F37A50"/><path d="M169.3 214.621v2.962s25.1 0 26.2.092h1.1c9.1.185 73.6 0 73.6 0s3.7-8.978 5.2-13.236c4.9-13.422 10.8-37.951 9-39.802-1.8-1.389-29.3-2.777-51-2.592h-2.8c-5.4.092-10.3.185-14.2.463-.1 0-.5 0-1.1.092-3.5.278-6.1.648-7.4 1.204-3 2.314-11.6 45.541-12.9 46.559-.2.185-1.3.37-3 .555-.2 0-.3 0-.5.093-.9.092-2 .185-3.1.277h-.6c-.4 0-.8.093-1.3.093-.8.093-1.5.093-2.3.185-.9.093-1.8.093-2.6.185h-.6c-.4 0-.8.093-1.2.093-.4 0-.8.092-1.2.092h-.6c-1 .093-1.9.093-2.7.186-.3 0-.7 0-1 .092-.8.093-1.6.093-2.2.093h-.7c-1.1.092-2.1 1.11-2.1 2.314z" fill="#242754"/><path opacity=".2" d="M169.3 214.621v2.962s25.1 0 26.2.092h1.1c1.1-5.183 12-51.28 12.8-53.131.6-1.481 20.5-2.314 23.7-2.592h-2.5c-5.4.093-10.3.186-14.2.463-.1 0-.5 0-1.1.093-3.5.277-6.1.648-7.4 1.203-3 2.314-11.6 45.541-12.9 46.559-.2.186-1.3.371-3 .556-.2 0-.3 0-.5.092-.9.093-2 .185-3.1.278h-.6c-.4 0-.8.093-1.3.093-.8.092-1.5.092-2.3.185-.9.092-1.8.092-2.6.185h-.6c-.4 0-.8.092-1.2.092-.4 0-.8.093-1.2.093h-.6c-1 .093-1.9.093-2.7.185-.3 0-.7 0-1 .093-.8.092-1.6.092-2.2.092h-.7c-1.1.185-2.1 1.204-2.1 2.407z" fill="#606060"/><path d="M247 185.371c-.5-1.574.1-2.592 1.2-3.425a4.35 4.35 0 00-2.5-1.111c-2.9-.092-5.5 3.24-5.7 7.498-.2 4.258 2 7.775 4.9 7.96 2.9.093 5.5-3.239 5.7-7.497v-.371c-1.6-.462-3-1.388-3.6-3.054z" fill="#FFFFF2"/><path d="M119.3 227.024h12.8l-36 166.428h-4.5l27.7-166.428zm160.2 0h-11.7l35.9 166.428h3.5l-27.7-166.428zm-223.5 0L30.5 380.956h4l33.2-153.932H56zm168.5 0h-11.8L246 380.956h4l-25.5-153.932z" fill="#606060"/><path d="M308.6 227.672H26.9c-3.1 0-5.6-2.314-5.6-5.183 0-2.87 2.5-5.184 5.6-5.184h281.8c3.1 0 5.6 2.314 5.6 5.184-.1 2.869-2.6 5.183-5.7 5.183z" fill="#B87B6E"/><path opacity=".2" d="M138.6 227.672H26.9c-3.1 0-5.6-2.314-5.6-5.183 0-2.87 2.5-5.184 5.6-5.184h111.8c3.1 0 5.6 2.314 5.6 5.184-.1 2.869-2.6 5.183-5.7 5.183z" fill="#606060"/><path d="M448.4 242.297c-1 48.226-14.6 51.558-14.6 51.558l-3.4-1.296-10-3.795c14.9-12.588 14.3-46.096 14.3-46.096s4-10.738 7.7-16.106c3.7-5.554 7.1-5.647 6 15.735z" fill="#242754"/><path opacity=".2" d="M442.4 226.376c.6 2.777.8 7.776.4 15.829-.8 36.007-8.5 47.022-12.4 50.169l3.4 1.296s13.5-3.332 14.6-51.558c1.1-21.197-2.3-21.104-6-15.736z" fill="#FFFFF2"/><path d="M464.3 242.482H418c-13.5 0-26.3-57.019-14.7-77.383 7.7-13.514 20.1-17.031 27.6-17.772h19.4c.9 0 1.7.093 2.6.185 7.6 1.111 18.9 4.906 26.1 17.587 11.6 20.457-1.2 77.383-14.7 77.383z" fill="#872F61"/><path opacity=".2" d="M455.6 242.482H418c-13.5 0-26.3-57.019-14.7-77.383 4.4-7.682 10.3-12.125 16-14.717 4.7-2.129 9.9-3.055 15.1-3.055h4.8c5.2 0 10.4 1.019 15.1 3.055 5.7 2.499 11.6 7.035 16 14.717 11.7 20.457-1.1 77.383-14.7 77.383z" fill="#606060"/><path d="M444.1 304.037H338.9c-2 0-4-1.389-4.5-3.147l-1.9-6.85c-1.5-5.461 2.3-10.089 8.6-10.089h100.8c6.3 0 10.1 4.628 8.6 10.089l-1.9 6.85c-.4 1.758-2.5 3.147-4.5 3.147z" fill="#872F61"/><path opacity=".2" d="M392 304.037h-53.1c-2 0-4-1.388-4.5-3.147l-1.8-6.85c-1.5-5.461 2.3-9.996 8.6-9.996h53.1c-6.3 0-10.1 4.628-8.6 9.996l1.9 6.85c.4 1.759 2.4 3.147 4.4 3.147z" fill="#606060"/><path d="M388.4 309.961h17l-3.1 61.832h-10.7l-3.2-61.832z" fill="#242754"/><path d="M410.9 306.351H383l2.9 35.544c6.7 2.777 14.2 2.499 22 0l3-35.544z" fill="#242754"/><path opacity=".2" d="M393.2 343.561c5.2.741 10.1.185 14.7-1.666l2.1-25.362h-20.6s.2 18.327 3.8 27.028z" fill="#FFFFF2"/><path opacity=".2" d="M404.2 340.877l2.6-.555 1.4-22.215h-2.5l-1.5 22.77z" fill="#FFFFF2"/><path d="M437.9 387.714c3.479 0 6.3-2.611 6.3-5.832 0-3.22-2.821-5.831-6.3-5.831-3.48 0-6.3 2.611-6.3 5.831 0 3.221 2.82 5.832 6.3 5.832z" fill="#242754"/><path d="M437.9 383.826c1.16 0 2.1-.87 2.1-1.944 0-1.073-.94-1.943-2.1-1.943-1.16 0-2.1.87-2.1 1.943 0 1.074.94 1.944 2.1 1.944z" fill="#FFFFF2"/><path d="M394.9 373.829l51 6.572s.5-5.924-11.5-8.423c-12.1-2.499-39.5-8.886-39.5-8.886v10.737zm-41 13.885c3.479 0 6.3-2.611 6.3-5.832 0-3.22-2.821-5.831-6.3-5.831-3.479 0-6.3 2.611-6.3 5.831 0 3.221 2.821 5.832 6.3 5.832z" fill="#242754"/><path d="M353.9 383.826c1.16 0 2.1-.87 2.1-1.944 0-1.073-.94-1.943-2.1-1.943-1.16 0-2.1.87-2.1 1.943 0 1.074.94 1.944 2.1 1.944z" fill="#FFFFF2"/><path d="M396.9 373.829l-51 6.572s-.5-5.924 11.5-8.423c12.1-2.499 39.5-8.886 39.5-8.886v10.737zm-56.7-69.792c0 4.165 3.7 7.59 8.2 7.59h79.3c11.7 0 13.7-5.831 13.4-7.59H340.2z" fill="#242754"/><path opacity=".2" d="M441.1 304.037h-45.6c0 4.165 3.7 7.59 8.2 7.59h24c11.7 0 13.7-5.924 13.4-7.59z" fill="#FFFFF2"/><path d="M326.5 385.955c.3-4.535.4-9.811-1-12.496l-.5-12.866-18-2.129-2.8 13.607s-5 2.407-13.4 6.016c-7.3 3.24-15.4 6.202-14.9 10.738v.092l-.1 4.351c16.5 3.054 33.4 1.851 50.9-2.87l.1-4.35c-.2-.093-.3-.093-.3-.093z" fill="#B87B6E"/><path d="M275.7 388.825c-.5-4.536 7.6-7.59 14.9-10.738 4 2.222 5 9.257 5.2 12.219 10.7-.093 20.9-1.481 30.7-4.351l-.1 4.351c-17.4 4.721-34.4 5.924-50.9 2.869l.2-4.35z" fill="#FFFFF2"/><path d="M328.4 370.497c-11.1 1.481-21.2.556-30.4-2.962 1.2-12.403-15.5-85.991-14.2-90.156h.1c11.5-.185 21.5 1.666 28.6 7.868 2.4 2.036 4.4 4.535 6 7.682l8.6 67.016 1.3 10.552z" fill="#242754"/><path d="M393.5 259.514s.3 8.146-3.8 14.625c-2.6 4.073-6 7.96-10.4 9.997-9 4.165-46 7.497-60.9 8.701-2.5.185-4.3.37-5.4.37-.6 0-.9.093-.9.093l-28.3-15.366c0-.278 0-.463.1-.74 1.6-12.311 33.8-22.493 62.1-23.882 25-1.11 46.5 5.647 47.5 6.202z" fill="#242754"/><path opacity=".2" d="M389.7 274.139c-2.6 4.073-6 7.96-10.4 9.997-9 4.165-46 7.497-60.9 8.701l8.6 67.015c-.4-1.481-18.1-76.642-14.5-83.492 11-20.734 61.2-19.623 61.2-18.79 25.9 2.499 26.4 8.701 16 16.569z" fill="#606060"/><path d="M362.8 386.603c.3-4.535.4-9.812-1-12.496l-.5-12.866-18-2.129-2.8 13.607s-5 2.406-13.4 6.016c-6.9 3.055-14.4 5.832-14.9 9.905v.833l-.1 4.35c16.5 3.055 33.4 1.851 50.9-2.869l.1-4.351h-.3z" fill="#B87B6E"/><path d="M312.1 389.473c-.5-4.536 7.6-7.498 14.9-10.738 4 2.222 5 9.257 5.2 12.219 10.7-.093 20.9-1.481 30.7-4.351l-.1 4.351c-17.4 4.72-34.4 5.924-50.9 2.869l.2-4.35z" fill="#FFFFF2"/><path d="M354.8 293.577l10 77.568c-11.1 1.481-21.2.556-30.4-2.962 1.2-12.403-7.9-65.257-14.2-90.156 15.3-.185 28.2 3.147 34.6 15.55z" fill="#242754"/><path d="M348.5 294.133s49.3-5.091 61.1-9.257c13.9-4.813 11.4-23.881 11.4-23.881-2.3-1.296-99.9-6.109-100.8 17.772" fill="#242754"/><path d="M364.9 183.89l-13 12.403-17.4 20.179-17-13.237 5.3-5.831 1.3-1.388L339 179.91l22.7-24.622 3.2 28.602z" fill="#E5B7AC"/><path opacity=".5" d="M364.9 183.89l-13 12.403-17.4 20.179-17-13.237 5.3-5.831 1.3-1.388L339 179.91l22.7-24.622 3.2 28.602z" fill="#E5B7AC"/><path d="M386.9 143.069l-24.1 38.97-10 16.106-.3.462-6.1 9.812c-2.9-.648-5.5-1.574-7.8-2.592-2.8-1.296-5.1-2.869-7.1-4.443-5.4-4.35-7.8-8.886-7.8-8.886.5-.74 17.5-25.362 26.2-35.266 8.5-9.627 34.4-13.7 36.8-14.07.1-.093.2-.093.2-.093z" fill="#4D4DA0"/><path opacity=".2" d="M358.8 173.06l-1.3 17.957-10.9 17.402c-2.9-.648-5.5-1.574-7.8-2.592l20-32.767z" fill="#606060"/><path d="M309.5 156.399l26.3 49.799c2.6 4.998.2 11.015-5.2 13.236-6 2.499-12.9-.555-14.6-6.387l-15.6-52.298c-.1-.093 1-11.57 9.1-4.35z" fill="#E5B7AC"/><path d="M305 156.213c-.4-.092-.6-.092-.6-.092-4.2-.926-8.7-5.554-10-6.48-1.3-1.018-5.9-7.497-3.8-8.423.5-.185.7-.277 1.2-.185 3.1.37 4.6 4.073 5.1 4.351.5.37 1.9.74 3 .74 5.2.741 6.4 3.61 6.4 3.61s-6.1 4.813-1.3 6.479z" fill="#E5B7AC"/><path d="M289.6 147.975h1.9c-.8-1.481-3.3-5.646-3.4-6.202-.1-.462.2-2.036.3-3.424 0-.186.2-1.574-.2-2.129-.7-.833-2.5-.648-3.2 2.221-.2.833-.4 1.574-.5 2.037 0 .185 0 .37.1.462.2.741 4 5.832 5 7.035z" fill="#E5B7AC"/><path d="M289.6 147.975c-1-1.296-4.8-6.294-5.1-7.034 0-.093-.1-.278-.1-.463-.1-1.481.1-5.184-.7-5.924-.9-.926-3-.371-3.4 3.054-.1.556-.1 1.018-.2 1.481 1.3 1.204 2.8 2.685 4.2 4.073 2.3 2.407 4.2 4.536 4.5 4.721.1.092.4.092.8.092z" fill="#E5B7AC"/><g opacity=".5" fill="#E5B7AC"><path d="M305 156.213c-.4-.092-.6-.092-.6-.092-4.2-.926-8.7-5.554-10-6.48-1.3-1.018-5.9-7.497-3.8-8.423.5-.185.7-.277 1.2-.185 3.1.37 4.6 4.073 5.1 4.351.5.37 1.9.74 3 .74 5.2.741 6.4 3.61 6.4 3.61s-6.1 4.813-1.3 6.479z"/><path d="M289.6 147.975h1.9c-.8-1.481-3.3-5.646-3.4-6.202-.1-.462.2-2.036.3-3.424 0-.186.2-1.574-.2-2.129-.7-.833-2.5-.648-3.2 2.221-.2.833-.4 1.574-.5 2.037 0 .185 0 .37.1.462.2.741 4 5.832 5 7.035z"/><path opacity=".5" d="M289.6 147.975c-1-1.296-4.8-6.294-5.1-7.034 0-.093-.1-.278-.1-.463-.1-1.481.1-5.184-.7-5.924-.9-.926-3-.371-3.4 3.054-.1.556-.1 1.018-.2 1.481 1.3 1.204 2.8 2.685 4.2 4.073 2.3 2.407 4.2 4.536 4.5 4.721.1.092.4.092.8.092z"/></g><path d="M289.1 148.16s-4.3-2.406-5.4-3.054c-1.1-.648-3.5-3.795-4.8-4.165-.8-.093-2.3.925-1 2.684 1.3 1.759 6.9 8.053 8.1 8.886 1.3.833 4.8-.185 4.8-.185l-1.7-4.166z" fill="#E5B7AC"/><path d="M307.3 150.382c-2.3-4.628-12.5-2.777-12.5-2.777-.7.093-2 .278-3.3.37-.7 0-1.4.093-1.9 0-.4 0-.7-.092-.8-.185-.3-.278-2.2-2.407-4.5-4.721-1.4-1.388-2.8-2.869-4.2-4.072-.3-.278-.6-.556-1-.833-3.4-3.055-5.6-1.296-3.5 1.295 2.3 2.315 8.2 12.219 10.8 13.515 2.5 1.296 14.6 8.145 14.8 8.145-.1-.092 8.2-4.813 8.2-4.813s-.6-3.425-2.1-5.924z" fill="#E5B7AC"/><path d="M277.5 141.774s1-1.111 1.8-.556c.8.556 4 3.703 4 3.703s4.3 2.592 5.5 2.962l-5.1-3.425s-3.7-3.61-4.4-3.888c-.6-.277-1.7.926-1.8 1.204z" fill="#E5B7AC"/><path d="M424.6 266.734c-.5 3.702-4.1 4.628-4.1 4.628 0-.741-14.9-5.739-32.7-10.367-14.1-3.61-30-6.942-41.8-7.59-.1-2.685 3.2-4.999 5.8-4.814 3.6.556 7.5-49.428 2-69.144 0 0-3.5-17.217 7.7-27.306 2.4-2.129 5.1-3.703 8-4.906.5-.185 1.1-.463 1.7-.648 4.1-1.481 8.6-2.407 13.2-3.24 3.7.185 8.8 1.296 13.9 2.684 1.4.371 2.7.741 4.1 1.111 9.2 2.685 17.5 5.924 17.5 5.924l1.4 8.424 3.1 19.253c6.7 56.278-1.9 79.697-1.9 79.697s2.7 2.036 2.1 6.294z" fill="#4D4DA0"/><path opacity=".2" d="M424.6 266.734c-.5 3.703-4.1 4.628-4.1 4.628 0-.74-14.9-5.739-32.7-10.367 15.1 1.759 30.2 4.628 30.2 4.628.2-4.535-9.9-8.793-9.9-8.793 15.4-15.736 4.4-79.79 4.4-79.79l-4.1-14.162 12.7-1.388 3.1 19.253c6.7 56.278-1.9 79.697-1.9 79.697s2.9 2.036 2.3 6.294z" fill="#606060"/><path d="M433.9 168.71l16.2 45.633-17.3 4.721-14.7-45.356 15.8-4.998z" fill="#E5B7AC"/><path opacity=".5" d="M433.9 168.71l16.2 45.633-17.3 4.721-14.7-45.356 15.8-4.998z" fill="#E5B7AC"/><path d="M398.5 152.326c2.8 8.331 8.3 16.198 15.3 26.473l11.3 30.268c14.2 5.091 27.9-4.721 28.6-5.276 0 0-11.6-26.473-17-38.969-2.2-5.091-6.2-9.441-11.4-12.218-4.7-2.5-10-4.906-13.8-6.11-1.2-.37-2.4-.74-3.5-1.018-1.7-.463-3.1-.833-4.3-1.111-2.3-.555-3.7-.833-3.7-.833-.9.556-1.4 1.204-1.8 2.037-.8 1.759-.6 4.073.3 6.757z" fill="#4D4DA0"/><path d="M399.9 199.44l44.2 10.923c5.8 1.481 9.1 7.035 7.4 12.311-1.9 5.739-8.9 8.608-14.8 6.016l-41-18.049s-6.9-10.275 4.2-11.201z" fill="#E5B7AC"/><path d="M399.9 199.441s-13.8-9.627-15-14.163c0 0-3.1.741-1.3 4.166 1.8 3.425 3.1 5.831.6 8.423-2.4 2.684-18.4 2.962-18.4 2.962s-3.3 1.296-.2 2.407c3.2 1.11 15.3 1.11 15.3 1.11l-17.2 2.962s-2.1.371-2.3 1.759c-.2 1.389 2.5 1.759 2.5 1.759s-1.1.925-.3 1.944c.9 1.018 2 .74 2 .74l10.3-.648-4.6 1.851s-.9.278-.6.834c.3.647.9.647.9.647s8.7-.74 17.4-3.424c1.8-.556 6.8-2.037 6.8-2.037l4.1-11.292z" fill="#E5B7AC"/><path d="M364.1 210.826l14.6-2.314s-5.2 1.758-8.5 2.036-6.1.278-6.1.278z" fill="#E5B7AC"/><path d="M377.3 161.119c14.3.648 26.2-16.291 26.4-16.661-2.3-.555-3.7-.833-3.7-.833-.9.555-1.4 1.203-1.8 2.036-5.1-1.388-10.2-2.406-13.9-2.591-4.6.833-8.9 1.758-13 2.684-1.5 5.183-4.9 14.81 6 15.365z" fill="#242754"/><path d="M400 143.625s-11.7 14.532-21.6 14.44c-9.9-.185-6-8.331-5.3-11.941l1-6.017 1.4-8.886.7-4.443 10.7 3.055 12.5-10.737.1 4.628c-.7 7.22-.7 13.977.5 19.901z" fill="#E5B7AC"/><path opacity=".5" d="M373.3 144.643l2.2-13.514 10.9 2.129 13.1-9.627c-.1 0-5.9 23.511-26.2 21.012z" fill="#E5B7AC"/><path d="M362.9 87.902s-7.9 10.09-1.8 22.955c6.1 12.867 17.7-21.474 1.8-22.955z" fill="#242754"/><path d="M379.5 87.254s15.4-3.147 22.6 14.07c0 0 2.8 11.755-2.6 22.215 0 0-8.1 16.846-22.5 16.939-9.9-1.018-15.2-12.496-16.5-27.121-.7-13.422 4.4-25.362 19-26.103z" fill="#E5B7AC"/><path d="M374.7 97.158s-9 6.202-17.7 2.407c-8.6-3.795-2.5-11.57.4-12.589 0 0-7-7.035 1.4-11.663s16.7 2.777 16.7 2.777-.7-5.646 6.3-5.739c7-.092 15.6 6.572 16.8 12.959 0 0 12.1.278 13.6 10.367 2.4 16.847-13.1 33.601-13.1 33.601l1-12.034-2.8-.37.3-7.59c-5.1-4.165-5.7-9.534-4.4-14.07.1.093-16.4 9.719-18.5 1.944z" fill="#242754"/><path d="M400.1 117.337l-.8 6.664c5.9 2.129 11.5-3.239 12.6-7.775.6-2.221.1-4.258-1.9-4.998-4.1-1.574-7.4 2.129-9 4.443l-.9 1.666z" fill="#E5B7AC"/><path d="M408.1 115.023c-4.2-.185-6.8 3.24-6.9 3.425-.1.185-.1.37.1.463.1 0 .1.092.2.092s.2-.092.3-.185c0 0 1-1.296 2.6-2.222 1.4.926.6 3.148.5 3.148-.1.185 0 .37.2.37h.1c.1 0 .3-.093.3-.185 0-.093.9-2.499-.5-3.703.8-.37 1.8-.648 2.8-.555h.1c.2 0 .4-.093.4-.278.2-.185 0-.37-.2-.37zm-31.6 13.144c4.1.463 6.2 3.61 6.3 3.702.1.093 0 .278-.1.371-.1.092-.3 0-.4-.093 0 0-2.1-3.055-5.9-3.517-3.8-.371-5.9 2.129-5.9 2.221-.1.093-.3.093-.4.093-.1-.093-.1-.278-.1-.371.2-.092 2.4-2.869 6.5-2.406zm13.1-8.331c0 .278.9.463 1.9.371 1-.093 1.8-.463 1.8-.741 0-.278-.9-.463-1.9-.37-1.1.092-1.9.463-1.8.74zm-.3 1.851c.1-.277.9-.463 1.9-.277 1 .185 1.8.555 1.7.833-.1.278-.9.463-1.9.278-1-.093-1.8-.463-1.7-.834zm-23.5-.555c0-.278-.9-.463-1.9-.37-1 .092-1.8.463-1.8.741 0 .277.9.463 1.9.37 1-.093 1.8-.463 1.8-.741zm.2-1.943c-.1.277-.9.463-1.9.277-1-.185-1.8-.555-1.7-.833.1-.278.9-.463 1.9-.278 1 .185 1.8.556 1.7.834z" fill="#E5B7AC"/><path d="M383 114.56c-.1 2.222.4 3.98 1.1 4.073.7 0 1.3-1.759 1.4-3.98.1-2.222-.4-3.981-1.1-4.073-.6 0-1.3 1.759-1.4 3.98zm-16.2-.185c-.1 2.221.3 3.98.9 4.073.6 0 1.2-1.759 1.3-3.981.1-2.221-.3-3.98-.9-4.072-.6 0-1.2 1.758-1.3 3.98z" fill="#242754"/><path d="M375.1 123.816h-.1c-.5-.092-1.7-.463-1.7-3.425 0-4.813 1-7.497 1-7.59.1-.185.3-.277.4-.185.2.093.3.278.2.37 0 0-1 2.685-1 7.313 0 1.944.6 2.777 1.1 2.777.8.092 2.1-1.111 2.7-3.333 0-.185.2-.277.4-.277s.3.185.2.37c-.5 2.499-1.9 4.073-3.2 3.98z" fill="#E5B7AC"/><path d="M363.3 106.785c.3-.278 2.9.463 4.6-.185 1-.37 1.9-1.296 2.4-2.499.2-.463.7-.648 1.2-.463s.7.648.5 1.11c-.7 1.759-1.9 2.87-3.4 3.518-2.4.833-5.4-1.389-5.3-1.481zm28.7 1.111c.2.462-3.5 2.221-6.1 1.11-1.7-.74-2.9-2.129-3.7-4.072-.2-.556.1-1.111.6-1.296.5-.185 1.1.092 1.3.555.6 1.481 1.4 2.499 2.6 2.962 1.9.833 5.2.648 5.3.741z" fill="#242754"/><path d="M387.3 19.775S385.4 12 393.1 6.724c8-5.369 14.6-2.87 14.6-2.87s8.7-6.942 15.7.37c0 0 10.7-4.165 18.2 3.703 5.9 6.942 4.6 14.255 4.6 14.255s9.8 9.164-.5 16.661c0 0 2.5 8.516-4.1 14.255-6.4 5.554-15.1 5.09-15.1 5.09s-3.1 7.128-11.3 2.037c0 0-10.5 3.888-18.3-.833-7.6-4.628-6.6-11.015-6.6-11.015s-8.1-1.573-3.8-6.572c0 0-7.6-5.09-5.8-13.051 1.8-7.868 6.6-8.979 6.6-8.979z" fill="#E85D75"/><path d="M406.2 55.69l2.1 16.013L420 57.726l-13.8-2.036z" fill="#E85D75"/><path d="M418.2 24.681c0-.093 0-.093.1-.185l-.6.277c1.3.556 2.8.926 4 1.76 3.3 2.498.4 6.479-3.2 6.571-2.3 0-5.1-.648-6.3-2.499-1.7-2.5-1.8-4.998.5-7.127 3.4-3.24 8.9-4.443 12.3-.648 1.3 1.388 2.5 3.054 3.7 4.535 1.7 2.13 2.4 4.073 1.9 6.757-.8 4.166-3.6 7.96-8.3 8.609-.9.092-2.4.37-3.3 0-2.2-1.018-2.1-2.777-1.4-4.536.7-1.573 1.4-3.147 2.1-4.813 1.3-3.24 3.7-6.665 4.4-10.09.6-2.776-1.2-6.201-3.4-8.053-4.5-3.887-11.3-2.036-15.4 1.574-1.9 1.666-4.2 3.24-4.5 5.832-.3 1.943-1 5.09 1 6.572 1.8 1.388 5.1 1.018 7.1.462 3.4-1.11 6.2-3.24 9.3-4.813 3.8-1.944 9.1-2.962 13-.74 1.9 1.11 3.8 3.147 4.4 5.183.4 1.666.6 3.61.9 5.276.3 1.852.8 3.888.4 5.74-.4 2.128-1.6 3.887-3.4 5.368-1.5 1.296-3.2 2.314-5 3.147-2.4 1.018-4.7 1.296-7.2 1.851-4.9 1.018-9.9.926-14.2-1.759-3.3-2.036-6.2-4.443-8.6-7.312-3-3.61-3.1-7.96-2.5-12.403.2-1.852.8-3.795 1.4-5.554.8-2.407 2.6-4.073 4.8-5.369 1.6-1.018 3.7-1.48 5.5-2.036 2-.648 4.1-1.111 6.3-1.204 4.2-.185 8.7-.185 12.3 2.13 2.1 1.295 3.6 3.146 5.1 4.998 1.3 1.666 2.8 3.24 3.5 5.183 1.5 3.98-.2 8.701-2.8 11.941-3.1 3.98-7.2 6.202-12.4 6.757-4.8.555-9.5-.093-13.3-3.24-2-1.666-2.9-3.425-2.9-5.924 0-2.777 1.7-3.98 4.1-5.368 3.4-2.037 7.4-2.777 10.7-5.091 1.7-1.204 3.3-2.407 2.3-4.443-1.2-2.407-4.4-2.314-6.9-2.407-3.2-.093-6.1.37-8.6 2.314-2.1 1.574-3.9 4.258-4.7 6.572-.8 2.684-1.6 6.202-.8 8.979.7 2.314 2.9 3.517 5 4.628 5.9 3.147 12.4 2.036 18-1.203 2.1-1.204 4.3-3.61 5.3-5.74 1.1-2.499 1.6-4.813-.1-7.127-.7-.925-1.6-2.036-2.8-2.499-1.2-.555-2.7-.278-4-.648l.3.556.3-.556c.2-.463-.5-.833-.7-.37l-.3.555c-.1.278 0 .556.3.556.7.185 1.3.185 2.1.277 1.6.185 2.7.833 3.7 1.944 2.1 2.407 1.7 5.369.1 7.868-.9 1.388-2.4 2.87-3.7 3.888-1 .74-2.1 1.11-3.2 1.573-1.1.463-2.1 1.111-3.2 1.481-4.6 1.111-9.6.093-13.4-2.406-2.3-1.481-3-3.518-2.8-6.017.2-2.407.5-4.906 1.5-7.127 2.1-4.35 6.1-6.85 11.2-6.85 2.5 0 9.2.185 6 4.443-1.4 1.759-4.8 2.962-6.8 3.795-2.9 1.11-7 2.5-8.8 5.091-1.6 2.407-.8 6.11 1 8.238 4.8 5.647 13.8 6.387 20.6 3.795 6.7-2.499 12.3-10.274 11.2-16.939-.6-3.425-3.3-6.387-5.6-8.978-2.6-2.87-5.6-4.721-9.6-5.37-7-1.11-15.8.464-21.3 4.722-2.9 2.221-3.7 5.738-4.4 9.07-.3 1.852-.3 3.703-.3 5.555 0 1.573 0 3.517.6 4.998 1.3 3.055 4.3 5.646 6.9 7.775 3.1 2.5 6.4 4.906 10.6 5.369 4.1.463 8.5-.278 12.5-1.203 3.6-.833 7.1-2.87 9.6-5.462 2.3-2.406 3-5.276 2.4-8.423-.3-1.758-.5-3.425-.8-5.183-.3-1.574-.3-3.147-1.2-4.536-4.1-6.48-12.4-6.017-18.6-2.684-3.9 2.129-8 5.646-12.9 4.72-3-.555-2.8-2.962-2.6-5.276.2-2.684 1.7-3.98 3.6-5.739 3.3-3.054 8.8-5.831 13.5-3.332 2.3 1.204 3.7 3.518 4.4 5.832.9 2.962-1.2 5.924-2.5 8.515-.8 1.667-1.5 3.518-2.2 5.276-.7 1.574-1.7 3.148-2.1 4.814-.7 2.684 1.2 4.535 4 4.535 7 .186 11.8-5.739 11.5-12.033-.2-3.332-3.7-6.48-5.8-8.978-2-2.314-4.2-3.425-7.5-2.962-3 .462-6.3 2.406-7.8 4.905-1.4 2.314-.4 5.184 1.3 7.128 3.3 3.61 12.7 3.054 11.9-3.055-.4-2.87-3.4-3.425-5.8-4.535-.3-.093-.5 0-.6.277 0 .093 0 .093-.1.185-.3.37.5.556.7.093z" fill="#fff"/><path d="M324.1 84.384s-1.4-4.813-7.3-5.554c-6.1-.833-8.9 2.314-8.9 2.314s-6.9-1.48-8.5 4.444c0 0-7.1 1.018-8.1 7.127-1 6.202 1.2 8.886 1.2 8.886s-3.6 8.886 7 8.701c0 0 .9 5.831 6.3 7.22 5.3 1.388 8.7-1.481 8.7-1.481s3.9 3.054 6.9-1.852c0 0 7-.647 9.8-5.368 2.7-4.628.2-7.868.2-7.868s4-3.055.1-4.628c0 0 2.6-4.814-.9-8.701-3.5-3.888-6.5-3.24-6.5-3.24z" fill="#20A5AE"/><path d="M325.5 106.507l5.2 10.922-12-2.962 6.8-7.96z" fill="#20A5AE"/><path d="M441.6 94.01s1.4-4.813 7.3-5.553c6.1-.833 8.9 2.314 8.9 2.314s6.9-1.48 8.5 4.443c0 0 7.1 1.018 8.1 7.127 1 6.202-1.2 8.887-1.2 8.887s3.3 6.109-4.3 8.978c0 0-1.7 5.461-7.1 6.85-7.2 1.851-10.6-1.389-10.6-1.389s-3.9 3.055-6.9-1.851c0 0-7-.648-9.8-5.369-2.7-4.628-.2-7.867-.2-7.867s-4-3.055-.1-4.629c0 0-2.6-4.813.9-8.7 3.5-3.888 6.5-3.24 6.5-3.24z" fill="#4D4DA0"/><path d="M439.6 118.262l-3.6 10.275 11-5.091-7.4-5.184z" fill="#4D4DA0"/><path d="M452.4 110.765l1.3 1.481-1.7 4.073h-.1c-2.4-1.481-4.7-3.148-6.5-5.184-.9-1.018-1.7-2.036-2.1-3.24-1-2.869 1-5.924 4.3-6.294 2.2-.278 3.9.463 5.2 2.222 0 0 .1.092.1.185l-.7 3.517 1.8 1.388-1.6 1.852z" fill="#FFFFF2"/><path d="M463.2 109.839c-.9 1.204-2 2.222-3.3 3.147a31.804 31.804 0 01-5.8 3.333c-.1 0-.1.092-.2.092l1.7-4.073-1.3-1.481 1.5-2.128-1.8-1.389.7-3.517c.2-.185.3-.371.5-.556 1.3-1.11 2.8-1.573 4.5-1.388 2.3.278 4.2 2.129 4.5 4.258.3 1.481-.2 2.592-1 3.702z" fill="#FFFFF2"/><path d="M91.8 33.937s1.8-7.775-6.1-12.866C77.6 15.795 71 18.48 71 18.48s-8.8-6.757-15.7.648c0 0-11.1-3.24-17.2 4.906C32 32.271 33 37.547 33 37.547s-9.6 6.572-.8 15.829c0 0-2.6 8.238 4.2 14.717 7.5 6.757 17.1 4.999 17.1 4.999s3.3 7.034 11.4 1.85c0 0 10.6 3.703 18.3-1.202 7.5-4.814 6.4-11.108 6.4-11.108s8.1-1.759 3.7-6.665c0 0 7.5-5.276 5.5-13.143-2.1-7.868-7-8.887-7-8.887z" fill="#4D4DA0"/><path d="M85.7 65.501l3.5 16.57L74 73.183 85.7 65.5z" fill="#4D4DA0"/><path d="M71.7 51.062c-.4.833-.8 2.499-.2 5.09l-1.8.649-5 1.758-1.8.648c-1.4-2.314-2.9-3.332-3.8-3.702-3.4-.833-6.3-3.147-7.6-6.387-2.2-5.461.8-11.478 6.6-13.607 5.9-2.036 12.4.74 14.6 6.11 1.5 3.239.9 6.664-1 9.44z" fill="#FFFFF2"/><path opacity=".2" d="M69.7 56.8l-5 1.76c-1-2.778-2.4-3.796-3.1-4.166-2-.555-3.7-1.851-4.5-3.795-1.3-3.24.5-6.85 3.9-8.053 3.5-1.203 7.4.463 8.7 3.61.8 1.944.5 3.98-.7 5.646-.2.648-.5 2.314.7 4.999z" fill="#606060"/><path opacity=".2" d="M67 65.132l5.8-2.037c.5-.185.7-.648.5-1.11l-.4-1.019c-.2-.463-.7-.648-1.2-.463l-5.8 2.037c-.5.185-.7.648-.5 1.11l.4 1.019c.2.463.7.648 1.2.463z" fill="#20A5AE"/><path d="M74.2 63.836l-7.5 2.591.1.278c.2.37.6.555 1 .463l6-2.037c.4-.185.6-.555.5-.925l-.1-.37zm-8.4 1.851l8.4-2.962c.2-.093.4-.37.3-.648l-1.2-4.628c-.1-.37-.4-.556-.7-.463l-9.7 3.425c-.3.092-.4.463-.2.833l2.4 4.258c.2.092.5.278.7.185z" fill="#FFFFF2"/><path d="M70.4 32.271l2.7-5.553m-16.4 5.276l-2.3-5.647m-7.5 14.44l-6-2.499" stroke="#fff" stroke-width=".739" stroke-miterlimit="10" stroke-linecap="round" stroke-linejoin="round"/></svg>