<svg width="71" height="71" fill="none" xmlns="http://www.w3.org/2000/svg"><path d="M56.918 16.508h-1.183l-10-10c-.798-.798-2.1-.798-2.928 0-.799.8-.799 2.1 0 2.93l7.07 7.07H21.122l7.07-7.07c.8-.8.8-2.101 0-2.93-.798-.798-2.1-.798-2.928 0l-9.97 10h-1.183c-2.662 0-8.194 0-8.194 7.573 0 2.87.591 4.763 1.834 6.005.71.74 1.568 1.124 2.485 1.332.858.207 1.775.236 2.662.236h45.204c.917 0 1.775-.059 2.603-.236 2.485-.592 4.378-2.367 4.378-7.337 0-7.573-5.532-7.573-8.165-7.573zM56.475 35.5h-41.95a2.954 2.954 0 00-2.928 3.432l2.485 15.206c.828 5.088 3.047 10.945 12.898 10.945h16.596c9.97 0 11.745-5 12.81-10.59l2.988-15.473a2.948 2.948 0 00-2.9-3.52zM41.18 55.883c-.414.444-.976.65-1.568.65a2.194 2.194 0 01-1.568-.65l-2.485-2.515-2.603 2.604a2.194 2.194 0 01-1.568.65c-.592 0-1.154-.207-1.568-.65-.887-.858-.887-2.249 0-3.136l2.603-2.603-2.514-2.485c-.888-.888-.888-2.278 0-3.136.858-.888 2.248-.888 3.136 0l2.514 2.485 2.396-2.397c.888-.887 2.278-.887 3.136 0 .888.858.888 2.249 0 3.136l-2.396 2.397 2.485 2.514c.888.888.888 2.278 0 3.136z" fill="#292D32"/></svg>