<svg width="75" height="75" fill="none" xmlns="http://www.w3.org/2000/svg"><path d="M55 16.594l-17.656-9.5c-1.875-1-4.094-1-5.969 0l-17.625 9.5a4.125 4.125 0 00-2.094 3.593c0 1.532.781 2.907 2.094 3.594l17.656 9.5c.938.5 1.969.75 2.969.75 1 0 2.063-.25 2.969-.75L55 23.781c1.281-.687 2.094-2.062 2.094-3.593 0-1.5-.813-2.875-2.094-3.594zm-26.5 20l-16.406-8.188c-1.281-.656-2.719-.562-3.938.157A4.05 4.05 0 006.25 32v15.5c0 2.688 1.5 5.094 3.906 6.313L26.563 62a4.076 4.076 0 001.812.438c.719 0 1.469-.22 2.125-.594a4.05 4.05 0 001.906-3.438v-15.5a7.16 7.16 0 00-3.906-6.312zM62.5 32v7.688c-1.5-.438-3.094-.626-4.688-.626a18.8 18.8 0 00-11.687 4.094c-4.5 3.532-7.063 8.875-7.063 14.657 0 1.53.188 3.062.594 4.53a3.402 3.402 0 01-1.375-.53 3.959 3.959 0 01-1.906-3.407v-15.5c0-2.687 1.5-5.093 3.875-6.312l16.406-8.188c1.282-.656 2.719-.562 3.938.157A4.05 4.05 0 0162.5 32z" fill="#292D32"/><path d="M68.75 49.063c0-.032-.031-.063-.063-.094a3.597 3.597 0 00-.437-.532c-.031-.03-.063-.093-.094-.124-2.531-2.813-6.25-4.563-10.344-4.563A14.09 14.09 0 0047.72 48a14.001 14.001 0 00-3.969 9.813c0 2.624.75 5.124 2.031 7.25a12.885 12.885 0 002.563 3.093c.062.031.093.063.125.094.156.156.312.281.5.438H49c.031.03.063.062.094.062 2.343 1.969 5.375 3.125 8.718 3.125a14.02 14.02 0 0012.032-6.813 14.745 14.745 0 001.625-3.968 12.76 12.76 0 00.406-3.282c0-3.312-1.156-6.374-3.125-8.75zm-5.688 11.03h-2.906v3.032a2.36 2.36 0 01-2.343 2.344 2.36 2.36 0 01-2.344-2.344v-3.031h-2.907a2.36 2.36 0 01-2.343-2.344 2.36 2.36 0 012.343-2.344h2.907v-2.781a2.36 2.36 0 012.343-2.344 2.36 2.36 0 012.344 2.344v2.781h2.907a2.36 2.36 0 012.343 2.344 2.34 2.34 0 01-2.344 2.344z" fill="#292D32"/></svg>