<svg width="71" height="71" fill="none" xmlns="http://www.w3.org/2000/svg"><path d="M56.208 23.667a8.875 8.875 0 100-17.75 8.875 8.875 0 000 17.75z" fill="#292D32"/><path d="M58.575 27.867c-.06 0-.118.03-.178.03-.295.06-.591.089-.917.148-1.242.118-2.573.06-3.934-.207-.355-.089-.651-.148-.976-.266a10.166 10.166 0 01-2.752-1.124c-.355-.178-.71-.415-1.035-.622a13.957 13.957 0 01-3.61-3.609c-.206-.325-.443-.68-.62-1.035a10.166 10.166 0 01-1.125-2.752c-.118-.325-.177-.62-.266-.976a13.757 13.757 0 01-.207-3.934c.06-.326.089-.622.148-.918 0-.059.03-.118.03-.177.354-1.834-1.006-3.55-2.9-3.55H22.247c-.415 0-.829.03-1.213.06-.355.029-.68.058-1.036.117-.355.03-.71.09-1.035.148-7.13 1.036-11.686 5.562-12.72 12.721-.06.326-.12.68-.149 1.036-.059.355-.089.68-.118 1.035-.03.385-.06.799-.06 1.213v23.548c0 .414.03.829.06 1.213.03.355.059.68.118 1.036.03.355.089.71.148 1.035 1.035 7.16 5.591 11.685 12.72 12.72.326.06.681.12 1.036.149.355.059.68.089 1.036.118.384.03.799.06 1.213.06h23.548c.414 0 .828-.03 1.213-.06.355-.03.68-.059 1.035-.118.355-.03.71-.089 1.036-.148 7.13-1.035 11.685-5.562 12.72-12.72.06-.326.119-.681.148-1.036.06-.355.09-.68.119-1.036.03-.384.059-.799.059-1.213V30.767c0-1.894-1.716-3.255-3.55-2.9zM19.969 36.98H34.76a2.235 2.235 0 012.22 2.219 2.235 2.235 0 01-2.22 2.219H19.97a2.235 2.235 0 01-2.219-2.22 2.235 2.235 0 012.219-2.218zm26.625 16.27H19.969a2.235 2.235 0 01-2.219-2.219 2.235 2.235 0 012.219-2.218h26.625a2.235 2.235 0 012.218 2.218 2.235 2.235 0 01-2.218 2.219z" fill="#292D32"/></svg>