<svg width="27" height="22" fill="none" xmlns="http://www.w3.org/2000/svg"><path d="M13.853 3.998c4.48.044 7.286-.234 7.665 4.731h5.463C26.98 1.037 20.272 0 13.71 0 7.147 0 .44 1.037.44 8.73h5.42c.42-5.061 3.55-4.775 7.993-4.732zM3.15 11.202c1.33 0 2.437.08 2.683-1.23a3.34 3.34 0 00.052-.612H.413c0 1.947 1.225 1.842 2.736 1.842zM21.553 9.36h-.051c0 .235.02.437.058.613.26 1.207 1.365 1.132 2.691 1.132 1.518 0 2.75.1 2.75-1.745h-5.448z" fill="#fff"/><path d="M18.884 8.034V7.26c0-.345-.398-.367-.89-.367h-.805c-.492 0-.89.022-.89.368v1.183H10.61V7.261c0-.346-.398-.368-.89-.368h-.805c-.492 0-.89.022-.89.368v1.448c-1.296 1.347-5.537 7.08-5.69 7.773l.001 4.631c0 .428.348.776.776.776h20.685a.777.777 0 00.776-.776V16.46c-.153-.674-4.392-6.403-5.689-7.75v-.675zm-8.554 9.071a.754.754 0 110-1.507.754.754 0 010 1.507zm0-2.585a.754.754 0 110-1.508.754.754 0 010 1.508zm0-2.585a.754.754 0 110-1.508.754.754 0 010 1.508zm3.103 5.17a.754.754 0 110-1.507.754.754 0 010 1.507zm0-2.585a.754.754 0 110-1.508.754.754 0 010 1.508zm0-2.585a.754.754 0 110-1.508.754.754 0 010 1.508zm3.102 5.17a.753.753 0 110-1.506.753.753 0 010 1.506zm0-2.585a.754.754 0 110-1.507.754.754 0 010 1.507zm0-2.585a.754.754 0 110-1.507.754.754 0 010 1.507z" fill="#fff"/></svg>