<svg width="40" height="47" fill="none" xmlns="http://www.w3.org/2000/svg"><path d="M40 13.074v.208a8.285 8.285 0 01-2.44 5.87 8.35 8.35 0 01-5.893 2.43h-8.334v16.603H25c.675 0 1.335-.204 1.891-.585a3.308 3.308 0 00.332-5.211 1.657 1.657 0 011.031-2.856 1.67 1.67 0 011.19.382 6.636 6.636 0 012.034 3.383 6.617 6.617 0 01-.251 3.936 6.645 6.645 0 01-2.447 3.1A6.685 6.685 0 0125 41.506h-1.667v3.32c0 .44-.175.863-.488 1.174a1.67 1.67 0 01-2.357 0A1.657 1.657 0 0120 44.826v-3.32h-5a1.67 1.67 0 01-1.178-.487 1.657 1.657 0 010-2.347A1.67 1.67 0 0115 38.184h5V21.583h-5a3.34 3.34 0 00-2.357.973 3.314 3.314 0 000 4.695 3.34 3.34 0 002.357.973c.442 0 .866.175 1.178.486a1.657 1.657 0 010 2.348 1.67 1.67 0 01-1.178.486 6.68 6.68 0 01-4.714-1.945 6.628 6.628 0 01-1.953-4.696c0-1.76.703-3.45 1.953-4.695A6.68 6.68 0 0115 18.263h5V1.66c0-.44.176-.862.488-1.174a1.67 1.67 0 012.845 1.174v16.602h8.334a5.01 5.01 0 003.535-1.458 4.971 4.971 0 001.465-3.522v-.208c0-1.266-.505-2.48-1.404-3.375a4.801 4.801 0 00-3.388-1.398h-3.542a1.67 1.67 0 01-1.178-.486 1.657 1.657 0 010-2.348 1.67 1.67 0 011.178-.486h3.542a8.14 8.14 0 015.745 2.37A8.078 8.078 0 0140 13.074zM6.667 16.602h-5a1.67 1.67 0 01-1.179-.486A1.657 1.657 0 010 14.942v-1.66c0-2.202.878-4.313 2.44-5.87a8.35 8.35 0 015.893-2.431H15c.442 0 .866.175 1.178.486a1.657 1.657 0 010 2.348A1.67 1.67 0 0115 8.3a8.273 8.273 0 01-2.44 5.87 8.337 8.337 0 01-5.893 2.431zm5-8.3H8.333A5.01 5.01 0 004.798 9.76a4.97 4.97 0 00-1.465 3.522h3.334a5.01 5.01 0 003.535-1.459 4.971 4.971 0 001.465-3.522z" fill="#fff"/></svg>