<svg width="50" height="38" fill="none" xmlns="http://www.w3.org/2000/svg"><path d="M47.977 22.277a5.11 5.11 0 00-1.836-.878 5.167 5.167 0 00-2.04-.096c3.911-3.873 5.89-7.723 5.89-11.498C49.99 4.398 45.556 0 40.105 0a10.076 10.076 0 00-4.192.884 9.894 9.894 0 00-3.419 2.538A9.893 9.893 0 0029.075.884 10.076 10.076 0 0024.883 0c-5.451 0-9.886 4.398-9.886 9.805 0 2.247.675 4.43 2.096 6.74a6.673 6.673 0 00-3.073 1.716l-4.71 4.617H3.333c-.884 0-1.732.344-2.357.957A3.236 3.236 0 000 26.145v8.171c0 .867.351 1.698.976 2.311a3.366 3.366 0 002.357.958h21.662c.137 0 .272-.017.404-.05l13.331-3.268a1.53 1.53 0 00.248-.081l8.097-3.379.091-.04a5.096 5.096 0 001.937-1.655 4.938 4.938 0 00.468-4.854 5.041 5.041 0 00-1.586-1.98h-.008zM24.883 3.268a6.582 6.582 0 013.639 1.033 6.395 6.395 0 012.43 2.848c.126.3.34.556.614.737a1.69 1.69 0 001.856 0c.274-.18.488-.437.613-.737a6.394 6.394 0 012.431-2.848 6.582 6.582 0 013.64-1.033c3.55 0 6.552 2.993 6.552 6.537 0 3.985-3.289 8.493-9.51 13.052l-2.31.521a5.63 5.63 0 00.018-2.556 5.671 5.671 0 00-1.12-2.31 5.813 5.813 0 00-2.033-1.6 5.928 5.928 0 00-2.542-.57h-8.19c-1.797-2.378-2.641-4.47-2.641-6.537 0-3.544 3.002-6.537 6.553-6.537zM3.333 26.146h4.999v8.17h-5v-8.17zm42.373 1.677l-7.915 3.305-13.004 3.188H11.665v-9.128l4.713-4.62a3.308 3.308 0 011.08-.711 3.359 3.359 0 011.276-.247h10.427c.663 0 1.299.258 1.768.717.469.46.732 1.084.732 1.734a2.43 2.43 0 01-.732 1.733 2.525 2.525 0 01-1.768.718H23.33c-.442 0-.866.172-1.178.478a1.618 1.618 0 00-.488 1.156c0 .433.175.849.488 1.155a1.68 1.68 0 001.178.479h6.665c.126 0 .25-.014.373-.04l13.956-3.148.065-.017c.426-.116.88-.073 1.276.12s.705.523.868.926c.163.403.168.85.015 1.257a1.768 1.768 0 01-.847.945h.006z" fill="#fff"/></svg>