<svg width="56" height="56" fill="none" xmlns="http://www.w3.org/2000/svg"><path d="M10.385 32.453l16.93 15.904c.325.305.487.457.685.457.198 0 .36-.152.685-.457l16.93-15.904c1.955-1.837 2.933-2.756 3.551-3.744a9 9 0 00.652-8.296c-.456-1.073-1.279-2.133-2.923-4.252l-.722-.93c-1.802-2.323-2.702-3.484-3.546-4.122a8 8 0 00-10.904 1.174c-.689.804-1.322 2.13-2.587 4.782-.198.414-.297.62-.395.73a1 1 0 01-1.482 0c-.098-.11-.197-.316-.395-.73h0c-1.265-2.652-1.898-3.978-2.587-4.782a8 8 0 00-10.904-1.174c-.844.638-1.744 1.8-3.546 4.121l-.722.93c-1.644 2.12-2.467 3.18-2.923 4.253a9 9 0 00.652 8.296c.618.988 1.596 1.907 3.55 3.744h0z" fill="#222" stroke="#222" stroke-width="2"/></svg>