<svg width="36" height="24" fill="none" xmlns="http://www.w3.org/2000/svg"><mask id="a" style="mask-type:alpha" maskUnits="userSpaceOnUse" x="0" y="0" width="36" height="24"><g clip-path="url(#clip0_9_659)"><path d="M.132 12.383l.135.16 13.921.02c13.207.014 13.925.02 13.876.134-.34.814-1.657 4.329-1.636 4.375.008.033.233-.114.502-.32 1.873-1.456 4.993-3.113 8.09-4.303.543-.207.98-.4.98-.435-.008-.033-.408-.22-.909-.406-3.099-1.19-6.029-2.74-8.028-4.25-.337-.255-.62-.447-.634-.435-.021.021 1.332 3.656 1.635 4.397.049.114-.642.12-13.853.12H.3l-.148.154c-.197.194-.204.575-.021.788l.001.001z" fill="#000"/></g></mask><g mask="url(#a)"><path fill="#fff" d="M0 0h36v24H0z"/></g><defs><clipPath id="clip0_9_659"><path fill="#fff" transform="translate(0 6.923)" d="M0 0h36v10.153H0z"/></clipPath></defs></svg>