<svg width="14" height="17" fill="none" xmlns="http://www.w3.org/2000/svg"><path d="M12.268 11.2a2.21 2.21 0 00.541-.728 2.087 2.087 0 000-1.74 2.21 2.21 0 00-.541-.728 2.642 2.642 0 00-1.754-.656c-.653 0-1.28.235-1.754.656L7 9.654l-1.76-1.65a2.641 2.641 0 00-1.754-.656c-.653 0-1.28.235-1.754.656a2.208 2.208 0 00-.541.728 2.086 2.086 0 000 1.74c.126.274.31.522.541.728L7 16l5.268-4.8zM7 5.615c.653 0 1.279-.243 1.74-.676.462-.432.722-1.02.722-1.631 0-.612-.26-1.2-.721-1.632A2.547 2.547 0 007 1c-.653 0-1.279.243-1.74.676a2.237 2.237 0 00-.722 1.632c0 .612.26 1.199.721 1.631A2.548 2.548 0 007 5.615z" stroke="#F9FDFF" stroke-linecap="round" stroke-linejoin="round"/></svg>