<svg width="28" height="34" fill="none" xmlns="http://www.w3.org/2000/svg"><path d="M24.536 22.4c.462-.412.83-.907 1.082-1.457a4.17 4.17 0 00.382-1.74c0-.597-.13-1.189-.381-1.738a4.415 4.415 0 00-1.083-1.457 5.283 5.283 0 00-3.508-1.312c-1.305 0-2.561.47-3.508 1.312l-3.52 3.3-3.52-3.3a5.283 5.283 0 00-3.508-1.312c-1.305 0-2.561.47-3.508 1.312a4.44 4.44 0 00-1.083 1.457A4.172 4.172 0 002 19.204c0 .598.13 1.19.381 1.739.252.55.62 1.045 1.083 1.457L14 32l10.536-9.6zM14 11.23a5.095 5.095 0 003.481-1.351c.924-.866 1.442-2.04 1.442-3.264 0-1.224-.518-2.398-1.442-3.263C16.558 2.486 15.306 2 14 2s-2.558.486-3.481 1.352c-.924.865-1.442 2.04-1.442 3.263 0 1.224.518 2.398 1.442 3.264A5.095 5.095 0 0014 11.23z" stroke="#F9FDFF" stroke-width="4" stroke-linecap="round" stroke-linejoin="round"/></svg>