<svg width="15" height="15" fill="none" xmlns="http://www.w3.org/2000/svg"><path fill-rule="evenodd" clip-rule="evenodd" d="M5.166 5.08a3.427 3.427 0 00-1.001 2.81.577.577 0 01-1.148.12 4.58 4.58 0 011.34-3.752c1.809-1.784 4.724-1.754 6.512.06 1.789 1.812 1.778 4.729-.031 6.513A4.572 4.572 0 017.7 12.149a4.625 4.625 0 01-1.318-.167.576.576 0 11.308-1.112c.322.09.655.132.989.126a3.418 3.418 0 002.348-.987 3.451 3.451 0 00.02-4.881 3.451 3.451 0 00-4.88-.048" fill="#F9FDFF"/><path fill-rule="evenodd" clip-rule="evenodd" d="M4.02 8.478a.577.577 0 01-.815.047l-.993-.883a.577.577 0 01.768-.861l.992.882a.577.577 0 01.047.815z" fill="#F9FDFF"/><path fill-rule="evenodd" clip-rule="evenodd" d="M3.127 8.423a.577.577 0 00.807.115l1.154-.865a.577.577 0 10-.692-.923l-1.154.865a.577.577 0 00-.115.808zM7.5 5.193a.577.577 0 01.577.576v2.02a.577.577 0 11-1.154 0v-2.02a.577.577 0 01.577-.577z" fill="#F9FDFF"/><path fill-rule="evenodd" clip-rule="evenodd" d="M9.808 7.788a.577.577 0 01-.577.577H7.5a.577.577 0 010-1.153h1.73a.577.577 0 01.578.576z" fill="#F9FDFF"/><path fill-rule="evenodd" clip-rule="evenodd" d="M7.5 13.846a6.346 6.346 0 100-12.692 6.346 6.346 0 000 12.692zM7.5 15a7.5 7.5 0 100-15 7.5 7.5 0 000 15z" fill="#F9FDFF"/></svg>