<svg width="18" height="18" fill="none" xmlns="http://www.w3.org/2000/svg"><path d="M0 3.75A3.75 3.75 0 013.75 0h10.5A3.75 3.75 0 0118 3.75v10.5A3.75 3.75 0 0114.25 18H3.75A3.75 3.75 0 010 14.25V3.75zM3.75 1.5A2.25 2.25 0 001.5 3.75v10.5a2.25 2.25 0 002.25 2.25h10.5a2.25 2.25 0 002.25-2.25V3.75a2.25 2.25 0 00-2.25-2.25H3.75zm6 11.25a.75.75 0 01.75-.75h3.375a.75.75 0 110 1.5H10.5a.75.75 0 01-.75-.75zM10.5 6a.75.75 0 100 1.5h3.375a.75.75 0 100-1.5H10.5zm-2.469 4.719a.75.75 0 010 1.062l-2.25 2.25a.75.75 0 01-1.062 0l-1.122-1.122a.75.75 0 111.062-1.062l.591.593 1.719-1.721a.75.75 0 011.062 0zm0-4.938a.75.75 0 10-1.062-1.062L5.25 6.439l-.591-.592a.751.751 0 10-1.062 1.062l1.122 1.122a.75.75 0 001.062 0l2.25-2.25z" fill="#F9FDFF"/></svg>