<svg width="32" height="26" fill="none" xmlns="http://www.w3.org/2000/svg"><path d="M30.705 15.41a3.171 3.171 0 00-1.175-.607 3.065 3.065 0 00-1.306-.066c2.504-2.68 3.77-5.343 3.77-7.954 0-3.74-2.838-6.783-6.327-6.783a6.04 6.04 0 00-2.683.612 6.394 6.394 0 00-2.188 1.755A6.394 6.394 0 0018.608.612 6.04 6.04 0 0015.925 0c-3.489 0-6.327 3.042-6.327 6.783 0 1.554.432 3.065 1.341 4.663-.744.2-1.424.61-1.966 1.187l-3.015 3.193H2.133c-.566 0-1.108.238-1.508.662-.4.424-.625 1-.625 1.599v5.652c0 .6.225 1.175.625 1.599.4.424.942.662 1.508.662h13.864a.99.99 0 00.259-.034l8.532-2.26a.89.89 0 00.158-.057l5.182-2.338.058-.028a3.346 3.346 0 001.24-1.144 3.663 3.663 0 00.3-3.358 3.453 3.453 0 00-1.016-1.37h-.005zM15.925 2.262a3.983 3.983 0 012.329.714 4.35 4.35 0 011.556 1.97c.08.208.217.385.392.51.176.125.383.192.594.192.212 0 .418-.067.594-.192a1.12 1.12 0 00.393-.51 4.35 4.35 0 011.555-1.97 3.983 3.983 0 012.33-.714c2.272 0 4.193 2.07 4.193 4.522 0 2.757-2.105 5.875-6.087 9.029l-1.478.36c.13-.58.134-1.185.012-1.768a4.063 4.063 0 00-.717-1.598A3.782 3.782 0 0020.29 11.7a3.559 3.559 0 00-1.627-.396h-5.242c-1.15-1.644-1.69-3.091-1.69-4.521 0-2.452 1.921-4.522 4.194-4.522zM2.133 18.087h3.2v5.652h-3.2v-5.652zm27.119 1.16l-5.066 2.286-8.322 2.206H7.465v-6.315l3.017-3.196a2.11 2.11 0 01.691-.492 2.01 2.01 0 01.817-.17h6.673c.424 0 .831.178 1.131.496.3.318.469.75.469 1.199 0 .45-.169.88-.469 1.199-.3.318-.707.497-1.13.497H14.93c-.283 0-.554.119-.754.33-.2.213-.313.5-.313.8 0 .3.112.587.313.8.2.211.47.33.754.33h4.266c.08 0 .16-.01.238-.028l8.932-2.177.041-.012c.273-.08.564-.05.817.083.254.134.451.362.556.64.104.28.107.59.009.87a1.196 1.196 0 01-.542.654h.004z" fill="#fff"/></svg>