<svg width="27" height="27" fill="none" xmlns="http://www.w3.org/2000/svg"><path d="M23.367 16.615a1.558 1.558 0 11-3.116 0 1.558 1.558 0 013.116 0zm-.59 5.1A6.24 6.24 0 0116.616 27H13.5a6.238 6.238 0 01-6.231-6.23v-5.26A8.308 8.308 0 010 7.27V1.037A1.038 1.038 0 011.039 0h3.115a1.039 1.039 0 110 2.077H2.077v5.192A6.23 6.23 0 008.391 13.5c3.39-.044 6.148-2.888 6.148-6.339V2.077h-2.077a1.039 1.039 0 010-2.077h3.116a1.039 1.039 0 011.038 1.038v6.123c0 4.263-3.184 7.827-7.27 8.348v5.26a4.154 4.154 0 004.155 4.154h3.115a4.162 4.162 0 004.053-3.245 5.193 5.193 0 112.107.035v.002zm2.148-5.1a3.115 3.115 0 10-6.23 0 3.115 3.115 0 006.23 0z" fill="#fff"/></svg>