<svg width="86" height="86" viewBox="0 0 86 86" fill="none" xmlns="http://www.w3.org/2000/svg">
<g clip-path="url(#clip0_1_1050)">
<path d="M61.9917 64.6792C59.8417 64.6792 57.5125 64.6792 55.3625 64.6792C53.0334 64.6792 51.0625 65.7542 49.6292 67.5458C48.1959 69.3375 47.8375 71.4875 48.0167 73.6375C48.0167 74.8917 48.9125 75.7875 50.1667 75.7875C51.4209 75.7875 52.3167 74.8917 52.3167 73.6375C52.3167 73.1 52.3167 72.5625 52.3167 72.025C52.3167 70.0542 53.75 68.6208 55.7209 68.6208C60.0209 68.6208 64.3209 68.6208 68.8 68.6208C70.7709 68.6208 72.2042 70.2333 72.2042 72.025C72.2042 72.5625 72.2042 72.9208 72.2042 73.4583C72.2042 74.7125 73.1 75.6083 74.3542 75.6083C75.6084 75.6083 76.5042 74.7125 76.5042 73.4583C76.5042 73.1 76.5042 72.7417 76.5042 72.3833C76.5042 67.9042 73.1 64.5 68.6209 64.5C66.1125 64.6792 64.1417 64.6792 61.9917 64.6792Z" fill="white"/>
<path d="M27.9502 33.325C27.9502 33.6833 27.9502 34.0417 27.9502 34.5792C28.1294 35.6542 29.0252 36.55 30.1002 36.3708C31.1752 36.3708 32.071 35.475 32.071 34.2208C32.071 33.6833 32.071 33.325 32.071 32.7875C32.071 30.8167 33.6835 29.2042 35.6544 29.2042C39.9544 29.2042 44.0752 29.2042 48.3752 29.2042C50.1669 29.2042 51.6002 30.4583 51.7794 32.25C51.7794 32.9667 51.7794 33.5042 51.7794 34.2208C51.7794 35.2958 52.6752 36.1917 53.7502 36.1917C54.8252 36.1917 55.9002 35.6542 56.0794 34.4C56.0794 33.8625 56.0794 33.325 56.0794 32.7875C56.0794 28.3083 52.6752 24.9042 48.0169 24.9042C43.896 24.9042 39.7752 24.9042 35.6544 24.9042C35.296 24.9042 34.9377 24.9042 34.5794 24.9042C30.6377 25.6208 27.9502 28.8458 27.9502 33.325Z" fill="white"/>
<path d="M70.4128 41.0292C70.0544 34.0417 67.5461 27.7709 62.7086 22.5751C60.2003 19.8876 57.3336 17.7376 54.1086 16.3042C52.6753 15.5876 51.2419 16.3042 51.0628 17.7376C50.8836 18.6334 51.4211 19.5292 52.4961 20.0667C60.3794 24.1876 65.0378 30.4584 66.1128 39.4167C66.2919 40.3126 66.1128 41.3876 66.2919 42.2834C66.4711 43.3584 67.3669 44.0751 68.6211 43.8959C69.6961 43.8959 70.4128 43.0001 70.4128 41.9251C70.4128 41.7459 70.4128 41.3876 70.4128 41.0292Z" fill="white"/>
<path d="M13.7959 41.0291C13.7959 41.3874 13.7959 41.7458 13.7959 42.1041C13.7959 43.1791 14.6917 43.8958 15.5876 44.0749C16.6626 44.2541 17.5584 43.5374 17.9167 42.4624C17.9167 42.1041 18.0959 41.7458 18.0959 41.3874C18.0959 37.6249 18.9917 34.2208 20.7834 30.9958C23.2917 26.1583 27.0542 22.5749 31.8917 20.2458C33.1459 19.7083 33.5042 18.4541 32.9667 17.3791C32.4292 16.3041 31.1751 15.9458 30.1001 16.4833C20.0667 21.4999 14.6917 29.7416 13.7959 41.0291Z" fill="white"/>
<path d="M42.104 66.1125C41.2082 66.1125 40.4915 66.1125 39.7748 65.9333C38.5207 65.9333 37.4457 66.65 37.4457 67.9042C37.2665 68.9792 38.1623 70.0542 39.4165 70.2334C41.3873 70.2334 43.3582 70.2334 45.329 70.2334C46.5832 70.2334 47.479 69.1584 47.2998 67.9042C47.1207 66.65 46.0457 65.9334 44.7915 66.1125C43.7165 65.9334 42.8207 66.1125 42.104 66.1125Z" fill="white"/>
<path d="M8.2417 71.4876C8.42087 71.1292 8.42087 70.7709 8.60003 70.4126C9.49587 67.1876 12.3625 64.8584 15.7667 64.8584C20.2459 64.8584 24.725 64.8584 29.2042 64.8584C33.1459 64.8584 36.55 68.2626 36.55 72.2042C36.55 72.7417 36.55 73.4584 36.55 73.9959C36.55 75.0709 35.6542 75.9667 34.5792 75.9667C33.5042 75.9667 32.6084 75.2501 32.4292 74.1751C32.4292 73.6376 32.4292 73.1001 32.4292 72.5626C32.4292 70.4126 30.9959 68.9792 28.8459 68.8001C24.725 68.8001 20.6042 68.8001 16.3042 68.8001C14.1542 68.8001 12.7209 70.2334 12.7209 72.3834C12.7209 72.7417 12.7209 73.1001 12.7209 73.4584C12.7209 74.5334 12.0042 75.4292 10.9292 75.6084C10.0334 75.7876 8.95837 75.2501 8.60003 74.3542L8.42087 74.1751C8.2417 73.4584 8.2417 72.3834 8.2417 71.4876Z" fill="white"/>
<path d="M43.1794 8.0625C43.8961 8.24167 44.6127 8.42083 45.1502 8.77917C48.1961 10.2125 49.8086 13.6167 49.0919 16.8417C48.3752 20.0667 45.3294 22.3958 42.1044 22.2167C38.5211 22.0375 35.8336 19.5292 35.2961 16.125C34.7586 12.3625 37.2669 8.95833 41.0294 8.24167C41.2086 8.24167 41.3877 8.24167 41.3877 8.0625C41.9252 8.0625 42.4627 8.0625 43.1794 8.0625ZM44.9711 15.05C44.9711 13.4375 43.7169 12.1833 42.1044 12.1833C40.4919 12.1833 39.2377 13.4375 39.2377 15.05C39.2377 16.6625 40.4919 17.9167 42.1044 17.9167C43.7169 17.9167 44.9711 16.6625 44.9711 15.05Z" fill="white"/>
<path d="M61.9916 64.6792C63.9624 64.6792 66.1124 64.6792 68.0833 64.6792C72.7416 64.6792 75.9666 68.0834 75.9666 72.5625C75.9666 72.9209 75.9666 73.2792 75.9666 73.6375C75.9666 74.8917 75.0708 75.7875 73.8166 75.7875C72.5624 75.7875 71.6666 74.8917 71.6666 73.6375C71.6666 73.1 71.6666 72.7417 71.6666 72.2042C71.6666 70.2334 70.2333 68.8 68.2624 68.8C63.9624 68.8 59.6624 68.8 55.1833 68.8C53.2124 68.8 51.7791 70.2334 51.7791 72.2042C51.7791 72.7417 51.7791 73.2792 51.7791 73.8167C51.7791 75.0709 50.8833 75.9667 49.6291 75.9667C48.3749 75.9667 47.6583 75.0709 47.4791 73.8167C47.2999 71.4875 47.6583 69.5167 49.0916 67.725C50.5249 65.9334 52.4958 64.8584 54.8249 64.8584C57.5124 64.6792 59.8416 64.6792 61.9916 64.6792Z" fill="white"/>
<path d="M27.9502 33.325C27.9502 29.025 30.6377 25.8 34.7585 25.0834C35.1169 25.0834 35.4752 25.0834 35.8335 25.0834C39.9544 25.0834 44.0752 25.0834 48.196 25.0834C52.6752 25.0834 56.0794 28.4875 56.2585 32.9667C56.2585 33.5042 56.2585 34.0417 56.2585 34.5792C56.0794 35.6542 55.1835 36.3709 53.9294 36.3709C52.8544 36.3709 52.1377 35.475 51.9585 34.4C51.9585 33.6834 51.9585 33.1459 51.9585 32.4292C51.7794 30.6375 50.346 29.3834 48.5544 29.3834C44.2544 29.3834 40.1335 29.3834 35.8335 29.3834C33.8627 29.3834 32.4294 30.8167 32.2502 32.9667C32.2502 33.5042 32.2502 33.8625 32.2502 34.4C32.2502 35.475 31.3544 36.3709 30.2794 36.55C29.2044 36.55 28.3085 35.8334 28.1294 34.7584C27.9502 34.0417 27.9502 33.6834 27.9502 33.325Z" fill="white"/>
<path d="M70.4128 41.0291C70.4128 41.3875 70.4128 41.7458 70.4128 42.1041C70.4128 43.1791 69.5169 44.075 68.6211 44.075C67.5461 44.2541 66.4711 43.5375 66.2919 42.4625C66.1128 41.5666 66.1128 40.4916 66.1128 39.5958C65.0378 30.8166 60.3794 24.3666 52.4961 20.2458C51.4211 19.7083 50.8836 18.8125 51.0628 17.9166C51.4211 16.4833 52.8544 15.7666 54.1086 16.4833C57.3336 18.0958 60.2003 20.0666 62.7086 22.7541C67.5461 27.95 70.0544 34.0416 70.4128 41.0291Z" fill="white"/>
<path d="M13.7959 41.0291C14.6917 29.7416 19.8875 21.4999 29.9209 16.4833C30.9959 15.9458 32.25 16.3041 32.7875 17.3791C33.325 18.4541 32.9667 19.7083 31.7125 20.2458C26.875 22.5749 23.1125 26.1583 20.6042 30.9958C18.9917 34.2208 18.0959 37.8041 17.9167 41.3874C17.9167 41.7458 17.9167 42.1041 17.7375 42.4624C17.5584 43.5374 16.4834 44.0749 15.4084 44.0749C14.5125 43.8958 13.6167 43.1791 13.6167 42.1041C13.7959 41.7458 13.7959 41.3874 13.7959 41.0291Z" fill="white"/>
<path d="M22.396 61.8125C18.4543 61.8125 15.2293 58.5875 15.4085 54.6458C15.4085 50.7042 18.6335 47.6583 22.5752 47.6583C26.5168 47.6583 29.5627 50.8833 29.5627 54.6458C29.3835 58.5875 26.1585 61.8125 22.396 61.8125ZM22.396 51.9583C20.7835 51.9583 19.5293 53.2125 19.5293 54.825C19.5293 56.4375 20.7835 57.6917 22.396 57.6917C24.0085 57.6917 25.2627 56.4375 25.2627 54.825C25.2627 53.2125 24.0085 51.9583 22.396 51.9583Z" fill="white"/>
<path d="M61.9917 61.8125C58.05 61.8125 54.825 58.5875 55.0042 54.6458C55.0042 50.7042 58.2292 47.6583 62.1709 47.6583C66.1125 47.6583 69.1584 50.8833 69.1584 54.6458C69.1584 58.5875 65.9334 61.8125 61.9917 61.8125ZM61.9917 51.9583C60.3792 51.9583 59.125 53.2125 59.125 54.825C59.125 56.4375 60.3792 57.6917 61.9917 57.6917C63.6042 57.6917 64.8584 56.4375 64.8584 54.825C64.8584 53.0333 63.6042 51.9583 61.9917 51.9583Z" fill="white"/>
<path d="M42.104 66.1125C42.8207 66.1125 43.7165 66.1125 44.7915 65.9333C46.0457 65.7541 47.1207 66.65 47.2998 67.725C47.479 68.8 46.5832 70.0541 45.329 70.0541C43.3582 70.2333 41.3873 70.2333 39.4165 70.0541C38.1623 70.0541 37.2665 68.9791 37.4457 67.725C37.6248 66.4708 38.5207 65.7542 39.7748 65.7542C40.4915 65.9333 41.2082 65.9333 42.104 66.1125Z" fill="white"/>
</g>
<defs>
<clipPath id="clip0_1_1050">
<rect width="86" height="86" fill="white"/>
</clipPath>
</defs>
</svg>
