<svg width="100" height="100" viewBox="0 0 100 100" fill="none" xmlns="http://www.w3.org/2000/svg">
<g clip-path="url(#clip0_1_973)">
<path d="M66.0415 28.75C69.1665 28.3334 72.2915 28.3334 75.6248 28.75C76.8748 28.9584 77.2915 29.7917 76.8748 31.0417C74.9998 35.8334 72.2915 40 68.1248 43.125C65.2082 45.4167 61.6665 46.4584 58.1248 47.0834C55.2082 47.5 52.4998 47.2917 49.5831 47.0834C48.5415 46.875 47.2915 47.2917 46.2498 47.2917C41.6665 47.5 37.0832 46.875 32.9165 44.5834C29.9998 43.125 27.7082 40.8334 25.8332 38.125C24.1665 36.0417 22.9165 33.5417 21.8748 31.0417C21.4582 29.5834 21.8748 28.75 23.3332 28.5417C26.2498 28.125 29.3748 28.125 32.2915 28.5417C32.4998 28.5417 32.4998 28.5417 32.7082 28.5417C32.7082 27.5 32.4998 26.4584 32.4998 25.4167C32.4998 23.3334 32.7082 21.25 32.9165 19.1667C33.1248 17.9167 33.9581 17.2917 35.2081 17.9167C37.7081 18.9584 40.2081 20.2084 42.2915 21.875C42.7081 22.0834 42.9165 22.5 43.3331 22.7084C44.1665 21.25 44.7915 19.7917 45.6248 18.3334C46.4581 17.0834 47.2915 15.8334 48.1248 14.5834C48.9582 13.5417 49.9998 13.5417 50.8331 14.5834C52.7081 16.875 54.1665 19.1667 55.2082 21.875C55.4165 22.0834 55.4165 22.5 55.6248 22.9167C56.4582 22.2917 57.2915 21.6667 58.1248 21.0417C59.9998 20 61.8748 18.9584 63.7498 18.125C65.2082 17.5 66.0415 18.125 66.2498 19.5834C66.6665 22.5 66.6665 25.2084 66.2498 28.125C66.0415 28.125 66.0415 28.3334 66.0415 28.75ZM49.1665 42.9167C51.8748 38.75 53.9582 34.375 53.5415 29.375C53.3332 25 51.4582 21.25 49.1665 17.7084C42.9165 26.25 43.3332 35 49.1665 42.9167ZM63.1248 21.25C60.8331 22.2917 58.7498 23.75 56.6665 25.4167C56.2498 25.8334 56.2498 26.0417 56.2498 26.4584C56.4582 27.9167 56.6665 29.1667 56.6665 30.625C56.6665 33.9584 55.6248 37.0834 54.1665 40.2084C53.9581 40.625 53.7498 41.0417 53.5415 41.4584C61.6665 36.6667 63.9581 29.1667 63.1248 21.25ZM44.5831 41.4584C44.1665 40.8334 43.9582 40.2084 43.7498 39.5834C41.8748 35.625 41.0415 31.4584 41.8748 27.0834C42.0832 26.0417 41.8748 25.4167 41.0415 24.7917C39.1665 23.3334 37.2915 22.2917 35.4165 21.25C34.3748 29.5834 37.0831 36.875 44.5831 41.4584ZM73.3332 31.4584C70.8332 31.25 68.3332 31.25 65.8332 31.6667C65.4165 31.6667 64.9998 31.875 64.9998 32.5C63.5415 36.4584 61.2498 39.7917 57.9165 42.2917C57.0831 42.9167 56.2498 43.3334 55.4165 43.9584C63.1248 44.1667 69.3748 40 73.3332 31.4584ZM25.2082 31.4584C28.9582 40 35.4165 44.1667 43.1248 44.1667C42.9165 43.9584 42.9165 43.9584 42.7082 43.9584C38.3332 41.0417 34.9998 37.5 33.3332 32.5C33.3332 32.2917 32.9165 32.0834 32.9165 32.0834C30.4165 31.4584 27.7082 31.25 25.2082 31.4584Z" fill="white"/>
<path d="M65.625 58.9583C65.8333 58.5417 66.0417 58.3333 66.25 58.125C70 54.375 73.75 50.625 77.2917 46.875C79.375 44.7917 82.0833 44.375 84.5833 45.625C88.3333 47.5 88.9583 52.2917 85.8333 55.625C81.6667 60 77.2917 64.1667 72.9167 68.5417C70.4167 71.0417 67.9167 73.5417 65.4167 76.0417C63.75 77.9167 61.6667 78.75 59.1667 78.75C51.4583 78.75 43.9583 78.75 36.25 78.75C35.625 78.75 35.4167 78.9583 35 79.375C31.4583 83.125 27.7083 86.6667 24.1667 90.4167C23.125 91.4583 22.2917 91.4583 21.0417 90.4167C17.7083 87.0833 14.5833 83.75 11.25 80.625C10.2083 79.5833 10.2083 78.75 11.25 77.7083C18.125 70.8333 24.7917 64.1667 31.6667 57.2917C33.3333 55.625 35.4167 54.7917 37.9167 54.7917C45 54.7917 52.0833 54.7917 59.1667 54.7917C62.5 54.5833 64.1667 55.625 65.625 58.9583ZM22.9167 87.5C22.9167 87.2917 23.125 87.0833 23.3333 86.875C26.6667 83.5417 30.2083 80 33.5417 76.6667C34.1667 76.0417 34.7917 75.8333 35.625 75.8333C43.5417 75.8333 51.4583 75.8333 59.375 75.8333C61.0417 75.8333 62.2917 75.2083 63.5417 74.1667C65 72.7083 66.4583 71.25 68.125 69.5833C73.3333 64.1667 78.75 58.9583 83.9583 53.5417C85.4167 52.0833 85.4167 50.2083 84.1667 48.9583C82.9167 47.7083 81.0417 47.7083 79.7917 49.1667C74.5833 54.375 69.5833 59.5833 64.375 64.7917C63.125 66.0417 61.875 66.6667 60.2083 66.6667C55.625 66.6667 51.0417 66.6667 46.6667 66.6667C46.6667 66.6667 46.6667 66.6667 46.4583 66.6667C45.625 66.6667 44.7917 66.0417 45 65.2083C45 64.375 45.625 63.75 46.4583 63.75C47.9167 63.75 49.375 63.75 50.625 63.75C53.75 63.75 56.6667 63.75 59.7917 63.75C62.0833 63.75 63.5417 61.6667 62.9167 59.7917C62.5 58.5417 61.25 57.7083 59.7917 57.7083C52.5 57.7083 45.4167 57.7083 38.125 57.7083C36.4583 57.7083 35 58.3333 33.9583 59.375C27.7083 65.625 21.25 72.0833 15 78.3333C14.7917 78.5417 14.5833 78.75 14.375 78.9583C17.0833 81.6667 19.7917 84.375 22.9167 87.5Z" fill="white"/>
<path d="M39.9998 63.5417C40.8332 63.5417 41.4582 64.1667 41.4582 65.0001C41.4582 65.8334 40.8332 66.4584 39.9998 66.4584C39.1665 66.4584 38.5415 65.8334 38.5415 65.0001C38.5415 64.3751 39.1665 63.5417 39.9998 63.5417Z" fill="white"/>
</g>
<defs>
<clipPath id="clip0_1_973">
<rect width="100" height="100" fill="white"/>
</clipPath>
</defs>
</svg>
