<svg width="112" height="112" viewBox="0 0 112 112" fill="none" xmlns="http://www.w3.org/2000/svg">
<path d="M26.5999 82.1334C26.3665 80.7334 26.3665 79.5668 26.1332 78.6334C26.1332 77.9334 25.6665 77.7001 24.9665 77.7001C23.0999 77.9334 21.2332 77.9334 19.3665 77.9334C15.1665 77.9334 12.8332 76.0667 11.1999 72.1001C11.1999 71.8668 10.9665 71.6334 10.9665 71.1668C9.79988 66.0334 8.39988 60.9001 7.46655 55.7668C6.99988 53.4334 7.23321 51.1001 7.46655 48.7668C7.69988 46.9001 9.33321 45.9668 11.4332 46.4334C13.0665 46.9001 14.4665 47.8334 14.9332 49.4668C15.6332 50.8668 16.0999 52.5001 16.3332 54.1334C16.7999 56.7001 17.7332 58.8001 20.2999 59.9668C23.5665 61.3668 26.3666 63.2334 29.3999 64.6334C30.7999 65.3334 31.9665 65.1001 32.6665 63.9334C33.3666 62.7668 32.8999 61.6001 31.4999 60.9001C28.4665 59.2668 25.4332 57.6334 22.1665 56.0001C20.9999 55.5334 20.5332 54.8334 20.5332 53.6668C20.5332 52.7334 20.2999 51.8001 20.0665 50.8667C19.1332 47.1334 17.0332 44.1001 13.0665 42.7001C8.86655 41.3001 3.49988 43.4001 3.26655 48.7668C3.03321 51.5668 3.03321 54.6001 3.49988 57.1668C4.43321 62.3001 5.83321 67.6668 7.23321 72.8001C8.63321 77.4668 11.1999 80.9668 16.3332 81.9001C17.2665 82.1334 18.1999 82.3668 19.1332 82.3668C21.6999 82.3668 24.0332 82.3668 26.5999 82.1334Z" fill="white"/>
<path d="M73.2667 45.2667C76.0667 47.8333 78.4 50.1667 80.9667 52.5C83.5334 50.1667 86.1 47.8333 88.6667 45.2667C90.7667 46.4333 92.8667 47.6 94.7334 49C95.6667 49.7 96.1334 50.6333 96.1334 51.8C96.1334 53.4333 96.1334 54.8333 96.1334 56.4667C96.1334 58.1 97.0667 59.0333 98.2334 59.0333C99.4 59.0333 100.567 57.8667 100.567 56.2333C100.567 54.8333 100.567 53.4333 100.567 52.0333C100.8 49.2333 99.6334 47.1333 97.5334 45.7333C94.9667 44.1 92.4 42.7 89.8334 41.3C88.4334 40.6 87.2667 40.8333 86.1 42C84.4667 43.6333 82.8334 45.2667 81.2 46.9C79.3334 45.2667 77.7 43.6333 76.0667 42C74.9 40.8333 73.7334 40.6 72.3334 41.3C69.3 42.7 66.5 44.5667 63.9334 46.6667C62.3 48.0667 61.3667 49.7 61.3667 51.8C61.3667 53.9 61.3667 55.7667 61.6 57.8667C61.6 58.3333 62.0667 59.0333 62.5334 59.2667C63.9334 60.2 65.8 59.2667 65.8 57.4C65.8 55.7667 65.8 54.1333 65.8 52.5C65.8 51.1 66.2667 49.9333 67.4334 49.2333C69.3 47.8333 71.4 46.4333 73.2667 45.2667Z" fill="white"/>
<path d="M81.2001 16.5667C80.7334 16.5667 80.0334 16.5667 79.5668 16.5667C74.4334 17.0334 70.9335 20.3001 70.0001 25.2001C69.5335 28.4667 70.0001 31.2667 71.1668 34.3001C71.8668 36.1667 72.8001 36.8667 74.2001 36.4001C75.6001 35.9334 75.8335 34.5334 75.1335 32.9001C74.4335 30.8001 73.9668 28.7001 74.2001 26.6001C74.4334 24.2667 75.1334 21.9334 77.7001 21.2334C79.3334 21.0001 81.2001 20.7667 83.0668 21.0001C85.6334 21.2334 87.2668 22.8667 87.9668 25.4334C88.4335 27.5334 88.2001 29.6334 87.5001 31.7334C87.2668 32.4334 86.8001 33.1334 86.8001 34.0667C86.8001 34.5334 86.8001 35.2334 87.0334 35.7001C87.2668 36.6334 88.2001 37.1001 88.9001 37.1001C89.8334 37.1001 90.5335 36.4001 90.7668 35.4667C91.9335 33.1334 92.4001 30.5667 92.4001 27.7667C92.6334 21.0001 87.9668 16.3334 81.2001 16.5667Z" fill="white"/>
<path d="M41.0665 76.3001C41.0665 71.6334 38.9665 69.5334 34.2998 69.0667C29.8665 68.6001 25.4331 68.1334 20.7665 67.6667C19.3665 67.4334 18.4331 68.3667 18.1998 69.5334C17.9665 70.7001 18.8998 71.8667 20.2998 71.8667C24.7331 72.3334 29.1665 72.8001 33.8331 73.2667C36.1665 73.5001 36.6331 73.9667 36.6331 76.3001C36.6331 76.5334 36.6331 77.0001 36.6331 77.2334C36.1665 79.1001 35.9331 80.9667 35.4665 82.6001C34.5331 86.8001 33.3665 91.2334 32.1998 95.4334C31.7331 96.8334 32.8998 98.0001 34.2998 98.0001C35.4665 98.0001 35.9331 97.3001 36.3998 96.1334C37.7998 91.0001 39.1998 85.6334 40.3665 80.5001C40.5998 78.8667 40.8331 77.7001 41.0665 76.3001Z" fill="white"/>
<path d="M45.5001 67.6667C43.8668 67.6667 42.2334 67.6667 40.6001 67.6667C40.1334 67.6667 39.6668 67.6667 39.2001 67.4334C38.2668 67.2001 37.5668 66.0334 37.8001 65.1001C37.8001 64.1667 38.7334 63.2334 39.6668 63.2334C40.1334 63.2334 40.3668 63.2334 40.8334 63.2334C62.3001 63.2334 83.7668 63.2334 105.233 63.2334C105.467 63.2334 105.933 63.2334 106.167 63.2334C107.567 63.2334 108.5 64.1667 108.5 65.3334C108.5 66.5001 107.567 67.4334 106.4 67.6667C105 67.6667 103.6 67.6667 102.2 67.6667C101.733 67.6667 101.5 67.6667 100.8 67.6667C100.8 68.1334 100.8 68.6001 100.8 69.0667C100.8 76.3001 100.8 83.7667 100.8 91.0001C100.8 94.9667 98.7001 97.0667 94.7334 97.0667C80.2668 97.0667 65.8001 97.0667 51.1001 97.0667C47.8334 97.0667 45.2668 94.9667 45.2668 91.2334C45.5001 83.7667 45.2668 76.5334 45.2668 69.0667C45.5001 68.8334 45.5001 68.3667 45.5001 67.6667ZM49.4668 67.9001C49.4668 68.3667 49.4668 68.6001 49.4668 69.0667C49.4668 76.5334 49.4668 84.0001 49.4668 91.4667C49.4668 92.8667 49.7001 93.1001 51.1001 93.1001C65.5668 93.1001 80.0334 93.1001 94.5001 93.1001C96.1334 93.1001 96.1334 92.8667 96.1334 91.4667C96.1334 84.0001 96.1334 76.5334 96.1334 69.0667C96.1334 68.6001 96.1334 68.3667 96.1334 67.9001C80.7334 67.9001 65.3334 67.9001 49.4668 67.9001Z" fill="white"/>
<path d="M26.5999 82.1334C24.0332 82.1334 21.6999 82.3668 19.1332 82.3668C18.1999 82.3668 17.2665 82.1334 16.3332 81.9001C11.1999 80.9668 8.63321 77.4668 7.23321 72.8001C5.83321 67.6668 4.43321 62.5334 3.49988 57.1668C3.03321 54.3668 3.03321 51.5668 3.26655 48.7668C3.73321 43.4001 8.86655 41.3001 13.0665 42.7001C17.0332 44.1001 19.1332 47.1334 20.0665 50.8667C20.2999 51.8001 20.5332 52.7334 20.5332 53.6668C20.5332 54.8334 20.9999 55.5334 22.1665 56.0001C25.4332 57.4001 28.4665 59.2668 31.4999 60.9001C32.8999 61.6001 33.1332 62.7668 32.6665 63.9334C32.1999 64.8668 30.7999 65.3334 29.3999 64.6334C26.3665 63.0001 23.3332 61.3668 20.2999 59.9668C17.7332 58.8001 16.7999 56.9334 16.3332 54.1334C16.0999 52.5001 15.6332 50.8668 14.9332 49.4668C14.2332 47.8334 13.0665 46.9001 11.4332 46.4334C9.56655 45.9668 7.69988 46.9001 7.46655 48.7668C7.23321 51.1001 7.23321 53.4334 7.46655 55.7668C8.39988 60.9001 9.79988 66.0334 10.9665 71.1668C10.9665 71.4001 11.1999 71.6334 11.1999 72.1001C12.5999 76.0667 14.9332 77.7001 19.3665 77.9334C21.2332 77.9334 23.0999 77.9334 24.9665 77.7001C25.6665 77.7001 25.8999 77.9334 26.1332 78.6334C26.3665 79.8001 26.3665 80.7334 26.5999 82.1334Z" fill="white"/>
<path d="M73.2666 45.2667C71.1666 46.6667 69.3 47.8333 67.2 49.2333C66.0333 49.9333 65.5666 51.1 65.5666 52.5C65.5666 54.1333 65.5666 55.7667 65.5666 57.4C65.5666 59.2667 63.7 60.4333 62.3 59.2667C61.8333 59.0333 61.3666 58.3333 61.3666 57.8667C61.1333 55.7667 61.1333 53.9 61.1333 51.8C61.1333 49.7 62.0666 48.0667 63.7 46.6667C66.2666 44.5667 69.0666 42.7 72.1 41.3C73.5 40.6 74.6666 40.8333 75.8333 42C77.4666 43.6333 79.3333 45.2667 80.9666 46.9C82.6 45.2667 84.2333 43.6333 85.8666 42C87.0333 40.8333 88.2 40.6 89.6 41.3C92.1666 42.7 94.9666 44.1 97.3 45.7333C99.4 47.1333 100.567 49.4667 100.333 52.0333C100.333 53.4333 100.333 54.8333 100.333 56.2333C100.333 57.8667 99.4 59.0333 98 59.0333C96.8333 59.0333 95.9 57.8667 95.9 56.4667C95.9 54.8333 95.9 53.4333 95.9 51.8C95.9 50.6333 95.4333 49.7 94.5 49C92.4 47.8333 90.3 46.4333 88.4333 45.2667C85.6333 47.8333 83.3 50.1667 80.7333 52.5C78.6333 49.9333 76.0666 47.6 73.2666 45.2667Z" fill="white"/>
<path d="M81.2001 16.5667C87.9668 16.3334 92.6334 21.0001 92.4001 27.7667C92.4001 30.3334 91.7001 32.9001 90.7668 35.4667C90.3001 36.4001 89.8334 36.8667 88.9001 37.1001C87.9668 37.1001 87.2668 36.6334 87.0334 35.7001C86.8001 35.2334 86.8001 34.5334 86.8001 34.0667C87.0334 33.3667 87.2668 32.4334 87.5001 31.7334C88.4334 29.6334 88.6668 27.7667 87.9668 25.4334C87.2668 22.8667 85.6334 21.2334 83.0668 21.0001C81.4334 20.7667 79.5668 21.0001 77.7001 21.4667C75.1334 22.1667 74.4334 24.5001 74.2001 26.8334C73.9668 28.9334 74.4334 31.0334 75.1334 33.1334C75.8334 35.0001 75.3668 36.4001 74.2001 36.6334C72.8001 37.1001 71.8668 36.4001 71.1668 34.5334C70.2334 31.5001 69.5334 28.4667 70.0001 25.4334C70.9334 20.3001 74.4334 17.0334 79.5668 16.8001C80.2668 16.5667 80.7334 16.5667 81.2001 16.5667Z" fill="white"/>
<path d="M41.0664 76.3C40.833 77.7 40.5997 78.8667 40.3664 80.2667C38.9664 85.6334 37.5664 90.7667 36.3997 95.9C36.1664 97.0667 35.4664 97.5334 34.2997 97.7667C32.6664 97.7667 31.733 96.8334 32.1997 95.2C33.133 91 34.2997 86.5667 35.4664 82.3667C35.933 80.5 36.1664 78.6334 36.633 77C36.633 76.7667 36.633 76.5334 36.633 76.0667C36.633 73.7334 36.1664 73.2667 33.833 73.0334C29.3997 72.5667 24.733 72.1 20.2997 71.6334C18.8997 71.4 18.1997 70.4667 18.1997 69.3C18.433 67.9 19.3664 67.2 20.7664 67.4334C25.1997 67.9 29.633 68.3667 34.2997 68.8334C38.9664 69.3 41.0664 71.6334 41.0664 76.3Z" fill="white"/>
<path d="M22.6333 28.9334C22.6333 33.8334 18.6666 37.5668 13.7666 37.5668C9.09997 37.5668 5.1333 33.6001 5.1333 28.7001C5.1333 23.8001 9.09997 20.0668 14 20.0668C18.6666 20.3001 22.6333 24.2668 22.6333 28.9334ZM18.2 28.7001C18.2 26.3668 16.3333 24.2668 13.7666 24.2668C11.4333 24.2668 9.3333 26.3668 9.3333 28.7001C9.3333 31.2668 11.4333 33.1334 13.7666 33.1334C16.3333 33.1334 18.2 31.2668 18.2 28.7001Z" fill="white"/>
<path d="M75.3664 82.3668C75.3664 84.0001 75.3664 85.4001 75.3664 86.5668C75.3664 88.2001 74.433 89.3668 73.033 89.3668C71.633 89.3668 70.6997 88.2001 70.6997 86.5668C70.6997 85.1668 70.6997 83.7668 70.6997 82.3668C69.533 82.3668 68.3664 82.3668 67.1997 82.3668C66.733 82.3668 66.2664 82.3668 65.7997 82.3668C64.633 82.1334 63.6997 81.2001 63.6997 80.2668C63.6997 79.1001 64.633 78.1668 66.033 78.1668C67.6664 78.1668 69.0664 78.1668 70.6997 78.1668C70.6997 76.5334 70.6997 75.1334 70.6997 73.5001C70.6997 71.6334 72.333 70.4668 73.9664 71.1668C74.8997 71.6334 75.3664 72.5668 75.3664 73.5001C75.3664 74.9001 75.3664 76.3001 75.3664 77.9334C76.9997 77.9334 78.3997 77.9334 79.7997 77.9334C81.6664 77.9334 82.833 79.5668 81.8997 81.2001C81.433 82.1334 80.733 82.6001 79.5664 82.6001C78.3997 82.3668 76.9997 82.3668 75.3664 82.3668Z" fill="white"/>
</svg>
