<svg width="110" height="110" viewBox="0 0 110 110" fill="none" xmlns="http://www.w3.org/2000/svg">
<g clip-path="url(#clip0_1_1015)">
<path d="M20.1665 44.9167C20.3957 43.5417 20.6248 42.3959 21.0832 41.0209C22.229 38.2709 24.2915 36.4375 27.0415 35.0625C27.4998 34.8334 27.729 34.6042 27.729 34.1459C27.729 33.2292 27.729 32.3125 27.729 31.3959C27.729 29.3334 29.104 27.7292 31.3957 27.7292C34.1457 27.7292 35.5207 29.1042 35.5207 31.8542C35.5207 32.5417 35.5207 33 35.5207 33.6875C36.2082 33.6875 36.8957 33.6875 37.8123 33.6875C37.8123 33.4584 37.8123 33 37.8123 32.7709C37.8123 30.7084 37.8123 28.875 38.0415 26.8125C38.729 22.2292 42.6248 18.7917 47.2082 18.5625C50.6457 18.3334 54.0832 18.5625 57.5207 18.5625C58.2082 18.5625 58.6665 19.0209 58.6665 19.7084C58.6665 20.3959 58.2082 20.625 57.5207 20.625C54.3123 20.625 51.3332 20.625 48.1248 20.625C46.2915 20.625 44.4582 21.0834 42.854 22.4584C41.0207 24.0625 39.8748 25.8959 39.8748 28.4167C39.8748 30.25 39.8748 32.0834 39.8748 33.9167C41.2498 33.9167 42.6248 33.9167 43.9998 33.9167C43.9998 32.3125 43.9998 30.7084 43.9998 29.1042C43.9998 28.1875 44.229 27.2709 44.6873 26.5834C45.604 25.4375 46.5207 24.9792 47.8957 24.9792C53.1665 24.9792 58.4373 24.9792 63.9373 24.9792C66.229 24.9792 67.8332 26.8125 67.8332 29.1042C67.8332 30.4792 67.8332 31.8542 67.8332 33.2292C67.8332 33.4584 67.8332 33.6875 67.8332 33.9167C69.2082 33.9167 70.5832 33.9167 71.9582 33.9167C71.9582 31.625 71.9582 29.3334 71.4998 27.0417C70.8123 23.375 67.604 20.8542 63.7082 20.8542C63.0207 20.8542 62.3332 20.8542 61.6457 20.8542C60.9582 20.8542 60.729 20.3959 60.729 19.7084C60.729 19.25 61.1873 18.7917 61.6457 18.7917C65.0832 18.5625 68.0623 19.0209 70.5832 21.5417C72.6457 23.375 73.7915 25.8959 73.7915 28.6459C73.7915 30.4792 73.7915 32.3125 73.7915 34.1459C74.479 34.1459 75.1665 34.1459 76.0832 34.1459C76.0832 33.4584 76.0832 32.5417 76.0832 31.8542C76.0832 29.5625 77.4582 28.1875 79.7498 28.1875C82.4998 28.1875 83.8748 29.5625 83.8748 32.0834C83.8748 33 83.8748 33.6875 83.8748 34.6042C83.8748 34.8334 84.104 35.0625 84.104 35.2917C88.229 37.3542 90.5207 40.5625 91.2082 44.9167C91.2082 55.6875 91.2082 66.6875 91.2082 77.4584C91.2082 77.6875 91.2082 77.6875 90.979 77.9167C90.0623 82.7292 87.3123 86.1667 82.729 87.7709C81.354 88.2292 79.979 88.4584 78.604 88.4584C63.2498 88.4584 47.6665 88.4584 32.3123 88.4584C26.354 88.4584 21.7707 84.7917 20.3957 79.2917C20.1665 78.8334 20.1665 78.375 20.1665 77.6875C20.1665 66.4584 20.1665 55.6875 20.1665 44.9167ZM55.6873 85.9375C63.479 85.9375 71.2707 85.9375 79.0623 85.9375C84.7915 85.9375 89.1457 81.5834 89.1457 75.8542C89.1457 66 89.1457 56.1459 89.1457 46.2917C89.1457 40.5625 84.7915 36.2084 79.0623 36.2084C63.479 36.2084 47.8957 36.2084 32.3123 36.2084C26.5832 36.2084 22.229 40.5625 22.229 46.2917C22.229 56.1459 22.229 66 22.229 76.0834C22.229 76.7709 22.229 77.4584 22.4582 78.1459C23.3748 82.9584 27.4998 86.1667 32.3123 86.1667C40.104 85.9375 47.8957 85.9375 55.6873 85.9375ZM65.5415 33.9167C65.5415 32.3125 65.5415 30.9375 65.5415 29.3334C65.5415 27.5 64.854 26.8125 63.0207 26.8125C59.354 26.8125 55.6873 26.8125 52.0207 26.8125C50.6457 26.8125 49.2707 26.8125 47.8957 26.8125C46.2915 26.8125 45.604 27.5 45.604 29.1042C45.604 30.4792 45.604 31.8542 45.604 33C45.604 33.2292 45.604 33.4584 45.604 33.6875C52.479 33.9167 58.8957 33.9167 65.5415 33.9167ZM33.229 33.9167C33.229 33 33.229 32.0834 33.229 31.3959C33.229 30.7084 32.7707 30.25 32.0832 30.0209C30.9373 29.7917 30.0207 30.25 29.7915 30.9375C29.5623 32.0834 29.7915 33 29.7915 34.1459C30.479 34.1459 30.9373 33.9167 31.3957 33.9167C32.0832 33.9167 32.5415 33.9167 33.229 33.9167ZM81.5832 34.1459C81.5832 33.4584 81.5832 32.7709 81.5832 32.0834C81.5832 30.4792 80.8957 29.7917 79.2915 30.0209C78.604 30.0209 78.1457 30.4792 77.9165 31.1667C77.9165 32.0834 77.9165 33 77.9165 33.6875C79.2915 33.9167 80.4373 34.1459 81.5832 34.1459Z" fill="white"/>
<path d="M47.2292 47.2292C47.2292 44.7083 47.2292 42.4167 47.2292 40.125C47.2292 37.6042 48.8333 36 51.3542 36C53.875 36 56.3958 36 58.6875 36C61.2083 36 62.8125 37.6042 62.8125 40.125C62.8125 42.1875 62.8125 44.25 62.8125 46.5417C62.8125 46.7708 62.8125 47 62.8125 47.4583C63.5 47.4583 63.9583 47.4583 64.4167 47.4583C66.4792 47.4583 68.3125 47.4583 70.375 47.4583C72.4375 47.4583 74.0417 49.0625 74.2708 51.125C74.2708 53.875 74.2708 56.625 74.2708 59.375C74.2708 61.6667 72.6667 63.0417 70.375 63.0417C68.3125 63.0417 66.0208 63.0417 63.9583 63.0417C63.7292 63.0417 63.5 63.0417 63.0417 63.0417C63.0417 63.2708 63.0417 63.5 63.0417 63.9583C63.0417 66.0208 63.0417 68.3125 63.0417 70.375C63.0417 72.8958 61.4375 74.5 58.9167 74.5C56.3958 74.5 53.875 74.5 51.3542 74.5C48.8333 74.5 47.2292 72.8958 47.2292 70.375C47.2292 68.3125 47.2292 66.25 47.2292 63.9583C47.2292 63.7292 47.2292 63.5 47.2292 63.0417C46.7708 63.0417 46.5417 63.0417 46.0833 63.0417C45.3958 63.0417 44.9375 62.5833 44.9375 61.8958C44.9375 61.4375 45.3958 60.9792 46.0833 60.9792C46.7708 60.9792 47.4583 60.9792 48.1458 60.9792C49.0625 60.9792 49.2917 61.4375 49.2917 62.125C49.2917 64.6458 49.2917 67.3958 49.2917 69.9167C49.2917 71.5208 49.9792 72.2083 51.5833 72.2083C54.1042 72.2083 56.3958 72.2083 58.9167 72.2083C60.2917 72.2083 60.9792 71.5208 60.9792 70.1458C60.9792 67.625 60.9792 64.875 60.9792 62.3542C60.9792 61.2083 61.2083 60.9792 62.3542 60.9792C64.875 60.9792 67.3958 60.9792 69.9167 60.9792C71.5208 60.9792 72.2083 60.2917 72.2083 58.6875C72.2083 56.1667 72.2083 53.875 72.2083 51.3542C72.2083 49.75 71.5208 49.2917 70.1458 49.2917C67.625 49.2917 64.875 49.2917 62.3542 49.2917C61.2083 49.2917 60.9792 49.0625 60.9792 47.9167C60.9792 45.3958 60.9792 42.6458 60.9792 40.125C60.9792 38.5208 60.2917 37.8333 58.6875 37.8333C56.1667 37.8333 53.875 37.8333 51.3542 37.8333C49.75 37.8333 49.2917 38.5208 49.2917 39.8958C49.2917 42.4167 49.2917 45.1667 49.2917 47.6875C49.2917 48.8333 49.0625 49.0625 47.9167 49.0625C45.3958 49.0625 42.6458 49.0625 40.125 49.0625C38.75 49.0625 38.0625 49.75 38.0625 51.125C38.0625 53.6458 38.0625 56.1667 38.0625 58.6875C38.0625 60.0625 38.75 60.75 40.125 60.75C40.8125 60.75 41.2708 60.75 41.9583 60.75C42.6458 60.75 43.1042 61.2083 43.1042 61.6667C43.1042 62.3542 42.6458 62.8125 41.9583 62.8125C41.0417 62.8125 40.125 62.8125 39.2083 62.8125C37.375 62.5833 36 61.2083 36 59.375C36 56.625 36 53.6458 36 50.8958C36 48.8333 37.6042 47.2292 39.6667 47.2292C41.9583 47.2292 44.25 47.2292 46.3125 47.2292C46.7708 47.2292 47 47.2292 47.2292 47.2292Z" fill="white"/>
</g>
<defs>
<clipPath id="clip0_1_1015">
<rect width="110" height="110" fill="white"/>
</clipPath>
</defs>
</svg>
