<svg width="51" height="51" fill="none" xmlns="http://www.w3.org/2000/svg"><path d="M47.073 26.405c0-1.623-.146-3.184-.416-4.683H25.098v8.865h12.32c-.542 2.851-2.165 5.265-4.6 6.888v5.764h7.43c4.328-3.995 6.825-9.863 6.825-16.834z" fill="#4285F4"/><path d="M25.099 48.775c6.18 0 11.362-2.04 15.149-5.535l-7.429-5.765c-2.04 1.374-4.64 2.206-7.72 2.206-5.952 0-11.008-4.016-12.819-9.426H4.664v5.91c3.767 7.47 11.487 12.61 20.435 12.61z" fill="#34A853"/><path d="M12.28 30.234a13.717 13.717 0 01-.728-4.35c0-1.519.27-2.975.728-4.349v-5.91H4.664a22.608 22.608 0 00-2.456 10.26 22.6 22.6 0 002.456 10.258l5.93-4.62 1.686-1.29z" fill="#FBBC05"/><path d="M25.099 12.11c3.37 0 6.367 1.165 8.76 3.412l6.555-6.555C36.44 5.263 31.28 2.995 25.1 2.995c-8.948 0-16.668 5.14-20.435 12.631l7.616 5.91c1.81-5.41 6.867-9.427 12.819-9.427z" fill="#EA4335"/></svg>