<svg width="20" height="18" viewBox="0 0 20 18" fill="none" xmlns="http://www.w3.org/2000/svg">
<g clip-path="url(#clip0_3746_6073)">
<path d="M10.6493 0.930527L12.8034 5.30491L17.6748 6.00084C18.1167 6.1113 18.3929 6.35432 18.5033 6.7299C18.6359 7.12757 18.5475 7.49211 18.2382 7.8235L14.7254 11.2037L15.5539 16.042C15.6202 16.4839 15.4876 16.8263 15.1563 17.0694C14.8249 17.3124 14.4493 17.3345 14.0295 17.1356L9.68827 14.9153L5.34702 17.1688C4.92726 17.3676 4.55168 17.3455 4.22029 17.1025C3.88889 16.8595 3.75634 16.517 3.82262 16.0752L4.6511 11.2368L1.13833 7.8235C0.829033 7.49211 0.740662 7.12757 0.873219 6.7299C0.983683 6.35432 1.25984 6.12235 1.7017 6.03398L6.57318 5.30491L8.72723 0.930527C8.97025 0.532856 9.2906 0.334019 9.68827 0.334019C10.108 0.334019 10.4284 0.532856 10.6493 0.930527Z" fill="#FFB539"/>
</g>
<defs>
<clipPath id="clip0_3746_6073">
<rect width="19.0882" height="16.9673" fill="white" transform="matrix(1 0 0 -1 0.143799 17.3016)"/>
</clipPath>
</defs>
</svg>
