<svg width="59" height="39" fill="none" xmlns="http://www.w3.org/2000/svg"><path d="M.305 8.656c0-1.432.325-2.702.976-3.808A8.258 8.258 0 013.625 2.21 11.64 11.64 0 016.848.55C7.954.225 8.996.062 9.973.062c1.497 0 3.027.326 4.59.977 1.497.716 2.864 1.725 4.101 3.027s2.246 2.865 3.027 4.688c.782 1.823 1.172 3.841 1.172 6.055 0 3.84-.716 7.129-2.148 9.863-1.497 2.734-3.255 5.013-5.274 6.836-2.083 1.888-4.199 3.353-6.347 4.394-2.214 1.107-4.037 1.888-5.469 2.344v-3.125a773.587 773.587 0 004.2-2.539 23.483 23.483 0 004.003-3.223 17.342 17.342 0 002.93-4.199c.781-1.562 1.172-3.32 1.172-5.273 0-.977-.098-1.758-.293-2.344-.196-.586-.424-1.042-.684-1.367-.325-.326-.618-.554-.879-.684-.325-.13-.586-.195-.781-.195-.716 0-1.595.195-2.637.586-1.041.456-2.018.683-2.93.683-.846 0-1.692-.195-2.538-.585a6.53 6.53 0 01-2.442-1.563c-.716-.651-1.302-1.465-1.758-2.441C.533 11 .305 9.893.305 8.657zm35.254.196c0-1.433.325-2.702.976-3.809a7.952 7.952 0 012.344-2.734A13.44 13.44 0 0142.102.746a11.397 11.397 0 013.222-.488c1.498 0 2.995.325 4.492.976a14.829 14.829 0 014.102 2.93c1.237 1.302 2.246 2.865 3.027 4.688.716 1.822 1.075 3.84 1.075 6.054 0 3.841-.717 7.13-2.149 9.864-1.497 2.799-3.255 5.11-5.273 6.933-2.084 1.888-4.2 3.353-6.348 4.395-2.148 1.106-3.939 1.888-5.371 2.343V35.22a773.297 773.297 0 004.2-2.54 23.483 23.483 0 004.003-3.222 19.74 19.74 0 003.027-4.2c.782-1.497 1.172-3.254 1.172-5.273 0-1.823-.358-3.027-1.074-3.613-.781-.586-1.367-.879-1.758-.879-.65 0-1.497.195-2.539.586-1.041.39-2.018.586-2.93.586-.846 0-1.692-.195-2.539-.586A6.53 6.53 0 0138 14.516c-.716-.651-1.302-1.465-1.758-2.442-.456-.911-.683-1.986-.683-3.222z" fill="#000"/></svg>