<svg width="152" height="139" viewBox="0 0 152 139" fill="none" xmlns="http://www.w3.org/2000/svg">
<path d="M11.4704 93.0024C18.4545 81.0849 25.6971 69.7062 35.6668 59.9966C45.7684 50.1526 58.1624 42.4187 71.8931 38.8588C84.5679 35.5704 98.4281 35.6572 110.667 40.5991C116.008 42.7566 121.037 45.7344 125.393 49.5086C127.727 51.531 129.901 53.7554 131.792 56.2062C133.503 58.424 134.58 60.9407 136.939 62.5132C138.642 63.6557 141.026 61.9489 140.915 60.0491C140.654 55.6843 136.271 51.3465 133.382 48.3124C129.961 44.7183 125.988 41.641 121.751 39.0813C113.115 33.87 103.155 30.9806 93.0955 30.4894C69.4714 29.3321 46.8332 42.5361 31.322 59.4961C22.6236 69.007 15.0615 80.3409 9.81505 92.122C9.31078 93.2164 10.8506 94.0565 11.4704 93.0024Z" fill="#D8DDE1"/>
<path d="M124.482 56.3245C124.397 58.6253 128.089 59.621 130.221 60.6319C133.596 62.2311 136.962 63.7791 140.38 65.2799C142.193 66.0743 144.778 64.8143 144.092 62.5197C143.18 59.4808 142.35 56.4106 141.831 53.2783C141.354 50.391 141.517 47.4493 140.353 44.7471C139.584 42.9542 136.996 43.6325 136.473 45.2C135.548 47.9499 136.245 51.0493 136.699 53.8666C137.243 57.2406 138.083 60.523 139.239 63.7384C140.277 62.7336 141.326 61.7304 142.364 60.7256C138.862 59.4108 135.353 58.167 131.817 56.9631C129.573 56.1951 126.766 54.4028 124.613 56.0185C124.5 56.1005 124.464 56.1943 124.482 56.3245Z" fill="#D8DDE1"/>
</svg>
