<svg width="152" height="140" viewBox="0 0 152 140" fill="none" xmlns="http://www.w3.org/2000/svg">
<path d="M11.5076 46.1644C18.4916 58.0818 25.7342 69.4605 35.7039 79.1702C45.8056 89.0142 58.1996 96.7481 71.9302 100.308C84.6051 103.596 98.4653 103.51 110.704 98.5676C116.045 96.4101 121.074 93.4323 125.43 89.6581C127.764 87.6358 129.939 85.4114 131.829 82.9606C133.54 80.7428 134.617 78.226 136.976 76.6535C138.68 75.5111 141.063 77.2179 140.952 79.1176C140.692 83.4824 136.308 87.8202 133.419 90.8544C129.998 94.4485 126.025 97.5258 121.788 100.085C113.152 105.297 103.192 108.186 93.1327 108.677C69.5086 109.835 46.8704 96.6307 31.3592 79.6707C22.6608 70.1598 15.0986 58.8259 9.85222 47.0447C9.34795 45.9504 10.8878 45.1103 11.5076 46.1644Z" fill="#D8DDE1"/>
<path d="M124.519 82.8422C124.434 80.5414 128.126 79.5457 130.258 78.5349C133.634 76.9356 136.999 75.3876 140.417 73.8868C142.23 73.0924 144.815 74.3525 144.129 76.647C143.217 79.6859 142.387 82.7561 141.868 85.8884C141.391 88.7757 141.555 91.7175 140.39 94.4196C139.621 96.2126 137.033 95.5343 136.511 93.9667C135.585 91.2168 136.282 88.1175 136.737 85.3001C137.28 81.9262 138.12 78.6438 139.276 75.4283C140.314 76.4331 141.363 77.4364 142.401 78.4412C138.899 79.756 135.391 80.9998 131.854 82.2037C129.611 82.9717 126.803 84.764 124.65 83.1482C124.537 83.0662 124.501 82.9724 124.519 82.8422Z" fill="#D8DDE1"/>
</svg>
