<svg width="51" height="51" viewBox="0 0 51 51" fill="none" xmlns="http://www.w3.org/2000/svg">
<path fill-rule="evenodd" clip-rule="evenodd" d="M33.3886 32.8896H43.1135C44.1275 32.8896 45.1316 32.69 46.0684 32.3022C47.0052 31.9144 47.8564 31.3459 48.5734 30.6292C49.2904 29.9126 49.8592 29.0618 50.2472 28.1255C50.6352 27.1891 50.8349 26.1856 50.8349 25.172C50.8349 24.1585 50.6352 23.155 50.2472 22.2186C49.8592 21.2823 49.2904 20.4315 48.5734 19.7149C47.8564 18.9982 47.0052 18.4297 46.0684 18.0419C45.1316 17.6539 44.1275 17.4543 43.1135 17.4543H33.3886V7.73402C33.3886 5.68717 32.5751 3.72414 31.1271 2.27679C29.6791 0.829452 27.7151 0.0163575 25.6673 0.0163575C24.6535 0.0162288 23.6497 0.215814 22.7131 0.603678C21.7764 0.991541 20.9255 1.56008 20.2088 2.27682C19.4923 2.99357 18.924 3.84442 18.5365 4.78081C18.149 5.71718 17.95 6.72071 17.9508 7.73402L17.9459 17.4543H8.22587C6.17805 17.4543 4.21406 18.2674 2.76603 19.7149C1.31799 21.1622 0.504517 23.1251 0.504517 25.172C0.504517 27.2189 1.31799 29.1819 2.76603 30.6292C4.21406 32.0766 6.17805 32.8896 8.22587 32.8896H17.9508V42.6101C17.9249 43.6395 18.1053 44.6639 18.4816 45.6225C18.8579 46.5813 19.4224 47.4551 20.1417 48.1923C20.861 48.9296 21.7207 49.5156 22.6701 49.9156C23.6195 50.3158 24.6394 50.5219 25.6698 50.5219C26.7001 50.5219 27.7199 50.3158 28.6693 49.9156C29.6188 49.5156 30.4784 48.9296 31.1978 48.1923C31.917 47.4551 32.4816 46.5813 32.8579 45.6225C33.2341 44.6639 33.4146 43.6395 33.3886 42.6101V32.8896Z" fill="#14457B"/>
</svg>
