<svg width="78" height="79" viewBox="0 0 78 79" fill="none" xmlns="http://www.w3.org/2000/svg">
<g clip-path="url(#clip0_3746_5970)">
<g clip-path="url(#clip1_3746_5970)">
<g clip-path="url(#clip2_3746_5970)">
<path fill-rule="evenodd" clip-rule="evenodd" d="M39.192 9.9135C40.373 9.91357 41.5424 10.1461 42.6334 10.5979C43.7245 11.0497 44.7157 11.7119 45.5508 12.5466C46.3858 13.3814 47.048 14.3723 47.4999 15.4629C47.9517 16.5535 48.1842 17.7224 48.1841 18.9028V30.2246H59.5133C60.6942 30.2247 61.8637 30.4573 62.9547 30.9091C64.0457 31.3608 65.0371 32.023 65.8721 32.8578C66.7071 33.6925 67.3694 34.6835 67.8213 35.7741C68.2731 36.8646 68.5056 38.0335 68.5055 39.2139C68.5056 40.3943 68.2731 41.5632 67.8213 42.6538C67.3694 43.7444 66.7071 44.7353 65.8721 45.5701C65.0371 46.4048 64.0457 47.067 62.9547 47.5188C61.8637 47.9706 60.6942 48.2032 59.5133 48.2032H48.1841V59.5256C48.1842 60.706 47.9517 61.8748 47.4999 62.9654C47.048 64.056 46.3858 65.047 45.5508 65.8817C44.7157 66.7165 43.7245 67.3786 42.6334 67.8304C41.5424 68.2822 40.373 68.5148 39.192 68.5149C38.0111 68.5149 36.8417 68.2824 35.7507 67.8306C34.6597 67.3789 33.6683 66.7167 32.8333 65.882C31.9983 65.0473 31.336 64.0564 30.8841 62.9658C30.4323 61.8753 30.1998 60.7064 30.1999 59.5261V48.2037H18.8708C16.4855 48.2037 14.1979 47.2566 12.5113 45.5708C10.8247 43.885 9.87709 41.5985 9.87709 39.2144C9.87709 36.8303 10.8247 34.5438 12.5113 32.858C14.1979 31.1722 16.4855 30.2251 18.8708 30.2251H30.1999V18.9028C30.1998 17.7224 30.4323 16.5535 30.8841 15.4629C31.336 14.3723 31.9983 13.3814 32.8333 12.5466C33.6683 11.7119 34.6595 11.0497 35.7506 10.5979C36.8416 10.1461 38.011 9.91357 39.192 9.9135ZM39.192 0.930542C34.425 0.936093 29.8549 2.83142 26.4843 6.20072C23.1137 9.57001 21.2178 14.1381 21.2126 18.9028V21.2436H18.8708C14.1182 21.2684 9.56878 23.1727 6.21696 26.5405C2.86514 29.9082 0.983521 34.4653 0.983521 39.2156C0.983521 43.966 2.86514 48.5231 6.21696 51.8908C9.56878 55.2585 14.1182 57.1629 18.8708 57.1876H21.2126V59.5285C21.2126 64.2946 23.1069 68.8656 26.4787 72.2358C29.8505 75.6059 34.4236 77.4993 39.192 77.4993C43.9604 77.4993 48.5335 75.6059 51.9053 72.2358C55.2771 68.8656 57.1714 64.2946 57.1714 59.5285V57.1876H59.5133C64.2821 57.1876 68.8556 55.2941 72.2277 51.9237C75.5997 48.5532 77.4941 43.9819 77.4941 39.2154C77.4941 34.4488 75.5997 29.8775 72.2277 26.5071C68.8556 23.1366 64.2821 21.2431 59.5133 21.2431H57.1714V18.9023C57.1662 14.1376 55.2704 9.56952 51.8997 6.20023C48.5291 2.83094 43.959 0.936093 39.192 0.930542Z" fill="#04CE78"/>
</g>
</g>
</g>
<defs>
<clipPath id="clip0_3746_5970">
<rect width="78" height="78" fill="white" transform="translate(0 0.359985)"/>
</clipPath>
<clipPath id="clip1_3746_5970">
<rect width="78" height="78" fill="white" transform="translate(0 0.359985)"/>
</clipPath>
<clipPath id="clip2_3746_5970">
<rect width="78" height="78" fill="white" transform="translate(0 0.359985)"/>
</clipPath>
</defs>
</svg>
