<svg width="52" height="52" viewBox="0 0 52 52" fill="none" xmlns="http://www.w3.org/2000/svg">
<g clip-path="url(#clip0_3746_5976)">
<path fill-rule="evenodd" clip-rule="evenodd" d="M33.7245 33.4877H43.4338C45.4783 33.4877 47.4391 32.6759 48.8848 31.2309C50.3305 29.7858 51.1427 27.826 51.1427 25.7824C51.1427 23.7389 50.3305 21.779 48.8848 20.334C47.4391 18.889 45.4783 18.0772 43.4338 18.0772H33.7245V8.37251C33.7245 6.32895 32.9123 4.36905 31.4666 2.92404C30.0209 1.47902 28.0601 0.667237 26.0155 0.667237C25.0033 0.66698 24.0011 0.866121 23.0659 1.25331C22.1308 1.64051 21.2812 2.20819 20.5656 2.9238C19.8501 3.63941 19.2828 4.48897 18.896 5.4239C18.5092 6.35884 18.3106 7.3608 18.3115 8.37251L18.3066 18.0772H8.60213C6.5576 18.0772 4.59677 18.889 3.15107 20.334C1.70536 21.779 0.893188 23.7389 0.893188 25.7824C0.893188 27.826 1.70536 29.7858 3.15107 31.2309C4.59677 32.6759 6.5576 33.4877 8.60213 33.4877H18.3115V43.1924C18.2856 44.2202 18.4658 45.2429 18.8414 46.2001C19.2171 47.1572 19.7807 48.0296 20.4988 48.7657C21.217 49.5018 22.0753 50.0869 23.0232 50.4863C23.971 50.8857 24.9894 51.0915 26.018 51.0915C27.0467 51.0915 28.0649 50.8857 29.0128 50.4863C29.9606 50.0869 30.8189 49.5018 31.5371 48.7657C32.2553 48.0296 32.8189 47.1572 33.1945 46.2001C33.5702 45.2429 33.7503 44.2202 33.7245 43.1924V33.4877Z" fill="#04CE78"/>
</g>
<defs>
<clipPath id="clip0_3746_5976">
<rect width="51" height="51" fill="white" transform="translate(0.810059 0.5)"/>
</clipPath>
</defs>
</svg>
