<svg width="60" height="60" viewBox="0 0 60 60" fill="none" xmlns="http://www.w3.org/2000/svg">
<path d="M44.7824 5.75349C48.266 5.75732 51.6058 7.14287 54.0692 9.60617C56.5325 12.0695 57.918 15.4093 57.9218 18.893C57.9218 18.9146 57.9218 18.9371 57.9218 18.9587C57.9218 19.0021 57.9274 19.0671 57.9323 19.153C58.2019 23.9246 57.4219 36.8081 44.3868 53.3166C44.2694 53.4649 44.1034 53.5669 43.9181 53.6047C43.7328 53.6425 43.5401 53.6136 43.374 53.5233C43.2079 53.4329 43.079 53.2867 43.0102 53.1106C42.9413 52.9345 42.9368 52.7397 42.9976 52.5606C43.0345 52.4515 46.5969 41.7805 44.1628 32.0164C40.7346 31.8555 37.5054 30.3596 35.1657 27.8487C32.826 25.3377 31.5616 22.0109 31.6429 18.5799C31.7244 15.1488 33.145 11.8857 35.601 9.48849C38.057 7.09124 41.3536 5.7501 44.7856 5.75189L44.7824 5.75349ZM56.3168 18.8472C56.308 16.5678 55.6239 14.3422 54.3512 12.4513C53.0783 10.5604 51.2738 9.08899 49.1654 8.22288C47.057 7.35675 44.7392 7.13472 42.5047 7.58484C40.2702 8.03496 38.2192 9.13704 36.6106 10.752C35.0019 12.3668 33.9079 14.4221 33.4664 16.6584C33.0249 18.8946 33.256 21.2115 34.1304 23.3165C35.0046 25.4216 36.4831 27.2203 38.3789 28.4858C40.2748 29.7512 42.503 30.4266 44.7824 30.4266C44.9582 30.4266 45.129 30.4844 45.2688 30.5909C45.4085 30.6975 45.5095 30.847 45.556 31.0165C47.4018 37.7334 46.4966 44.7795 45.5793 49.0553C55.9188 34.5715 56.568 23.5162 56.3265 19.2428C56.3156 19.1112 56.3124 18.9792 56.3168 18.8472Z" fill="#04CE78"/>
<path d="M14.9403 5.75349C18.4239 5.75732 21.7638 7.14287 24.2271 9.60617C26.6903 12.0695 28.0759 15.4093 28.0798 18.893C28.0798 18.9146 28.0798 18.9371 28.0798 18.9587C28.0798 19.0021 28.0854 19.0671 28.0901 19.153C28.3598 23.9246 27.5797 36.8081 14.5446 53.3166C14.4272 53.4649 14.2613 53.5669 14.076 53.6047C13.8907 53.6425 13.6979 53.6136 13.5319 53.5233C13.3658 53.4329 13.237 53.2867 13.168 53.1106C13.0992 52.9345 13.0947 52.7397 13.1555 52.5606C13.1924 52.4515 16.7547 41.7805 14.3207 32.0164C10.8925 31.8555 7.6632 30.3596 5.32354 27.8487C2.98387 25.3377 1.71953 22.0109 1.80088 18.5799C1.88222 15.1488 3.30282 11.8857 5.75887 9.48849C8.21492 7.09124 11.5115 5.7501 14.9434 5.75189L14.9403 5.75349ZM26.4748 18.8472C26.4658 16.5678 25.7818 14.3422 24.509 12.4513C23.2362 10.5604 21.4316 9.08899 19.3232 8.22288C17.2148 7.35675 14.8971 7.13472 12.6626 7.58484C10.4281 8.03496 8.37706 9.13704 6.76843 10.752C5.1598 12.3668 4.06571 14.4221 3.62428 16.6584C3.18285 18.8946 3.41387 21.2115 4.2882 23.3165C5.16252 25.4216 6.64093 27.2203 8.53677 28.4858C10.4326 29.7512 12.6609 30.4266 14.9403 30.4266C15.116 30.4266 15.2869 30.4844 15.4267 30.5909C15.5665 30.6975 15.6673 30.847 15.7139 31.0165C17.5597 37.7334 16.6544 44.7795 15.7372 49.0553C26.0767 34.5715 26.7267 23.5162 26.4851 19.2428C26.474 19.1113 26.4705 18.9792 26.4748 18.8472Z" fill="#04CE78"/>
</svg>
