<svg width="56" height="56" fill="none" xmlns="http://www.w3.org/2000/svg"><path d="M14.007 39.386a.874.874 0 00.698-1.402A16.481 16.481 0 0111.375 28c0-1.141.117-2.284.348-3.395a.875.875 0 10-1.713-.355A18.454 18.454 0 009.625 28a18.23 18.23 0 003.682 11.037c.173.23.436.349.7.349zm31.115-6.864a.878.878 0 00.856-.695A18.77 18.77 0 0046.375 28c0-3.999-1.262-7.802-3.65-10.994a.875.875 0 10-1.402 1.048A16.47 16.47 0 0144.625 28c0 1.164-.12 2.331-.36 3.467a.875.875 0 00.857 1.055zM25.375 36.75h5.25a.875.875 0 00.875-.875V31.5h4.375a.875.875 0 00.875-.875v-5.25a.875.875 0 00-.875-.875H31.5v-4.375a.875.875 0 00-.875-.875h-5.25a.875.875 0 00-.875.875V24.5h-4.375a.875.875 0 00-.875.875v5.25c0 .483.392.875.875.875H24.5v4.375c0 .483.392.875.875.875zM29.75 35h-3.5v-4.375a.875.875 0 00-.875-.875H21v-3.5h4.375a.875.875 0 00.875-.875V21h3.5v4.375c0 .483.392.875.875.875H35v3.5h-4.375a.875.875 0 00-.875.875V35zm-5.497 17.5h9.172c1.71 0 3.38-.382 4.963-1.134l6.13-2.978a11.408 11.408 0 014.97-1.138h3.887a.875.875 0 000-1.75h-3.887a13.14 13.14 0 00-5.731 1.313l-6.128 2.976a9.757 9.757 0 01-4.204.961h-8.997l-7.642-3.154c0-.073-.103-.75.233-1.326.513-.882 1.697-.91 2.595-.779 1.304.202 2.382.564 3.332.884l.36.12a.876.876 0 00.552-1.66l-.354-.117c-1.018-.343-2.172-.732-3.631-.956-3.608-.525-4.51 1.73-4.704 2.431-.32 1.157-.054 2.604.945 3.022l7.807 3.222a.94.94 0 00.332.063zm11.386-12.465a.877.877 0 00.794-.506c1.715-3.69 6.17-4.22 9.483-2.846a.885.885 0 00.337.067h7.122a.875.875 0 000-1.75h-6.953c-4.737-1.881-9.688-.266-11.578 3.792a.877.877 0 00.425 1.164.933.933 0 00.37.079z" fill="#fff"/><path d="M27.346 48.34a.884.884 0 00.334-.066l10.02-4.16a.875.875 0 10-.672-1.617l-9.14 3.794c-.383-1.804.604-3.208 2.949-4.179l5.15-2.139a.876.876 0 00-.672-1.617l-5.148 2.139c-3.607 1.495-4.93 4.156-3.63 7.301a.87.87 0 00.474.474c.107.047.22.07.335.07zm9.804-36.022c2.754 0 3.506-1.88 3.681-2.51.32-1.156.054-2.603-.945-3.021L32.08 3.565a.9.9 0 00-.332-.065h-9.17c-1.71 0-3.38.381-4.963 1.134l-6.13 2.978A11.422 11.422 0 016.512 8.75H2.625a.875.875 0 000 1.75h3.887a13.14 13.14 0 005.731-1.313l6.129-2.974a9.735 9.735 0 014.203-.963h8.997l7.644 3.153c0 .074.103.751-.233 1.327-.514.882-1.696.91-2.595.779-1.304-.202-2.382-.564-3.332-.884l-.36-.12a.874.874 0 10-.552 1.66l.354.117c1.018.343 2.171.732 3.63.956.368.056.71.08 1.023.08zm-23.603 9.461c3.307 0 6.25-1.652 7.609-4.571a.877.877 0 00-1.59-.739c-1.712 3.69-6.166 4.216-9.482 2.846a.918.918 0 00-.336-.065H2.625a.875.875 0 000 1.75h6.953c1.33.527 2.677.779 3.969.779z" fill="#fff"/><path d="M20.349 17.71a.878.878 0 00.336-.067l5.149-2.138c3.606-1.495 4.93-4.156 3.629-7.301a.88.88 0 00-1.145-.474l-10.02 4.16a.875.875 0 10.672 1.617l9.14-3.795c.384 1.805-.604 3.208-2.948 4.18l-5.15 2.138a.876.876 0 00-.473 1.144.882.882 0 00.81.536zm-3.75 24.351a.876.876 0 00.62-1.493c-.344-.34-.958-.402-1.3-.06-.34.34-.402.834-.06 1.175l.122.123c.17.17.394.255.618.255zm22.75-26.25a.875.875 0 00.614-1.498l-.124-.122a.874.874 0 10-1.229 1.246l.124.122a.87.87 0 00.615.252z" fill="#fff"/></svg>