<svg width="50" height="50" fill="none" xmlns="http://www.w3.org/2000/svg"><path fill-rule="evenodd" clip-rule="evenodd" d="M45.673 19.804c-.036 2.427-.068 4.564 1.153 7.093 0 0 3.606 3.245 3.13 5.848-.474 2.602-5.171 3.32-5.171 3.32 0 10.517-10.043 9.848-15.056 8.859l-.299-.061c-1.5-.311-2.48-.632-2.48-.632v1.976s-.104.33-.426.797a4.66 4.66 0 01-.306.396c-.94 1.106-2.983 2.58-7.194 2.58-3.173.25-8.603-1.826-10.042-4.753V36.27C3.908 32.478 0 27.37 0 20.75 0 15.246 2.297 9.968 6.385 6.078 10.472 2.188 16.017 0 21.799 0c4.4-.009 8.754.904 12.78 2.68a20 20 0 018.026 5.846 16.43 16.43 0 013.071 9.13c.018.75.007 1.46-.003 2.148zm-15.881 2.252c-.217.243-.33.37-1.01.37a5.416 5.416 0 01-3.008-.905 6.059 6.059 0 01-2.234 1.454 2.44 2.44 0 00-.3.167c-.479.304-.764.697-1.055 1.16l-.15.244a35.95 35.95 0 01-.228.368 5.14 5.14 0 00-.813 2.775v5.525h-5.716c-.145-1.183-.414-2.32-1.07-3.328a8.055 8.055 0 00-2.57-2.491 5.347 5.347 0 01-2.25-1.761 5.139 5.139 0 01-.985-2.64 5.118 5.118 0 01-.361-6.74 4.723 4.723 0 01-.19-1.382A5.139 5.139 0 018.9 11.77l2.739-1.888a5.278 5.278 0 011.972-2.25 5.459 5.459 0 014.178-.696 5.417 5.417 0 013.206-1.38l5.819.394a5.417 5.417 0 013.152 2.128h.38l3.36 1.144a5.195 5.195 0 011.881 2.945 5.416 5.416 0 012.68 2.43 5.194 5.194 0 01.513 3.53 5.313 5.313 0 01-1.887 3.058l-3.445 1.22a5.458 5.458 0 01-3.046-.884 2.833 2.833 0 00-.61.535m9.098 5.027a2.083 2.083 0 11-4.167 0 2.083 2.083 0 014.167 0zm-18.056 9.028v2.778h-5.555v-2.778h5.555zm-5.555 5.556v2.778h5.555v-2.778h-5.555z" fill="#D8315B"/></svg>