<svg width="46" height="38" fill="none" xmlns="http://www.w3.org/2000/svg"><path d="M45.917 10.667v16.666l-6.25 2.084-6.438-11.459c-.542-.958-2.062-.479-1.896.646l2.084 19.146-20.834-8.333 2.396-16.792A14.417 14.417 0 0129.25.25h16.668l-3.292 4.938c1.958 1.062 3.292 3.104 3.292 5.479zM6.333 4.417h7.459A18.132 18.132 0 0117.604.25H6.334A2.09 2.09 0 004.25 2.333a2.09 2.09 0 002.083 2.084zm3.834 12.5h-8A2.09 2.09 0 00.083 19a2.09 2.09 0 002.084 2.083h7.395l.605-4.166zM4.25 12.75h6.5l.104-.708c.167-1.209.458-2.354.854-3.459H4.25a2.09 2.09 0 00-2.083 2.084A2.09 2.09 0 004.25 12.75z" fill="#D8315B"/></svg>