<svg width="56" height="56" fill="none" xmlns="http://www.w3.org/2000/svg"><path d="M43.233 52.895H24.639a.875.875 0 01-.857-.696l-.78-3.75a1.346 1.346 0 00-1.313-1.069h-4.827a6.291 6.291 0 01-6.204-5.209l-1.043-5.939-2.634-1.224a2.703 2.703 0 01-1.126-3.929l3.667-5.636v-2.616c0-10.875 8.847-19.722 19.721-19.722h1.292c9.06 0 17.025 6.114 19.367 14.867a20.142 20.142 0 01-2.24 15.603l-3.628 5.962a9.07 9.07 0 00-1.135 6.579l1.19 5.728a.87.87 0 01-.856 1.051zm-17.882-1.75h16.806l-.97-4.675a10.81 10.81 0 011.353-7.845l3.628-5.961a18.379 18.379 0 002.044-14.24c-2.137-7.99-9.407-13.57-17.676-13.57h-1.292c-9.91 0-17.971 8.063-17.971 17.972v2.876a.87.87 0 01-.142.477l-3.81 5.854a.944.944 0 00-.118.784c.078.27.26.485.515.603l3.047 1.417c.26.121.443.36.493.642l1.122 6.389a4.543 4.543 0 004.48 3.761h4.828a3.104 3.104 0 013.026 2.463l.637 3.053zm4.653-25.71a2.96 2.96 0 01-2.102-.87l-5.699-5.698a5.21 5.21 0 01-1.517-3.926 5.232 5.232 0 011.894-3.773c2.039-1.683 5.163-1.475 7.112.474l.312.311.312-.311c1.95-1.95 5.073-2.157 7.111-.473a5.23 5.23 0 011.895 3.772 5.216 5.216 0 01-1.519 3.927l-5.698 5.699a2.962 2.962 0 01-2.101.867zm-4.192-13.66a3.31 3.31 0 00-2.118.743 3.427 3.427 0 00-1.26 2.506 3.46 3.46 0 001.007 2.606l5.7 5.7a1.224 1.224 0 001.728 0l5.699-5.7a3.46 3.46 0 001.007-2.606 3.427 3.427 0 00-1.26-2.506c-1.35-1.116-3.442-.958-4.76.361l-.93.931a.874.874 0 01-1.238 0l-.93-.93a3.758 3.758 0 00-2.645-1.104zm-6.035 14.601a.875.875 0 00-1.075-1.38c-1.057.822-2.858.82-3.913 0a.875.875 0 00-1.074 1.38c.834.65 1.91 1.006 3.032 1.006 1.12 0 2.196-.357 3.03-1.006z" fill="#fff"/></svg>