<svg width="52" height="52" fill="none" xmlns="http://www.w3.org/2000/svg"><g clip-path="url(#clip0_2002_274)" fill="#fff"><path d="M26.09 6.608a1.023 1.023 0 01-1.022-1.023V1.023a1.023 1.023 0 112.045 0v4.562c0 .565-.457 1.023-1.022 1.023zM1.089 35.14l1.807-1.803a3.39 3.39 0 012.412-.995c.584 0 1.144.145 1.64.417l3.405-3.401-.165-.166a3.55 3.55 0 010-5.012 3.511 3.511 0 011.78-.963 3.573 3.573 0 01-.14-.995c0-.95.368-1.841 1.036-2.507a3.511 3.511 0 011.78-.962 3.573 3.573 0 01-.14-.995c0-.95.369-1.841 1.038-2.508a3.528 3.528 0 011.779-.96 3.556 3.556 0 01.896-3.505 3.55 3.55 0 012.887-1.013l6.748-1.277c1.029-.195 2.314-.324 3.125.416.051.046.103.1.154.16a3.557 3.557 0 013.733.82A3.52 3.52 0 0135.9 12.4c0 .342-.049.676-.141.995a3.51 3.51 0 011.777.961 3.514 3.514 0 011.04 2.505c0 .343-.049.678-.142.998a3.509 3.509 0 011.78.96 3.522 3.522 0 011.038 2.508c0 .727-.217 1.42-.619 2.005.508.172.973.459 1.362.848a3.55 3.55 0 010 5.016l-.166.164 3.406 3.4a3.42 3.42 0 013.869.67l1.808 1.803c.643.642.997 1.499.997 2.412 0 .913-.354 1.77-.997 2.413l-2.256 2.253a1.023 1.023 0 11-1.446-1.447l2.256-2.254c.256-.255.398-.598.398-.965 0-.366-.142-.71-.397-.964l-1.808-1.803a1.37 1.37 0 00-1.669-.205 1.025 1.025 0 01-.422.362L35.199 45.388a1.02 1.02 0 01-.493.498c-.22.248-.34.564-.34.902 0 .367.14.71.397.965l1.806 1.804a1.374 1.374 0 001.934.002l2.257-2.256a1.023 1.023 0 111.446 1.446l-2.258 2.258a3.405 3.405 0 01-2.41.993 3.41 3.41 0 01-2.413-.994l-1.808-1.805a3.386 3.386 0 01-.997-2.413c0-.652.181-1.274.518-1.811l-3.832-3.828a1.415 1.415 0 00-.013-.013c-.438-.453-1.66-.368-2.842-.286-.84.058-1.776.123-2.691.017l-4.197 4.193c.272.495.417 1.055.417 1.638 0 .912-.354 1.768-.997 2.41l-1.808 1.806a3.39 3.39 0 01-2.412.996 3.39 3.39 0 01-2.412-.996L1.088 39.964a3.386 3.386 0 01-.997-2.412c0-.913.354-1.77.998-2.413zm27.143-24.635l-4.437.84L26.451 14c.411-.198.974-.566 1.592-1.157.845-.809 1.45-1.743 1.505-2.325v-.001a.913.913 0 00.005-.101c-.134-.033-.49-.069-1.32.09zm5.186.834a1.509 1.509 0 00-1.909-.18c-.332 1.39-1.518 2.651-2.052 3.162-.396.379-1.666 1.514-2.947 1.826a1.492 1.492 0 00-.268.857 1.489 1.489 0 001.5 1.498c.403 0 .78-.155 1.063-.438l4.613-4.605c.281-.28.436-.657.436-1.06s-.155-.779-.436-1.06zm2.673 4.463a1.488 1.488 0 00-1.061-.437c-.404 0-.782.156-1.065.439l-3.714 3.707a1.505 1.505 0 00-.002 2.123c.283.281.661.437 1.065.437.404 0 .783-.156 1.065-.436l2.818-2.818.013-.012.882-.882c.283-.282.438-.66.438-1.062 0-.4-.156-.776-.44-1.059zm2.677 4.463a1.493 1.493 0 00-1.063-.436c-.4 0-.775.152-1.055.429l-2.826 2.825c-.282.28-.438.657-.438 1.059a1.491 1.491 0 001.5 1.496c.404 0 .783-.155 1.065-.436l1.024-1.024h.001l1.792-1.79a1.49 1.49 0 00.438-1.062c0-.402-.155-.779-.438-1.061zm1.782 5.36a1.495 1.495 0 00-1.064-.437c-.404 0-.782.155-1.065.438l-1.026 1.024a1.484 1.484 0 00-.437 1.06c0 .402.156.778.44 1.06a1.49 1.49 0 001.061.438c.404 0 .781-.155 1.064-.44l.129-.127.005-.006.006-.005.886-.883a1.502 1.502 0 000-2.121zM19.706 37.252c.399-.4 1.047-.4 1.446-.001l.91.908c.865.865 2.432.756 3.947.651 1.645-.114 3.347-.232 4.448.898l3.767 3.763 9.422-9.407-3.334-3.328a3.53 3.53 0 01-1.853.518 3.52 3.52 0 01-2.507-1.035 3.515 3.515 0 01-1.04-2.508v-.027h-.026c-.949 0-1.84-.367-2.506-1.032a3.515 3.515 0 01-1.04-2.509l.001-.026h-.027a3.533 3.533 0 01-3.546-3.568h-.027a3.52 3.52 0 01-2.509-1.036 3.52 3.52 0 01-1.036-2.508c0-.664.18-1.299.517-1.849l-2.922-2.92a1.5 1.5 0 00-.858-.424 1.504 1.504 0 00-1.27.421 1.505 1.505 0 00-.003 2.123l.89.886.009.009 1.025 1.023a1.023 1.023 0 11-1.445 1.448l-.894-.893-.136-.135a1.507 1.507 0 00-2.122.005 1.485 1.485 0 00-.438 1.06c0 .402.156.777.44 1.06l.895.897 1.025 1.022a1.023 1.023 0 11-1.443 1.449l-1.03-1.026a1.49 1.49 0 00-1.062-.437c-.403 0-.78.156-1.064.44-.282.28-.437.657-.437 1.059 0 .402.155.778.439 1.06l1.784 1.785a1.023 1.023 0 11-1.447 1.447l-.874-.875-.016-.014a1.489 1.489 0 00-1.062-.437c-.403 0-.78.155-1.063.438a1.502 1.502 0 000 2.12l.89.888.002.002 1.41 1.41a1.023 1.023 0 01-1.445 1.447l-.69-.69-3.309 3.305 9.42 9.41 3.376-3.372a4.017 4.017 0 01-.672-.54l-.91-.91a1.02 1.02 0 010-1.445zM2.534 38.517l10.962 10.95c.257.256.6.397.967.397s.71-.141.967-.397l1.807-1.806c.256-.255.398-.598.398-.963 0-.366-.142-.708-.398-.964L6.275 34.784a1.358 1.358 0 00-.967-.397c-.367 0-.71.141-.967.398l-1.807 1.802a1.353 1.353 0 00-.398.965c0 .367.142.71.398.965zM39.672 5.745a1.02 1.02 0 01-1.446-.001 1.023 1.023 0 01.002-1.447l3.727-3.72a1.023 1.023 0 111.445 1.45l-3.727 3.72zm-26.441.299c-.261 0-.523-.1-.723-.299l-3.724-3.72A1.023 1.023 0 1110.23.578l3.724 3.72a1.023 1.023 0 01-.723 1.746z"/><path d="M45.62 43.997c.396.403.39 1.05-.012 1.447l-.003.003a1.021 1.021 0 01-1.445-.014 1.025 1.025 0 011.46-1.436zm-28.416-8.22a1.023 1.023 0 11.46-1.937l.005.003a1.023 1.023 0 01-.465 1.934z"/></g><defs><clipPath id="clip0_2002_274"><path fill="#fff" transform="matrix(-1 0 0 1 52 0)" d="M0 0h52v52H0z"/></clipPath></defs></svg>