<svg width="63" height="63" fill="none" xmlns="http://www.w3.org/2000/svg"><rect x="7.875" y="15.75" width="47.25" height="39.375" rx="2" stroke="#33363F" stroke-width="2"/><path d="M7.875 19.75c0-1.886 0-2.828.586-3.414.586-.586 1.528-.586 3.414-.586h39.25c1.886 0 2.828 0 3.414.586.586.586.586 1.528.586 3.414v6.5H7.875v-6.5z" fill="#33363F"/><path d="M18.375 7.875v7.875m26.25-7.875v7.875" stroke="#33363F" stroke-width="2" stroke-linecap="round"/><rect x="18.375" y="31.5" width="10.5" height="5.25" rx=".5" fill="#33363F"/><rect x="18.375" y="42" width="10.5" height="5.25" rx=".5" fill="#33363F"/><rect x="34.125" y="31.5" width="10.5" height="5.25" rx=".5" fill="#33363F"/><rect x="34.125" y="42" width="10.5" height="5.25" rx=".5" fill="#33363F"/></svg>