<svg width="59" height="59" fill="none" xmlns="http://www.w3.org/2000/svg"><path d="M32.38 7.375H22.125c-4.636 0-6.953 0-8.393 1.44-1.44 1.44-1.44 3.758-1.44 8.393v24.584c0 4.635 0 6.953 1.44 8.393 1.44 1.44 3.758 1.44 8.393 1.44h14.75c4.636 0 6.953 0 8.393-1.44 1.44-1.44 1.44-3.758 1.44-8.393V21.703c0-1.005 0-1.507-.187-1.959-.187-.452-.542-.807-1.253-1.517l-9.411-9.412c-.71-.71-1.066-1.066-1.518-1.253-.452-.187-.954-.187-1.959-.187z" stroke="#33363F" stroke-width="2"/><path d="M22.125 31.958h14.75m-14.75 9.834h9.833" stroke="#33363F" stroke-width="2" stroke-linecap="round"/><path d="M31.958 7.375v9.833c0 2.318 0 3.477.72 4.197.72.72 1.88.72 4.197.72h9.833" stroke="#33363F" stroke-width="2"/></svg>