<svg width="23" height="21" fill="none" xmlns="http://www.w3.org/2000/svg"><path d="M11.825 3.751c3.653.036 5.942-.191 6.25 3.858h4.456c0-6.273-5.471-7.118-10.822-7.118C6.357.49.887 1.336.887 7.609h4.42c.342-4.126 2.895-3.893 6.518-3.858zm-8.73 5.875c1.085 0 1.988.065 2.188-1.002.027-.146.043-.31.043-.5H.863c0 1.588 1 1.502 2.232 1.502zm15.009-1.502h-.041c0 .191.016.356.047.5.211.984 1.113.923 2.194.923 1.239 0 2.242.081 2.242-1.423h-4.442zm-2.451.637v-.63c0-.283-.325-.3-.727-.3h-.656c-.4 0-.726.017-.726.3v.964H8.905V8.13c0-.282-.325-.3-.726-.3h-.656c-.401 0-.726.018-.726.3v1.181c-1.057 1.099-4.515 5.774-4.64 6.34v3.776c0 .349.285.633.634.633h16.868a.633.633 0 00.633-.633v-3.795c-.125-.55-3.582-5.223-4.64-6.32V8.76zM8.677 16.16a.615.615 0 110-1.23.615.615 0 010 1.23zm0-2.109a.615.615 0 110-1.23.615.615 0 010 1.23zm0-2.108a.615.615 0 110-1.23.615.615 0 010 1.23zm2.53 4.217a.615.615 0 110-1.23.615.615 0 010 1.23zm0-2.109a.615.615 0 110-1.23.615.615 0 010 1.23zm0-2.108a.615.615 0 110-1.23.615.615 0 010 1.23zm2.53 4.217a.615.615 0 110-1.23.615.615 0 010 1.23zm0-2.109a.615.615 0 110-1.229.615.615 0 010 1.23zm0-2.108a.614.614 0 110-1.229.614.614 0 010 1.229z" fill="#fff"/></svg>