<svg width="24" height="25" fill="none" xmlns="http://www.w3.org/2000/svg"><path d="M2 7.5v14c0 .83.94 1.3 1.6.8l1.71-1.28c.4-.3.96-.26 1.32.1l1.66 1.67c.39.39 1.03.39 1.42 0l1.68-1.68c.35-.35.91-.39 1.3-.09l1.71 1.28c.66.49 1.6.02 1.6-.8v-17c0-1.1.9-2 2-2H6c-3 0-4 1.79-4 4v1z" fill="#292D32"/><path d="M18.01 2.5V4c.66 0 1.29.27 1.75.72.48.49.74 1.12.74 1.78v2.42c0 .74-.33 1.08-1.08 1.08H17.5V4.51c0-.28.23-.51.51-.51V2.5zm0 0C16.9 2.5 16 3.4 16 4.51v6.99h3.42c1.58 0 2.58-1 2.58-2.58V6.5c0-1.1-.45-2.1-1.17-2.83a4.044 4.044 0 00-2.82-1.17c.01 0 0 0 0 0z" fill="#292D32"/></svg>